<svg width="278" height="242" viewBox="0 0 278 242" fill="none" xmlns="http://www.w3.org/2000/svg">
<g clip-path="url(#clip0_387_1339)">
<path d="M28.4098 89.5834C38.8045 89.5834 47.2311 81.5092 47.2311 71.5493C47.2311 61.5893 38.8045 53.5152 28.4098 53.5152C18.0152 53.5152 9.58864 61.5893 9.58864 71.5493C9.58864 81.5092 18.0152 89.5834 28.4098 89.5834Z" fill="white" stroke="#C2B03A" stroke-width="0.553193" stroke-miterlimit="10" stroke-linecap="round" stroke-linejoin="round"/>
<path d="M25.1537 67.0242L22.4171 64.8557L21.4702 64.1144C22.9367 60.9059 25.2345 58.8812 26.978 59.4123C29.0103 60.0318 29.5414 63.8599 28.1789 67.9535C26.8164 72.0472 24.0683 74.8685 22.036 74.2489C20.2809 73.7178 19.6459 70.7859 20.3848 67.3561L21.6088 67.2676L25.1537 67.0242Z" fill="#C2B03A"/>
<path d="M34.9915 70.0335L32.2549 67.865L31.3081 67.1237C32.7745 63.9152 35.0723 61.8905 36.8159 62.4216C38.8481 63.0412 39.3793 66.8693 38.0167 70.9629C36.6542 75.0565 33.9061 77.8778 31.8739 77.2582C30.1188 76.7272 29.4837 73.7952 30.2227 70.3654L31.4466 70.2769L34.9915 70.0335Z" fill="#C2B03A"/>
<path d="M204.948 54.3782L275.51 60.4965C276.781 60.6071 277.716 61.6803 277.6 62.8974L266.296 182.531C266.181 183.748 265.061 184.644 263.79 184.533L193.228 178.415C191.958 178.304 191.023 177.231 191.138 176.014L202.443 56.3807C202.558 55.1637 203.678 54.2676 204.948 54.3782Z" fill="white" stroke="#C2B03A" stroke-width="0.553193" stroke-miterlimit="10" stroke-linecap="round" stroke-linejoin="round"/>
<path d="M227.024 90.7832L202.289 88.6381L201.877 92.9904L226.613 95.1355L227.024 90.7832Z" fill="#C2B03A" stroke="#C2B03A" stroke-width="0.553193" stroke-miterlimit="10" stroke-linecap="round" stroke-linejoin="round"/>
<path d="M271.695 94.6577L229.044 90.9589L228.632 95.3112L271.284 99.0101L271.695 94.6577Z" fill="#C2B03A" stroke="#C2B03A" stroke-width="0.553193" stroke-miterlimit="10" stroke-linecap="round" stroke-linejoin="round"/>
<path d="M237.555 98.0366L201.7 94.9272L201.288 99.2795L237.144 102.389L237.555 98.0366Z" fill="white" stroke="#C2B03A" stroke-width="0.553193" stroke-miterlimit="10" stroke-linecap="round" stroke-linejoin="round"/>
<path d="M234.95 89.5199L271.898 92.7241L272.309 88.3718L235.361 85.1676L234.95 89.5199Z" fill="#C2B03A" stroke="#C2B03A" stroke-width="0.553193" stroke-miterlimit="10" stroke-linecap="round" stroke-linejoin="round"/>
<path d="M202.485 86.7052L232.936 89.3459L233.347 84.9936L202.896 82.3529L202.485 86.7052Z" fill="#C2B03A" stroke="#C2B03A" stroke-width="0.553193" stroke-miterlimit="10" stroke-linecap="round" stroke-linejoin="round"/>
<path d="M274.669 63.1991L241.068 60.2851L240.657 64.6374L274.258 67.5514L274.669 63.1991Z" fill="#C2B03A" stroke="#C2B03A" stroke-width="0.553193" stroke-miterlimit="10" stroke-linecap="round" stroke-linejoin="round"/>
<path d="M229.403 65.6138L204.668 63.4688L204.256 67.8211L228.992 69.9662L229.403 65.6138Z" fill="#C2B03A" stroke="#C2B03A" stroke-width="0.553193" stroke-miterlimit="10" stroke-linecap="round" stroke-linejoin="round"/>
<path d="M274.074 69.4884L231.422 65.7896L231.011 70.1419L273.663 73.8407L274.074 69.4884Z" fill="#C2B03A" stroke="#C2B03A" stroke-width="0.553193" stroke-miterlimit="10" stroke-linecap="round" stroke-linejoin="round"/>
<path d="M239.921 72.8773L204.066 69.7678L203.655 74.1201L239.51 77.2296L239.921 72.8773Z" fill="#C2B03A" stroke="#C2B03A" stroke-width="0.553193" stroke-miterlimit="10" stroke-linecap="round" stroke-linejoin="round"/>
<path d="M273.473 75.7839L242.287 73.0793L241.876 77.4317L273.062 80.1362L273.473 75.7839Z" fill="white" stroke="#C2B03A" stroke-width="0.553193" stroke-miterlimit="10" stroke-linecap="round" stroke-linejoin="round"/>
<path d="M220.112 77.4989L203.473 76.0558L203.062 80.4082L219.701 81.8512L220.112 77.4989Z" fill="white" stroke="#C2B03A" stroke-width="0.553193" stroke-miterlimit="10" stroke-linecap="round" stroke-linejoin="round"/>
<path d="M272.892 82.075L256.874 80.6859L256.463 85.0382L272.481 86.4273L272.892 82.075Z" fill="#C2B03A" stroke="#C2B03A" stroke-width="0.553193" stroke-miterlimit="10" stroke-linecap="round" stroke-linejoin="round"/>
<path d="M254.846 80.5081L222.13 77.671L221.719 82.0233L254.435 84.8605L254.846 80.5081Z" fill="#C2B03A" stroke="#C2B03A" stroke-width="0.553193" stroke-miterlimit="10" stroke-linecap="round" stroke-linejoin="round"/>
<path d="M216.268 173.256L194.477 171.367L194.065 175.719L215.857 177.609L216.268 173.256Z" fill="white" stroke="#C2B03A" stroke-width="0.553193" stroke-miterlimit="10" stroke-linecap="round" stroke-linejoin="round"/>
<path d="M240.077 175.314L218.286 173.424L217.875 177.777L239.666 179.666L240.077 175.314Z" fill="white" stroke="#C2B03A" stroke-width="0.553193" stroke-miterlimit="10" stroke-linecap="round" stroke-linejoin="round"/>
<path d="M263.886 177.383L242.094 175.493L241.683 179.845L263.475 181.735L263.886 177.383Z" fill="white" stroke="#C2B03A" stroke-width="0.553193" stroke-miterlimit="10" stroke-linecap="round" stroke-linejoin="round"/>
<path d="M239.106 60.112L205.264 57.1771L204.852 61.5294L238.695 64.4643L239.106 60.112Z" fill="#C2B03A" stroke="#C2B03A" stroke-width="0.553193" stroke-miterlimit="10" stroke-linecap="round" stroke-linejoin="round"/>
<path d="M208.274 202.678C198.205 206.739 191.023 214.616 187.79 223.821C196.923 228.025 207.812 228.612 217.881 224.54C227.949 220.48 235.131 212.602 238.364 203.397C229.243 199.182 218.342 198.607 208.274 202.678Z" fill="white" stroke="#C2B03A" stroke-width="0.553193" stroke-miterlimit="10" stroke-linecap="round" stroke-linejoin="round"/>
<path d="M213.978 213.244L216.957 210.567L218.458 209.228C215.964 205.123 211.969 202.877 208.897 204.116C205.399 205.533 204.44 210.921 206.738 216.165C209.047 221.409 213.747 224.518 217.245 223.102C220.317 221.863 221.437 217.559 220.098 212.979L218.054 213.067L213.978 213.244Z" fill="#C2B03A"/>
<path d="M172.098 135.388H91.4551C89.7 135.388 88.2682 134.016 88.2682 132.334V112.397C88.2682 110.715 89.7 109.343 91.4551 109.343H172.098C173.853 109.343 175.285 110.715 175.285 112.397V132.334C175.285 134.027 173.864 135.388 172.098 135.388Z" fill="#C2B03A"/>
<path d="M182.213 102.705H81.3402V142.026H182.213V102.705Z" stroke="#C2B03A" stroke-width="0.553193" stroke-miterlimit="10" stroke-linecap="round" stroke-linejoin="round" stroke-dasharray="1.11 1.11"/>
<path d="M183.598 140.698H180.827V143.354H183.598V140.698Z" fill="white" stroke="#C2B03A" stroke-width="0.553193" stroke-miterlimit="10" stroke-linecap="round" stroke-linejoin="round"/>
<path d="M183.598 101.377H180.827V104.033H183.598V101.377Z" fill="white" stroke="#C2B03A" stroke-width="0.553193" stroke-miterlimit="10" stroke-linecap="round" stroke-linejoin="round"/>
<path d="M82.7258 140.698H79.9546V143.354H82.7258V140.698Z" fill="white" stroke="#C2B03A" stroke-width="0.553193" stroke-miterlimit="10" stroke-linecap="round" stroke-linejoin="round"/>
<path d="M82.7258 101.377H79.9545V104.033H82.7258V101.377Z" fill="white" stroke="#C2B03A" stroke-width="0.553193" stroke-miterlimit="10" stroke-linecap="round" stroke-linejoin="round"/>
<path d="M59.6176 132.126L9.00354 147.625L25.1788 196.122L75.7929 180.624L59.6176 132.126Z" fill="white" stroke="#C2B03A" stroke-width="0.553193" stroke-miterlimit="10" stroke-linecap="round" stroke-linejoin="round"/>
<path d="M8.99976 147.624L75.7862 180.628" stroke="#C2B03A" stroke-width="0.553193" stroke-miterlimit="10" stroke-linecap="round" stroke-linejoin="round"/>
<path d="M59.6092 132.135L25.1767 196.128" stroke="#C2B03A" stroke-width="0.553193" stroke-miterlimit="10" stroke-linecap="round" stroke-linejoin="round"/>
<path d="M87.0905 217.415L64.5281 224.319C64.0431 224.463 63.5235 224.208 63.3619 223.744L61.2719 217.471C61.1218 217.006 61.3874 216.508 61.8723 216.353L84.4347 209.449C84.9197 209.305 85.4393 209.56 85.6009 210.025L87.6909 216.298C87.841 216.762 87.5754 217.26 87.0905 217.415Z" fill="#C2B03A" stroke="#C2B03A" stroke-width="0.553193" stroke-miterlimit="10" stroke-linecap="round" stroke-linejoin="round"/>
<path d="M60.7985 225.459L38.2361 232.373C37.7512 232.517 37.2316 232.263 37.0699 231.798L34.9799 225.525C34.8298 225.06 35.0954 224.562 35.5804 224.407L58.1427 217.504C58.6277 217.36 59.1473 217.614 59.309 218.079L61.3989 224.352C61.549 224.817 61.2835 225.315 60.7985 225.459Z" stroke="#C2B03A" stroke-width="0.553193" stroke-miterlimit="10" stroke-linecap="round" stroke-linejoin="round"/>
<path d="M69.2911 192.378L28.1245 204.984L29.186 208.167L70.3525 195.561L69.2911 192.378Z" fill="#C2B03A" stroke="#C2B03A" stroke-width="0.553193" stroke-miterlimit="10" stroke-linecap="round" stroke-linejoin="round"/>
<path d="M67.7557 198.551L29.8556 210.157L30.9171 213.339L68.8172 201.734L67.7557 198.551Z" fill="#C2B03A" stroke="#C2B03A" stroke-width="0.553193" stroke-miterlimit="10" stroke-linecap="round" stroke-linejoin="round"/>
<path d="M32.1395 217.006L68.2115 205.964" stroke="#C2B03A" stroke-width="0.553193" stroke-miterlimit="10" stroke-linecap="round" stroke-linejoin="round"/>
<path d="M32.9477 219.407L70.8442 207.801" stroke="#C2B03A" stroke-width="0.553193" stroke-miterlimit="10" stroke-linecap="round" stroke-linejoin="round"/>
<path d="M34.1717 239.421L33.6174 239.598L33.4442 239.067" stroke="#C2B03A" stroke-width="0.553193" stroke-linecap="round" stroke-linejoin="round"/>
<path d="M32.7283 236.943L2.27953 145.633" stroke="#C2B03A" stroke-width="0.553193" stroke-linecap="round" stroke-linejoin="round" stroke-dasharray="1.11 1.11"/>
<path d="M1.92159 144.571L1.74839 144.04L2.29109 143.874" stroke="#C2B03A" stroke-width="0.553193" stroke-linecap="round" stroke-linejoin="round"/>
<path d="M4.46188 143.21L61.7222 125.674" stroke="#C2B03A" stroke-width="0.553193" stroke-linecap="round" stroke-linejoin="round" stroke-dasharray="1.09 1.09"/>
<path d="M62.8076 125.342L63.3503 125.176L63.5351 125.707" stroke="#C2B03A" stroke-width="0.553193" stroke-linecap="round" stroke-linejoin="round"/>
<path d="M64.2394 127.831L94.6998 219.141" stroke="#C2B03A" stroke-width="0.553193" stroke-linecap="round" stroke-linejoin="round" stroke-dasharray="1.11 1.11"/>
<path d="M95.0462 220.203L95.2309 220.723L94.6767 220.889" stroke="#C2B03A" stroke-width="0.553193" stroke-linecap="round" stroke-linejoin="round"/>
<path d="M92.5174 221.553L35.2455 239.089" stroke="#C2B03A" stroke-width="0.553193" stroke-linecap="round" stroke-linejoin="round" stroke-dasharray="1.09 1.09"/>
<path d="M64.2413 123.506L61.6017 124.314L62.4453 126.843L65.0849 126.035L64.2413 123.506Z" fill="white" stroke="#C2B03A" stroke-width="0.553193" stroke-miterlimit="10" stroke-linecap="round" stroke-linejoin="round"/>
<path d="M2.63959 142.365L0 143.174L0.84356 145.703L3.48315 144.895L2.63959 142.365Z" fill="white" stroke="#C2B03A" stroke-width="0.553193" stroke-miterlimit="10" stroke-linecap="round" stroke-linejoin="round"/>
<path d="M96.1057 219.051L93.4662 219.86L94.3097 222.389L96.9493 221.581L96.1057 219.051Z" fill="white" stroke="#C2B03A" stroke-width="0.553193" stroke-miterlimit="10" stroke-linecap="round" stroke-linejoin="round"/>
<path d="M34.504 237.911L31.8644 238.719L32.708 241.248L35.3476 240.44L34.504 237.911Z" fill="white" stroke="#C2B03A" stroke-width="0.553193" stroke-miterlimit="10" stroke-linecap="round" stroke-linejoin="round"/>
<path d="M112.944 74.3263L114.964 80.3893C115.357 81.551 114.687 82.8012 113.463 83.1663L62.4266 98.7995C61.2142 99.1757 59.9094 98.534 59.5284 97.3612L57.5077 91.2983C57.1151 90.1365 57.7848 88.8863 59.0087 88.5212L110.057 72.888C111.258 72.5229 112.563 73.1646 112.944 74.3263Z" fill="white" stroke="#C2B03A" stroke-width="0.553193" stroke-miterlimit="10" stroke-linecap="round" stroke-linejoin="round"/>
<path d="M112.392 80.8161L110.655 75.6102L105.222 77.2739L106.959 82.4798L112.392 80.8161Z" fill="white" stroke="#C2B03A" stroke-width="0.553193" stroke-miterlimit="10" stroke-linecap="round" stroke-linejoin="round"/>
<path d="M104.94 83.0934L103.204 77.8875L97.7705 79.5512L99.5068 84.7571L104.94 83.0934Z" fill="#C2B03A" stroke="#C2B03A" stroke-width="0.553193" stroke-miterlimit="10" stroke-linecap="round" stroke-linejoin="round"/>
<path d="M97.4805 85.3847L95.7442 80.1788L90.3111 81.8425L92.0474 87.0484L97.4805 85.3847Z" fill="white" stroke="#C2B03A" stroke-width="0.553193" stroke-miterlimit="10" stroke-linecap="round" stroke-linejoin="round"/>
<path d="M90.0286 87.6621L88.2923 82.4562L82.8592 84.1199L84.5955 89.3258L90.0286 87.6621Z" fill="#C2B03A" stroke="#C2B03A" stroke-width="0.553193" stroke-miterlimit="10" stroke-linecap="round" stroke-linejoin="round"/>
<path d="M82.5768 89.9394L80.8405 84.7335L75.4073 86.3972L77.1436 91.6032L82.5768 89.9394Z" fill="#C2B03A" stroke="#C2B03A" stroke-width="0.553193" stroke-miterlimit="10" stroke-linecap="round" stroke-linejoin="round"/>
<path d="M75.1174 92.2307L73.3811 87.0248L67.9479 88.6885L69.6842 93.8944L75.1174 92.2307Z" fill="white" stroke="#C2B03A" stroke-width="0.553193" stroke-miterlimit="10" stroke-linecap="round" stroke-linejoin="round"/>
<path d="M67.6655 94.5081L65.9292 89.3021L60.496 90.9658L62.2323 96.1718L67.6655 94.5081Z" fill="#C2B03A" stroke="#C2B03A" stroke-width="0.553193" stroke-miterlimit="10" stroke-linecap="round" stroke-linejoin="round"/>
<path d="M75.0126 2.63256L114.295 10.3441C115.542 10.5875 116.35 11.7602 116.096 12.9551L107.701 52.1986C107.447 53.3935 106.223 54.168 104.976 53.9246L65.6943 46.2131C64.4473 45.9697 63.639 44.7969 63.893 43.602L72.2875 4.35852C72.5416 3.15256 73.754 2.37809 75.0126 2.63256Z" fill="white" stroke="#C2B03A" stroke-width="0.553193" stroke-miterlimit="10" stroke-linecap="round" stroke-linejoin="round"/>
<path d="M71.7333 44.642L67.23 43.7569C66.9645 43.7016 66.8028 43.4582 66.849 43.2037L67.715 39.1322C67.7727 38.8777 68.0268 38.7228 68.2923 38.7671L72.7956 39.6522C73.0611 39.7075 73.2228 39.9509 73.1766 40.2054L72.3106 44.2769C72.2529 44.5314 71.9873 44.6863 71.7333 44.642Z" fill="#C2B03A" stroke="#C2B03A" stroke-width="0.553193" stroke-miterlimit="10" stroke-linecap="round" stroke-linejoin="round"/>
<path d="M79.943 46.2463L75.4398 45.3611C75.1742 45.3058 75.0125 45.0624 75.0587 44.808L75.9247 40.7365C75.9825 40.482 76.2365 40.3271 76.5021 40.3713L81.0053 41.2565C81.2709 41.3118 81.4325 41.5552 81.3864 41.8097L80.5203 45.8811C80.4626 46.1356 80.2086 46.3016 79.943 46.2463Z" fill="white" stroke="#C2B03A" stroke-width="0.553193" stroke-miterlimit="10" stroke-linecap="round" stroke-linejoin="round"/>
<path d="M88.1527 47.8615L83.6495 46.9764C83.3839 46.9211 83.2223 46.6777 83.2685 46.4232L84.1345 42.3518C84.1922 42.0973 84.4462 41.9424 84.7118 41.9866L89.215 42.8718C89.4806 42.9271 89.6423 43.1705 89.5961 43.4249L88.7301 47.4964C88.6723 47.7509 88.4183 47.9169 88.1527 47.8615Z" fill="#C2B03A" stroke="#C2B03A" stroke-width="0.553193" stroke-miterlimit="10" stroke-linecap="round" stroke-linejoin="round"/>
<path d="M96.3625 49.4769L91.8593 48.5918C91.5937 48.5365 91.432 48.2931 91.4782 48.0386L92.3442 43.9671C92.402 43.7126 92.656 43.5577 92.9216 43.602L97.4248 44.4871C97.6904 44.5424 97.852 44.7858 97.8058 45.0403L96.9398 49.1118C96.8821 49.3663 96.6281 49.5212 96.3625 49.4769Z" fill="#C2B03A" stroke="#C2B03A" stroke-width="0.553193" stroke-miterlimit="10" stroke-linecap="round" stroke-linejoin="round"/>
<path d="M104.572 51.0812L100.069 50.1961C99.8034 50.1407 99.6418 49.8973 99.688 49.6429L100.554 45.5714C100.612 45.3169 100.866 45.162 101.131 45.2062L105.635 46.0914C105.9 46.1467 106.062 46.3901 106.016 46.6445L105.15 50.7161C105.092 50.9705 104.838 51.1365 104.572 51.0812Z" fill="white" stroke="#C2B03A" stroke-width="0.553193" stroke-miterlimit="10" stroke-linecap="round" stroke-linejoin="round"/>
<path d="M68.6387 34.7952L106.939 42.3186" stroke="#C2B03A" stroke-width="0.553193" stroke-miterlimit="10" stroke-linecap="round" stroke-linejoin="round"/>
<path d="M69.2507 31.9407L107.551 39.4641" stroke="#C2B03A" stroke-width="0.553193" stroke-miterlimit="10" stroke-linecap="round" stroke-linejoin="round"/>
<path d="M96.8244 36.322L96.3971 38.3024" stroke="#C2B03A" stroke-width="0.553193" stroke-miterlimit="10" stroke-linecap="round" stroke-linejoin="round"/>
<path d="M79.7929 35.9568L79.3657 37.9373" stroke="#C2B03A" stroke-width="0.553193" stroke-miterlimit="10" stroke-linecap="round" stroke-linejoin="round"/>
<path d="M113.036 12.933L75.2319 5.50912C75.0587 5.47593 74.8855 5.58657 74.8509 5.75253L70.1398 27.8028C70.1052 27.9687 70.2206 28.1347 70.3938 28.1679L108.198 35.5917C108.371 35.6249 108.544 35.5143 108.579 35.3483L113.29 13.2981C113.325 13.1321 113.209 12.9772 113.036 12.933Z" fill="white" stroke="#C2B03A" stroke-width="0.553193" stroke-miterlimit="10" stroke-linecap="round" stroke-linejoin="round"/>
<path d="M212.142 114.112C213.701 113.017 213.239 110.671 211.368 110.195L199.117 107.053L182.224 102.716L186.751 118.903L190.03 130.641C190.526 132.434 192.974 132.876 194.117 131.383L199.556 124.302L207.893 132.29L213.077 127.322L204.74 119.334L212.142 114.112Z" fill="#C2B03A"/>
<path d="M120.761 170.781L158.288 166.057C159.558 165.902 160.713 166.754 160.874 167.96L165.805 203.917C165.966 205.134 165.077 206.241 163.819 206.396L126.292 211.12C125.022 211.275 123.867 210.423 123.705 209.217L118.775 173.259C118.602 172.053 119.491 170.947 120.761 170.781Z" fill="white" stroke="#C2B03A" stroke-width="0.553193" stroke-miterlimit="10" stroke-linecap="round" stroke-linejoin="round"/>
<path d="M158.417 168.918L121.404 173.575L126.158 208.262L163.171 203.605L158.417 168.918Z" stroke="#C2B03A" stroke-width="0.553193" stroke-miterlimit="10" stroke-linecap="round" stroke-linejoin="round"/>
<path d="M145.856 184.247L137.682 185.275L138.731 192.932L146.905 191.904L145.856 184.247Z" stroke="#C2B03A" stroke-width="0.553193" stroke-miterlimit="10" stroke-linecap="round" stroke-linejoin="round"/>
<path d="M152.353 176.332L129.272 179.236L132.236 200.858L155.316 197.954L152.353 176.332Z" stroke="#C2B03A" stroke-width="0.553193" stroke-miterlimit="10" stroke-linecap="round" stroke-linejoin="round"/>
<path d="M126.153 208.265L138.716 192.942" stroke="#C2B03A" stroke-width="0.553193" stroke-miterlimit="10" stroke-linecap="round" stroke-linejoin="round"/>
<path d="M137.677 185.286L121.396 173.58" stroke="#C2B03A" stroke-width="0.553193" stroke-miterlimit="10" stroke-linecap="round" stroke-linejoin="round"/>
<path d="M145.852 184.257L158.415 168.922" stroke="#C2B03A" stroke-width="0.553193" stroke-miterlimit="10" stroke-linecap="round" stroke-linejoin="round"/>
<path d="M146.891 191.913L163.172 203.607" stroke="#C2B03A" stroke-width="0.553193" stroke-miterlimit="10" stroke-linecap="round" stroke-linejoin="round"/>
<path d="M165.408 160.272L112.332 166.95L119.179 216.907L172.254 210.229L165.408 160.272Z" stroke="#C2B03A" stroke-width="0.553193" stroke-miterlimit="10" stroke-linecap="round" stroke-linejoin="round" stroke-dasharray="1.11 1.11"/>
<path d="M173.452 208.74L170.704 209.085L171.065 211.718L173.812 211.372L173.452 208.74Z" fill="white" stroke="#C2B03A" stroke-width="0.553193" stroke-miterlimit="10" stroke-linecap="round" stroke-linejoin="round"/>
<path d="M166.603 158.787L163.855 159.132L164.216 161.765L166.964 161.419L166.603 158.787Z" fill="white" stroke="#C2B03A" stroke-width="0.553193" stroke-miterlimit="10" stroke-linecap="round" stroke-linejoin="round"/>
<path d="M120.372 215.425L117.624 215.771L117.985 218.403L120.733 218.058L120.372 215.425Z" fill="white" stroke="#C2B03A" stroke-width="0.553193" stroke-miterlimit="10" stroke-linecap="round" stroke-linejoin="round"/>
<path d="M113.522 165.461L110.774 165.806L111.135 168.439L113.883 168.093L113.522 165.461Z" fill="white" stroke="#C2B03A" stroke-width="0.553193" stroke-miterlimit="10" stroke-linecap="round" stroke-linejoin="round"/>
<path d="M165.424 43.2258L139.975 46.4233C138.704 46.5782 137.815 47.6956 137.989 48.9016L140.379 66.3161C140.54 67.5331 141.707 68.385 142.965 68.2191L168.414 65.0216C169.684 64.8667 170.573 63.7493 170.4 62.5433L168.022 45.1288C167.848 43.9228 166.694 43.0709 165.424 43.2258Z" fill="white" stroke="#C2B03A" stroke-width="0.553193" stroke-miterlimit="10" stroke-linecap="round" stroke-linejoin="round"/>
<path d="M157.406 50.6354L145.224 52.1681L146.824 63.84L159.005 62.3073L157.406 50.6354Z" fill="#C2B03A" stroke="#C2B03A" stroke-width="0.553193" stroke-miterlimit="10" stroke-linecap="round" stroke-linejoin="round"/>
<path d="M154.495 48.4898L142.313 50.0225L143.913 61.6943L156.094 60.1616L154.495 48.4898Z" fill="white" stroke="#C2B03A" stroke-width="0.553193" stroke-miterlimit="10" stroke-linecap="round" stroke-linejoin="round"/>
<path d="M164.148 47.2797L160.381 47.7536L160.876 51.3627L164.643 50.8887L164.148 47.2797Z" fill="#C2B03A" stroke="#C2B03A" stroke-width="0.553193" stroke-miterlimit="10" stroke-linecap="round" stroke-linejoin="round"/>
<path d="M164.865 52.5468L161.098 53.0207L161.593 56.6298L165.359 56.1558L164.865 52.5468Z" fill="#C2B03A" stroke="#C2B03A" stroke-width="0.553193" stroke-miterlimit="10" stroke-linecap="round" stroke-linejoin="round"/>
<path d="M165.592 57.8123L161.826 58.2863L162.321 61.8953L166.087 61.4214L165.592 57.8123Z" fill="#C2B03A" stroke="#C2B03A" stroke-width="0.553193" stroke-miterlimit="10" stroke-linecap="round" stroke-linejoin="round"/>
<path d="M173.752 35.4333L129.95 40.9447L134.631 75.1047L178.434 69.5933L173.752 35.4333Z" stroke="#C2B03A" stroke-width="0.553193" stroke-miterlimit="10" stroke-linecap="round" stroke-linejoin="round" stroke-dasharray="1.11 1.11"/>
<path d="M179.634 68.1058L176.887 68.4515L177.247 71.0843L179.995 70.7386L179.634 68.1058Z" fill="white" stroke="#C2B03A" stroke-width="0.553193" stroke-miterlimit="10" stroke-linecap="round" stroke-linejoin="round"/>
<path d="M174.946 33.9525L172.199 34.2982L172.559 36.931L175.307 36.5852L174.946 33.9525Z" fill="white" stroke="#C2B03A" stroke-width="0.553193" stroke-miterlimit="10" stroke-linecap="round" stroke-linejoin="round"/>
<path d="M135.826 73.618L133.078 73.9637L133.439 76.5965L136.187 76.2508L135.826 73.618Z" fill="white" stroke="#C2B03A" stroke-width="0.553193" stroke-miterlimit="10" stroke-linecap="round" stroke-linejoin="round"/>
<path d="M131.149 39.4632L128.402 39.809L128.762 42.4417L131.51 42.096L131.149 39.4632Z" fill="white" stroke="#C2B03A" stroke-width="0.553193" stroke-miterlimit="10" stroke-linecap="round" stroke-linejoin="round"/>
<path d="M232.545 36.6428L229.6 42.9382C229.081 44.0556 227.707 44.5535 226.552 44.0556L175.054 21.8947C173.887 21.3968 173.368 20.0803 173.887 18.9739L176.832 12.6785C177.351 11.5611 178.725 11.0632 179.88 11.5611L231.379 33.722C232.545 34.2199 233.065 35.5254 232.545 36.6428Z" fill="white" stroke="#C2B03A" stroke-width="0.553193" stroke-miterlimit="10"/>
<path d="M227.298 41.4384L229.748 36.2099L216.791 30.6358L214.341 35.8643L227.298 41.4384Z" fill="white" stroke="#C2B03A" stroke-width="0.553193" stroke-miterlimit="10"/>
<path d="M212.324 34.9907L214.774 29.7622L201.817 24.1881L199.367 29.4166L212.324 34.9907Z" fill="#C2B03A" stroke="#C2B03A" stroke-width="0.553193" stroke-miterlimit="10"/>
<path d="M197.338 28.5455L199.788 23.317L194.331 20.9696L191.882 26.198L197.338 28.5455Z" fill="white" stroke="#C2B03A" stroke-width="0.553193" stroke-miterlimit="10"/>
<path d="M189.856 25.3239L192.306 20.0955L186.85 17.748L184.4 22.9765L189.856 25.3239Z" fill="#C2B03A" stroke="#C2B03A" stroke-width="0.553193" stroke-miterlimit="10"/>
<path d="M182.359 22.1078L184.809 16.8794L179.353 14.5319L176.903 19.7604L182.359 22.1078Z" fill="white" stroke="#C2B03A" stroke-width="0.553193" stroke-miterlimit="10"/>
<path d="M247.255 161.985C253.008 161.985 257.671 157.517 257.671 152.006C257.671 146.494 253.008 142.026 247.255 142.026C241.503 142.026 236.84 146.494 236.84 152.006C236.84 157.517 241.503 161.985 247.255 161.985Z" fill="white" stroke="#C2B03A" stroke-width="0.553193" stroke-miterlimit="10" stroke-linecap="round" stroke-linejoin="round"/>
<path d="M257.671 152.393C257.521 156.066 255.315 159.219 252.117 160.835" stroke="#C2B03A" stroke-width="0.553193" stroke-miterlimit="10"/>
<path d="M242.394 143.177C243.849 142.446 245.5 142.026 247.255 142.026C249.299 142.026 251.204 142.59 252.809 143.564" stroke="#C2B03A" stroke-width="0.553193" stroke-miterlimit="10"/>
<path d="M241.702 160.458C238.78 158.688 236.84 155.568 236.84 152.017C236.84 151.884 236.84 151.762 236.852 151.629" stroke="#C2B03A" stroke-width="0.553193" stroke-miterlimit="10"/>
<path d="M257.671 152.393C257.671 152.393 251.447 147.315 247.255 152.006C245.108 146.186 252.809 143.564 252.809 143.564C255.731 145.334 257.671 148.454 257.671 152.006C257.671 152.138 257.671 152.271 257.671 152.393Z" fill="#C2B03A" stroke="#C2B03A" stroke-width="0.553193" stroke-miterlimit="10" stroke-linecap="round" stroke-linejoin="round"/>
<path d="M236.852 151.618C236.852 151.618 243.076 156.697 247.267 152.006C240.928 150.877 242.406 143.177 242.406 143.177C239.207 144.792 236.99 147.956 236.852 151.618Z" fill="#C2B03A" stroke="#C2B03A" stroke-width="0.553193" stroke-miterlimit="10" stroke-linecap="round" stroke-linejoin="round"/>
<path d="M252.117 160.846C250.662 161.576 249.011 161.996 247.255 161.996C245.212 161.996 243.307 161.432 241.702 160.458C241.702 160.458 249.403 157.836 247.255 152.017C253.595 153.134 252.117 160.846 252.117 160.846Z" fill="#C2B03A" stroke="#C2B03A" stroke-width="0.553193" stroke-miterlimit="10" stroke-linecap="round" stroke-linejoin="round"/>
<path d="M42.3814 33.0471L32.3704 23.4547" stroke="#C2B03A" stroke-width="0.553193" stroke-miterlimit="10" stroke-linecap="round" stroke-linejoin="round"/>
<path d="M45.1757 33.0581V26.6632" stroke="#C2B03A" stroke-width="0.553193" stroke-miterlimit="10" stroke-linecap="round" stroke-linejoin="round"/>
<path d="M42.4045 35.7245H35.7305" stroke="#C2B03A" stroke-width="0.553193" stroke-miterlimit="10" stroke-linecap="round" stroke-linejoin="round"/>
<path d="M95.4618 155.469C96.12 157.549 97.8174 159.175 99.9766 159.795C97.8058 160.425 96.1085 162.052 95.4618 164.121C94.8037 162.041 93.1063 160.425 90.9471 159.795C93.1063 159.175 94.8037 157.549 95.4618 155.469Z" fill="#C2B03A"/>
<path d="M161.336 82.9561C161.994 85.0361 163.692 86.6625 165.851 87.2821C163.68 87.9127 161.983 89.5391 161.336 91.6081C160.678 89.528 158.981 87.9127 156.821 87.2821C158.981 86.6625 160.678 85.0361 161.336 82.9561Z" fill="#C2B03A"/>
<path d="M68.2115 61.7689C68.8697 63.8489 70.5671 65.4753 72.7263 66.0948C70.5555 66.7255 68.8581 68.3519 68.2115 70.4208C67.5533 68.3408 65.856 66.7255 63.6967 66.0948C65.856 65.4642 67.5533 63.8489 68.2115 61.7689Z" fill="#C2B03A"/>
<path d="M252.809 116.026C253.329 117.675 254.68 118.969 256.401 119.467C254.68 119.965 253.329 121.259 252.809 122.908C252.29 121.259 250.939 119.965 249.218 119.467C250.939 118.969 252.29 117.675 252.809 116.026Z" fill="#C2B03A"/>
<path d="M163.23 233.568C163.749 235.217 165.1 236.511 166.821 237.009C165.1 237.507 163.749 238.802 163.23 240.45C162.71 238.802 161.359 237.507 159.639 237.009C161.359 236.511 162.71 235.217 163.23 233.568Z" fill="#C2B03A"/>
<path d="M225.317 0.751709C226.333 3.96023 228.954 6.47172 232.302 7.44534C228.954 8.41896 226.333 10.9305 225.317 14.139C224.301 10.9305 221.679 8.41896 218.331 7.44534C221.679 6.47172 224.301 3.96023 225.317 0.751709Z" fill="#C2B03A"/>
<path d="M255.673 39.0658L257.243 40.5705" stroke="#C2B03A" stroke-width="0.553193" stroke-miterlimit="10" stroke-linecap="round" stroke-linejoin="round"/>
<path d="M258.975 42.2411L260.557 43.7458" stroke="#C2B03A" stroke-width="0.553193" stroke-miterlimit="10" stroke-linecap="round" stroke-linejoin="round"/>
<path d="M260.557 39.0658L258.975 40.5705" stroke="#C2B03A" stroke-width="0.553193" stroke-miterlimit="10" stroke-linecap="round" stroke-linejoin="round"/>
<path d="M257.243 42.2411L255.673 43.7458" stroke="#C2B03A" stroke-width="0.553193" stroke-miterlimit="10" stroke-linecap="round" stroke-linejoin="round"/>
<path d="M142.515 8.69556L144.085 10.2002" stroke="#C2B03A" stroke-width="0.553193" stroke-miterlimit="10" stroke-linecap="round" stroke-linejoin="round"/>
<path d="M145.817 11.8598L147.388 13.3645" stroke="#C2B03A" stroke-width="0.553193" stroke-miterlimit="10" stroke-linecap="round" stroke-linejoin="round"/>
<path d="M147.388 8.69556L145.817 10.2002" stroke="#C2B03A" stroke-width="0.553193" stroke-miterlimit="10" stroke-linecap="round" stroke-linejoin="round"/>
<path d="M144.085 11.8598L142.515 13.3645" stroke="#C2B03A" stroke-width="0.553193" stroke-miterlimit="10" stroke-linecap="round" stroke-linejoin="round"/>
<path d="M185.353 192.101L186.924 193.606" stroke="#C2B03A" stroke-width="0.553193" stroke-miterlimit="10" stroke-linecap="round" stroke-linejoin="round"/>
<path d="M188.656 195.276L190.238 196.781" stroke="#C2B03A" stroke-width="0.553193" stroke-miterlimit="10" stroke-linecap="round" stroke-linejoin="round"/>
<path d="M190.238 192.101L188.656 193.606" stroke="#C2B03A" stroke-width="0.553193" stroke-miterlimit="10" stroke-linecap="round" stroke-linejoin="round"/>
<path d="M186.924 195.276L185.353 196.781" stroke="#C2B03A" stroke-width="0.553193" stroke-miterlimit="10" stroke-linecap="round" stroke-linejoin="round"/>
<path d="M27.4861 111.346L29.0565 112.851" stroke="#C2B03A" stroke-width="0.553193" stroke-miterlimit="10" stroke-linecap="round" stroke-linejoin="round"/>
<path d="M30.7885 114.521L32.3588 116.026" stroke="#C2B03A" stroke-width="0.553193" stroke-miterlimit="10" stroke-linecap="round" stroke-linejoin="round"/>
<path d="M32.3588 111.346L30.7885 112.851" stroke="#C2B03A" stroke-width="0.553193" stroke-miterlimit="10" stroke-linecap="round" stroke-linejoin="round"/>
<path d="M29.0565 114.521L27.4861 116.026" stroke="#C2B03A" stroke-width="0.553193" stroke-miterlimit="10" stroke-linecap="round" stroke-linejoin="round"/>
<path d="M106.847 225.923L108.417 227.428" stroke="#C2B03A" stroke-width="0.553193" stroke-miterlimit="10" stroke-linecap="round" stroke-linejoin="round"/>
<path d="M110.149 229.088L111.72 230.603" stroke="#C2B03A" stroke-width="0.553193" stroke-miterlimit="10" stroke-linecap="round" stroke-linejoin="round"/>
<path d="M111.72 225.923L110.149 227.428" stroke="#C2B03A" stroke-width="0.553193" stroke-miterlimit="10" stroke-linecap="round" stroke-linejoin="round"/>
<path d="M108.417 229.088L106.847 230.603" stroke="#C2B03A" stroke-width="0.553193" stroke-miterlimit="10" stroke-linecap="round" stroke-linejoin="round"/>
</g>
<defs>
<clipPath id="clip0_387_1339">
<rect width="277.61" height="240.497" fill="white" transform="translate(0 0.751709)"/>
</clipPath>
</defs>
</svg>
