<svg width="141" height="54" viewBox="0 0 141 54" fill="none" xmlns="http://www.w3.org/2000/svg">
<path d="M103.89 19.4363C103.89 21.6865 103.89 23.7291 103.89 25.7608C103.89 29.4855 103.901 33.2212 103.868 36.946C103.792 44.5266 99.3788 50.9056 92.1805 53.1776C83.0707 56.0503 73.6004 50.9602 71.2083 41.5992C69.9849 36.8149 70.7604 31.9105 70.6293 27.0606C70.6293 26.8203 70.7713 26.5254 70.9461 26.3506C73.087 24.2097 75.2389 22.0797 77.3907 19.9497C77.5109 19.9825 77.6419 20.0153 77.7621 20.048C77.7621 20.5068 77.7621 20.9765 77.7621 21.4353C77.7621 26.4817 77.7402 31.5281 77.7621 36.5746C77.7621 40.2666 79.0182 43.3906 82.3498 45.2912C89.0237 49.0924 96.6043 44.7013 96.7354 36.9132C96.8446 30.1409 96.7791 23.3686 96.7791 16.5854C96.7791 13.101 97.642 12.2053 101.094 12.2053C109.1 12.1835 117.096 12.1616 125.102 12.1616C130.63 12.1616 134.999 14.5101 137.839 19.2179C140.843 24.1988 140.711 29.3982 137.729 34.3463C135.337 38.3113 131.678 40.5833 127.036 41.0203C124.731 41.2387 122.404 41.1076 120.089 41.1622C119.324 41.1841 119.04 40.8783 119.051 40.1246C119.084 38.4424 119.106 36.7603 119.062 35.0781C119.04 34.2043 119.444 33.9968 120.22 34.0077C121.989 34.0295 123.77 34.0514 125.539 33.9749C128.598 33.8548 130.804 32.3146 132.093 29.5948C133.317 26.9951 133.033 24.4391 131.285 22.1453C129.767 20.1464 127.658 19.3708 125.201 19.3817C119.149 19.4036 113.109 19.4254 107.058 19.4473C106.064 19.4473 105.07 19.4473 103.89 19.4473V19.4363Z" fill="#E0E0E0"/>
<path d="M26.6752 19.8185C27.8659 20.9764 29.0565 22.1342 30.2471 23.2921C33.5568 26.4925 33.6332 26.5034 33.5021 31.1239C33.4038 34.6083 33.5021 38.1692 32.7812 41.5554C31.0991 49.5619 22.4808 55.1108 14.365 53.811C5.95427 52.4565 0.427213 46.427 0.16506 37.9071C-0.0534002 30.5013 0.0121363 23.0955 0.00121324 15.6896C0.00121324 13.4395 1.55228 11.9321 3.6495 11.9649C5.70303 11.9867 7.17764 13.5815 7.17764 15.8316C7.17764 22.6913 7.21041 29.551 7.17764 36.4215C7.16672 39.2725 7.86579 41.8503 9.9084 43.882C12.7921 46.7547 16.2765 47.5412 20.0668 46.1103C23.8134 44.7012 25.9543 41.8175 26.1073 37.8197C26.3148 32.6968 26.2165 27.552 26.2493 22.4182C26.2493 21.6099 26.2493 20.8016 26.2493 19.9933C26.3913 19.9387 26.5223 19.8841 26.6643 19.8295L26.6752 19.8185Z" fill="#E0E0E0"/>
<path d="M70.3783 48.5899C70.1271 50.283 69.3734 51.3972 68.0408 51.987C66.6208 52.6096 65.2117 52.5004 64.0211 51.3098C59.5864 46.8859 55.1407 42.4621 50.6732 38.0601C43.5623 31.0476 36.4405 24.0459 29.3077 17.0442C28.8599 16.5964 28.3356 16.2141 27.8987 15.7553C26.3804 14.1606 26.435 12.0415 27.997 10.5341C29.4497 9.14688 31.4596 9.17965 32.9669 10.6652C40.9954 18.5516 49.0129 26.449 57.0304 34.3463C61.0391 38.3004 65.0588 42.2327 69.0129 46.2415C69.6246 46.8641 69.9195 47.8035 70.3674 48.5899H70.3783Z" fill="#E0E0E0"/>
<path d="M55.108 11.7902C55.108 14.4445 55.108 16.7493 55.108 19.0431C55.108 20.8126 54.1467 22.2654 52.6721 22.7351C51.4597 23.1283 50.0943 22.5712 49.0784 21.1294C48.7617 20.6816 48.5978 20.048 48.576 19.5019C48.5104 17.503 48.5432 15.5041 48.5323 13.5051C48.5323 13.0245 48.4777 12.5439 48.4231 11.7684C47.5383 12.6095 46.872 13.243 46.2057 13.8875C44.3379 15.6898 41.5634 15.1764 40.4274 12.8279C39.9359 11.8012 40.0669 10.8399 40.8425 10.0644C44.0102 6.87487 47.1888 3.69625 50.411 0.572269C51.274 -0.257881 52.6066 -0.159571 53.5023 0.703348C56.659 3.77272 59.8049 6.85301 62.907 9.96607C63.9884 11.0584 63.8901 12.5767 62.8087 13.7673C61.4542 15.2419 59.4553 15.5587 58.0462 14.4336C57.1287 13.7018 56.2986 12.8716 55.1189 11.8012L55.108 11.7902Z" fill="#C2B03A"/>
<path d="M108.106 23.0191C110.127 23.0191 111.984 23.0737 113.841 22.9973C114.9 22.9536 115.13 23.3686 115.13 24.3408C115.086 30.556 115.108 36.7821 115.097 42.9973C115.097 45.171 115.097 47.3556 115.064 49.5293C115.032 51.8887 113.579 53.4725 111.482 53.4943C109.439 53.5162 107.964 51.8668 107.964 49.5074C107.964 41.195 107.997 32.8935 108.008 24.5811C108.008 24.1332 108.063 23.6963 108.095 23.0082L108.106 23.0191Z" fill="#E0E0E0"/>
<path d="M59.5207 31.7904C57.7949 30.0536 56.211 28.4479 54.6272 26.8531C56.9429 24.5156 59.1493 22.2327 61.4104 20.0044C64.6109 16.8476 67.8222 13.6909 71.0664 10.5888C72.4973 9.22338 74.4962 9.3763 75.9271 10.8291C77.2269 12.1617 77.3799 14.3135 76.0582 15.6243C70.6404 20.9875 65.157 26.2961 59.5207 31.8013V31.7904Z" fill="#E0E0E0"/>
<path d="M44.4798 37.2407C45.9872 38.8792 47.4836 40.5067 49.2313 42.4073C47.9315 43.6307 46.4896 44.9852 45.0587 46.3505C43.2782 48.0436 41.5196 49.7476 39.7283 51.4298C38.3738 52.7078 36.2547 52.6641 34.944 51.3751C33.5677 50.0316 33.4475 47.6941 34.8129 46.3396C37.063 44.0895 39.4115 41.9486 41.6616 39.6984C42.459 38.901 43.0816 37.918 43.7916 37.0332C44.021 37.1097 44.2504 37.1752 44.4907 37.2517L44.4798 37.2407Z" fill="#E0E0E0"/>
</svg>
