<svg width="71" height="28" viewBox="0 0 71 28" fill="none" xmlns="http://www.w3.org/2000/svg">
<g id="Layer_1">
<g id="Group">
<path id="Vector" d="M51.9451 10.2182C51.9451 11.3432 51.9451 12.3646 51.9451 13.3804C51.9451 15.2428 51.9506 17.1106 51.9342 18.973C51.8959 22.7633 49.6895 25.9528 46.0904 27.0888C41.5355 28.5252 36.8003 25.9801 35.6043 21.2996C34.9926 18.9074 35.3803 16.4552 35.3148 14.0303C35.3148 13.9102 35.3858 13.7627 35.4732 13.6753C36.5436 12.6049 37.6196 11.5399 38.6955 10.4749C38.7556 10.4912 38.8211 10.5076 38.8812 10.524C38.8812 10.7534 38.8812 10.9882 38.8812 11.2176C38.8812 13.7408 38.8702 16.2641 38.8812 18.7873C38.8812 20.6333 39.5092 22.1953 41.175 23.1456C44.512 25.0462 48.3023 22.8507 48.3678 18.9566C48.4224 15.5705 48.3897 12.1843 48.3897 8.79272C48.3897 7.05049 48.8211 6.60265 50.547 6.60265C54.5502 6.59173 58.5481 6.58081 62.5514 6.58081C65.3149 6.58081 67.4995 7.75503 68.9195 10.1089C70.4214 12.5994 70.3559 15.1991 68.8649 17.6731C67.6688 19.6557 65.8392 20.7917 63.5181 21.0101C62.3657 21.1194 61.2024 21.0538 60.0445 21.0811C59.6622 21.092 59.5202 20.9391 59.5257 20.5623C59.5421 19.7212 59.553 18.8801 59.5311 18.0391C59.5202 17.6021 59.7223 17.4984 60.1101 17.5038C60.9948 17.5148 61.8851 17.5257 62.7698 17.4875C64.299 17.4274 65.4023 16.6573 66.0467 15.2974C66.6584 13.9975 66.5164 12.7196 65.6426 11.5726C64.8834 10.5732 63.8294 10.1854 62.6005 10.1909C59.5748 10.2018 56.5546 10.2127 53.5289 10.2236C53.0319 10.2236 52.5349 10.2236 51.9451 10.2236V10.2182Z" fill="#E0E0E0"/>
<path id="Vector_2" d="M13.3376 10.4093C13.9329 10.9882 14.5282 11.5671 15.1235 12.146C16.7784 13.7463 16.8166 13.7517 16.7511 16.0619C16.7019 17.8042 16.7511 19.5846 16.3906 21.2777C15.5495 25.281 11.2404 28.0554 7.1825 27.4055C2.97713 26.7283 0.213607 23.7135 0.0825302 19.4535C-0.0267001 15.7506 0.00606813 12.0477 0.000606619 8.34482C0.000606619 7.21975 0.77614 6.46606 1.82475 6.48244C2.85152 6.49336 3.58882 7.29075 3.58882 8.41582C3.58882 11.8457 3.60521 15.2755 3.58882 18.7108C3.58336 20.1362 3.9329 21.4251 4.9542 22.441C6.39604 23.8774 8.13826 24.2706 10.0334 23.5551C11.9067 22.8506 12.9772 21.4088 13.0536 19.4098C13.1574 16.8484 13.1082 14.276 13.1246 11.7091C13.1246 11.305 13.1246 10.9008 13.1246 10.4967C13.1956 10.4693 13.2612 10.442 13.3322 10.4147L13.3376 10.4093Z" fill="#E0E0E0"/>
<path id="Vector_3" d="M35.1892 24.795C35.0635 25.6415 34.6867 26.1986 34.0204 26.4935C33.3104 26.8048 32.6059 26.7502 32.0106 26.1549C29.7932 23.943 27.5703 21.7311 25.3366 19.5301C21.7811 16.0238 18.2202 12.523 14.6539 9.02212C14.4299 8.7982 14.1678 8.60704 13.9493 8.37766C13.1902 7.58028 13.2175 6.52074 13.9985 5.76705C14.7249 5.07344 15.7298 5.08982 16.4835 5.83259C20.4977 9.7758 24.5064 13.7245 28.5152 17.6732C30.5196 19.6502 32.5294 21.6164 34.5065 23.6207C34.8123 23.9321 34.9598 24.4017 35.1837 24.795H35.1892Z" fill="#E0E0E0"/>
<path id="Vector_4" d="M27.554 6.39511C27.554 7.72226 27.554 8.87464 27.554 10.0216C27.554 10.9063 27.0734 11.6327 26.3361 11.8675C25.7298 12.0642 25.0471 11.7856 24.5392 11.0647C24.3808 10.8408 24.2989 10.524 24.288 10.2509C24.2552 9.25149 24.2716 8.25203 24.2661 7.25257C24.2661 7.01226 24.2388 6.77196 24.2115 6.38419C23.7691 6.80473 23.436 7.1215 23.1028 7.44373C22.1689 8.34488 20.7817 8.08818 20.2137 6.91396C19.9679 6.40058 20.0335 5.91996 20.4212 5.5322C22.0051 3.93743 23.5944 2.34813 25.2055 0.786134C25.637 0.371059 26.3033 0.420214 26.7511 0.851674C28.3295 2.38636 29.9024 3.9265 31.4535 5.48304C31.9942 6.02919 31.945 6.78834 31.4043 7.38365C30.7271 8.12095 29.7277 8.27934 29.0231 7.7168C28.5644 7.35088 28.1493 6.9358 27.5594 6.40058L27.554 6.39511Z" fill="#C2B03A"/>
<path id="Vector_5" d="M54.0532 12.0096C55.0636 12.0096 55.992 12.0369 56.9205 11.9986C57.4502 11.9768 57.5649 12.1843 57.5649 12.6704C57.5431 15.778 57.554 18.8911 57.5485 21.9987C57.5485 23.0855 57.5485 24.1778 57.5322 25.2646C57.5158 26.4443 56.7894 27.2362 55.7408 27.2472C54.7195 27.2581 53.9822 26.4334 53.9822 25.2537C53.9822 21.0975 53.9986 16.9468 54.004 12.7905C54.004 12.5666 54.0313 12.3482 54.0477 12.0041L54.0532 12.0096Z" fill="#E0E0E0"/>
<path id="Vector_6" d="M29.7605 16.3952C28.8976 15.5268 28.1056 14.724 27.3137 13.9266C28.4716 12.7578 29.5748 11.6163 30.7053 10.5022C32.3055 8.92382 33.9112 7.34545 35.5333 5.79438C36.2488 5.11169 37.2482 5.18815 37.9637 5.91453C38.6136 6.58084 38.6901 7.65675 38.0292 8.31214C35.3203 10.9937 32.5786 13.648 29.7605 16.4006V16.3952Z" fill="#E0E0E0"/>
<path id="Vector_7" d="M22.2399 19.1204C22.9936 19.9396 23.7418 20.7534 24.6156 21.7037C23.9657 22.3154 23.2448 22.9926 22.5293 23.6753C21.6391 24.5218 20.7598 25.3738 19.8641 26.2149C19.1869 26.8539 18.1274 26.832 17.472 26.1876C16.7838 25.5158 16.7238 24.347 17.4064 23.6698C18.5315 22.5447 19.7057 21.4743 20.8308 20.3492C21.2295 19.9505 21.5408 19.459 21.8958 19.0166C22.0105 19.0548 22.1252 19.0876 22.2453 19.1258L22.2399 19.1204Z" fill="#E0E0E0"/>
</g>
</g>
</svg>
