<svg width="278" height="252" viewBox="0 0 278 252" fill="none" xmlns="http://www.w3.org/2000/svg">
<g clip-path="url(#clip0_387_1268)">
<path d="M64.4791 167.304C58.084 168.139 52.1921 163.622 51.3574 157.215L46.1529 117.457C45.3183 111.062 49.8354 105.17 56.2428 104.335L210.303 84.18C216.698 83.3453 222.59 87.8624 223.424 94.2699L228.629 134.028C229.464 140.423 224.947 146.315 218.539 147.149L64.4791 167.304Z" fill="white" stroke="#C2B03A" stroke-width="0.613736" stroke-miterlimit="10" stroke-linecap="round" stroke-linejoin="round" stroke-dasharray="1.23 1.23"/>
<path d="M92.9564 178.695V252" stroke="#C2B03A" stroke-width="0.613736" stroke-miterlimit="10" stroke-linecap="round" stroke-linejoin="round"/>
<path d="M92.9565 0V93.2756" stroke="#C2B03A" stroke-width="0.613736" stroke-miterlimit="10" stroke-linecap="round" stroke-linejoin="round"/>
<path d="M188.245 209.444V252" stroke="#C2B03A" stroke-width="0.613736" stroke-miterlimit="10" stroke-linecap="round" stroke-linejoin="round"/>
<path d="M188.245 0V72.9364" stroke="#C2B03A" stroke-width="0.613736" stroke-miterlimit="10" stroke-linecap="round" stroke-linejoin="round"/>
<path d="M50.8664 78.3618H0" stroke="#C2B03A" stroke-width="0.613736" stroke-miterlimit="10" stroke-linecap="round" stroke-linejoin="round"/>
<path d="M277.605 78.3618H96.3074" stroke="#C2B03A" stroke-width="0.613736" stroke-miterlimit="10" stroke-linecap="round" stroke-linejoin="round"/>
<path d="M146.965 173.638L0.306862 171.146" stroke="#C2B03A" stroke-width="0.613736" stroke-miterlimit="10" stroke-linecap="round" stroke-linejoin="round"/>
<path d="M277.605 173.638H218.465" stroke="#C2B03A" stroke-width="0.613736" stroke-miterlimit="10" stroke-linecap="round" stroke-linejoin="round"/>
<path d="M149.113 97.805L56.967 109.859C53.6037 110.301 51.2347 113.382 51.6766 116.745L56.881 156.503C57.3229 159.866 60.4039 162.235 63.7672 161.793L143.872 151.31C138.201 144.817 134.752 136.323 134.752 127.019C134.752 115.137 140.374 104.556 149.113 97.805Z" fill="#C2B03A"/>
<path d="M223.105 134.752L217.901 94.9941C217.459 91.6308 214.378 89.2618 211.015 89.7037L185.962 92.981C199.243 98.566 208.584 111.712 208.584 127.031C208.584 132.886 207.222 138.434 204.791 143.344L217.815 141.638C221.178 141.208 223.547 138.115 223.105 134.752Z" fill="#C2B03A"/>
<path d="M69.7327 114.609C80.159 114.609 88.6112 106.157 88.6112 95.7305C88.6112 85.3042 80.159 76.852 69.7327 76.852C59.3064 76.852 50.8542 85.3042 50.8542 95.7305C50.8542 106.157 59.3064 114.609 69.7327 114.609Z" fill="white" stroke="#C2B03A" stroke-width="0.613736" stroke-miterlimit="10" stroke-linecap="round" stroke-linejoin="round"/>
<path d="M88.5989 96.4547C88.3411 103.39 84.3273 109.368 78.5336 112.424" stroke="#C2B03A" stroke-width="0.613736" stroke-miterlimit="10"/>
<path d="M60.9317 79.0246C63.5585 77.6376 66.5535 76.852 69.7449 76.852C73.4396 76.852 76.9011 77.9199 79.8102 79.7611" stroke="#C2B03A" stroke-width="0.613736" stroke-miterlimit="10"/>
<path d="M59.6797 111.7C54.3893 108.361 50.8664 102.457 50.8664 95.7305C50.8664 95.485 50.8664 95.2395 50.8787 95.0063" stroke="#C2B03A" stroke-width="0.613736" stroke-miterlimit="10"/>
<path d="M88.6112 96.4547C88.6112 96.4547 77.3307 86.8436 69.7449 95.7305C65.8416 84.7201 79.8102 79.7611 79.8102 79.7611C85.1006 83.0998 88.6235 89.004 88.6235 95.7305C88.6112 95.976 88.6112 96.2092 88.6112 96.4547Z" fill="#C2B03A" stroke="#C2B03A" stroke-width="0.613736" stroke-miterlimit="10" stroke-linecap="round" stroke-linejoin="round"/>
<path d="M50.8664 94.994C50.8664 94.994 62.1469 104.605 69.7327 95.7182C58.2435 93.5824 60.9317 79.0123 60.9317 79.0123H60.9194C55.138 82.081 51.1365 88.0588 50.8664 94.994Z" fill="#C2B03A" stroke="#C2B03A" stroke-width="0.613736" stroke-miterlimit="10" stroke-linecap="round" stroke-linejoin="round"/>
<path d="M78.5459 112.436C75.9191 113.823 72.9241 114.609 69.7449 114.609C66.0503 114.609 62.5888 113.541 59.6797 111.7C59.6797 111.7 73.6483 106.741 69.7449 95.7305C81.2218 97.8541 78.5459 112.436 78.5459 112.436Z" fill="#C2B03A" stroke="#C2B03A" stroke-width="0.613736" stroke-miterlimit="10" stroke-linecap="round" stroke-linejoin="round"/>
<path d="M75.9928 113.566C74.0534 114.241 71.9544 114.609 69.7818 114.609C67.2041 114.609 64.7369 114.093 62.5029 113.148" stroke="white" stroke-width="0.613736" stroke-miterlimit="10" stroke-linecap="round" stroke-linejoin="round"/>
<path d="M111.626 203.981L129.29 186.318" stroke="#C2B03A" stroke-width="0.613736" stroke-miterlimit="10" stroke-linecap="round" stroke-linejoin="round"/>
<path d="M127.645 184.673H119.703" stroke="#C2B03A" stroke-width="0.613736" stroke-miterlimit="10" stroke-linecap="round" stroke-linejoin="round"/>
<path d="M130.947 187.963V195.905" stroke="#C2B03A" stroke-width="0.613736" stroke-miterlimit="10" stroke-linecap="round" stroke-linejoin="round"/>
<path d="M130.947 52.8672L148.61 70.5305" stroke="#C2B03A" stroke-width="0.613736" stroke-miterlimit="10" stroke-linecap="round" stroke-linejoin="round"/>
<path d="M150.255 68.8857V60.9439" stroke="#C2B03A" stroke-width="0.613736" stroke-miterlimit="10" stroke-linecap="round" stroke-linejoin="round"/>
<path d="M146.965 72.1753H139.023" stroke="#C2B03A" stroke-width="0.613736" stroke-miterlimit="10" stroke-linecap="round" stroke-linejoin="round"/>
<path d="M250.858 164.101L233.195 146.437" stroke="#C2B03A" stroke-width="0.613736" stroke-miterlimit="10" stroke-linecap="round" stroke-linejoin="round"/>
<path d="M231.55 148.082V156.024" stroke="#C2B03A" stroke-width="0.613736" stroke-miterlimit="10" stroke-linecap="round" stroke-linejoin="round"/>
<path d="M234.84 144.793H242.782" stroke="#C2B03A" stroke-width="0.613736" stroke-miterlimit="10" stroke-linecap="round" stroke-linejoin="round"/>
<path d="M271.689 55.7763C272.548 58.6118 274.77 60.8335 277.605 61.6927C274.77 62.552 272.548 64.7737 271.689 67.6092C270.829 64.7737 268.608 62.552 265.772 61.6927C268.608 60.8335 270.829 58.6118 271.689 55.7763Z" fill="#C2B03A"/>
<path d="M17.2951 123.005C18.1543 125.84 20.376 128.062 23.2115 128.921C20.376 129.781 18.1543 132.002 17.2951 134.838C16.4358 132.002 14.2141 129.781 11.3787 128.921C14.2141 128.062 16.4358 125.84 17.2951 123.005Z" fill="#C2B03A"/>
<path d="M60.9317 231.329C61.6191 233.588 63.3744 235.355 65.6329 236.031C63.3744 236.718 61.6068 238.473 60.9317 240.732C60.2443 238.473 58.489 236.718 56.2305 236.031C58.4768 235.355 60.2443 233.588 60.9317 231.329Z" fill="#C2B03A"/>
<path d="M243.518 199.513C244.206 201.772 245.961 203.539 248.219 204.215C245.961 204.902 244.193 206.657 243.518 208.916C242.831 206.657 241.076 204.902 238.817 204.215C241.063 203.539 242.831 201.772 243.518 199.513Z" fill="#C2B03A"/>
<path d="M165.598 18.2525C166.924 22.6469 170.361 26.0838 174.755 27.4094C170.361 28.7351 166.924 32.172 165.598 36.5664C164.273 32.1843 160.836 28.7474 156.454 27.4217C160.836 26.0838 164.26 22.6469 165.598 18.2525Z" fill="#C2B03A"/>
<path d="M209.664 175.627C213.789 175.357 215.765 170.447 212.979 167.39L194.738 147.407L169.6 119.85L158.307 155.398L150.12 181.187C148.868 185.127 152.722 188.761 156.576 187.275L174.841 180.254L180.23 204.816L195.512 201.465L190.123 176.903L209.664 175.627Z" fill="#C2B03A"/>
<path d="M215.483 53.7878L217.398 55.7026" stroke="#C2B03A" stroke-width="0.613736" stroke-miterlimit="10" stroke-linecap="round" stroke-linejoin="round"/>
<path d="M219.521 57.8139L221.436 59.7287" stroke="#C2B03A" stroke-width="0.613736" stroke-miterlimit="10" stroke-linecap="round" stroke-linejoin="round"/>
<path d="M221.436 53.7878L219.521 55.7026" stroke="#C2B03A" stroke-width="0.613736" stroke-miterlimit="10" stroke-linecap="round" stroke-linejoin="round"/>
<path d="M217.398 57.8139L215.483 59.7287" stroke="#C2B03A" stroke-width="0.613736" stroke-miterlimit="10" stroke-linecap="round" stroke-linejoin="round"/>
<path d="M34.8356 187.374L36.7505 189.288" stroke="#C2B03A" stroke-width="0.613736" stroke-miterlimit="10" stroke-linecap="round" stroke-linejoin="round"/>
<path d="M38.874 191.4L40.7889 193.315" stroke="#C2B03A" stroke-width="0.613736" stroke-miterlimit="10" stroke-linecap="round" stroke-linejoin="round"/>
<path d="M40.7889 187.374L38.874 189.288" stroke="#C2B03A" stroke-width="0.613736" stroke-miterlimit="10" stroke-linecap="round" stroke-linejoin="round"/>
<path d="M36.7505 191.4L34.8356 193.315" stroke="#C2B03A" stroke-width="0.613736" stroke-miterlimit="10" stroke-linecap="round" stroke-linejoin="round"/>
<path d="M59.5201 40.4943L61.4472 42.4091" stroke="#C2B03A" stroke-width="0.613736" stroke-miterlimit="10" stroke-linecap="round" stroke-linejoin="round"/>
<path d="M63.5585 44.5204L65.4734 46.4475" stroke="#C2B03A" stroke-width="0.613736" stroke-miterlimit="10" stroke-linecap="round" stroke-linejoin="round"/>
<path d="M65.4734 40.4942L63.5585 42.4091" stroke="#C2B03A" stroke-width="0.613736" stroke-miterlimit="10" stroke-linecap="round" stroke-linejoin="round"/>
<path d="M61.4473 44.5204L59.5201 46.4475" stroke="#C2B03A" stroke-width="0.613736" stroke-miterlimit="10" stroke-linecap="round" stroke-linejoin="round"/>
<path d="M252.037 117.678L253.952 119.593" stroke="#C2B03A" stroke-width="0.613736" stroke-miterlimit="10" stroke-linecap="round" stroke-linejoin="round"/>
<path d="M256.075 121.716L257.99 123.631" stroke="#C2B03A" stroke-width="0.613736" stroke-miterlimit="10" stroke-linecap="round" stroke-linejoin="round"/>
<path d="M257.99 117.678L256.075 119.593" stroke="#C2B03A" stroke-width="0.613736" stroke-miterlimit="10" stroke-linecap="round" stroke-linejoin="round"/>
<path d="M253.952 121.716L252.037 123.631" stroke="#C2B03A" stroke-width="0.613736" stroke-miterlimit="10" stroke-linecap="round" stroke-linejoin="round"/>
<path d="M143.982 212.377L145.897 214.292" stroke="#C2B03A" stroke-width="0.613736" stroke-miterlimit="10" stroke-linecap="round" stroke-linejoin="round"/>
<path d="M148.021 216.403L149.936 218.318" stroke="#C2B03A" stroke-width="0.613736" stroke-miterlimit="10" stroke-linecap="round" stroke-linejoin="round"/>
<path d="M149.936 212.377L148.021 214.292" stroke="#C2B03A" stroke-width="0.613736" stroke-miterlimit="10" stroke-linecap="round" stroke-linejoin="round"/>
<path d="M145.897 216.403L143.982 218.318" stroke="#C2B03A" stroke-width="0.613736" stroke-miterlimit="10" stroke-linecap="round" stroke-linejoin="round"/>
</g>
<defs>
<clipPath id="clip0_387_1268">
<rect width="277.605" height="252" fill="white"/>
</clipPath>
</defs>
</svg>
