<svg width="540" height="223" viewBox="0 0 540 223" fill="none" xmlns="http://www.w3.org/2000/svg">
<rect x="0.717392" y="0.717377" width="566.783" height="285.816" rx="12.7432" stroke="#7F7F7F"/>
<g opacity="0.16">
<path d="M54.9744 68.7929H548" stroke="#4E4E4E" stroke-width="1.28727" stroke-linejoin="round" stroke-dasharray="7.72 7.72"/>
<path d="M54.9746 89.3894H548" stroke="#4E4E4E" stroke-width="1.28727" stroke-linejoin="round" stroke-dasharray="7.72 7.72"/>
<path d="M54.9746 109.986H548" stroke="#4E4E4E" stroke-width="1.28727" stroke-linejoin="round" stroke-dasharray="7.72 7.72"/>
<path d="M54.9746 130.582H548" stroke="#4E4E4E" stroke-width="1.28727" stroke-linejoin="round" stroke-dasharray="7.72 7.72"/>
<path d="M54.9746 151.179H548" stroke="#4E4E4E" stroke-width="1.28727" stroke-linejoin="round" stroke-dasharray="7.72 7.72"/>
<path d="M54.9744 171.775H548" stroke="#4E4E4E" stroke-width="1.28727" stroke-linejoin="round" stroke-dasharray="7.72 7.72"/>
<path d="M54.9746 192.371H548" stroke="#4E4E4E" stroke-width="1.28727" stroke-linejoin="round" stroke-dasharray="7.72 7.72"/>
<path d="M54.9746 212.968H548" stroke="#4E4E4E" stroke-width="1.28727" stroke-linejoin="round" stroke-dasharray="7.72 7.72"/>
</g>
<path d="M54.9744 233.56L162.537 173.698C164.617 172.54 167.141 172.516 169.243 173.633L211.241 195.957C213.485 197.149 216.197 197.036 218.333 195.662L361.551 103.487C363.848 102.009 366.793 101.998 369.101 103.458L406.036 126.831C407.991 128.069 410.431 128.262 412.558 127.349L547.568 69.3548" stroke="#949494" stroke-width="2"/>
<path d="M165.873 171.846L214.874 197.892L365.317 101.068L409.16 128.813L549.287 68.793V231.3L55.8344 232.998L165.873 171.846Z" fill="white" fill-opacity="0.12"/>
<rect x="24.0798" y="63.6439" width="20.5964" height="10.2982" rx="5.14909" fill="white" fill-opacity="0.12"/>
<rect x="24.08" y="84.2403" width="20.5964" height="10.2982" rx="5.14909" fill="white" fill-opacity="0.12"/>
<rect x="24.08" y="104.837" width="20.5964" height="10.2982" rx="5.14909" fill="white" fill-opacity="0.12"/>
<rect x="24.08" y="125.433" width="20.5964" height="10.2982" rx="5.14909" fill="white" fill-opacity="0.12"/>
<rect x="24.08" y="146.029" width="20.5964" height="10.2982" rx="5.14909" fill="white" fill-opacity="0.12"/>
<rect x="24.08" y="166.626" width="20.5964" height="10.2982" rx="5.14909" fill="white" fill-opacity="0.12"/>
<rect x="24.08" y="187.222" width="20.5964" height="10.2982" rx="5.14909" fill="white" fill-opacity="0.12"/>
<rect x="24.08" y="207.818" width="20.5964" height="10.2982" rx="5.14909" fill="white" fill-opacity="0.12"/>
</svg>
