<svg width="246" height="168" viewBox="0 0 246 168" fill="none" xmlns="http://www.w3.org/2000/svg">
<g filter="url(#filter0_b_256_2361)">
<rect x="0.5" y="0.5" width="543" height="439" rx="15.5" stroke="#7F7F7F"/>
<rect width="61" height="440" fill="#595959" fill-opacity="0.24"/>
<path d="M16 60H45" stroke="#C4C4C4"/>
<path opacity="0.4" d="M36.91 89.206V89.2066V94.7933C36.91 95.9569 36.5641 96.8556 35.9566 97.4632C35.349 98.0708 34.4503 98.4166 33.2867 98.4166H27.7067C26.5431 98.4166 25.6444 98.0708 25.0369 97.4625C24.4293 96.8542 24.0833 95.9538 24.0833 94.7866V89.2066C24.0833 88.043 24.4292 87.1443 25.0368 86.5368C25.6443 85.9292 26.5431 85.5833 27.7067 85.5833H33.2933C34.457 85.5833 35.3556 85.9292 35.9623 86.5366C36.5689 87.144 36.9132 88.0425 36.91 89.206Z" fill="white" fill-opacity="0.36" stroke="url(#paint0_linear_256_2361)" stroke-width="0.5"/>
<g filter="url(#filter1_f_256_2361)">
<path d="M36.7 92.1533H34.38C33.7267 92.1533 33.1467 92.5133 32.8533 93.1L32.2933 94.2067C32.16 94.4733 31.8933 94.64 31.6 94.64H29.4133C29.2067 94.64 28.9133 94.5933 28.72 94.2067L28.16 93.1067C27.8667 92.5267 27.28 92.16 26.6333 92.16H24.3C24.04 92.16 23.8333 92.3667 23.8333 92.6267V94.8C23.8333 97.22 25.2867 98.6667 27.7133 98.6667H33.3C35.5867 98.6667 36.9933 97.4133 37.1667 95.1867V92.62C37.1667 92.3667 36.96 92.1533 36.7 92.1533Z" fill="#949494"/>
</g>
<path d="M36.6997 92.1523H34.3797C33.7263 92.1523 33.1463 92.5123 32.853 93.099L32.293 94.2057C32.1597 94.4723 31.893 94.639 31.5997 94.639H29.413C29.2063 94.639 28.913 94.5923 28.7197 94.2057L28.1597 93.1057C27.8663 92.5257 27.2797 92.159 26.633 92.159H24.2997C24.0397 92.159 23.833 92.3657 23.833 92.6257V94.799C23.833 97.219 25.2863 98.6657 27.713 98.6657H33.2997C35.5863 98.6657 36.993 97.4123 37.1663 95.1857V92.619C37.1663 92.3657 36.9597 92.1523 36.6997 92.1523Z" fill="#949494"/>
<rect x="22.5" y="124" width="16" height="16" rx="8" fill="white" fill-opacity="0.12"/>
<rect x="22.5" y="164" width="16" height="16" rx="8" fill="white" fill-opacity="0.12"/>
<rect x="77" y="52" width="451" height="316" rx="6" fill="url(#paint1_linear_256_2361)" fill-opacity="0.12"/>
<mask id="path-10-inside-1_256_2361" fill="white">
<path d="M93 68H512V95H93V68Z"/>
</mask>
<path d="M512 94H93V96H512V94Z" fill="#949494" mask="url(#path-10-inside-1_256_2361)"/>
<mask id="path-12-inside-2_256_2361" fill="white">
<path d="M93 68H178V95H93V68Z"/>
</mask>
<path d="M178 94H93V96H178V94Z" fill="#E9E9E9" mask="url(#path-12-inside-2_256_2361)"/>
<path d="M110.25 87.3334H113.75C116.667 87.3334 117.833 86.1667 117.833 83.25V79.75C117.833 76.8334 116.667 75.6667 113.75 75.6667H110.25C107.333 75.6667 106.167 76.8334 106.167 79.75V83.25C106.167 86.1667 107.333 87.3334 110.25 87.3334Z" stroke="#E9E9E9" stroke-linecap="round" stroke-linejoin="round"/>
<path d="M106.167 82.0833H108.36C108.803 82.0833 109.206 82.3342 109.404 82.7308L109.923 83.775C110.25 84.4167 110.833 84.4167 110.973 84.4167H113.033C113.476 84.4167 113.878 84.1658 114.077 83.7692L114.596 82.725C114.794 82.3283 115.197 82.0775 115.64 82.0775H117.822" stroke="#E9E9E9" stroke-linecap="round" stroke-linejoin="round"/>
<path d="M124.276 86V77.2727H125.332V85.0625H129.389V86H124.276ZM133.548 86.1364C132.957 86.1364 132.439 85.9957 131.993 85.7145C131.55 85.4332 131.203 85.0398 130.953 84.5341C130.706 84.0284 130.582 83.4375 130.582 82.7614C130.582 82.0795 130.706 81.4844 130.953 80.9759C131.203 80.4673 131.55 80.0724 131.993 79.7912C132.439 79.5099 132.957 79.3693 133.548 79.3693C134.139 79.3693 134.656 79.5099 135.099 79.7912C135.545 80.0724 135.892 80.4673 136.139 80.9759C136.389 81.4844 136.514 82.0795 136.514 82.7614C136.514 83.4375 136.389 84.0284 136.139 84.5341C135.892 85.0398 135.545 85.4332 135.099 85.7145C134.656 85.9957 134.139 86.1364 133.548 86.1364ZM133.548 85.233C133.997 85.233 134.366 85.1179 134.656 84.8878C134.946 84.6577 135.161 84.3551 135.3 83.9801C135.439 83.6051 135.509 83.1989 135.509 82.7614C135.509 82.3239 135.439 81.9162 135.3 81.5384C135.161 81.1605 134.946 80.8551 134.656 80.6222C134.366 80.3892 133.997 80.2727 133.548 80.2727C133.099 80.2727 132.73 80.3892 132.44 80.6222C132.151 80.8551 131.936 81.1605 131.797 81.5384C131.658 81.9162 131.588 82.3239 131.588 82.7614C131.588 83.1989 131.658 83.6051 131.797 83.9801C131.936 84.3551 132.151 84.6577 132.44 84.8878C132.73 85.1179 133.099 85.233 133.548 85.233ZM138.049 86V79.4545H139.021V80.4432H139.089C139.208 80.1193 139.424 79.8565 139.737 79.6548C140.049 79.4531 140.402 79.3523 140.794 79.3523C140.868 79.3523 140.96 79.3537 141.071 79.3565C141.181 79.3594 141.265 79.3636 141.322 79.3693V80.392C141.288 80.3835 141.21 80.3707 141.088 80.3537C140.968 80.3338 140.842 80.3239 140.708 80.3239C140.39 80.3239 140.106 80.3906 139.856 80.5241C139.609 80.6548 139.413 80.8366 139.268 81.0696C139.126 81.2997 139.055 81.5625 139.055 81.858V86H138.049ZM145.059 86.1364C144.429 86.1364 143.885 85.9972 143.427 85.7188C142.973 85.4375 142.622 85.0455 142.375 84.5426C142.13 84.0369 142.008 83.4489 142.008 82.7784C142.008 82.108 142.13 81.517 142.375 81.0057C142.622 80.4915 142.966 80.0909 143.406 79.804C143.849 79.5142 144.366 79.3693 144.957 79.3693C145.298 79.3693 145.635 79.4261 145.967 79.5398C146.299 79.6534 146.602 79.8381 146.875 80.0938C147.147 80.3466 147.365 80.6818 147.527 81.0994C147.689 81.517 147.77 82.0312 147.77 82.642V83.0682H142.724V82.1989H146.747C146.747 81.8295 146.673 81.5 146.525 81.2102C146.38 80.9205 146.173 80.6918 145.903 80.5241C145.636 80.3565 145.321 80.2727 144.957 80.2727C144.556 80.2727 144.21 80.3722 143.917 80.571C143.627 80.767 143.404 81.0227 143.248 81.3381C143.092 81.6534 143.014 81.9915 143.014 82.3523V82.9318C143.014 83.4261 143.099 83.8452 143.27 84.1889C143.443 84.5298 143.683 84.7898 143.99 84.9688C144.297 85.1449 144.653 85.233 145.059 85.233C145.324 85.233 145.562 85.196 145.775 85.1222C145.991 85.0455 146.177 84.9318 146.333 84.7812C146.49 84.6278 146.61 84.4375 146.696 84.2102L147.667 84.483C147.565 84.8125 147.393 85.1023 147.152 85.3523C146.91 85.5994 146.612 85.7926 146.257 85.9318C145.902 86.0682 145.502 86.1364 145.059 86.1364ZM153.424 83.3239V79.4545H154.43V86H153.424V84.892H153.356C153.203 85.2244 152.964 85.5071 152.64 85.7401C152.316 85.9702 151.907 86.0852 151.413 86.0852C151.004 86.0852 150.64 85.9957 150.322 85.8168C150.004 85.6349 149.754 85.3622 149.572 84.9986C149.39 84.6321 149.299 84.1705 149.299 83.6136V79.4545H150.305V83.5455C150.305 84.0227 150.439 84.4034 150.706 84.6875C150.975 84.9716 151.319 85.1136 151.737 85.1136C151.987 85.1136 152.241 85.0497 152.5 84.9219C152.761 84.794 152.98 84.598 153.156 84.3338C153.335 84.0696 153.424 83.733 153.424 83.3239ZM156.272 86V79.4545H157.244V80.4773H157.329C157.465 80.1278 157.685 79.8565 157.989 79.6634C158.293 79.4673 158.658 79.3693 159.085 79.3693C159.516 79.3693 159.876 79.4673 160.163 79.6634C160.452 79.8565 160.678 80.1278 160.84 80.4773H160.908C161.076 80.1392 161.327 79.8707 161.663 79.6719C161.998 79.4702 162.4 79.3693 162.869 79.3693C163.454 79.3693 163.933 79.5526 164.305 79.919C164.677 80.2827 164.863 80.8494 164.863 81.6193V86H163.857V81.6193C163.857 81.1364 163.725 80.7912 163.461 80.5838C163.197 80.3764 162.886 80.2727 162.528 80.2727C162.067 80.2727 161.711 80.4119 161.458 80.6903C161.205 80.9659 161.079 81.3153 161.079 81.7386V86H160.056V81.517C160.056 81.1449 159.935 80.8452 159.694 80.6179C159.452 80.3878 159.141 80.2727 158.761 80.2727C158.499 80.2727 158.255 80.3423 158.028 80.4815C157.803 80.6207 157.621 80.8139 157.482 81.0611C157.346 81.3054 157.278 81.5881 157.278 81.9091V86H156.272Z" fill="white"/>
<path d="M195.343 80.8409C195.285 80.835 195.215 80.835 195.151 80.8409C193.763 80.7942 192.66 79.6567 192.66 78.2567C192.66 76.8275 193.815 75.6667 195.25 75.6667C196.679 75.6667 197.84 76.8275 197.84 78.2567C197.834 79.6567 196.732 80.7942 195.343 80.8409Z" stroke="#949494" stroke-linecap="round" stroke-linejoin="round"/>
<path d="M199.573 76.8333C200.704 76.8333 201.614 77.7491 201.614 78.875C201.614 79.9775 200.739 80.8758 199.648 80.9166C199.602 80.9108 199.549 80.9108 199.497 80.9166" stroke="#949494" stroke-linecap="round" stroke-linejoin="round"/>
<path d="M192.427 82.9933C191.015 83.9383 191.015 85.4783 192.427 86.4175C194.031 87.4908 196.662 87.4908 198.266 86.4175C199.677 85.4725 199.677 83.9325 198.266 82.9933C196.667 81.9258 194.037 81.9258 192.427 82.9933Z" stroke="#949494" stroke-linecap="round" stroke-linejoin="round"/>
<path d="M200.698 86.1667C201.118 86.0792 201.515 85.91 201.842 85.6592C202.752 84.9767 202.752 83.8509 201.842 83.1684C201.521 82.9234 201.13 82.76 200.716 82.6667" stroke="#949494" stroke-linecap="round" stroke-linejoin="round"/>
<path d="M209.276 86V77.2727H210.332V85.0625H214.389V86H209.276ZM218.548 86.1364C217.957 86.1364 217.439 85.9957 216.993 85.7145C216.55 85.4332 216.203 85.0398 215.953 84.5341C215.706 84.0284 215.582 83.4375 215.582 82.7614C215.582 82.0795 215.706 81.4844 215.953 80.9759C216.203 80.4673 216.55 80.0724 216.993 79.7912C217.439 79.5099 217.957 79.3693 218.548 79.3693C219.139 79.3693 219.656 79.5099 220.099 79.7912C220.545 80.0724 220.892 80.4673 221.139 80.9759C221.389 81.4844 221.514 82.0795 221.514 82.7614C221.514 83.4375 221.389 84.0284 221.139 84.5341C220.892 85.0398 220.545 85.4332 220.099 85.7145C219.656 85.9957 219.139 86.1364 218.548 86.1364ZM218.548 85.233C218.997 85.233 219.366 85.1179 219.656 84.8878C219.946 84.6577 220.161 84.3551 220.3 83.9801C220.439 83.6051 220.509 83.1989 220.509 82.7614C220.509 82.3239 220.439 81.9162 220.3 81.5384C220.161 81.1605 219.946 80.8551 219.656 80.6222C219.366 80.3892 218.997 80.2727 218.548 80.2727C218.099 80.2727 217.73 80.3892 217.44 80.6222C217.151 80.8551 216.936 81.1605 216.797 81.5384C216.658 81.9162 216.588 82.3239 216.588 82.7614C216.588 83.1989 216.658 83.6051 216.797 83.9801C216.936 84.3551 217.151 84.6577 217.44 84.8878C217.73 85.1179 218.099 85.233 218.548 85.233ZM223.049 86V79.4545H224.021V80.4432H224.089C224.208 80.1193 224.424 79.8565 224.737 79.6548C225.049 79.4531 225.402 79.3523 225.794 79.3523C225.868 79.3523 225.96 79.3537 226.071 79.3565C226.181 79.3594 226.265 79.3636 226.322 79.3693V80.392C226.288 80.3835 226.21 80.3707 226.088 80.3537C225.968 80.3338 225.842 80.3239 225.708 80.3239C225.39 80.3239 225.106 80.3906 224.856 80.5241C224.609 80.6548 224.413 80.8366 224.268 81.0696C224.126 81.2997 224.055 81.5625 224.055 81.858V86H223.049ZM230.059 86.1364C229.429 86.1364 228.885 85.9972 228.427 85.7188C227.973 85.4375 227.622 85.0455 227.375 84.5426C227.13 84.0369 227.008 83.4489 227.008 82.7784C227.008 82.108 227.13 81.517 227.375 81.0057C227.622 80.4915 227.966 80.0909 228.406 79.804C228.849 79.5142 229.366 79.3693 229.957 79.3693C230.298 79.3693 230.635 79.4261 230.967 79.5398C231.299 79.6534 231.602 79.8381 231.875 80.0938C232.147 80.3466 232.365 80.6818 232.527 81.0994C232.689 81.517 232.77 82.0312 232.77 82.642V83.0682H227.724V82.1989H231.747C231.747 81.8295 231.673 81.5 231.525 81.2102C231.38 80.9205 231.173 80.6918 230.903 80.5241C230.636 80.3565 230.321 80.2727 229.957 80.2727C229.556 80.2727 229.21 80.3722 228.917 80.571C228.627 80.767 228.404 81.0227 228.248 81.3381C228.092 81.6534 228.014 81.9915 228.014 82.3523V82.9318C228.014 83.4261 228.099 83.8452 228.27 84.1889C228.443 84.5298 228.683 84.7898 228.99 84.9688C229.297 85.1449 229.653 85.233 230.059 85.233C230.324 85.233 230.562 85.196 230.775 85.1222C230.991 85.0455 231.177 84.9318 231.333 84.7812C231.49 84.6278 231.61 84.4375 231.696 84.2102L232.667 84.483C232.565 84.8125 232.393 85.1023 232.152 85.3523C231.91 85.5994 231.612 85.7926 231.257 85.9318C230.902 86.0682 230.502 86.1364 230.059 86.1364ZM238.424 83.3239V79.4545H239.43V86H238.424V84.892H238.356C238.203 85.2244 237.964 85.5071 237.64 85.7401C237.316 85.9702 236.907 86.0852 236.413 86.0852C236.004 86.0852 235.64 85.9957 235.322 85.8168C235.004 85.6349 234.754 85.3622 234.572 84.9986C234.39 84.6321 234.299 84.1705 234.299 83.6136V79.4545H235.305V83.5455C235.305 84.0227 235.439 84.4034 235.706 84.6875C235.975 84.9716 236.319 85.1136 236.737 85.1136C236.987 85.1136 237.241 85.0497 237.5 84.9219C237.761 84.794 237.98 84.598 238.156 84.3338C238.335 84.0696 238.424 83.733 238.424 83.3239ZM241.272 86V79.4545H242.244V80.4773H242.329C242.465 80.1278 242.685 79.8565 242.989 79.6634C243.293 79.4673 243.658 79.3693 244.085 79.3693C244.516 79.3693 244.876 79.4673 245.163 79.6634C245.452 79.8565 245.678 80.1278 245.84 80.4773H245.908C246.076 80.1392 246.327 79.8707 246.663 79.6719C246.998 79.4702 247.4 79.3693 247.869 79.3693C248.454 79.3693 248.933 79.5526 249.305 79.919C249.677 80.2827 249.863 80.8494 249.863 81.6193V86H248.857V81.6193C248.857 81.1364 248.725 80.7912 248.461 80.5838C248.197 80.3764 247.886 80.2727 247.528 80.2727C247.067 80.2727 246.711 80.4119 246.458 80.6903C246.205 80.9659 246.079 81.3153 246.079 81.7386V86H245.056V81.517C245.056 81.1449 244.935 80.8452 244.694 80.6179C244.452 80.3878 244.141 80.2727 243.761 80.2727C243.499 80.2727 243.255 80.3423 243.028 80.4815C242.803 80.6207 242.621 80.8139 242.482 81.0611C242.346 81.3054 242.278 81.5881 242.278 81.9091V86H241.272Z" fill="#949494"/>
<rect x="93.5" y="111.5" width="418" height="51" rx="3.5" stroke="#949494"/>
<g filter="url(#filter2_f_256_2361)">
<rect x="102.333" y="130.333" width="13.3333" height="13.3333" rx="4" fill="#949494"/>
</g>
<rect x="102.333" y="130.333" width="13.3333" height="13.3333" rx="4" fill="#949494"/>
<path d="M106.667 137L108.333 138.667L111.667 135.333" stroke="white" stroke-linecap="round" stroke-linejoin="round"/>
<path d="M137.009 132.047L138.036 134.101C138.176 134.387 138.549 134.661 138.864 134.713L140.725 135.022C141.915 135.221 142.195 136.084 141.337 136.936L139.891 138.382C139.646 138.627 139.512 139.1 139.587 139.438L140.002 141.229C140.328 142.647 139.576 143.195 138.322 142.454L136.577 141.422C136.262 141.235 135.743 141.235 135.422 141.422L133.678 142.454C132.43 143.195 131.672 142.641 131.998 141.229L132.412 139.438C132.488 139.1 132.354 138.627 132.109 138.382L130.662 136.936C129.811 136.084 130.085 135.221 131.275 135.022L133.136 134.713C133.445 134.661 133.818 134.387 133.958 134.101L134.985 132.047C135.545 130.933 136.455 130.933 137.009 132.047Z" stroke="#E9E9E9" stroke-linecap="round" stroke-linejoin="round"/>
<path d="M160.276 133V124.273H161.332V132.062H165.389V133H160.276ZM169.548 133.136C168.957 133.136 168.439 132.996 167.993 132.714C167.55 132.433 167.203 132.04 166.953 131.534C166.706 131.028 166.582 130.437 166.582 129.761C166.582 129.08 166.706 128.484 166.953 127.976C167.203 127.467 167.55 127.072 167.993 126.791C168.439 126.51 168.957 126.369 169.548 126.369C170.139 126.369 170.656 126.51 171.099 126.791C171.545 127.072 171.892 127.467 172.139 127.976C172.389 128.484 172.514 129.08 172.514 129.761C172.514 130.437 172.389 131.028 172.139 131.534C171.892 132.04 171.545 132.433 171.099 132.714C170.656 132.996 170.139 133.136 169.548 133.136ZM169.548 132.233C169.997 132.233 170.366 132.118 170.656 131.888C170.946 131.658 171.161 131.355 171.3 130.98C171.439 130.605 171.509 130.199 171.509 129.761C171.509 129.324 171.439 128.916 171.3 128.538C171.161 128.161 170.946 127.855 170.656 127.622C170.366 127.389 169.997 127.273 169.548 127.273C169.099 127.273 168.73 127.389 168.44 127.622C168.151 127.855 167.936 128.161 167.797 128.538C167.658 128.916 167.588 129.324 167.588 129.761C167.588 130.199 167.658 130.605 167.797 130.98C167.936 131.355 168.151 131.658 168.44 131.888C168.73 132.118 169.099 132.233 169.548 132.233ZM174.049 133V126.455H175.021V127.443H175.089C175.208 127.119 175.424 126.857 175.737 126.655C176.049 126.453 176.402 126.352 176.794 126.352C176.868 126.352 176.96 126.354 177.071 126.357C177.181 126.359 177.265 126.364 177.322 126.369V127.392C177.288 127.384 177.21 127.371 177.088 127.354C176.968 127.334 176.842 127.324 176.708 127.324C176.39 127.324 176.106 127.391 175.856 127.524C175.609 127.655 175.413 127.837 175.268 128.07C175.126 128.3 175.055 128.562 175.055 128.858V133H174.049ZM181.059 133.136C180.429 133.136 179.885 132.997 179.427 132.719C178.973 132.438 178.622 132.045 178.375 131.543C178.13 131.037 178.008 130.449 178.008 129.778C178.008 129.108 178.13 128.517 178.375 128.006C178.622 127.491 178.966 127.091 179.406 126.804C179.849 126.514 180.366 126.369 180.957 126.369C181.298 126.369 181.635 126.426 181.967 126.54C182.299 126.653 182.602 126.838 182.875 127.094C183.147 127.347 183.365 127.682 183.527 128.099C183.689 128.517 183.77 129.031 183.77 129.642V130.068H178.724V129.199H182.747C182.747 128.83 182.673 128.5 182.525 128.21C182.38 127.92 182.173 127.692 181.903 127.524C181.636 127.357 181.321 127.273 180.957 127.273C180.556 127.273 180.21 127.372 179.917 127.571C179.627 127.767 179.404 128.023 179.248 128.338C179.092 128.653 179.014 128.991 179.014 129.352V129.932C179.014 130.426 179.099 130.845 179.27 131.189C179.443 131.53 179.683 131.79 179.99 131.969C180.297 132.145 180.653 132.233 181.059 132.233C181.324 132.233 181.562 132.196 181.775 132.122C181.991 132.045 182.177 131.932 182.333 131.781C182.49 131.628 182.61 131.437 182.696 131.21L183.667 131.483C183.565 131.812 183.393 132.102 183.152 132.352C182.91 132.599 182.612 132.793 182.257 132.932C181.902 133.068 181.502 133.136 181.059 133.136ZM189.424 130.324V126.455H190.43V133H189.424V131.892H189.356C189.203 132.224 188.964 132.507 188.64 132.74C188.316 132.97 187.907 133.085 187.413 133.085C187.004 133.085 186.64 132.996 186.322 132.817C186.004 132.635 185.754 132.362 185.572 131.999C185.39 131.632 185.299 131.17 185.299 130.614V126.455H186.305V130.545C186.305 131.023 186.439 131.403 186.706 131.688C186.975 131.972 187.319 132.114 187.737 132.114C187.987 132.114 188.241 132.05 188.5 131.922C188.761 131.794 188.98 131.598 189.156 131.334C189.335 131.07 189.424 130.733 189.424 130.324ZM192.272 133V126.455H193.244V127.477H193.329C193.465 127.128 193.685 126.857 193.989 126.663C194.293 126.467 194.658 126.369 195.085 126.369C195.516 126.369 195.876 126.467 196.163 126.663C196.452 126.857 196.678 127.128 196.84 127.477H196.908C197.076 127.139 197.327 126.871 197.663 126.672C197.998 126.47 198.4 126.369 198.869 126.369C199.454 126.369 199.933 126.553 200.305 126.919C200.677 127.283 200.863 127.849 200.863 128.619V133H199.857V128.619C199.857 128.136 199.725 127.791 199.461 127.584C199.197 127.376 198.886 127.273 198.528 127.273C198.067 127.273 197.711 127.412 197.458 127.69C197.205 127.966 197.079 128.315 197.079 128.739V133H196.056V128.517C196.056 128.145 195.935 127.845 195.694 127.618C195.452 127.388 195.141 127.273 194.761 127.273C194.499 127.273 194.255 127.342 194.028 127.482C193.803 127.621 193.621 127.814 193.482 128.061C193.346 128.305 193.278 128.588 193.278 128.909V133H192.272Z" fill="white"/>
<path d="M212.734 131.596C212.308 131.596 211.929 131.473 211.598 131.228C211.268 130.977 211.009 130.636 210.822 130.204C210.636 129.767 210.542 129.265 210.542 128.7C210.542 128.135 210.636 127.636 210.822 127.204C211.009 126.767 211.265 126.425 211.59 126.18C211.921 125.929 212.302 125.804 212.734 125.804C213.166 125.804 213.545 125.929 213.87 126.18C214.201 126.425 214.46 126.767 214.646 127.204C214.838 127.636 214.934 128.135 214.934 128.7C214.934 129.265 214.841 129.767 214.654 130.204C214.468 130.636 214.209 130.977 213.878 131.228C213.548 131.473 213.166 131.596 212.734 131.596ZM212.734 130.988C213.033 130.988 213.297 130.889 213.526 130.692C213.761 130.495 213.942 130.225 214.07 129.884C214.204 129.543 214.27 129.148 214.27 128.7C214.27 128.252 214.204 127.857 214.07 127.516C213.942 127.169 213.761 126.9 213.526 126.708C213.297 126.511 213.033 126.412 212.734 126.412C212.436 126.412 212.172 126.511 211.942 126.708C211.713 126.9 211.532 127.169 211.398 127.516C211.27 127.857 211.206 128.252 211.206 128.7C211.206 129.148 211.27 129.543 211.398 129.884C211.532 130.225 211.713 130.495 211.942 130.692C212.177 130.889 212.441 130.988 212.734 130.988ZM217.843 131.596C217.459 131.596 217.137 131.524 216.875 131.38C216.614 131.231 216.406 131.031 216.251 130.78C216.097 130.529 215.985 130.241 215.915 129.916C215.851 129.585 215.819 129.236 215.819 128.868C215.819 128.388 215.867 127.959 215.963 127.58C216.065 127.201 216.209 126.881 216.395 126.62C216.582 126.353 216.809 126.151 217.075 126.012C217.342 125.873 217.643 125.804 217.979 125.804C218.257 125.804 218.531 125.849 218.803 125.94C219.081 126.025 219.326 126.145 219.539 126.3L219.163 126.78C218.993 126.663 218.809 126.572 218.611 126.508C218.414 126.439 218.225 126.404 218.043 126.404C217.499 126.404 217.086 126.633 216.803 127.092C216.521 127.551 216.395 128.247 216.427 129.18L216.283 129.036C216.411 128.711 216.617 128.455 216.899 128.268C217.182 128.076 217.515 127.98 217.899 127.98C218.257 127.98 218.574 128.057 218.851 128.212C219.134 128.367 219.353 128.583 219.507 128.86C219.667 129.132 219.747 129.444 219.747 129.796C219.747 130.143 219.667 130.455 219.507 130.732C219.347 131.004 219.123 131.217 218.835 131.372C218.553 131.521 218.222 131.596 217.843 131.596ZM217.843 131.004C218.083 131.004 218.294 130.953 218.475 130.852C218.662 130.745 218.806 130.601 218.907 130.42C219.014 130.233 219.067 130.02 219.067 129.78C219.067 129.54 219.014 129.329 218.907 129.148C218.806 128.961 218.662 128.817 218.475 128.716C218.294 128.615 218.083 128.564 217.843 128.564C217.609 128.564 217.398 128.615 217.211 128.716C217.025 128.817 216.878 128.961 216.771 129.148C216.665 129.329 216.611 129.54 216.611 129.78C216.611 130.02 216.665 130.233 216.771 130.42C216.878 130.601 217.025 130.745 217.211 130.852C217.398 130.953 217.609 131.004 217.843 131.004ZM220.983 131.612C220.86 131.612 220.753 131.569 220.663 131.484C220.577 131.393 220.535 131.289 220.535 131.172C220.535 131.049 220.577 130.945 220.663 130.86C220.753 130.769 220.86 130.724 220.983 130.724C221.105 130.724 221.209 130.769 221.295 130.86C221.38 130.945 221.423 131.049 221.423 131.172C221.423 131.289 221.38 131.393 221.295 131.484C221.209 131.569 221.105 131.612 220.983 131.612ZM224.127 131.596C223.855 131.596 223.607 131.556 223.383 131.476C223.164 131.391 222.975 131.281 222.815 131.148C222.66 131.015 222.537 130.873 222.447 130.724L223.007 130.412C223.065 130.487 223.137 130.572 223.223 130.668C223.313 130.759 223.428 130.836 223.567 130.9C223.705 130.964 223.876 130.996 224.079 130.996C224.441 130.996 224.732 130.892 224.951 130.684C225.169 130.476 225.279 130.215 225.279 129.9C225.279 129.66 225.212 129.457 225.079 129.292C224.951 129.127 224.764 129.001 224.519 128.916C224.273 128.831 223.98 128.788 223.639 128.788H223.487V128.26H223.623C223.959 128.26 224.268 128.297 224.551 128.372C224.833 128.447 225.079 128.556 225.287 128.7C225.5 128.844 225.663 129.02 225.775 129.228C225.892 129.436 225.951 129.676 225.951 129.948C225.951 130.279 225.868 130.569 225.703 130.82C225.543 131.065 225.324 131.257 225.047 131.396C224.769 131.529 224.463 131.596 224.127 131.596ZM223.487 128.732V128.212H223.639C224.097 128.212 224.46 128.135 224.727 127.98C224.999 127.82 225.135 127.593 225.135 127.3C225.135 127.14 225.092 126.993 225.007 126.86C224.921 126.721 224.796 126.612 224.631 126.532C224.471 126.447 224.284 126.404 224.071 126.404C223.927 126.404 223.791 126.425 223.663 126.468C223.54 126.505 223.425 126.564 223.319 126.644C223.217 126.719 223.124 126.815 223.039 126.932L222.511 126.628C222.612 126.463 222.74 126.319 222.895 126.196C223.055 126.073 223.236 125.977 223.439 125.908C223.641 125.839 223.863 125.804 224.103 125.804C224.428 125.804 224.719 125.868 224.975 125.996C225.236 126.124 225.441 126.3 225.591 126.524C225.74 126.743 225.815 126.991 225.815 127.268C225.815 127.503 225.759 127.711 225.647 127.892C225.535 128.073 225.377 128.228 225.175 128.356C224.977 128.484 224.745 128.58 224.479 128.644C224.217 128.703 223.932 128.732 223.623 128.732H223.487ZM228.622 125.804C229.017 125.804 229.342 125.879 229.598 126.028C229.854 126.172 230.06 126.369 230.214 126.62C230.374 126.871 230.486 127.161 230.55 127.492C230.62 127.817 230.654 128.164 230.654 128.532C230.654 129.012 230.604 129.441 230.502 129.82C230.401 130.199 230.257 130.521 230.07 130.788C229.884 131.049 229.657 131.249 229.39 131.388C229.129 131.527 228.83 131.596 228.494 131.596C228.217 131.596 227.94 131.553 227.662 131.468C227.39 131.377 227.145 131.255 226.926 131.1L227.302 130.62C227.473 130.737 227.657 130.831 227.854 130.9C228.057 130.964 228.249 130.996 228.43 130.996C228.974 130.996 229.388 130.767 229.67 130.308C229.958 129.849 230.084 129.156 230.046 128.228L230.19 128.364C230.062 128.689 229.857 128.948 229.574 129.14C229.292 129.332 228.958 129.428 228.574 129.428C228.212 129.428 227.892 129.351 227.614 129.196C227.337 129.036 227.118 128.82 226.958 128.548C226.804 128.276 226.726 127.961 226.726 127.604C226.726 127.252 226.806 126.943 226.966 126.676C227.126 126.404 227.348 126.191 227.63 126.036C227.918 125.881 228.249 125.804 228.622 125.804ZM228.622 126.396C228.388 126.396 228.177 126.449 227.99 126.556C227.804 126.657 227.657 126.801 227.55 126.988C227.449 127.169 227.398 127.38 227.398 127.62C227.398 127.86 227.449 128.073 227.55 128.26C227.657 128.441 227.804 128.585 227.99 128.692C228.177 128.793 228.388 128.844 228.622 128.844C228.868 128.844 229.081 128.793 229.262 128.692C229.449 128.585 229.593 128.441 229.694 128.26C229.801 128.073 229.854 127.86 229.854 127.62C229.854 127.38 229.801 127.169 229.694 126.988C229.593 126.801 229.449 126.657 229.262 126.556C229.081 126.449 228.868 126.396 228.622 126.396ZM236.338 131.5L236.298 130.844V129.388C236.298 129.073 236.261 128.815 236.186 128.612C236.117 128.404 236.007 128.249 235.858 128.148C235.714 128.041 235.522 127.988 235.282 127.988C235.053 127.988 234.853 128.033 234.682 128.124C234.517 128.215 234.381 128.356 234.274 128.548L233.698 128.316C233.805 128.129 233.933 127.967 234.082 127.828C234.231 127.689 234.405 127.585 234.602 127.516C234.805 127.441 235.034 127.404 235.29 127.404C235.658 127.404 235.965 127.476 236.21 127.62C236.455 127.764 236.639 127.98 236.762 128.268C236.885 128.551 236.943 128.905 236.938 129.332L236.93 131.5H236.338ZM235.138 131.596C234.669 131.596 234.301 131.489 234.034 131.276C233.773 131.057 233.642 130.756 233.642 130.372C233.642 129.967 233.775 129.657 234.042 129.444C234.314 129.225 234.693 129.116 235.178 129.116H236.322V129.652H235.322C234.949 129.652 234.682 129.713 234.522 129.836C234.367 129.959 234.29 130.135 234.29 130.364C234.29 130.572 234.367 130.737 234.522 130.86C234.677 130.977 234.893 131.036 235.17 131.036C235.399 131.036 235.599 130.983 235.77 130.876C235.941 130.769 236.071 130.625 236.162 130.444C236.253 130.257 236.298 130.047 236.298 129.812H236.69C236.69 130.356 236.557 130.791 236.29 131.116C236.023 131.436 235.639 131.596 235.138 131.596ZM238.112 131.5V127.5H238.712L238.752 128.236V131.5H238.112ZM240.92 131.5V129.452L241.56 129.212V131.5H240.92ZM243.736 131.5V129.452L244.376 129.212V131.5H243.736ZM240.92 129.452C240.92 129.057 240.875 128.756 240.784 128.548C240.694 128.34 240.568 128.199 240.408 128.124C240.248 128.044 240.067 128.004 239.864 128.004C239.512 128.004 239.238 128.129 239.04 128.38C238.848 128.625 238.752 128.975 238.752 129.428H238.44C238.44 129.007 238.502 128.644 238.624 128.34C238.747 128.036 238.923 127.804 239.152 127.644C239.387 127.484 239.67 127.404 240 127.404C240.486 127.404 240.867 127.553 241.144 127.852C241.427 128.151 241.566 128.604 241.56 129.212L240.92 129.452ZM243.736 129.452C243.736 129.057 243.688 128.756 243.592 128.548C243.502 128.34 243.376 128.199 243.216 128.124C243.056 128.044 242.875 128.004 242.672 128.004C242.32 128.004 242.046 128.129 241.848 128.38C241.656 128.625 241.56 128.975 241.56 129.428H241.248C241.248 129.007 241.31 128.644 241.432 128.34C241.555 128.036 241.734 127.804 241.968 127.644C242.203 127.484 242.486 127.404 242.816 127.404C243.296 127.404 243.675 127.553 243.952 127.852C244.235 128.151 244.376 128.604 244.376 129.212L243.736 129.452Z" fill="#C4C4C4"/>
<path d="M159.93 151V144H160.78V150.23H164.08V151H159.93ZM167.305 151.12C166.819 151.12 166.385 151.01 166.005 150.79C165.632 150.563 165.339 150.253 165.125 149.86C164.912 149.467 164.805 149.013 164.805 148.5C164.805 147.987 164.909 147.533 165.115 147.14C165.329 146.747 165.622 146.44 165.995 146.22C166.375 145.993 166.805 145.88 167.285 145.88C167.779 145.88 168.212 145.993 168.585 146.22C168.965 146.44 169.259 146.747 169.465 147.14C169.679 147.533 169.785 147.987 169.785 148.5C169.785 149.013 169.679 149.467 169.465 149.86C169.259 150.253 168.969 150.563 168.595 150.79C168.222 151.01 167.792 151.12 167.305 151.12ZM167.305 150.38C167.639 150.38 167.929 150.3 168.175 150.14C168.422 149.98 168.615 149.76 168.755 149.48C168.902 149.2 168.975 148.873 168.975 148.5C168.975 148.127 168.902 147.8 168.755 147.52C168.615 147.24 168.419 147.02 168.165 146.86C167.912 146.7 167.619 146.62 167.285 146.62C166.959 146.62 166.669 146.7 166.415 146.86C166.169 147.02 165.972 147.24 165.825 147.52C165.685 147.8 165.615 148.127 165.615 148.5C165.615 148.867 165.685 149.193 165.825 149.48C165.972 149.76 166.172 149.98 166.425 150.14C166.685 150.3 166.979 150.38 167.305 150.38ZM171.536 148.29C171.536 147.75 171.639 147.313 171.846 146.98C172.053 146.64 172.316 146.39 172.636 146.23C172.963 146.063 173.306 145.98 173.666 145.98V146.73C173.373 146.73 173.089 146.78 172.816 146.88C172.549 146.973 172.329 147.13 172.156 147.35C171.983 147.57 171.896 147.87 171.896 148.25L171.536 148.29ZM171.096 151V146H171.896V151H171.096ZM176.865 151.12C176.378 151.12 175.948 151.01 175.575 150.79C175.202 150.563 174.908 150.253 174.695 149.86C174.488 149.467 174.385 149.013 174.385 148.5C174.385 147.987 174.488 147.533 174.695 147.14C174.908 146.747 175.198 146.44 175.565 146.22C175.938 145.993 176.365 145.88 176.845 145.88C177.312 145.88 177.715 145.997 178.055 146.23C178.395 146.457 178.658 146.777 178.845 147.19C179.032 147.603 179.125 148.09 179.125 148.65H174.995L175.195 148.48C175.195 148.88 175.265 149.223 175.405 149.51C175.552 149.797 175.755 150.017 176.015 150.17C176.275 150.317 176.572 150.39 176.905 150.39C177.258 150.39 177.555 150.307 177.795 150.14C178.042 149.973 178.232 149.753 178.365 149.48L179.055 149.83C178.928 150.09 178.758 150.317 178.545 150.51C178.338 150.703 178.092 150.853 177.805 150.96C177.525 151.067 177.212 151.12 176.865 151.12ZM175.245 148.14L175.035 147.98H178.485L178.275 148.15C178.275 147.83 178.212 147.553 178.085 147.32C177.958 147.087 177.788 146.907 177.575 146.78C177.362 146.653 177.115 146.59 176.835 146.59C176.562 146.59 176.302 146.653 176.055 146.78C175.815 146.907 175.618 147.087 175.465 147.32C175.318 147.547 175.245 147.82 175.245 148.14ZM183.764 151L183.714 150.08V146H184.514V151H183.764ZM180.204 148.56V146H181.004V148.56H180.204ZM181.004 148.56C181.004 149.053 181.061 149.43 181.174 149.69C181.287 149.95 181.444 150.13 181.644 150.23C181.851 150.323 182.081 150.37 182.334 150.37C182.767 150.37 183.104 150.213 183.344 149.9C183.591 149.587 183.714 149.15 183.714 148.59H184.104C184.104 149.117 184.027 149.57 183.874 149.95C183.721 150.33 183.497 150.62 183.204 150.82C182.917 151.02 182.564 151.12 182.144 151.12C181.757 151.12 181.417 151.043 181.124 150.89C180.831 150.73 180.604 150.48 180.444 150.14C180.284 149.793 180.204 149.347 180.204 148.8V148.56H181.004ZM186.11 151V146H186.86L186.9 146.7C187.053 146.433 187.25 146.23 187.49 146.09C187.73 145.95 188.01 145.88 188.33 145.88C188.73 145.88 189.07 145.973 189.35 146.16C189.637 146.347 189.843 146.63 189.97 147.01C190.11 146.643 190.313 146.363 190.58 146.17C190.853 145.977 191.177 145.88 191.55 145.88C192.11 145.88 192.55 146.067 192.87 146.44C193.197 146.813 193.357 147.38 193.35 148.14V151H192.55V148.44C192.55 147.947 192.497 147.57 192.39 147.31C192.29 147.05 192.153 146.873 191.98 146.78C191.807 146.68 191.607 146.63 191.38 146.63C190.987 146.63 190.68 146.787 190.46 147.1C190.24 147.407 190.13 147.843 190.13 148.41V151H189.33V148.44C189.33 147.947 189.277 147.57 189.17 147.31C189.07 147.05 188.93 146.873 188.75 146.78C188.577 146.68 188.377 146.63 188.15 146.63C187.763 146.63 187.46 146.787 187.24 147.1C187.02 147.407 186.91 147.843 186.91 148.41V151H186.11Z" fill="#949494"/>
</g>
<defs>
<filter id="filter0_b_256_2361" x="-8" y="-8" width="560" height="456" filterUnits="userSpaceOnUse" color-interpolation-filters="sRGB">
<feFlood flood-opacity="0" result="BackgroundImageFix"/>
<feGaussianBlur in="BackgroundImageFix" stdDeviation="4"/>
<feComposite in2="SourceAlpha" operator="in" result="effect1_backgroundBlur_256_2361"/>
<feBlend mode="normal" in="SourceGraphic" in2="effect1_backgroundBlur_256_2361" result="shape"/>
</filter>
<filter id="filter1_f_256_2361" x="19.8333" y="88.1533" width="21.3333" height="14.5133" filterUnits="userSpaceOnUse" color-interpolation-filters="sRGB">
<feFlood flood-opacity="0" result="BackgroundImageFix"/>
<feBlend mode="normal" in="SourceGraphic" in2="BackgroundImageFix" result="shape"/>
<feGaussianBlur stdDeviation="2" result="effect1_foregroundBlur_256_2361"/>
</filter>
<filter id="filter2_f_256_2361" x="98.3333" y="126.333" width="21.3333" height="21.3333" filterUnits="userSpaceOnUse" color-interpolation-filters="sRGB">
<feFlood flood-opacity="0" result="BackgroundImageFix"/>
<feBlend mode="normal" in="SourceGraphic" in2="BackgroundImageFix" result="shape"/>
<feGaussianBlur stdDeviation="2" result="effect1_foregroundBlur_256_2361"/>
</filter>
<linearGradient id="paint0_linear_256_2361" x1="30.4967" y1="85.3333" x2="30.4967" y2="98.6666" gradientUnits="userSpaceOnUse">
<stop stop-color="white"/>
<stop offset="0.427083" stop-color="white" stop-opacity="0"/>
</linearGradient>
<linearGradient id="paint1_linear_256_2361" x1="302.5" y1="52" x2="302.5" y2="368" gradientUnits="userSpaceOnUse">
<stop stop-color="white"/>
<stop offset="1" stop-color="white" stop-opacity="0"/>
</linearGradient>
</defs>
</svg>
