<svg width="246" height="223" viewBox="0 0 246 223" fill="none" xmlns="http://www.w3.org/2000/svg">
<g clip-path="url(#clip0_560_13884)">
<g opacity="0.4196">
<path d="M304 234H75V11H303.944V234H304ZM76.1664 232.862H302.778V12.138H76.1664V232.862Z" fill="#F2F2F2"/>
<path d="M303.851 191.406H75.2881V192.518H303.851V191.406Z" fill="#F2F2F2"/>
<path d="M303.851 155.267H75.2881V156.379H303.851V155.267Z" fill="#F2F2F2"/>
<path d="M303.851 119.127H75.2881V120.239H303.851V119.127Z" fill="#F2F2F2"/>
<path d="M303.851 83.042H75.2881V84.154H303.851V83.042Z" fill="#F2F2F2"/>
<path d="M303.851 46.9023H75.2881V48.0143H303.851V46.9023Z" fill="#F2F2F2"/>
<path d="M228.22 11.3184H227.05V228.103H228.22V11.3184Z" fill="#F2F2F2"/>
<path d="M190.154 11.3184H188.984V228.103H190.154V11.3184Z" fill="#F2F2F2"/>
<path d="M152.033 11.3184H150.862V228.103H152.033V11.3184Z" fill="#F2F2F2"/>
<path d="M113.967 11.3184H112.796V228.103H113.967V11.3184Z" fill="#F2F2F2"/>
</g>
<path d="M71.0516 17.9897H56.6167V19.1017H71.0516V17.9897Z" fill="#F2F2F2"/>
<path d="M71.0516 26.8301H56.6167V27.9421H71.0516V26.8301Z" fill="#F2F2F2"/>
<path d="M71.0516 35.7266H56.6167V36.8386H71.0516V35.7266Z" fill="#F2F2F2"/>
<path d="M71.0516 44.5664H56.6167V45.6784H71.0516V44.5664Z" fill="#F2F2F2"/>
<path d="M71.0521 53.4629H56.6172V54.5749H71.0521V53.4629Z" fill="#F2F2F2"/>
<path d="M71.0516 62.3027H56.6167V63.4147H71.0516V62.3027Z" fill="#F2F2F2"/>
<path d="M71.0516 71.1436H56.6167V72.2556H71.0516V71.1436Z" fill="#F2F2F2"/>
<path d="M71.0516 80.0391H56.6167V81.1511H71.0516V80.0391Z" fill="#F2F2F2"/>
<path d="M71.0516 88.8799H56.6167V89.9919H71.0516V88.8799Z" fill="#F2F2F2"/>
<path d="M71.0516 97.7764H56.6167V98.8884H71.0516V97.7764Z" fill="#F2F2F2"/>
<path d="M71.0516 106.616H56.6167V107.728H71.0516V106.616Z" fill="#F2F2F2"/>
<path d="M71.0516 115.457H56.6167V116.569H71.0516V115.457Z" fill="#F2F2F2"/>
<path d="M71.0516 124.353H56.6167V125.465H71.0516V124.353Z" fill="#F2F2F2"/>
<path d="M71.0516 133.193H56.6167V134.305H71.0516V133.193Z" fill="#F2F2F2"/>
<path d="M71.0516 142.089H56.6167V143.201H71.0516V142.089Z" fill="#F2F2F2"/>
<path d="M71.0516 150.93H56.6167V152.042H71.0516V150.93Z" fill="#F2F2F2"/>
<path d="M71.0516 159.77H56.6167V160.882H71.0516V159.77Z" fill="#F2F2F2"/>
<path d="M71.0516 168.666H56.6167V169.778H71.0516V168.666Z" fill="#F2F2F2"/>
<path d="M71.0516 177.506H56.6167V178.618H71.0516V177.506Z" fill="#F2F2F2"/>
<path d="M71.0516 186.402H56.6167V187.514H71.0516V186.402Z" fill="#F2F2F2"/>
<path d="M71.0516 195.242H56.6167V196.354H71.0516V195.242Z" fill="#F2F2F2"/>
<path d="M71.0516 204.083H56.6167V205.195H71.0516V204.083Z" fill="#F2F2F2"/>
<path d="M71.0516 212.979H56.6167V214.091H71.0516V212.979Z" fill="#F2F2F2"/>
<path d="M71.0521 221.82H56.6172V222.932H71.0521V221.82Z" fill="#F2F2F2"/>
<g opacity="0.7882">
<path d="M132.638 108.784V108.84L132.749 108.784H132.638Z" fill="#F2F2F2"/>
</g>
<g opacity="0.7882">
<path d="M132.638 177.951L132.749 177.896H132.638V177.951Z" fill="#F2F2F2"/>
</g>
<g opacity="0.5608">
<path d="M132.749 108.784L132.638 108.84V177.895H132.749L190.21 191.461V164.329V122.351L132.749 108.784Z" fill="#F2F2F2"/>
</g>
<g opacity="0.5608">
<path d="M247.615 108.784L190.21 122.351V164.329V191.461L247.615 177.895H247.727V108.84L247.615 108.784Z" fill="#F2F2F2"/>
</g>
<path d="M190.21 192.018C190.154 192.018 190.099 192.018 190.043 192.018L132.582 178.452C132.303 178.396 132.024 178.118 132.024 177.896V108.84C132.024 108.562 132.192 108.34 132.47 108.284C132.582 108.284 132.749 108.229 132.86 108.284L190.321 121.851C190.6 121.906 190.767 122.129 190.767 122.407V191.518C190.767 191.684 190.712 191.851 190.544 191.962C190.433 191.962 190.321 192.018 190.21 192.018ZM133.195 177.451L189.597 190.739V122.796L133.195 109.508V177.451Z" fill="#F2F2F2"/>
<path d="M134.421 109.73C134.365 109.73 134.309 109.73 134.254 109.73L132.526 109.341C132.247 109.285 132.08 109.063 132.08 108.785C132.08 108.507 132.247 108.285 132.526 108.229L134.254 107.84C134.588 107.784 134.867 107.951 134.978 108.229C135.034 108.451 134.978 108.618 134.811 108.785C134.978 108.896 135.034 109.119 134.978 109.341C134.922 109.563 134.7 109.73 134.421 109.73Z" fill="#F2F2F2"/>
<path d="M191.882 122.518C191.603 122.518 191.38 122.351 191.324 122.073C191.269 121.795 191.436 121.462 191.77 121.406L195.17 120.628C195.504 120.572 195.783 120.739 195.895 121.017C195.95 121.295 195.783 121.628 195.449 121.684L192.049 122.462C191.993 122.518 191.938 122.518 191.882 122.518ZM188.482 122.518C188.426 122.518 188.371 122.518 188.315 122.518L184.915 121.74C184.581 121.684 184.414 121.35 184.469 121.072C184.525 120.794 184.859 120.572 185.194 120.683L188.594 121.462C188.928 121.517 189.095 121.851 189.039 122.129C188.984 122.351 188.761 122.518 188.482 122.518ZM181.738 120.906C181.683 120.906 181.627 120.906 181.571 120.906L178.171 120.127C177.837 120.072 177.67 119.738 177.726 119.46C177.781 119.182 178.116 118.96 178.45 119.071L181.85 119.849C182.184 119.905 182.351 120.238 182.296 120.516C182.24 120.739 182.017 120.906 181.738 120.906ZM198.626 120.906C198.347 120.906 198.124 120.739 198.068 120.461C198.012 120.183 198.18 119.849 198.514 119.794L201.914 119.015C202.248 118.96 202.527 119.126 202.638 119.404C202.694 119.682 202.527 120.016 202.192 120.072L198.793 120.85C198.737 120.906 198.681 120.906 198.626 120.906ZM174.995 119.293C174.939 119.293 174.883 119.293 174.827 119.293L171.428 118.515C171.093 118.459 170.926 118.126 170.982 117.848C171.038 117.57 171.372 117.347 171.706 117.458L175.106 118.237C175.44 118.292 175.608 118.626 175.552 118.904C175.496 119.126 175.218 119.293 174.995 119.293ZM205.369 119.293C205.091 119.293 204.868 119.126 204.812 118.848C204.756 118.57 204.923 118.237 205.258 118.181L208.658 117.403C208.992 117.347 209.271 117.514 209.382 117.792C209.438 118.07 209.271 118.404 208.936 118.459L205.536 119.238C205.481 119.293 205.425 119.293 205.369 119.293ZM212.169 117.736C211.89 117.736 211.667 117.57 211.611 117.292C211.556 117.014 211.723 116.68 212.057 116.624L215.457 115.846C215.791 115.79 216.07 115.957 216.182 116.235C216.237 116.513 216.07 116.847 215.736 116.902L212.336 117.681C212.224 117.736 212.169 117.736 212.169 117.736ZM168.195 117.736C168.139 117.736 168.084 117.736 168.028 117.736L164.628 116.958C164.294 116.902 164.127 116.569 164.182 116.291C164.238 116.013 164.572 115.79 164.907 115.902L168.307 116.68C168.641 116.736 168.808 117.069 168.752 117.347C168.697 117.57 168.474 117.736 168.195 117.736ZM218.912 116.124C218.634 116.124 218.411 115.957 218.355 115.679C218.299 115.401 218.467 115.068 218.801 115.012L222.201 114.234C222.535 114.178 222.814 114.345 222.925 114.623C222.981 114.901 222.814 115.234 222.479 115.29L219.08 116.068C219.024 116.124 218.968 116.124 218.912 116.124ZM161.451 116.124C161.396 116.124 161.34 116.124 161.284 116.124L157.884 115.346C157.55 115.29 157.383 114.956 157.439 114.678C157.494 114.4 157.829 114.178 158.163 114.289L161.563 115.068C161.897 115.123 162.064 115.457 162.009 115.735C161.953 115.957 161.73 116.124 161.451 116.124ZM225.656 114.512C225.378 114.512 225.155 114.345 225.099 114.067C225.043 113.789 225.21 113.455 225.545 113.4L228.944 112.621C229.279 112.566 229.558 112.732 229.669 113.01C229.725 113.288 229.558 113.622 229.223 113.678L225.823 114.456C225.768 114.512 225.712 114.512 225.656 114.512ZM154.708 114.512C154.652 114.512 154.596 114.512 154.54 114.512L151.141 113.733C150.806 113.678 150.639 113.344 150.695 113.066C150.751 112.788 151.085 112.566 151.419 112.677L154.819 113.455C155.154 113.511 155.321 113.844 155.265 114.122C155.209 114.345 154.986 114.512 154.708 114.512ZM147.964 112.955C147.908 112.955 147.852 112.955 147.797 112.955L144.397 112.176C144.063 112.121 143.895 111.787 143.951 111.509C144.007 111.231 144.341 111.009 144.676 111.12L148.075 111.898C148.41 111.954 148.577 112.288 148.521 112.566C148.466 112.788 148.187 112.955 147.964 112.955ZM232.4 112.955C232.121 112.955 231.898 112.788 231.843 112.51C231.787 112.232 231.954 111.898 232.288 111.843L235.688 111.064C236.023 111.009 236.301 111.176 236.413 111.454C236.468 111.732 236.301 112.065 235.967 112.121L232.567 112.899C232.511 112.955 232.456 112.955 232.4 112.955ZM239.199 111.342C238.921 111.342 238.698 111.176 238.642 110.898C238.586 110.62 238.754 110.286 239.088 110.23L242.488 109.452C242.822 109.396 243.101 109.563 243.212 109.841C243.268 110.119 243.101 110.453 242.766 110.508L239.367 111.287C239.255 111.342 239.199 111.342 239.199 111.342ZM141.164 111.342C141.109 111.342 141.053 111.342 140.997 111.342L137.598 110.564C137.263 110.508 137.096 110.175 137.152 109.897C137.207 109.619 137.542 109.396 137.876 109.508L141.276 110.286C141.61 110.342 141.778 110.675 141.722 110.953C141.666 111.176 141.443 111.342 141.164 111.342Z" fill="#F2F2F2"/>
<path d="M245.943 109.73C245.665 109.73 245.442 109.563 245.386 109.285C245.33 109.063 245.386 108.896 245.553 108.729C245.386 108.618 245.33 108.396 245.386 108.173C245.442 107.895 245.776 107.673 246.111 107.784L247.838 108.173C248.117 108.229 248.284 108.451 248.284 108.729C248.284 109.007 248.117 109.23 247.838 109.285L246.111 109.675C246.055 109.73 245.999 109.73 245.943 109.73Z" fill="#F2F2F2"/>
<path d="M242.544 108.173C242.488 108.173 242.432 108.173 242.377 108.173L238.977 107.395C238.642 107.339 238.475 107.006 238.531 106.728C238.587 106.45 238.921 106.227 239.255 106.339L242.655 107.117C242.99 107.173 243.157 107.506 243.101 107.784C243.045 108.007 242.822 108.173 242.544 108.173ZM137.821 108.173C137.542 108.173 137.319 108.007 137.263 107.729C137.208 107.451 137.375 107.117 137.709 107.061L141.109 106.283C141.443 106.227 141.722 106.394 141.834 106.672C141.889 106.95 141.722 107.284 141.388 107.339L137.988 108.118C137.877 108.173 137.877 108.173 137.821 108.173ZM235.8 106.561C235.744 106.561 235.689 106.561 235.633 106.561L232.233 105.783C231.899 105.727 231.731 105.393 231.787 105.115C231.843 104.837 232.177 104.615 232.512 104.726L235.911 105.505C236.246 105.56 236.413 105.894 236.357 106.172C236.302 106.394 236.079 106.561 235.8 106.561ZM144.565 106.561C144.286 106.561 144.063 106.394 144.007 106.116C143.951 105.838 144.119 105.505 144.453 105.449L147.853 104.671C148.187 104.615 148.466 104.782 148.577 105.06C148.633 105.338 148.466 105.671 148.131 105.727L144.732 106.505C144.676 106.561 144.62 106.561 144.565 106.561ZM229.056 104.949C229.001 104.949 228.945 104.949 228.889 104.949L225.489 104.17C225.155 104.115 224.988 103.781 225.043 103.503C225.099 103.225 225.434 103.003 225.768 103.114L229.168 103.892C229.502 103.948 229.669 104.281 229.614 104.559C229.558 104.782 229.279 104.949 229.056 104.949ZM151.308 104.949C151.03 104.949 150.807 104.782 150.751 104.504C150.695 104.226 150.862 103.892 151.197 103.837L154.597 103.058C154.931 103.003 155.21 103.169 155.321 103.447C155.377 103.725 155.21 104.059 154.875 104.115L151.475 104.893C151.42 104.949 151.364 104.949 151.308 104.949ZM222.257 103.392C222.201 103.392 222.145 103.392 222.09 103.392L218.69 102.613C218.355 102.558 218.188 102.224 218.244 101.946C218.3 101.668 218.634 101.446 218.969 101.557L222.368 102.335C222.703 102.391 222.87 102.725 222.814 103.003C222.758 103.225 222.535 103.392 222.257 103.392ZM158.108 103.392C157.829 103.392 157.606 103.225 157.55 102.947C157.495 102.669 157.662 102.335 157.996 102.28L161.396 101.501C161.73 101.446 162.009 101.613 162.121 101.891C162.176 102.169 162.009 102.502 161.675 102.558L158.275 103.336C158.163 103.392 158.108 103.392 158.108 103.392ZM215.513 101.779C215.457 101.779 215.402 101.779 215.346 101.779L211.946 101.001C211.612 100.945 211.445 100.612 211.5 100.334C211.556 100.056 211.89 99.8333 212.225 99.9445L215.625 100.723C215.959 100.779 216.126 101.112 216.07 101.39C216.015 101.613 215.792 101.779 215.513 101.779ZM164.851 101.779C164.573 101.779 164.35 101.613 164.294 101.335C164.238 101.057 164.406 100.723 164.74 100.667L168.14 99.8889C168.474 99.8333 168.753 100 168.864 100.278C168.92 100.556 168.753 100.89 168.418 100.945L165.019 101.724C164.907 101.779 164.907 101.779 164.851 101.779ZM208.769 100.167C208.714 100.167 208.658 100.167 208.602 100.167L205.202 99.3885C204.868 99.3329 204.701 98.9993 204.757 98.7213C204.812 98.4433 205.147 98.2209 205.481 98.3321L208.881 99.1105C209.215 99.1661 209.382 99.4997 209.327 99.7777C209.271 100 209.048 100.167 208.769 100.167ZM171.595 100.167C171.317 100.167 171.094 100 171.038 99.7221C170.982 99.4441 171.149 99.1105 171.484 99.0549L174.883 98.2765C175.218 98.2209 175.497 98.3877 175.608 98.6657C175.664 98.9437 175.497 99.2773 175.162 99.3329L171.762 100.111C171.707 100.167 171.651 100.167 171.595 100.167ZM202.026 98.6101C201.97 98.6101 201.914 98.6101 201.858 98.6101L198.459 97.8317C198.124 97.7761 197.957 97.4425 198.013 97.1645C198.069 96.8865 198.403 96.6641 198.737 96.7753L202.137 97.5537C202.471 97.6093 202.639 97.9429 202.583 98.2209C202.527 98.4433 202.249 98.6101 202.026 98.6101ZM178.339 98.6101C178.06 98.6101 177.837 98.4433 177.782 98.1653C177.726 97.8873 177.893 97.5537 178.227 97.4981L181.627 96.7197C181.962 96.6641 182.24 96.8309 182.352 97.1089C182.407 97.3869 182.24 97.7205 181.906 97.7761L178.506 98.5545C178.45 98.6101 178.395 98.6101 178.339 98.6101ZM195.226 96.9977C195.17 96.9977 195.115 96.9977 195.059 96.9977L191.659 96.2193C191.325 96.1637 191.158 95.8301 191.213 95.5521C191.269 95.2741 191.603 95.0517 191.938 95.1629L195.338 95.9413C195.672 95.9969 195.839 96.3305 195.783 96.6085C195.728 96.8309 195.505 96.9977 195.226 96.9977ZM185.138 96.9977C184.86 96.9977 184.637 96.8309 184.581 96.5529C184.525 96.2749 184.693 95.9413 185.027 95.8857L188.427 95.1073C188.761 95.0517 189.04 95.2185 189.151 95.4965C189.207 95.7745 189.04 96.1081 188.705 96.1637L185.306 96.9421C185.194 96.9977 185.138 96.9977 185.138 96.9977Z" fill="#F2F2F2"/>
<path d="M190.21 192.018C190.098 192.018 189.931 191.962 189.875 191.907C189.708 191.795 189.652 191.629 189.652 191.462V122.351C189.652 122.073 189.82 121.851 190.098 121.795L247.504 108.284C247.615 108.284 247.671 108.284 247.782 108.284H247.894C248.172 108.34 248.34 108.562 248.34 108.84V177.895C248.34 178.173 248.172 178.396 247.894 178.451L190.321 192.018C190.265 192.018 190.21 192.018 190.21 192.018ZM190.767 122.796V190.739L247.169 177.451V109.507L190.767 122.796Z" fill="#F2F2F2"/>
<g opacity="0.7882">
<path d="M132.526 108.784V108.84L132.637 108.784H132.526Z" fill="#F2F2F2"/>
</g>
<g opacity="0.7882">
<path d="M132.526 177.951L132.637 177.896H132.526V177.951Z" fill="#F2F2F2"/>
</g>
<path d="M36.72 174.671C36.3856 174.671 36.1069 174.449 36.1069 174.115V171.28C36.1069 170.946 36.3856 170.724 36.72 170.724C37.0544 170.724 37.3331 170.946 37.3331 171.28V174.115C37.2773 174.449 36.9987 174.671 36.72 174.671ZM36.72 168.5C36.3856 168.5 36.1069 168.277 36.1069 167.944V164.608C36.1069 164.274 36.3856 164.052 36.72 164.052C37.0544 164.052 37.3331 164.274 37.3331 164.608V167.944C37.2773 168.222 36.9987 168.5 36.72 168.5ZM36.72 161.828C36.3856 161.828 36.1069 161.605 36.1069 161.272V157.936C36.1069 157.602 36.3856 157.38 36.72 157.38C37.0544 157.38 37.3331 157.602 37.3331 157.936V161.272C37.2773 161.55 36.9987 161.828 36.72 161.828ZM36.72 155.156C36.3856 155.156 36.1069 154.933 36.1069 154.6V151.264C36.1069 150.93 36.3856 150.708 36.72 150.708C37.0544 150.708 37.3331 150.93 37.3331 151.264V154.6C37.2773 154.878 36.9987 155.156 36.72 155.156ZM36.72 148.484C36.3856 148.484 36.1069 148.261 36.1069 147.928V144.592C36.1069 144.258 36.3856 144.036 36.72 144.036C37.0544 144.036 37.3331 144.258 37.3331 144.592V147.928C37.2773 148.206 36.9987 148.484 36.72 148.484ZM36.72 141.812C36.3856 141.812 36.1069 141.589 36.1069 141.256V137.92C36.1069 137.586 36.3856 137.364 36.72 137.364C37.0544 137.364 37.3331 137.586 37.3331 137.92V141.256C37.2773 141.534 36.9987 141.812 36.72 141.812ZM36.72 135.14C36.3856 135.14 36.1069 134.917 36.1069 134.584V131.248C36.1069 130.914 36.3856 130.692 36.72 130.692C37.0544 130.692 37.3331 130.914 37.3331 131.248V134.584C37.2773 134.862 36.9987 135.14 36.72 135.14ZM36.72 128.468C36.3856 128.468 36.1069 128.245 36.1069 127.912V124.576C36.1069 124.242 36.3856 124.02 36.72 124.02C37.0544 124.02 37.3331 124.242 37.3331 124.576V127.912C37.2773 128.19 36.9987 128.468 36.72 128.468ZM36.72 121.796C36.3856 121.796 36.1069 121.573 36.1069 121.24V117.904C36.1069 117.57 36.3856 117.348 36.72 117.348C37.0544 117.348 37.3331 117.57 37.3331 117.904V121.24C37.2773 121.518 36.9987 121.796 36.72 121.796ZM36.72 115.124C36.3856 115.124 36.1069 114.901 36.1069 114.568V111.232C36.1069 110.898 36.3856 110.676 36.72 110.676C37.0544 110.676 37.3331 110.898 37.3331 111.232V114.568C37.2773 114.846 36.9987 115.124 36.72 115.124ZM36.72 108.396C36.3856 108.396 36.1069 108.174 36.1069 107.84V104.504C36.1069 104.17 36.3856 103.948 36.72 103.948C37.0544 103.948 37.3331 104.17 37.3331 104.504V107.84C37.2773 108.174 36.9987 108.396 36.72 108.396ZM36.72 101.724C36.3856 101.724 36.1069 101.502 36.1069 101.168V97.8319C36.1069 97.4983 36.3856 97.2759 36.72 97.2759C37.0544 97.2759 37.3331 97.4983 37.3331 97.8319V101.168C37.2773 101.502 36.9987 101.724 36.72 101.724ZM36.72 95.0519C36.3856 95.0519 36.1069 94.8295 36.1069 94.4959V91.1599C36.1069 90.8263 36.3856 90.6039 36.72 90.6039C37.0544 90.6039 37.3331 90.8263 37.3331 91.1599V94.4959C37.2773 94.8295 36.9987 95.0519 36.72 95.0519ZM36.72 88.3799C36.3856 88.3799 36.1069 88.1575 36.1069 87.8239V84.4879C36.1069 84.1543 36.3856 83.9319 36.72 83.9319C37.0544 83.9319 37.3331 84.1543 37.3331 84.4879V87.8239C37.2773 88.1575 36.9987 88.3799 36.72 88.3799ZM36.72 81.7079C36.3856 81.7079 36.1069 81.4855 36.1069 81.1519V77.8159C36.1069 77.4823 36.3856 77.2599 36.72 77.2599C37.0544 77.2599 37.3331 77.4823 37.3331 77.8159V81.1519C37.2773 81.4855 36.9987 81.7079 36.72 81.7079ZM36.72 75.0359C36.3856 75.0359 36.1069 74.8135 36.1069 74.4799V71.1439C36.1069 70.8103 36.3856 70.5879 36.72 70.5879C37.0544 70.5879 37.3331 70.8103 37.3331 71.1439V74.4799C37.2773 74.8135 36.9987 75.0359 36.72 75.0359ZM36.72 68.3639C36.3856 68.3639 36.1069 68.1415 36.1069 67.8079V64.4719C36.1069 64.1383 36.3856 63.9159 36.72 63.9159C37.0544 63.9159 37.3331 64.1383 37.3331 64.4719V67.8079C37.2773 68.1415 36.9987 68.3639 36.72 68.3639ZM36.72 61.6919C36.3856 61.6919 36.1069 61.4695 36.1069 61.1359V57.7999C36.1069 57.4663 36.3856 57.2439 36.72 57.2439C37.0544 57.2439 37.3331 57.4663 37.3331 57.7999V61.1359C37.2773 61.4695 36.9987 61.6919 36.72 61.6919ZM36.72 55.0199C36.3856 55.0199 36.1069 54.7975 36.1069 54.4639V51.1279C36.1069 50.7943 36.3856 50.5719 36.72 50.5719C37.0544 50.5719 37.3331 50.7943 37.3331 51.1279V54.4639C37.2773 54.7975 36.9987 55.0199 36.72 55.0199ZM36.72 48.3479C36.3856 48.3479 36.1069 48.1255 36.1069 47.7919V44.4559C36.1069 44.1223 36.3856 43.8999 36.72 43.8999C37.0544 43.8999 37.3331 44.1223 37.3331 44.4559V47.7919C37.2773 48.1255 36.9987 48.3479 36.72 48.3479ZM36.72 41.6759C36.3856 41.6759 36.1069 41.4535 36.1069 41.1199V37.7839C36.1069 37.4503 36.3856 37.2279 36.72 37.2279C37.0544 37.2279 37.3331 37.4503 37.3331 37.7839V41.1199C37.2773 41.4535 36.9987 41.6759 36.72 41.6759ZM36.72 35.0039C36.3856 35.0039 36.1069 34.7815 36.1069 34.4479V31.1119C36.1069 30.7783 36.3856 30.5559 36.72 30.5559C37.0544 30.5559 37.3331 30.7783 37.3331 31.1119V34.4479C37.2773 34.7259 36.9987 35.0039 36.72 35.0039ZM36.72 28.3319C36.3856 28.3319 36.1069 28.1095 36.1069 27.7759V24.4399C36.1069 24.1063 36.3856 23.8839 36.72 23.8839C37.0544 23.8839 37.3331 24.1063 37.3331 24.4399V27.7759C37.2773 28.0539 36.9987 28.3319 36.72 28.3319ZM36.72 21.6599C36.3856 21.6599 36.1069 21.4375 36.1069 21.1039V17.7679C36.1069 17.4343 36.3856 17.2119 36.72 17.2119C37.0544 17.2119 37.3331 17.4343 37.3331 17.7679V21.1039C37.2773 21.3819 36.9987 21.6599 36.72 21.6599Z" fill="#F2F2F2"/>
<path d="M31.9272 21.4372L32.7632 22.2156L36.7203 18.2124L40.6216 22.2156L41.5134 21.4372L36.7203 16.5444L31.9272 21.4372Z" fill="#F2F2F2"/>
<path d="M31.9268 170.445L32.7628 169.667L36.7198 173.726L40.6212 169.667L41.5129 170.445L36.7198 175.338L31.9268 170.445Z" fill="#F2F2F2"/>
</g>
<defs>
<clipPath id="clip0_560_13884">
<rect width="246" height="223" fill="white"/>
</clipPath>
</defs>
</svg>
