<svg width="278" height="455" viewBox="0 0 278 455" fill="none" xmlns="http://www.w3.org/2000/svg">
<g clip-path="url(#clip0_256_2527)">
<rect width="278" height="455" fill="#333333"/>
<g filter="url(#filter0_b_256_2527)">
<g clip-path="url(#clip1_256_2527)">
<g filter="url(#filter1_b_256_2527)">
<rect x="-124.459" y="287.541" width="376.348" height="264.016" rx="16.7626" stroke="#7F7F7F" stroke-width="1.08146"/>
<mask id="path-4-inside-1_256_2527" fill="white">
<path d="M-111.61 300.39H239.04V323.085H-111.61V300.39Z"/>
</mask>
<path d="M239.04 322.248H-111.61V323.922H239.04V322.248Z" fill="#949494" mask="url(#path-4-inside-1_256_2527)"/>
<path d="M-18.2804 315.737V308.434H-17.396V314.953H-14.001V315.737H-18.2804ZM-10.5203 315.852C-11.0149 315.852 -11.4488 315.734 -11.822 315.498C-12.1929 315.263 -12.483 314.934 -12.6922 314.511C-12.899 314.087 -13.0024 313.593 -13.0024 313.027C-13.0024 312.457 -12.899 311.958 -12.6922 311.533C-12.483 311.107 -12.1929 310.777 -11.822 310.541C-11.4488 310.306 -11.0149 310.188 -10.5203 310.188C-10.0258 310.188 -9.59313 310.306 -9.22224 310.541C-8.84898 310.777 -8.55893 311.107 -8.35209 311.533C-8.14287 311.958 -8.03826 312.457 -8.03826 313.027C-8.03826 313.593 -8.14287 314.087 -8.35209 314.511C-8.55893 314.934 -8.84898 315.263 -9.22224 315.498C-9.59313 315.734 -10.0258 315.852 -10.5203 315.852ZM-10.5203 315.096C-10.1447 315.096 -9.83563 314.999 -9.59313 314.807C-9.35063 314.614 -9.17113 314.361 -9.05463 314.047C-8.93813 313.733 -8.87989 313.393 -8.87989 313.027C-8.87989 312.661 -8.93813 312.32 -9.05463 312.004C-9.17113 311.687 -9.35063 311.432 -9.59313 311.237C-9.83563 311.042 -10.1447 310.944 -10.5203 310.944C-10.896 310.944 -11.2051 311.042 -11.4476 311.237C-11.6901 311.432 -11.8696 311.687 -11.9861 312.004C-12.1026 312.32 -12.1608 312.661 -12.1608 313.027C-12.1608 313.393 -12.1026 313.733 -11.9861 314.047C-11.8696 314.361 -11.6901 314.614 -11.4476 314.807C-11.2051 314.999 -10.896 315.096 -10.5203 315.096ZM-6.75353 315.737V310.26H-5.94043V311.087H-5.88337C-5.78352 310.816 -5.60283 310.596 -5.34131 310.427C-5.07978 310.259 -4.78497 310.174 -4.45688 310.174C-4.39507 310.174 -4.3178 310.175 -4.22508 310.178C-4.13236 310.18 -4.06222 310.184 -4.01467 310.188V311.044C-4.0432 311.037 -4.10858 311.026 -4.21081 311.012C-4.31067 310.996 -4.41647 310.987 -4.52821 310.987C-4.79448 310.987 -5.03223 311.043 -5.24145 311.155C-5.44829 311.264 -5.61234 311.416 -5.73359 311.611C-5.85246 311.804 -5.9119 312.024 -5.9119 312.271V315.737H-6.75353ZM-0.887098 315.852C-1.4149 315.852 -1.87019 315.735 -2.25296 315.502C-2.63336 315.267 -2.92698 314.939 -3.13382 314.518C-3.33828 314.095 -3.44051 313.602 -3.44051 313.041C-3.44051 312.48 -3.33828 311.986 -3.13382 311.558C-2.92698 311.127 -2.6393 310.792 -2.27079 310.552C-1.8999 310.31 -1.4672 310.188 -0.972687 310.188C-0.687389 310.188 -0.405658 310.236 -0.127493 310.331C0.150672 310.426 0.403874 310.581 0.632112 310.795C0.86035 311.006 1.04223 311.287 1.17774 311.636C1.31326 311.986 1.38102 312.416 1.38102 312.927V313.284H-2.84139V312.556H0.525125C0.525125 312.247 0.463311 311.971 0.339682 311.729C0.21843 311.486 0.0448742 311.295 -0.180986 311.155C-0.404469 311.015 -0.66837 310.944 -0.972687 310.944C-1.30791 310.944 -1.59796 311.028 -1.84284 311.194C-2.08535 311.358 -2.27198 311.572 -2.40274 311.836C-2.5335 312.1 -2.59888 312.383 -2.59888 312.685V313.17C-2.59888 313.583 -2.52756 313.934 -2.38491 314.222C-2.23988 314.507 -2.03899 314.725 -1.78222 314.874C-1.52545 315.022 -1.22708 315.096 -0.887098 315.096C-0.665992 315.096 -0.466284 315.065 -0.287973 315.003C-0.107284 314.939 0.0484404 314.843 0.179202 314.717C0.309963 314.589 0.411006 314.43 0.48233 314.24L1.29543 314.468C1.20984 314.744 1.066 314.986 0.863916 315.195C0.66183 315.402 0.412195 315.564 0.11501 315.68C-0.182175 315.794 -0.516211 315.852 -0.887098 315.852ZM6.11339 313.498V310.26H6.95502V315.737H6.11339V314.81H6.05633C5.92795 315.088 5.72824 315.325 5.45721 315.52C5.18617 315.712 4.84382 315.809 4.43014 315.809C4.08778 315.809 3.78346 315.734 3.51718 315.584C3.25091 315.432 3.04169 315.204 2.88953 314.899C2.73737 314.593 2.66129 314.206 2.66129 313.74V310.26H3.50292V313.683C3.50292 314.083 3.61466 314.401 3.83814 314.639C4.064 314.877 4.35168 314.996 4.70117 314.996C4.91039 314.996 5.12317 314.942 5.33952 314.835C5.55825 314.728 5.74132 314.564 5.88872 314.343C6.0385 314.122 6.11339 313.84 6.11339 313.498ZM8.49652 315.737V310.26H9.30961V311.116H9.38094C9.49506 310.823 9.67931 310.596 9.9337 310.434C10.1881 310.27 10.4936 310.188 10.8502 310.188C11.2116 310.188 11.5123 310.27 11.7525 310.434C11.995 310.596 12.184 310.823 12.3195 311.116H12.3766C12.5168 310.833 12.7272 310.608 13.0078 310.442C13.2883 310.273 13.6247 310.188 14.017 310.188C14.5068 310.188 14.9074 310.342 15.2188 310.648C15.5303 310.953 15.686 311.427 15.686 312.071V315.737H14.8444V312.071C14.8444 311.667 14.7338 311.378 14.5127 311.205C14.2916 311.031 14.0313 310.944 13.7317 310.944C13.3466 310.944 13.0482 311.061 12.8366 311.294C12.625 311.525 12.5192 311.817 12.5192 312.171V315.737H11.6633V311.986C11.6633 311.674 11.5623 311.423 11.3602 311.233C11.1581 311.041 10.8978 310.944 10.5792 310.944C10.3605 310.944 10.156 311.003 9.9658 311.119C9.77798 311.236 9.62582 311.397 9.50932 311.604C9.3952 311.809 9.33814 312.045 9.33814 312.314V315.737H8.49652Z" fill="#949494"/>
<path d="M42.5879 316.619C45.2728 316.619 47.4696 314.422 47.4696 311.737C47.4696 309.053 45.2728 306.856 42.5879 306.856C39.9029 306.856 37.7061 309.053 37.7061 311.737C37.7061 314.422 39.9029 316.619 42.5879 316.619Z" stroke="#949494" stroke-width="0.836873" stroke-linecap="round" stroke-linejoin="round"/>
<path d="M42.5878 309.785V312.226" stroke="#949494" stroke-width="0.836873" stroke-linecap="round" stroke-linejoin="round"/>
<path d="M42.5851 313.69H42.5895" stroke="#949494" stroke-width="0.836873" stroke-linecap="round" stroke-linejoin="round"/>
<path d="M52.8682 315.737V308.434H53.7526V314.953H57.1476V315.737H52.8682ZM60.6283 315.852C60.1338 315.852 59.6999 315.734 59.3266 315.498C58.9557 315.263 58.6657 314.934 58.4564 314.511C58.2496 314.087 58.1462 313.593 58.1462 313.027C58.1462 312.457 58.2496 311.958 58.4564 311.533C58.6657 311.107 58.9557 310.777 59.3266 310.541C59.6999 310.306 60.1338 310.188 60.6283 310.188C61.1228 310.188 61.5555 310.306 61.9264 310.541C62.2996 310.777 62.5897 311.107 62.7965 311.533C63.0058 311.958 63.1104 312.457 63.1104 313.027C63.1104 313.593 63.0058 314.087 62.7965 314.511C62.5897 314.934 62.2996 315.263 61.9264 315.498C61.5555 315.734 61.1228 315.852 60.6283 315.852ZM60.6283 315.096C61.0039 315.096 61.313 314.999 61.5555 314.807C61.798 314.614 61.9775 314.361 62.094 314.047C62.2105 313.733 62.2687 313.393 62.2687 313.027C62.2687 312.661 62.2105 312.32 62.094 312.004C61.9775 311.687 61.798 311.432 61.5555 311.237C61.313 311.042 61.0039 310.944 60.6283 310.944C60.2526 310.944 59.9436 311.042 59.7011 311.237C59.4586 311.432 59.2791 311.687 59.1626 312.004C59.0461 312.32 58.9878 312.661 58.9878 313.027C58.9878 313.393 59.0461 313.733 59.1626 314.047C59.2791 314.361 59.4586 314.614 59.7011 314.807C59.9436 314.999 60.2526 315.096 60.6283 315.096ZM64.3951 315.737V310.26H65.2082V311.087H65.2653C65.3651 310.816 65.5458 310.596 65.8073 310.427C66.0688 310.259 66.3636 310.174 66.6917 310.174C66.7536 310.174 66.8308 310.175 66.9235 310.178C67.0163 310.18 67.0864 310.184 67.1339 310.188V311.044C67.1054 311.037 67.04 311.026 66.9378 311.012C66.838 310.996 66.7322 310.987 66.6204 310.987C66.3541 310.987 66.1164 311.043 65.9072 311.155C65.7003 311.264 65.5363 311.416 65.415 311.611C65.2962 311.804 65.2367 312.024 65.2367 312.271V315.737H64.3951ZM70.2615 315.852C69.7337 315.852 69.2784 315.735 68.8957 315.502C68.5153 315.267 68.2216 314.939 68.0148 314.518C67.8103 314.095 67.7081 313.602 67.7081 313.041C67.7081 312.48 67.8103 311.986 68.0148 311.558C68.2216 311.127 68.5093 310.792 68.8778 310.552C69.2487 310.31 69.6814 310.188 70.1759 310.188C70.4612 310.188 70.743 310.236 71.0211 310.331C71.2993 310.426 71.5525 310.581 71.7807 310.795C72.009 311.006 72.1908 311.287 72.3264 311.636C72.4619 311.986 72.5296 312.416 72.5296 312.927V313.284H68.3072V312.556H71.6737C71.6737 312.247 71.6119 311.971 71.4883 311.729C71.3671 311.486 71.1935 311.295 70.9676 311.155C70.7442 311.015 70.4803 310.944 70.1759 310.944C69.8407 310.944 69.5507 311.028 69.3058 311.194C69.0633 311.358 68.8766 311.572 68.7459 311.836C68.6151 312.1 68.5497 312.383 68.5497 312.685V313.17C68.5497 313.583 68.6211 313.934 68.7637 314.222C68.9087 314.507 69.1096 314.725 69.3664 314.874C69.6232 315.022 69.9215 315.096 70.2615 315.096C70.4826 315.096 70.6823 315.065 70.8606 315.003C71.0413 314.939 71.1971 314.843 71.3278 314.717C71.4586 314.589 71.5596 314.43 71.631 314.24L72.444 314.468C72.3585 314.744 72.2146 314.986 72.0125 315.195C71.8105 315.402 71.5608 315.564 71.2636 315.68C70.9664 315.794 70.6324 315.852 70.2615 315.852ZM77.262 313.498V310.26H78.1036V315.737H77.262V314.81H77.205C77.0766 315.088 76.8769 315.325 76.6058 315.52C76.3348 315.712 75.9924 315.809 75.5788 315.809C75.2364 315.809 74.9321 315.734 74.6658 315.584C74.3995 315.432 74.1903 315.204 74.0381 314.899C73.886 314.593 73.8099 314.206 73.8099 313.74V310.26H74.6515V313.683C74.6515 314.083 74.7633 314.401 74.9868 314.639C75.2126 314.877 75.5003 314.996 75.8498 314.996C76.059 314.996 76.2718 314.942 76.4881 314.835C76.7069 314.728 76.8899 314.564 77.0373 314.343C77.1871 314.122 77.262 313.84 77.262 313.498ZM79.6451 315.737V310.26H80.4582V311.116H80.5296C80.6437 310.823 80.8279 310.596 81.0823 310.434C81.3367 310.27 81.6422 310.188 81.9988 310.188C82.3602 310.188 82.661 310.27 82.9011 310.434C83.1436 310.596 83.3326 310.823 83.4681 311.116H83.5252C83.6655 310.833 83.8759 310.608 84.1564 310.442C84.4369 310.273 84.7734 310.188 85.1656 310.188C85.6554 310.188 86.056 310.342 86.3675 310.648C86.6789 310.953 86.8346 311.427 86.8346 312.071V315.737H85.993V312.071C85.993 311.667 85.8825 311.378 85.6613 311.205C85.4402 311.031 85.1799 310.944 84.8803 310.944C84.4952 310.944 84.1968 311.061 83.9852 311.294C83.7736 311.525 83.6678 311.817 83.6678 312.171V315.737H82.8119V311.986C82.8119 311.674 82.7109 311.423 82.5088 311.233C82.3067 311.041 82.0464 310.944 81.7278 310.944C81.5091 310.944 81.3046 311.003 81.1144 311.119C80.9266 311.236 80.7744 311.397 80.6579 311.604C80.5438 311.809 80.4868 312.045 80.4868 312.314V315.737H79.6451Z" fill="#949494"/>
<rect x="-111.192" y="336.893" width="349.813" height="43.2268" rx="2.92905" stroke="#949494" stroke-width="0.836873"/>
<path d="M-55.0989 347.866L-52.9307 354.014H-52.8451L-50.6768 347.866H-49.7496L-52.4314 355.17H-53.3443L-56.0261 347.866H-55.0989ZM-48.7261 355.17V349.692H-47.8845V355.17H-48.7261ZM-48.2981 348.779C-48.4622 348.779 -48.6036 348.723 -48.7225 348.612C-48.839 348.5 -48.8973 348.366 -48.8973 348.209C-48.8973 348.052 -48.839 347.917 -48.7225 347.806C-48.6036 347.694 -48.4622 347.638 -48.2981 347.638C-48.1341 347.638 -47.9938 347.694 -47.8773 347.806C-47.7584 347.917 -47.699 348.052 -47.699 348.209C-47.699 348.366 -47.7584 348.5 -47.8773 348.612C-47.9938 348.723 -48.1341 348.779 -48.2981 348.779ZM-44.2745 355.284C-44.731 355.284 -45.134 355.169 -45.4835 354.938C-45.833 354.705 -46.1064 354.377 -46.3037 353.954C-46.5011 353.528 -46.5997 353.025 -46.5997 352.445C-46.5997 351.87 -46.5011 351.371 -46.3037 350.948C-46.1064 350.524 -45.8318 350.197 -45.4799 349.967C-45.1281 349.736 -44.7215 349.621 -44.2603 349.621C-43.9037 349.621 -43.6219 349.68 -43.4151 349.799C-43.2059 349.916 -43.0466 350.049 -42.9372 350.199C-42.8255 350.346 -42.7387 350.467 -42.6769 350.562H-42.6056V347.866H-41.7639V355.17H-42.577V354.328H-42.6769C-42.7387 354.428 -42.8267 354.554 -42.9408 354.706C-43.0549 354.856 -43.2178 354.99 -43.4294 355.109C-43.641 355.226 -43.9227 355.284 -44.2745 355.284ZM-44.1604 354.528C-43.8228 354.528 -43.5375 354.44 -43.3045 354.264C-43.0715 354.086 -42.8944 353.84 -42.7732 353.526C-42.6519 353.21 -42.5913 352.845 -42.5913 352.431C-42.5913 352.022 -42.6507 351.664 -42.7696 351.358C-42.8885 351.049 -43.0644 350.808 -43.2974 350.637C-43.5304 350.464 -43.8181 350.377 -44.1604 350.377C-44.5171 350.377 -44.8142 350.468 -45.052 350.652C-45.2874 350.832 -45.4645 351.078 -45.5834 351.39C-45.6998 351.699 -45.7581 352.046 -45.7581 352.431C-45.7581 352.821 -45.6987 353.175 -45.5798 353.494C-45.4585 353.81 -45.2802 354.062 -45.0449 354.25C-44.8071 354.435 -44.5123 354.528 -44.1604 354.528ZM-40.1056 355.17V349.692H-39.264V355.17H-40.1056ZM-39.6777 348.779C-39.8417 348.779 -39.9832 348.723 -40.1021 348.612C-40.2186 348.5 -40.2768 348.366 -40.2768 348.209C-40.2768 348.052 -40.2186 347.917 -40.1021 347.806C-39.9832 347.694 -39.8417 347.638 -39.6777 347.638C-39.5136 347.638 -39.3734 347.694 -39.2569 347.806C-39.138 347.917 -39.0786 348.052 -39.0786 348.209C-39.0786 348.366 -39.138 348.5 -39.2569 348.612C-39.3734 348.723 -39.5136 348.779 -39.6777 348.779ZM-36.1106 355.298C-36.4577 355.298 -36.7727 355.233 -37.0556 355.102C-37.3386 354.969 -37.5632 354.778 -37.7296 354.528C-37.8961 354.276 -37.9793 353.972 -37.9793 353.615C-37.9793 353.301 -37.9175 353.047 -37.7938 352.852C-37.6702 352.655 -37.505 352.5 -37.2981 352.388C-37.0913 352.277 -36.8631 352.193 -36.6134 352.139C-36.3614 352.082 -36.1082 352.036 -35.8538 352.003C-35.521 351.96 -35.2511 351.928 -35.0443 351.907C-34.8351 351.883 -34.6829 351.844 -34.5878 351.789C-34.4903 351.734 -34.4416 351.639 -34.4416 351.504V351.475C-34.4416 351.123 -34.5379 350.85 -34.7305 350.655C-34.9207 350.46 -35.2095 350.363 -35.597 350.363C-35.9988 350.363 -36.3139 350.451 -36.5421 350.627C-36.7703 350.802 -36.9308 350.99 -37.0235 351.19L-37.8224 350.905C-37.6797 350.572 -37.4895 350.313 -37.2518 350.127C-37.0116 349.939 -36.7501 349.809 -36.4672 349.735C-36.1819 349.659 -35.9014 349.621 -35.6256 349.621C-35.4496 349.621 -35.2476 349.642 -35.0193 349.685C-34.7887 349.725 -34.5664 349.81 -34.3524 349.938C-34.1361 350.067 -33.9566 350.26 -33.8139 350.52C-33.6713 350.779 -33.6 351.126 -33.6 351.561V355.17H-34.4416V354.428H-34.4844C-34.5414 354.547 -34.6365 354.674 -34.7697 354.81C-34.9028 354.945 -35.0799 355.061 -35.3011 355.156C-35.5222 355.251 -35.792 355.298 -36.1106 355.298ZM-35.9822 354.542C-35.6494 354.542 -35.3688 354.477 -35.1406 354.346C-34.91 354.215 -34.7364 354.047 -34.6199 353.84C-34.501 353.633 -34.4416 353.415 -34.4416 353.187V352.417C-34.4773 352.46 -34.5557 352.499 -34.677 352.534C-34.7958 352.568 -34.9337 352.597 -35.0906 352.624C-35.2452 352.647 -35.3961 352.669 -35.5436 352.688C-35.6886 352.704 -35.8063 352.719 -35.8966 352.731C-36.1153 352.759 -36.3198 352.806 -36.51 352.87C-36.6978 352.932 -36.85 353.025 -36.9665 353.151C-37.0806 353.275 -37.1377 353.444 -37.1377 353.658C-37.1377 353.95 -37.0295 354.171 -36.8131 354.321C-36.5944 354.469 -36.3174 354.542 -35.9822 354.542ZM-27.6274 355.298C-27.9745 355.298 -28.2896 355.233 -28.5725 355.102C-28.8554 354.969 -29.0801 354.778 -29.2465 354.528C-29.4129 354.276 -29.4961 353.972 -29.4961 353.615C-29.4961 353.301 -29.4343 353.047 -29.3107 352.852C-29.1871 352.655 -29.0218 352.5 -28.815 352.388C-28.6081 352.277 -28.3799 352.193 -28.1303 352.139C-27.8783 352.082 -27.6251 352.036 -27.3707 352.003C-27.0378 351.96 -26.768 351.928 -26.5611 351.907C-26.3519 351.883 -26.1998 351.844 -26.1047 351.789C-26.0072 351.734 -25.9584 351.639 -25.9584 351.504V351.475C-25.9584 351.123 -26.0547 350.85 -26.2473 350.655C-26.4375 350.46 -26.7264 350.363 -27.1139 350.363C-27.5157 350.363 -27.8307 350.451 -28.059 350.627C-28.2872 350.802 -28.4477 350.99 -28.5404 351.19L-29.3392 350.905C-29.1966 350.572 -29.0064 350.313 -28.7686 350.127C-28.5285 349.939 -28.267 349.809 -27.9841 349.735C-27.6988 349.659 -27.4182 349.621 -27.1424 349.621C-26.9665 349.621 -26.7644 349.642 -26.5362 349.685C-26.3056 349.725 -26.0833 349.81 -25.8693 349.938C-25.6529 350.067 -25.4734 350.26 -25.3308 350.52C-25.1881 350.779 -25.1168 351.126 -25.1168 351.561V355.17H-25.9584V354.428H-26.0012C-26.0583 354.547 -26.1534 354.674 -26.2865 354.81C-26.4197 354.945 -26.5968 355.061 -26.8179 355.156C-27.039 355.251 -27.3089 355.298 -27.6274 355.298ZM-27.4991 354.542C-27.1662 354.542 -26.8857 354.477 -26.6574 354.346C-26.4268 354.215 -26.2533 354.047 -26.1368 353.84C-26.0179 353.633 -25.9584 353.415 -25.9584 353.187V352.417C-25.9941 352.46 -26.0726 352.499 -26.1938 352.534C-26.3127 352.568 -26.4506 352.597 -26.6075 352.624C-26.762 352.647 -26.913 352.669 -27.0604 352.688C-27.2054 352.704 -27.3231 352.719 -27.4135 352.731C-27.6322 352.759 -27.8367 352.806 -28.0269 352.87C-28.2147 352.932 -28.3668 353.025 -28.4833 353.151C-28.5974 353.275 -28.6545 353.444 -28.6545 353.658C-28.6545 353.95 -28.5463 354.171 -28.33 354.321C-28.1113 354.469 -27.8343 354.542 -27.4991 354.542ZM-22.739 351.875V355.17H-23.5807V349.692H-22.7676V350.548H-22.6962C-22.5679 350.27 -22.3729 350.046 -22.1114 349.878C-21.8499 349.706 -21.5123 349.621 -21.0986 349.621C-20.7277 349.621 -20.4032 349.697 -20.125 349.849C-19.8468 349.999 -19.6305 350.227 -19.476 350.534C-19.3214 350.838 -19.2441 351.223 -19.2441 351.689V355.17H-20.0858V351.746C-20.0858 351.316 -20.1975 350.981 -20.421 350.741C-20.6445 350.498 -20.9512 350.377 -21.3411 350.377C-21.6097 350.377 -21.8499 350.435 -22.0615 350.552C-22.2707 350.668 -22.4359 350.838 -22.5572 351.062C-22.6784 351.285 -22.739 351.556 -22.739 351.875ZM-15.4952 357.338C-15.9017 357.338 -16.2512 357.286 -16.5436 357.181C-16.8361 357.079 -17.0797 356.944 -17.2747 356.775C-17.4673 356.608 -17.6206 356.43 -17.7347 356.24L-17.0643 355.769C-16.9882 355.869 -16.8919 355.983 -16.7754 356.111C-16.6589 356.242 -16.4996 356.355 -16.2976 356.45C-16.0931 356.548 -15.8256 356.596 -15.4952 356.596C-15.0529 356.596 -14.688 356.489 -14.4003 356.275C-14.1127 356.061 -13.9688 355.726 -13.9688 355.27V354.157H-14.0401C-14.102 354.257 -14.1899 354.381 -14.304 354.528C-14.4158 354.673 -14.5775 354.803 -14.789 354.917C-14.9983 355.028 -15.2812 355.084 -15.6378 355.084C-16.08 355.084 -16.4771 354.98 -16.8289 354.771C-17.1784 354.561 -17.4554 354.257 -17.6599 353.858C-17.8619 353.458 -17.963 352.973 -17.963 352.403C-17.963 351.841 -17.8643 351.353 -17.667 350.937C-17.4697 350.518 -17.1951 350.195 -16.8432 349.967C-16.4913 349.736 -16.0848 349.621 -15.6235 349.621C-15.2669 349.621 -14.984 349.68 -14.7748 349.799C-14.5632 349.916 -14.4015 350.049 -14.2898 350.199C-14.1757 350.346 -14.0877 350.467 -14.0259 350.562H-13.9403V349.692H-13.1272V355.327C-13.1272 355.798 -13.2342 356.18 -13.4481 356.475C-13.6597 356.772 -13.945 356.99 -14.304 357.128C-14.6607 357.268 -15.0577 357.338 -15.4952 357.338ZM-15.5237 354.328C-15.1861 354.328 -14.9008 354.251 -14.6678 354.096C-14.4348 353.942 -14.2577 353.72 -14.1364 353.43C-14.0152 353.14 -13.9546 352.792 -13.9546 352.388C-13.9546 351.994 -14.014 351.645 -14.1329 351.343C-14.2517 351.041 -14.4277 350.805 -14.6607 350.634C-14.8937 350.463 -15.1813 350.377 -15.5237 350.377C-15.8803 350.377 -16.1775 350.467 -16.4152 350.648C-16.6506 350.829 -16.8277 351.071 -16.9466 351.375C-17.0631 351.68 -17.1214 352.017 -17.1214 352.388C-17.1214 352.769 -17.0619 353.105 -16.943 353.398C-16.8218 353.688 -16.6435 353.916 -16.4081 354.082C-16.1704 354.246 -15.8756 354.328 -15.5237 354.328ZM-9.28994 355.284C-9.81774 355.284 -10.273 355.168 -10.6558 354.935C-11.0362 354.699 -11.3298 354.371 -11.5367 353.95C-11.7411 353.527 -11.8434 353.035 -11.8434 352.474C-11.8434 351.913 -11.7411 351.418 -11.5367 350.99C-11.3298 350.56 -11.0421 350.225 -10.6736 349.985C-10.3027 349.742 -9.87004 349.621 -9.37553 349.621C-9.09023 349.621 -8.8085 349.668 -8.53033 349.764C-8.25217 349.859 -7.99897 350.013 -7.77073 350.227C-7.54249 350.439 -7.36061 350.719 -7.2251 351.069C-7.08958 351.418 -7.02182 351.849 -7.02182 352.36V352.716H-11.2442V351.989H-7.87772C-7.87772 351.68 -7.93953 351.404 -8.06316 351.161C-8.18441 350.919 -8.35797 350.728 -8.58383 350.587C-8.80731 350.447 -9.07121 350.377 -9.37553 350.377C-9.71075 350.377 -10.0008 350.46 -10.2457 350.627C-10.4882 350.791 -10.6748 351.005 -10.8056 351.268C-10.9363 351.532 -11.0017 351.815 -11.0017 352.117V352.602C-11.0017 353.016 -10.9304 353.367 -10.7878 353.654C-10.6427 353.94 -10.4418 354.157 -10.1851 354.307C-9.92829 354.454 -9.62992 354.528 -9.28994 354.528C-9.06883 354.528 -8.86913 354.497 -8.69081 354.435C-8.51013 354.371 -8.3544 354.276 -8.22364 354.15C-8.09288 354.022 -7.99184 353.862 -7.92051 353.672L-7.10741 353.9C-7.193 354.176 -7.33684 354.419 -7.53893 354.628C-7.74101 354.835 -7.99065 354.996 -8.28783 355.113C-8.58502 355.227 -8.91905 355.284 -9.28994 355.284ZM-4.89992 347.866V355.17H-5.74155V347.866H-4.89992ZM-1.7465 355.298C-2.09361 355.298 -2.40862 355.233 -2.69154 355.102C-2.97446 354.969 -3.19914 354.778 -3.36556 354.528C-3.53198 354.276 -3.6152 353.972 -3.6152 353.615C-3.6152 353.301 -3.55338 353.047 -3.42975 352.852C-3.30612 352.655 -3.14089 352.5 -2.93405 352.388C-2.72721 352.277 -2.49897 352.193 -2.24933 352.139C-1.99732 352.082 -1.74412 352.036 -1.48973 352.003C-1.15688 351.96 -0.887038 351.928 -0.680197 351.907C-0.470979 351.883 -0.31882 351.844 -0.223721 351.789C-0.126244 351.734 -0.0775059 351.639 -0.0775059 351.504V351.475C-0.0775059 351.123 -0.173794 350.85 -0.366369 350.655C-0.556568 350.46 -0.845432 350.363 -1.23296 350.363C-1.63475 350.363 -1.94977 350.451 -2.17801 350.627C-2.40625 350.802 -2.56673 350.99 -2.65945 351.19L-3.45828 350.905C-3.31563 350.572 -3.12543 350.313 -2.88769 350.127C-2.64756 349.939 -2.38604 349.809 -2.10312 349.735C-1.81782 349.659 -1.53728 349.621 -1.26149 349.621C-1.08556 349.621 -0.883471 349.642 -0.655233 349.685C-0.424618 349.725 -0.202323 349.81 0.0116496 349.938C0.228 350.067 0.4075 350.26 0.550149 350.52C0.692798 350.779 0.764122 351.126 0.764122 351.561V355.17H-0.0775059V354.428H-0.1203C-0.17736 354.547 -0.272459 354.674 -0.405598 354.81C-0.538737 354.945 -0.715859 355.061 -0.936965 355.156C-1.15807 355.251 -1.42791 355.298 -1.7465 355.298ZM-1.61811 354.542C-1.28527 354.542 -1.00472 354.477 -0.776485 354.346C-0.545869 354.215 -0.372313 354.047 -0.255817 353.84C-0.136943 353.633 -0.0775059 353.415 -0.0775059 353.187V352.417C-0.113168 352.46 -0.191625 352.499 -0.312876 352.534C-0.43175 352.568 -0.569644 352.597 -0.726558 352.624C-0.881094 352.647 -1.03206 352.669 -1.17947 352.688C-1.32449 352.704 -1.44218 352.719 -1.53252 352.731C-1.75125 352.759 -1.95571 352.806 -2.14591 352.87C-2.33373 352.932 -2.48589 353.025 -2.60239 353.151C-2.71651 353.275 -2.77357 353.444 -2.77357 353.658C-2.77357 353.95 -2.66539 354.171 -2.44904 354.321C-2.23031 354.469 -1.95334 354.542 -1.61811 354.542Z" fill="white"/>
<path d="M10.6577 353.25C10.3007 353.25 9.98377 353.148 9.70705 352.942C9.43032 352.733 9.21385 352.447 9.05764 352.085C8.90142 351.719 8.82331 351.3 8.82331 350.827C8.82331 350.354 8.90142 349.936 9.05764 349.575C9.21385 349.209 9.42809 348.923 9.70035 348.718C9.97708 348.508 10.2962 348.403 10.6577 348.403C11.0193 348.403 11.3362 348.508 11.6084 348.718C11.8851 348.923 12.1016 349.209 12.2578 349.575C12.4185 349.936 12.4989 350.354 12.4989 350.827C12.4989 351.3 12.4207 351.719 12.2645 352.085C12.1083 352.447 11.8918 352.733 11.6151 352.942C11.3384 353.148 11.0193 353.25 10.6577 353.25ZM10.6577 352.741C10.9077 352.741 11.1286 352.659 11.3205 352.494C11.5169 352.329 11.6687 352.103 11.7758 351.818C11.8874 351.532 11.9432 351.202 11.9432 350.827C11.9432 350.452 11.8874 350.121 11.7758 349.836C11.6687 349.546 11.5169 349.32 11.3205 349.16C11.1286 348.994 10.9077 348.912 10.6577 348.912C10.4078 348.912 10.1869 348.994 9.99493 349.16C9.80301 349.32 9.65126 349.546 9.53967 349.836C9.43255 350.121 9.37899 350.452 9.37899 350.827C9.37899 351.202 9.43255 351.532 9.53967 351.818C9.65126 352.103 9.80301 352.329 9.99493 352.494C10.1913 352.659 10.4123 352.741 10.6577 352.741ZM14.9333 353.25C14.612 353.25 14.3419 353.19 14.1232 353.069C13.9045 352.945 13.7305 352.777 13.601 352.567C13.4716 352.358 13.3779 352.117 13.3198 351.844C13.2663 351.568 13.2395 351.275 13.2395 350.967C13.2395 350.566 13.2797 350.206 13.36 349.889C13.4448 349.572 13.5653 349.305 13.7215 349.086C13.8777 348.863 14.0674 348.693 14.2906 348.577C14.5138 348.461 14.7659 348.403 15.0471 348.403C15.2792 348.403 15.5091 348.441 15.7367 348.517C15.9688 348.588 16.1741 348.689 16.3527 348.818L16.038 349.22C15.8952 349.122 15.7412 349.046 15.576 348.992C15.4109 348.934 15.2524 348.905 15.1007 348.905C14.6454 348.905 14.2995 349.097 14.063 349.481C13.8264 349.865 13.7215 350.447 13.7483 351.228L13.6278 351.108C13.7349 350.836 13.9068 350.621 14.1433 350.465C14.3799 350.304 14.6588 350.224 14.9802 350.224C15.2792 350.224 15.5448 350.289 15.7769 350.418C16.0134 350.548 16.1964 350.728 16.3259 350.961C16.4598 351.188 16.5267 351.449 16.5267 351.744C16.5267 352.034 16.4598 352.295 16.3259 352.527C16.192 352.755 16.0045 352.933 15.7635 353.063C15.5269 353.188 15.2502 353.25 14.9333 353.25ZM14.9333 352.755C15.1342 352.755 15.3105 352.712 15.4622 352.628C15.6184 352.538 15.7389 352.418 15.8238 352.266C15.913 352.11 15.9577 351.931 15.9577 351.731C15.9577 351.53 15.913 351.353 15.8238 351.202C15.7389 351.045 15.6184 350.925 15.4622 350.84C15.3105 350.755 15.1342 350.713 14.9333 350.713C14.7369 350.713 14.5606 350.755 14.4044 350.84C14.2482 350.925 14.1255 351.045 14.0362 351.202C13.9469 351.353 13.9023 351.53 13.9023 351.731C13.9023 351.931 13.9469 352.11 14.0362 352.266C14.1255 352.418 14.2482 352.538 14.4044 352.628C14.5606 352.712 14.7369 352.755 14.9333 352.755ZM17.5605 353.264C17.4578 353.264 17.3685 353.228 17.2927 353.157C17.2213 353.081 17.1856 352.994 17.1856 352.895C17.1856 352.793 17.2213 352.706 17.2927 352.634C17.3685 352.558 17.4578 352.521 17.5605 352.521C17.6631 352.521 17.7502 352.558 17.8216 352.634C17.893 352.706 17.9287 352.793 17.9287 352.895C17.9287 352.994 17.893 353.081 17.8216 353.157C17.7502 353.228 17.6631 353.264 17.5605 353.264ZM20.1917 353.25C19.964 353.25 19.7565 353.217 19.569 353.15C19.386 353.078 19.2276 352.987 19.0937 352.875C18.9642 352.764 18.8616 352.645 18.7857 352.521L19.2544 352.259C19.3035 352.322 19.3637 352.393 19.4351 352.474C19.511 352.55 19.607 352.614 19.723 352.668C19.839 352.721 19.9819 352.748 20.1515 352.748C20.455 352.748 20.6982 352.661 20.8812 352.487C21.0642 352.313 21.1557 352.094 21.1557 351.831C21.1557 351.63 21.0999 351.46 20.9884 351.322C20.8812 351.184 20.725 351.079 20.5197 351.007C20.3144 350.936 20.0689 350.9 19.7833 350.9H19.6561V350.458H19.7699C20.0511 350.458 20.3099 350.49 20.5465 350.552C20.783 350.615 20.9884 350.706 21.1624 350.827C21.341 350.947 21.4771 351.094 21.5708 351.269C21.669 351.443 21.7181 351.643 21.7181 351.871C21.7181 352.148 21.6489 352.391 21.5106 352.601C21.3767 352.806 21.1937 352.967 20.9616 353.083C20.7295 353.194 20.4728 353.25 20.1917 353.25ZM19.6561 350.853V350.418H19.7833C20.1671 350.418 20.4706 350.354 20.6938 350.224C20.9214 350.09 21.0352 349.901 21.0352 349.655C21.0352 349.521 20.9995 349.398 20.9281 349.287C20.8567 349.171 20.7518 349.079 20.6134 349.012C20.4795 348.941 20.3233 348.905 20.1448 348.905C20.0243 348.905 19.9105 348.923 19.8033 348.959C19.7007 348.99 19.6047 349.039 19.5155 349.106C19.4307 349.169 19.3525 349.249 19.2811 349.347L18.8393 349.093C18.9241 348.954 19.0312 348.834 19.1606 348.731C19.2945 348.628 19.4463 348.548 19.6159 348.49C19.7855 348.432 19.9707 348.403 20.1716 348.403C20.4438 348.403 20.6871 348.457 20.9013 348.564C21.12 348.671 21.2919 348.818 21.4168 349.006C21.5418 349.189 21.6043 349.396 21.6043 349.628C21.6043 349.825 21.5574 349.999 21.4637 350.15C21.37 350.302 21.2383 350.432 21.0687 350.539C20.9036 350.646 20.7094 350.726 20.4862 350.78C20.2675 350.829 20.0287 350.853 19.7699 350.853H19.6561ZM23.9539 348.403C24.2842 348.403 24.5564 348.466 24.7707 348.591C24.9849 348.711 25.1567 348.876 25.2862 349.086C25.4201 349.296 25.5138 349.539 25.5674 349.816C25.6254 350.088 25.6544 350.378 25.6544 350.686C25.6544 351.088 25.612 351.447 25.5272 351.764C25.4424 352.081 25.3219 352.351 25.1657 352.574C25.0094 352.793 24.8197 352.96 24.5966 353.076C24.3779 353.192 24.1279 353.25 23.8467 353.25C23.6147 353.25 23.3826 353.215 23.1505 353.143C22.9228 353.067 22.7175 352.965 22.5345 352.835L22.8492 352.433C22.992 352.532 23.146 352.61 23.3111 352.668C23.4808 352.721 23.6414 352.748 23.7932 352.748C24.2484 352.748 24.5944 352.556 24.8309 352.172C25.0719 351.789 25.1768 351.208 25.1456 350.432L25.2661 350.545C25.159 350.818 24.9871 351.034 24.7506 351.195C24.514 351.356 24.2351 351.436 23.9137 351.436C23.6102 351.436 23.3424 351.371 23.1103 351.242C22.8782 351.108 22.6952 350.927 22.5613 350.699C22.4319 350.472 22.3672 350.209 22.3672 349.909C22.3672 349.615 22.4341 349.356 22.568 349.133C22.7019 348.905 22.8871 348.727 23.1237 348.597C23.3647 348.468 23.6414 348.403 23.9539 348.403ZM23.9539 348.899C23.7575 348.899 23.5812 348.943 23.425 349.032C23.2687 349.117 23.146 349.238 23.0567 349.394C22.9719 349.546 22.9295 349.722 22.9295 349.923C22.9295 350.124 22.9719 350.302 23.0567 350.458C23.146 350.61 23.2687 350.731 23.425 350.82C23.5812 350.905 23.7575 350.947 23.9539 350.947C24.1592 350.947 24.3377 350.905 24.4895 350.82C24.6457 350.731 24.7662 350.61 24.851 350.458C24.9403 350.302 24.9849 350.124 24.9849 349.923C24.9849 349.722 24.9403 349.546 24.851 349.394C24.7662 349.238 24.6457 349.117 24.4895 349.032C24.3377 348.943 24.1592 348.899 23.9539 348.899ZM30.411 353.17L30.3842 352.621V351.402C30.3842 351.139 30.3552 350.923 30.2972 350.753C30.2392 350.579 30.1477 350.447 30.0227 350.358C29.8977 350.269 29.7348 350.224 29.534 350.224C29.351 350.224 29.1925 350.262 29.0586 350.338C28.9292 350.409 28.8221 350.525 28.7373 350.686L28.2552 350.499C28.34 350.342 28.4427 350.209 28.5632 350.097C28.6837 349.981 28.8243 349.894 28.985 349.836C29.1457 349.773 29.3287 349.742 29.534 349.742C29.8464 349.742 30.103 349.805 30.3039 349.93C30.5092 350.05 30.6632 350.231 30.7659 350.472C30.8685 350.708 30.9176 351.003 30.9131 351.356L30.9064 353.17H30.411ZM29.4068 353.25C29.014 353.25 28.706 353.161 28.4829 352.982C28.2642 352.799 28.1548 352.547 28.1548 352.226C28.1548 351.887 28.2664 351.628 28.4896 351.449C28.7172 351.266 29.0341 351.175 29.4402 351.175H30.3976V351.623H29.5608C29.2483 351.623 29.0252 351.675 28.8913 351.777C28.7618 351.88 28.6971 352.027 28.6971 352.219C28.6971 352.393 28.7618 352.532 28.8913 352.634C29.0207 352.733 29.2015 352.782 29.4335 352.782C29.6255 352.782 29.7928 352.741 29.9357 352.661C30.0785 352.576 30.1879 352.458 30.2637 352.306C30.3441 352.15 30.3842 351.967 30.3842 351.757H30.6119C30.6119 352.213 30.5092 352.576 30.3039 352.849C30.0986 353.116 29.7995 353.25 29.4068 353.25ZM31.8957 353.17V349.822H32.3979L32.4246 350.291C32.5273 350.113 32.659 349.976 32.8196 349.883C32.9803 349.789 33.1678 349.742 33.382 349.742C33.6498 349.742 33.8774 349.805 34.0649 349.93C34.2568 350.055 34.3952 350.244 34.48 350.499C34.5737 350.253 34.7099 350.066 34.8884 349.936C35.0714 349.807 35.2879 349.742 35.5378 349.742C35.9127 349.742 36.2073 349.867 36.4215 350.117C36.6402 350.367 36.7474 350.746 36.7429 351.255V353.17H36.2073V351.456C36.2073 351.126 36.1716 350.874 36.1002 350.699C36.0332 350.525 35.9417 350.407 35.8257 350.345C35.7096 350.278 35.5757 350.244 35.424 350.244C35.1607 350.244 34.9553 350.349 34.8081 350.559C34.6608 350.764 34.5871 351.057 34.5871 351.436V353.17H34.0515V351.456C34.0515 351.126 34.0158 350.874 33.9444 350.699C33.8774 350.525 33.7837 350.407 33.6632 350.345C33.5472 350.278 33.4133 350.244 33.2615 350.244C33.0026 350.244 32.7996 350.349 32.6523 350.559C32.505 350.764 32.4313 351.057 32.4313 351.436V353.17H31.8957Z" fill="#C4C4C4"/>
<path d="M-55.5982 369.844V363.986H-52.1168V364.63H-54.8868V366.63H-52.4432V367.274H-54.8868V369.844H-55.5982ZM-49.2956 369.944C-49.7029 369.944 -50.0627 369.852 -50.3752 369.668C-50.6876 369.478 -50.9331 369.219 -51.1116 368.89C-51.2846 368.56 -51.3711 368.181 -51.3711 367.752C-51.3711 367.322 -51.2846 366.943 -51.1116 366.613C-50.9331 366.284 -50.6904 366.028 -50.3835 365.843C-50.0711 365.654 -49.714 365.559 -49.3123 365.559C-48.9218 365.559 -48.5843 365.657 -48.2997 365.852C-48.0152 366.041 -47.7948 366.309 -47.6386 366.655C-47.4824 367.001 -47.4043 367.408 -47.4043 367.877H-50.8606L-50.6932 367.735C-50.6932 368.07 -50.6346 368.357 -50.5174 368.597C-50.3947 368.837 -50.2245 369.021 -50.0069 369.149C-49.7894 369.272 -49.5411 369.333 -49.2621 369.333C-48.9664 369.333 -48.7182 369.263 -48.5173 369.124C-48.3109 368.984 -48.1519 368.8 -48.0403 368.572L-47.4629 368.865C-47.5689 369.082 -47.7111 369.272 -47.8897 369.434C-48.0626 369.595 -48.269 369.721 -48.5089 369.81C-48.7433 369.899 -49.0055 369.944 -49.2956 369.944ZM-50.6513 367.45L-50.8271 367.316H-47.9399L-48.1156 367.459C-48.1156 367.191 -48.1686 366.959 -48.2746 366.764C-48.3806 366.569 -48.5229 366.418 -48.7014 366.312C-48.88 366.206 -49.0864 366.153 -49.3207 366.153C-49.5495 366.153 -49.767 366.206 -49.9735 366.312C-50.1743 366.418 -50.3389 366.569 -50.4672 366.764C-50.59 366.954 -50.6513 367.182 -50.6513 367.45ZM-46.9355 369.844L-45.2283 367.442L-44.0232 365.659H-43.2281L-44.8182 367.919L-46.1237 369.844H-46.9355ZM-43.9311 369.844L-45.2199 367.919L-46.8267 365.659H-46.0317L-44.8182 367.442L-43.1277 369.844H-43.9311ZM-40.8296 369.944C-41.1364 369.944 -41.4042 369.899 -41.633 369.81C-41.8617 369.715 -42.0542 369.593 -42.2104 369.442C-42.3611 369.291 -42.4699 369.127 -42.5368 368.948L-41.951 368.706C-41.8562 368.895 -41.7139 369.049 -41.5242 369.166C-41.3345 369.283 -41.1253 369.342 -40.8965 369.342C-40.6343 369.342 -40.4139 369.291 -40.2354 369.191C-40.0569 369.085 -39.9676 368.937 -39.9676 368.747C-39.9676 368.574 -40.0346 368.435 -40.1685 368.329C-40.2968 368.223 -40.4893 368.136 -40.7459 368.07L-41.1476 367.961C-41.527 367.86 -41.8227 367.71 -42.0347 367.509C-42.2467 367.302 -42.3527 367.071 -42.3527 366.814C-42.3527 366.418 -42.2244 366.111 -41.9677 365.894C-41.7055 365.67 -41.3178 365.559 -40.8045 365.559C-40.559 365.559 -40.3358 365.595 -40.135 365.668C-39.9341 365.74 -39.7612 365.843 -39.6161 365.977C-39.4711 366.106 -39.3651 366.259 -39.2981 366.438L-39.8839 366.697C-39.9565 366.507 -40.0764 366.371 -40.2438 366.287C-40.4112 366.203 -40.6148 366.161 -40.8547 366.161C-41.1113 366.161 -41.3122 366.217 -41.4572 366.329C-41.6023 366.435 -41.6748 366.585 -41.6748 366.781C-41.6748 366.892 -41.6163 366.998 -41.4991 367.099C-41.3764 367.194 -41.1978 367.272 -40.9635 367.333L-40.5451 367.442C-40.2717 367.509 -40.0429 367.609 -39.8588 367.743C-39.6747 367.871 -39.5352 368.019 -39.4404 368.187C-39.3455 368.354 -39.2981 368.533 -39.2981 368.722C-39.2981 368.973 -39.3651 369.191 -39.499 369.375C-39.6329 369.559 -39.8142 369.701 -40.0429 369.802C-40.2717 369.897 -40.5339 369.944 -40.8296 369.944ZM-38.1866 371.517V365.659H-37.5589L-37.5171 366.429V371.517H-38.1866ZM-36.1028 369.944C-36.4543 369.944 -36.7639 369.852 -37.0317 369.668C-37.2939 369.484 -37.4976 369.227 -37.6426 368.898C-37.7877 368.563 -37.8602 368.181 -37.8602 367.752C-37.8602 367.316 -37.7877 366.934 -37.6426 366.605C-37.4976 366.276 -37.2939 366.019 -37.0317 365.835C-36.7639 365.651 -36.4543 365.559 -36.1028 365.559C-35.729 365.559 -35.3998 365.651 -35.1153 365.835C-34.8307 366.019 -34.6103 366.276 -34.4541 366.605C-34.2923 366.934 -34.2114 367.316 -34.2114 367.752C-34.2114 368.181 -34.2923 368.563 -34.4541 368.898C-34.6103 369.227 -34.8307 369.484 -35.1153 369.668C-35.3998 369.852 -35.729 369.944 -36.1028 369.944ZM-36.2534 369.333C-35.9912 369.333 -35.7596 369.266 -35.5588 369.132C-35.3524 368.998 -35.1906 368.812 -35.0734 368.572C-34.9507 368.332 -34.8893 368.058 -34.8893 367.752C-34.8893 367.445 -34.9479 367.171 -35.065 366.931C-35.1766 366.691 -35.3356 366.505 -35.5421 366.371C-35.7485 366.237 -35.9828 366.17 -36.245 366.17C-36.4905 366.17 -36.7109 366.237 -36.9062 366.371C-37.0959 366.505 -37.2465 366.691 -37.3581 366.931C-37.4641 367.171 -37.5171 367.445 -37.5171 367.752C-37.5171 368.058 -37.4641 368.332 -37.3581 368.572C-37.2465 368.812 -37.0959 368.998 -36.9062 369.132C-36.7165 369.266 -36.4989 369.333 -36.2534 369.333ZM-30.5391 369.844L-30.5725 369.157V367.634C-30.5725 367.305 -30.6088 367.035 -30.6813 366.823C-30.7539 366.605 -30.8682 366.44 -31.0245 366.329C-31.1807 366.217 -31.3843 366.161 -31.6354 366.161C-31.8641 366.161 -32.0622 366.209 -32.2295 366.304C-32.3913 366.393 -32.5252 366.538 -32.6312 366.739L-33.2338 366.505C-33.1278 366.309 -32.9995 366.142 -32.8488 366.002C-32.6982 365.857 -32.5225 365.749 -32.3216 365.676C-32.1208 365.598 -31.892 365.559 -31.6354 365.559C-31.2448 365.559 -30.924 365.637 -30.673 365.793C-30.4163 365.944 -30.2238 366.17 -30.0955 366.471C-29.9672 366.767 -29.9058 367.135 -29.9114 367.576L-29.9198 369.844H-30.5391ZM-31.7944 369.944C-32.2853 369.944 -32.6703 369.833 -32.9493 369.609C-33.2226 369.381 -33.3593 369.065 -33.3593 368.664C-33.3593 368.24 -33.2198 367.916 -32.9409 367.693C-32.6564 367.464 -32.2602 367.35 -31.7525 367.35H-30.5558V367.911H-31.6019C-31.9924 367.911 -32.2714 367.975 -32.4388 368.103C-32.6006 368.231 -32.6815 368.415 -32.6815 368.655C-32.6815 368.873 -32.6006 369.046 -32.4388 369.174C-32.277 369.297 -32.051 369.358 -31.7609 369.358C-31.521 369.358 -31.3118 369.308 -31.1332 369.208C-30.9547 369.102 -30.818 368.954 -30.7232 368.764C-30.6228 368.569 -30.5725 368.34 -30.5725 368.078H-30.288C-30.288 368.647 -30.4163 369.102 -30.673 369.442C-30.9296 369.777 -31.3034 369.944 -31.7944 369.944ZM-26.8169 369.944C-27.2298 369.944 -27.5952 369.852 -27.9132 369.668C-28.2313 369.478 -28.4795 369.219 -28.6581 368.89C-28.8366 368.56 -28.9259 368.181 -28.9259 367.752C-28.9259 367.322 -28.8394 366.943 -28.6664 366.613C-28.4879 366.284 -28.2396 366.028 -27.9216 365.843C-27.6036 365.654 -27.241 365.559 -26.8337 365.559C-26.432 365.559 -26.0721 365.651 -25.7541 365.835C-25.4361 366.019 -25.1934 366.279 -25.026 366.613L-25.637 366.89C-25.7485 366.666 -25.9103 366.493 -26.1223 366.371C-26.3343 366.242 -26.577 366.178 -26.8504 366.178C-27.1238 366.178 -27.3665 366.245 -27.5785 366.379C-27.7849 366.513 -27.9495 366.7 -28.0723 366.94C-28.1894 367.174 -28.248 367.445 -28.248 367.752C-28.248 368.058 -28.1894 368.332 -28.0723 368.572C-27.9495 368.806 -27.7821 368.99 -27.5701 369.124C-27.3525 369.258 -27.1071 369.325 -26.8337 369.325C-26.5603 369.325 -26.3176 369.255 -26.1056 369.116C-25.888 368.976 -25.7234 368.781 -25.6118 368.53L-25.0009 368.806C-25.1683 369.163 -25.411 369.442 -25.729 369.643C-26.047 369.844 -26.4097 369.944 -26.8169 369.944ZM-22.1554 369.944C-22.5627 369.944 -22.9226 369.852 -23.235 369.668C-23.5474 369.478 -23.7929 369.219 -23.9714 368.89C-24.1444 368.56 -24.2309 368.181 -24.2309 367.752C-24.2309 367.322 -24.1444 366.943 -23.9714 366.613C-23.7929 366.284 -23.5502 366.028 -23.2434 365.843C-22.9309 365.654 -22.5739 365.559 -22.1722 365.559C-21.7816 365.559 -21.4441 365.657 -21.1596 365.852C-20.875 366.041 -20.6546 366.309 -20.4984 366.655C-20.3422 367.001 -20.2641 367.408 -20.2641 367.877H-23.7204L-23.553 367.735C-23.553 368.07 -23.4944 368.357 -23.3773 368.597C-23.2545 368.837 -23.0844 369.021 -22.8668 369.149C-22.6492 369.272 -22.4009 369.333 -22.122 369.333C-21.8263 369.333 -21.578 369.263 -21.3771 369.124C-21.1707 368.984 -21.0117 368.8 -20.9001 368.572L-20.3227 368.865C-20.4287 369.082 -20.571 369.272 -20.7495 369.434C-20.9224 369.595 -21.1289 369.721 -21.3688 369.81C-21.6031 369.899 -21.8653 369.944 -22.1554 369.944ZM-23.5112 367.45L-23.6869 367.316H-20.7997L-20.9754 367.459C-20.9754 367.191 -21.0284 366.959 -21.1344 366.764C-21.2405 366.569 -21.3827 366.418 -21.5613 366.312C-21.7398 366.206 -21.9462 366.153 -22.1805 366.153C-22.4093 366.153 -22.6269 366.206 -22.8333 366.312C-23.0341 366.418 -23.1987 366.569 -23.3271 366.764C-23.4498 366.954 -23.5112 367.182 -23.5112 367.45ZM-16.9755 371.517V365.659H-16.3478L-16.306 366.429V371.517H-16.9755ZM-14.8916 369.944C-15.2431 369.944 -15.5528 369.852 -15.8206 369.668C-16.0828 369.484 -16.2864 369.227 -16.4315 368.898C-16.5765 368.563 -16.6491 368.181 -16.6491 367.752C-16.6491 367.316 -16.5765 366.934 -16.4315 366.605C-16.2864 366.276 -16.0828 366.019 -15.8206 365.835C-15.5528 365.651 -15.2431 365.559 -14.8916 365.559C-14.5178 365.559 -14.1887 365.651 -13.9041 365.835C-13.6196 366.019 -13.3992 366.276 -13.243 366.605C-13.0812 366.934 -13.0003 367.316 -13.0003 367.752C-13.0003 368.181 -13.0812 368.563 -13.243 368.898C-13.3992 369.227 -13.6196 369.484 -13.9041 369.668C-14.1887 369.852 -14.5178 369.944 -14.8916 369.944ZM-15.0423 369.333C-14.7801 369.333 -14.5485 369.266 -14.3477 369.132C-14.1412 368.998 -13.9794 368.812 -13.8623 368.572C-13.7395 368.332 -13.6782 368.058 -13.6782 367.752C-13.6782 367.445 -13.7368 367.171 -13.8539 366.931C-13.9655 366.691 -14.1245 366.505 -14.3309 366.371C-14.5374 366.237 -14.7717 366.17 -15.0339 366.17C-15.2794 366.17 -15.4998 366.237 -15.695 366.371C-15.8847 366.505 -16.0354 366.691 -16.1469 366.931C-16.253 367.171 -16.306 367.445 -16.306 367.752C-16.306 368.058 -16.253 368.332 -16.1469 368.572C-16.0354 368.812 -15.8847 368.998 -15.695 369.132C-15.5053 369.266 -15.2878 369.333 -15.0423 369.333ZM-11.5373 367.576C-11.5373 367.124 -11.4508 366.758 -11.2779 366.479C-11.1049 366.195 -10.8845 365.986 -10.6167 365.852C-10.3433 365.712 -10.056 365.643 -9.75475 365.643V366.27C-10.0002 366.27 -10.2373 366.312 -10.4661 366.396C-10.6893 366.474 -10.8734 366.605 -11.0184 366.789C-11.1635 366.973 -11.236 367.224 -11.236 367.542L-11.5373 367.576ZM-11.9055 369.844V365.659H-11.236V369.844H-11.9055ZM-7.06093 369.944C-7.46821 369.944 -7.83085 369.852 -8.14887 369.668C-8.4613 369.478 -8.70678 369.219 -8.88531 368.89C-9.06385 368.56 -9.15311 368.181 -9.15311 367.752C-9.15311 367.322 -9.06664 366.943 -8.89368 366.613C-8.71515 366.284 -8.46967 366.028 -8.15723 365.843C-7.83922 365.654 -7.47937 365.559 -7.07767 365.559C-6.66481 365.559 -6.30217 365.654 -5.98973 365.843C-5.67172 366.028 -5.42624 366.284 -5.25329 366.613C-5.07475 366.943 -4.98549 367.322 -4.98549 367.752C-4.98549 368.181 -5.07475 368.56 -5.25329 368.89C-5.42624 369.219 -5.66893 369.478 -5.98137 369.668C-6.2938 369.852 -6.65365 369.944 -7.06093 369.944ZM-7.06093 369.325C-6.78197 369.325 -6.53928 369.258 -6.33285 369.124C-6.12642 368.99 -5.96463 368.806 -5.84747 368.572C-5.72472 368.337 -5.66335 368.064 -5.66335 367.752C-5.66335 367.439 -5.72472 367.166 -5.84747 366.931C-5.96463 366.697 -6.12921 366.513 -6.34122 366.379C-6.55323 366.245 -6.79871 366.178 -7.07767 366.178C-7.35105 366.178 -7.59374 366.245 -7.80575 366.379C-8.01218 366.513 -8.17676 366.697 -8.2995 366.931C-8.41667 367.166 -8.47525 367.439 -8.47525 367.752C-8.47525 368.058 -8.41667 368.332 -8.2995 368.572C-8.17676 368.806 -8.00939 368.99 -7.79738 369.124C-7.57979 369.258 -7.33431 369.325 -7.06093 369.325ZM-3.2023 364.68C-3.31388 364.68 -3.41151 364.638 -3.4952 364.555C-3.57889 364.471 -3.62073 364.373 -3.62073 364.262C-3.62073 364.139 -3.57889 364.039 -3.4952 363.96C-3.41151 363.877 -3.31388 363.835 -3.2023 363.835C-3.08513 363.835 -2.98471 363.877 -2.90102 363.96C-2.81733 364.039 -2.77549 364.139 -2.77549 364.262C-2.77549 364.373 -2.81733 364.471 -2.90102 364.555C-2.98471 364.638 -3.08513 364.68 -3.2023 364.68ZM-4.13122 371.643C-4.33765 371.643 -4.59987 371.57 -4.91788 371.425L-4.66682 370.865C-4.53292 370.915 -4.42134 370.954 -4.33207 370.982C-4.23723 371.01 -4.16191 371.024 -4.10612 371.024C-3.72674 371.024 -3.53704 370.781 -3.53704 370.296V365.659H-2.86755V370.312C-2.86755 370.748 -2.97355 371.077 -3.18556 371.3C-3.39757 371.529 -3.71279 371.643 -4.13122 371.643ZM0.359057 369.944C-0.0482214 369.944 -0.408077 369.852 -0.720509 369.668C-1.03294 369.478 -1.27842 369.219 -1.45696 368.89C-1.62991 368.56 -1.71639 368.181 -1.71639 367.752C-1.71639 367.322 -1.62991 366.943 -1.45696 366.613C-1.27842 366.284 -1.03573 366.028 -0.728878 365.843C-0.416445 365.654 -0.0593798 365.559 0.342319 365.559C0.73286 365.559 1.0704 365.657 1.35494 365.852C1.63947 366.041 1.85985 366.309 2.01606 366.655C2.17228 367.001 2.25039 367.408 2.25039 367.877H-1.2059L-1.03852 367.735C-1.03852 368.07 -0.97994 368.357 -0.862777 368.597C-0.740036 368.837 -0.569872 369.021 -0.352285 369.149C-0.134698 369.272 0.113574 369.333 0.392532 369.333C0.688227 369.333 0.936499 369.263 1.13735 369.124C1.34378 368.984 1.50278 368.8 1.61437 368.572L2.19181 368.865C2.0858 369.082 1.94354 369.272 1.765 369.434C1.59205 369.595 1.38562 369.721 1.14572 369.81C0.911393 369.899 0.649173 369.944 0.359057 369.944ZM-0.996677 367.45L-1.17242 367.316H1.71479L1.53905 367.459C1.53905 367.191 1.48605 366.959 1.38004 366.764C1.27404 366.569 1.13177 366.418 0.953236 366.312C0.774703 366.206 0.568275 366.153 0.33395 366.153C0.105205 366.153 -0.112382 366.206 -0.31881 366.312C-0.51966 366.418 -0.684245 366.569 -0.812565 366.764C-0.935306 366.954 -0.996677 367.182 -0.996677 367.45ZM5.12838 369.944C4.71552 369.944 4.35009 369.852 4.03208 369.668C3.71406 369.478 3.46579 369.219 3.28726 368.89C3.10873 368.56 3.01946 368.181 3.01946 367.752C3.01946 367.322 3.10594 366.943 3.27889 366.613C3.45742 366.284 3.7057 366.028 4.02371 365.843C4.34172 365.654 4.70436 365.559 5.11164 365.559C5.51334 365.559 5.8732 365.651 6.19121 365.835C6.50922 366.019 6.75191 366.279 6.91929 366.613L6.30837 366.89C6.19679 366.666 6.03499 366.493 5.82298 366.371C5.61098 366.242 5.36828 366.178 5.0949 366.178C4.82153 366.178 4.57883 366.245 4.36682 366.379C4.1604 366.513 3.99581 366.7 3.87307 366.94C3.75591 367.174 3.69733 367.445 3.69733 367.752C3.69733 368.058 3.75591 368.332 3.87307 368.572C3.99581 368.806 4.16319 368.99 4.37519 369.124C4.59278 369.258 4.83826 369.325 5.11164 369.325C5.38502 369.325 5.62771 369.255 5.83972 369.116C6.05731 368.976 6.22189 368.781 6.33348 368.53L6.94439 368.806C6.77702 369.163 6.53433 369.442 6.21631 369.643C5.8983 369.844 5.53566 369.944 5.12838 369.944ZM9.53046 369.944C9.12318 369.944 8.80796 369.838 8.5848 369.626C8.36163 369.414 8.25005 369.116 8.25005 368.731V364.354H8.91954V368.664C8.91954 368.876 8.97534 369.04 9.08692 369.157C9.20408 369.269 9.36588 369.325 9.57231 369.325C9.63926 369.325 9.70342 369.316 9.76479 369.3C9.83174 369.277 9.91821 369.227 10.0242 369.149L10.2836 369.693C10.1386 369.788 10.0075 369.852 9.89032 369.886C9.77315 369.925 9.6532 369.944 9.53046 369.944ZM7.52197 366.254V365.659H10.1749V366.254H7.52197ZM11.0362 370.806L11.5133 369.04H12.2664L11.6137 370.806H11.0362ZM15.5776 369.844V365.659H16.2052L16.2471 366.429V369.844H15.5776ZM18.515 369.844V367.701H19.1845V369.844H18.515ZM18.515 367.701C18.515 367.288 18.4676 366.973 18.3727 366.756C18.2779 366.538 18.1468 366.39 17.9794 366.312C17.812 366.228 17.6223 366.187 17.4103 366.187C17.0421 366.187 16.7548 366.318 16.5484 366.58C16.3475 366.837 16.2471 367.202 16.2471 367.676H15.9207C15.9207 367.235 15.9849 366.856 16.1132 366.538C16.2415 366.22 16.4284 365.977 16.6739 365.81C16.9194 365.643 17.2151 365.559 17.561 365.559C17.8901 365.559 18.1747 365.626 18.4146 365.76C18.6601 365.888 18.8498 366.094 18.9837 366.379C19.1231 366.664 19.1901 367.037 19.1845 367.5V367.701H18.515ZM22.2443 369.944C21.837 369.944 21.4771 369.852 21.1647 369.668C20.8523 369.478 20.6068 369.219 20.4282 368.89C20.2553 368.56 20.1688 368.181 20.1688 367.752C20.1688 367.322 20.2553 366.943 20.4282 366.613C20.6068 366.284 20.8495 366.028 21.1563 365.843C21.4688 365.654 21.8258 365.559 22.2275 365.559C22.6181 365.559 22.9556 365.657 23.2401 365.852C23.5247 366.041 23.745 366.309 23.9013 366.655C24.0575 367.001 24.1356 367.408 24.1356 367.877H20.6793L20.8467 367.735C20.8467 368.07 20.9053 368.357 21.0224 368.597C21.1452 368.837 21.3153 369.021 21.5329 369.149C21.7505 369.272 21.9988 369.333 22.2777 369.333C22.5734 369.333 22.8217 369.263 23.0225 369.124C23.229 368.984 23.388 368.8 23.4996 368.572L24.077 368.865C23.971 369.082 23.8287 369.272 23.6502 369.434C23.4772 369.595 23.2708 369.721 23.0309 369.81C22.7966 369.899 22.5344 369.944 22.2443 369.944ZM20.8885 367.45L20.7128 367.316H23.6L23.4242 367.459C23.4242 367.191 23.3712 366.959 23.2652 366.764C23.1592 366.569 23.017 366.418 22.8384 366.312C22.6599 366.206 22.4535 366.153 22.2191 366.153C21.9904 366.153 21.7728 366.206 21.5664 366.312C21.3655 366.418 21.201 366.569 21.0726 366.764C20.9499 366.954 20.8885 367.182 20.8885 367.45ZM28.8405 369.844L30.2548 365.659H30.9327L29.51 369.844H28.8405ZM25.9951 369.844L27.4095 365.659H28.0371L26.6395 369.844H25.9951ZM25.9617 369.844L24.539 365.659H25.2169L26.6144 369.844H25.9617ZM28.8405 369.844L27.4429 365.659H28.079L29.4765 369.844H28.8405ZM35.8723 369.944C35.4595 369.944 35.094 369.852 34.776 369.668C34.458 369.478 34.2097 369.219 34.0312 368.89C33.8527 368.56 33.7634 368.181 33.7634 367.752C33.7634 367.322 33.8499 366.943 34.0228 366.613C34.2014 366.284 34.4496 366.028 34.7677 365.843C35.0857 365.654 35.4483 365.559 35.8556 365.559C36.2573 365.559 36.6171 365.651 36.9352 365.835C37.2532 366.019 37.4959 366.279 37.6632 366.613L37.0523 366.89C36.9407 366.666 36.7789 366.493 36.5669 366.371C36.3549 366.242 36.1122 366.178 35.8389 366.178C35.5655 366.178 35.3228 366.245 35.1108 366.379C34.9043 366.513 34.7398 366.7 34.617 366.94C34.4999 367.174 34.4413 367.445 34.4413 367.752C34.4413 368.058 34.4999 368.332 34.617 368.572C34.7398 368.806 34.9071 368.99 35.1191 369.124C35.3367 369.258 35.5822 369.325 35.8556 369.325C36.129 369.325 36.3717 369.255 36.5837 369.116C36.8013 368.976 36.9658 368.781 37.0774 368.53L37.6883 368.806C37.521 369.163 37.2783 369.442 36.9603 369.643C36.6423 369.844 36.2796 369.944 35.8723 369.944ZM41.5716 369.844L41.5297 369.074V365.659H42.1992V369.844H41.5716ZM38.5923 367.802V365.659H39.2618V367.802H38.5923ZM39.2618 367.802C39.2618 368.215 39.3092 368.53 39.4041 368.747C39.4989 368.965 39.63 369.116 39.7974 369.199C39.9704 369.277 40.1628 369.316 40.3748 369.316C40.7375 369.316 41.0192 369.185 41.2201 368.923C41.4265 368.661 41.5297 368.295 41.5297 367.827H41.8561C41.8561 368.268 41.7919 368.647 41.6636 368.965C41.5353 369.283 41.3484 369.526 41.1029 369.693C40.863 369.86 40.5673 369.944 40.2158 369.944C39.8922 369.944 39.6077 369.88 39.3622 369.752C39.1167 369.618 38.9271 369.409 38.7932 369.124C38.6593 368.834 38.5923 368.46 38.5923 368.003V367.802H39.2618ZM44.9995 369.944C44.6927 369.944 44.4249 369.899 44.1961 369.81C43.9674 369.715 43.7749 369.593 43.6187 369.442C43.4681 369.291 43.3593 369.127 43.2923 368.948L43.8781 368.706C43.973 368.895 44.1152 369.049 44.3049 369.166C44.4946 369.283 44.7038 369.342 44.9326 369.342C45.1948 369.342 45.4152 369.291 45.5937 369.191C45.7723 369.085 45.8615 368.937 45.8615 368.747C45.8615 368.574 45.7946 368.435 45.6607 368.329C45.5324 368.223 45.3399 368.136 45.0832 368.07L44.6815 367.961C44.3021 367.86 44.0065 367.71 43.7944 367.509C43.5824 367.302 43.4764 367.071 43.4764 366.814C43.4764 366.418 43.6048 366.111 43.8614 365.894C44.1236 365.67 44.5114 365.559 45.0246 365.559C45.2701 365.559 45.4933 365.595 45.6941 365.668C45.895 365.74 46.0679 365.843 46.213 365.977C46.3581 366.106 46.4641 366.259 46.531 366.438L45.9452 366.697C45.8727 366.507 45.7527 366.371 45.5854 366.287C45.418 366.203 45.2143 366.161 44.9744 366.161C44.7178 366.161 44.5169 366.217 44.3719 366.329C44.2268 366.435 44.1543 366.585 44.1543 366.781C44.1543 366.892 44.2129 366.998 44.33 367.099C44.4528 367.194 44.6313 367.272 44.8656 367.333L45.2841 367.442C45.5575 367.509 45.7862 367.609 45.9703 367.743C46.1544 367.871 46.2939 368.019 46.3888 368.187C46.4836 368.354 46.531 368.533 46.531 368.722C46.531 368.973 46.4641 369.191 46.3302 369.375C46.1963 369.559 46.0149 369.701 45.7862 369.802C45.5575 369.897 45.2952 369.944 44.9995 369.944ZM49.174 369.944C48.7668 369.944 48.4515 369.838 48.2284 369.626C48.0052 369.414 47.8936 369.116 47.8936 368.731V364.354H48.5631V368.664C48.5631 368.876 48.6189 369.04 48.7305 369.157C48.8477 369.269 49.0094 369.325 49.2159 369.325C49.2828 369.325 49.347 369.316 49.4084 369.3C49.4753 369.277 49.5618 369.227 49.6678 369.149L49.9272 369.693C49.7822 369.788 49.651 369.852 49.5339 369.886C49.4167 369.925 49.2968 369.944 49.174 369.944ZM47.1655 366.254V365.659H49.8184V366.254H47.1655ZM52.7558 369.944C52.3486 369.944 51.9859 369.852 51.6679 369.668C51.3555 369.478 51.11 369.219 50.9315 368.89C50.7529 368.56 50.6637 368.181 50.6637 367.752C50.6637 367.322 50.7501 366.943 50.9231 366.613C51.1016 366.284 51.3471 366.028 51.6595 365.843C51.9776 365.654 52.3374 365.559 52.7391 365.559C53.152 365.559 53.5146 365.654 53.827 365.843C54.1451 366.028 54.3905 366.284 54.5635 366.613C54.742 366.943 54.8313 367.322 54.8313 367.752C54.8313 368.181 54.742 368.56 54.5635 368.89C54.3905 369.219 54.1478 369.478 53.8354 369.668C53.523 369.852 53.1631 369.944 52.7558 369.944ZM52.7558 369.325C53.0348 369.325 53.2775 369.258 53.4839 369.124C53.6904 368.99 53.8522 368.806 53.9693 368.572C54.0921 368.337 54.1534 368.064 54.1534 367.752C54.1534 367.439 54.0921 367.166 53.9693 366.931C53.8522 366.697 53.6876 366.513 53.4756 366.379C53.2636 366.245 53.0181 366.178 52.7391 366.178C52.4657 366.178 52.223 366.245 52.011 366.379C51.8046 366.513 51.64 366.697 51.5173 366.931C51.4001 367.166 51.3415 367.439 51.3415 367.752C51.3415 368.058 51.4001 368.332 51.5173 368.572C51.64 368.806 51.8074 368.99 52.0194 369.124C52.237 369.258 52.4825 369.325 52.7558 369.325ZM55.9282 369.844V365.659H56.5559L56.5894 366.245C56.7177 366.022 56.8823 365.852 57.0831 365.735C57.284 365.617 57.5183 365.559 57.7861 365.559C58.1209 365.559 58.4054 365.637 58.6397 365.793C58.8796 365.949 59.0526 366.187 59.1586 366.505C59.2757 366.198 59.4459 365.963 59.6691 365.802C59.8978 365.64 60.1684 365.559 60.4808 365.559C60.9495 365.559 61.3177 365.715 61.5855 366.028C61.8589 366.34 61.9928 366.814 61.9872 367.45V369.844H61.3177V367.701C61.3177 367.288 61.2731 366.973 61.1838 366.756C61.1001 366.538 60.9857 366.39 60.8407 366.312C60.6956 366.228 60.5283 366.187 60.3386 366.187C60.0094 366.187 59.7528 366.318 59.5686 366.58C59.3845 366.837 59.2925 367.202 59.2925 367.676V369.844H58.623V367.701C58.623 367.288 58.5783 366.973 58.4891 366.756C58.4054 366.538 58.2882 366.39 58.1376 366.312C57.9925 366.228 57.8252 366.187 57.6355 366.187C57.3119 366.187 57.058 366.318 56.8739 366.58C56.6898 366.837 56.5977 367.202 56.5977 367.676V369.844H55.9282ZM68.5454 369.844L68.5119 369.065V363.986H69.1814V369.844H68.5454ZM67.0976 369.944C66.7238 369.944 66.3947 369.852 66.1101 369.668C65.8256 369.484 65.6024 369.227 65.4406 368.898C65.2844 368.563 65.2063 368.181 65.2063 367.752C65.2063 367.316 65.2844 366.934 65.4406 366.605C65.6024 366.276 65.8256 366.019 66.1101 365.835C66.3947 365.651 66.7238 365.559 67.0976 365.559C67.4491 365.559 67.756 365.651 68.0182 365.835C68.286 366.019 68.4924 366.276 68.6375 366.605C68.7825 366.934 68.8551 367.316 68.8551 367.752C68.8551 368.181 68.7825 368.563 68.6375 368.898C68.4924 369.227 68.286 369.484 68.0182 369.668C67.756 369.852 67.4491 369.944 67.0976 369.944ZM67.2483 369.333C67.4937 369.333 67.7113 369.266 67.901 369.132C68.0907 368.998 68.2386 368.812 68.3446 368.572C68.4561 368.332 68.5119 368.058 68.5119 367.752C68.5119 367.445 68.4561 367.171 68.3446 366.931C68.2386 366.691 68.0907 366.505 67.901 366.371C67.7113 366.237 67.491 366.17 67.2399 366.17C66.9777 366.17 66.7433 366.237 66.5369 366.371C66.3361 366.505 66.1771 366.691 66.0599 366.931C65.9427 367.171 65.8842 367.445 65.8842 367.752C65.8842 368.058 65.9427 368.332 66.0599 368.572C66.1771 368.812 66.3389 368.998 66.5453 369.132C66.7517 369.266 66.986 369.333 67.2483 369.333ZM73.0975 369.844L73.064 369.157V367.634C73.064 367.305 73.0277 367.035 72.9552 366.823C72.8827 366.605 72.7683 366.44 72.6121 366.329C72.4559 366.217 72.2522 366.161 72.0012 366.161C71.7724 366.161 71.5744 366.209 71.407 366.304C71.2452 366.393 71.1113 366.538 71.0053 366.739L70.4027 366.505C70.5087 366.309 70.6371 366.142 70.7877 366.002C70.9383 365.857 71.1141 365.749 71.3149 365.676C71.5158 365.598 71.7445 365.559 72.0012 365.559C72.3917 365.559 72.7125 365.637 72.9636 365.793C73.2202 365.944 73.4127 366.17 73.541 366.471C73.6693 366.767 73.7307 367.135 73.7251 367.576L73.7168 369.844H73.0975ZM71.8422 369.944C71.3512 369.944 70.9662 369.833 70.6873 369.609C70.4139 369.381 70.2772 369.065 70.2772 368.664C70.2772 368.24 70.4167 367.916 70.6957 367.693C70.9802 367.464 71.3763 367.35 71.884 367.35H73.0807V367.911H72.0346C71.6441 367.911 71.3651 367.975 71.1978 368.103C71.036 368.231 70.9551 368.415 70.9551 368.655C70.9551 368.873 71.036 369.046 71.1978 369.174C71.3596 369.297 71.5855 369.358 71.8756 369.358C72.1155 369.358 72.3248 369.308 72.5033 369.208C72.6818 369.102 72.8185 368.954 72.9134 368.764C73.0138 368.569 73.064 368.34 73.064 368.078H73.3485C73.3485 368.647 73.2202 369.102 72.9636 369.442C72.7069 369.777 72.3331 369.944 71.8422 369.944ZM76.4179 369.944C76.1111 369.944 75.8433 369.899 75.6145 369.81C75.3858 369.715 75.1933 369.593 75.0371 369.442C74.8864 369.291 74.7776 369.127 74.7107 368.948L75.2965 368.706C75.3913 368.895 75.5336 369.049 75.7233 369.166C75.913 369.283 76.1222 369.342 76.351 369.342C76.6132 369.342 76.8336 369.291 77.0121 369.191C77.1906 369.085 77.2799 368.937 77.2799 368.747C77.2799 368.574 77.2129 368.435 77.079 368.329C76.9507 368.223 76.7582 368.136 76.5016 368.07L76.0999 367.961C75.7205 367.86 75.4248 367.71 75.2128 367.509C75.0008 367.302 74.8948 367.071 74.8948 366.814C74.8948 366.418 75.0231 366.111 75.2798 365.894C75.542 365.67 75.9297 365.559 76.443 365.559C76.6885 365.559 76.9117 365.595 77.1125 365.668C77.3134 365.74 77.4863 365.843 77.6314 365.977C77.7764 366.106 77.8824 366.259 77.9494 366.438L77.3636 366.697C77.291 366.507 77.1711 366.371 77.0037 366.287C76.8363 366.203 76.6327 366.161 76.3928 366.161C76.1362 366.161 75.9353 366.217 75.7903 366.329C75.6452 366.435 75.5727 366.585 75.5727 366.781C75.5727 366.892 75.6312 366.998 75.7484 367.099C75.8712 367.194 76.0497 367.272 76.284 367.333L76.7024 367.442C76.9758 367.509 77.2046 367.609 77.3887 367.743C77.5728 367.871 77.7123 368.019 77.8071 368.187C77.902 368.354 77.9494 368.533 77.9494 368.722C77.9494 368.973 77.8824 369.191 77.7485 369.375C77.6146 369.559 77.4333 369.701 77.2046 369.802C76.9758 369.897 76.7136 369.944 76.4179 369.944ZM79.0191 369.844V363.986H79.6886V369.844H79.0191ZM81.9649 369.844V367.701H82.6344V369.844H81.9649ZM81.9649 367.701C81.9649 367.288 81.9146 366.973 81.8142 366.756C81.7194 366.538 81.5883 366.39 81.4209 366.312C81.2535 366.228 81.0638 366.187 80.8518 366.187C80.4836 366.187 80.1963 366.318 79.9898 366.58C79.789 366.837 79.6886 367.202 79.6886 367.676H79.3622C79.3622 367.235 79.4263 366.856 79.5547 366.538C79.6886 366.22 79.8783 365.977 80.1237 365.81C80.3692 365.643 80.6649 365.559 81.0108 365.559C81.3344 365.559 81.619 365.626 81.8644 365.76C82.1099 365.888 82.2996 366.094 82.4335 366.379C82.573 366.664 82.6399 367.037 82.6344 367.5V367.701H81.9649ZM83.853 369.844V363.986H84.5225V369.065L84.489 369.844H83.853ZM85.9368 369.944C85.5853 369.944 85.2757 369.852 85.0079 369.668C84.7457 369.484 84.542 369.227 84.397 368.898C84.2519 368.563 84.1794 368.181 84.1794 367.752C84.1794 367.316 84.2519 366.934 84.397 366.605C84.542 366.276 84.7457 366.019 85.0079 365.835C85.2757 365.651 85.5853 365.559 85.9368 365.559C86.3106 365.559 86.6398 365.651 86.9243 365.835C87.2089 366.019 87.4292 366.276 87.5854 366.605C87.7472 366.934 87.8281 367.316 87.8281 367.752C87.8281 368.181 87.7472 368.563 87.5854 368.898C87.4292 369.227 87.2089 369.484 86.9243 369.668C86.6398 369.852 86.3106 369.944 85.9368 369.944ZM85.7862 369.333C86.0484 369.333 86.2799 369.266 86.4808 369.132C86.6872 368.998 86.849 368.812 86.9662 368.572C87.0889 368.332 87.1503 368.058 87.1503 367.752C87.1503 367.445 87.0917 367.171 86.9745 366.931C86.8629 366.691 86.7039 366.505 86.4975 366.371C86.2911 366.237 86.0568 366.17 85.7945 366.17C85.5491 366.17 85.3287 366.237 85.1334 366.371C84.9437 366.505 84.7931 366.691 84.6815 366.931C84.5755 367.171 84.5225 367.445 84.5225 367.752C84.5225 368.058 84.5755 368.332 84.6815 368.572C84.7931 368.812 84.9437 368.998 85.1334 369.132C85.3231 369.266 85.5407 369.333 85.7862 369.333ZM90.7734 369.944C90.3661 369.944 90.0035 369.852 89.6855 369.668C89.373 369.478 89.1276 369.219 88.949 368.89C88.7705 368.56 88.6812 368.181 88.6812 367.752C88.6812 367.322 88.7677 366.943 88.9407 366.613C89.1192 366.284 89.3647 366.028 89.6771 365.843C89.9951 365.654 90.355 365.559 90.7567 365.559C91.1695 365.559 91.5322 365.654 91.8446 365.843C92.1626 366.028 92.4081 366.284 92.581 366.613C92.7596 366.943 92.8488 367.322 92.8488 367.752C92.8488 368.181 92.7596 368.56 92.581 368.89C92.4081 369.219 92.1654 369.478 91.853 369.668C91.5405 369.852 91.1807 369.944 90.7734 369.944ZM90.7734 369.325C91.0524 369.325 91.2951 369.258 91.5015 369.124C91.7079 368.99 91.8697 368.806 91.9869 368.572C92.1096 368.337 92.171 368.064 92.171 367.752C92.171 367.439 92.1096 367.166 91.9869 366.931C91.8697 366.697 91.7051 366.513 91.4931 366.379C91.2811 366.245 91.0356 366.178 90.7567 366.178C90.4833 366.178 90.2406 366.245 90.0286 366.379C89.8222 366.513 89.6576 366.697 89.5348 366.931C89.4177 367.166 89.3591 367.439 89.3591 367.752C89.3591 368.058 89.4177 368.332 89.5348 368.572C89.6576 368.806 89.8249 368.99 90.037 369.124C90.2545 369.258 90.5 369.325 90.7734 369.325ZM96.5234 369.844L96.4899 369.157V367.634C96.4899 367.305 96.4536 367.035 96.3811 366.823C96.3086 366.605 96.1942 366.44 96.038 366.329C95.8818 366.217 95.6781 366.161 95.4271 366.161C95.1983 366.161 95.0003 366.209 94.8329 366.304C94.6711 366.393 94.5372 366.538 94.4312 366.739L93.8286 366.505C93.9347 366.309 94.063 366.142 94.2136 366.002C94.3642 365.857 94.54 365.749 94.7408 365.676C94.9417 365.598 95.1704 365.559 95.4271 365.559C95.8176 365.559 96.1384 365.637 96.3895 365.793C96.6461 365.944 96.8386 366.17 96.9669 366.471C97.0952 366.767 97.1566 367.135 97.151 367.576L97.1427 369.844H96.5234ZM95.2681 369.944C94.7771 369.944 94.3921 369.833 94.1132 369.609C93.8398 369.381 93.7031 369.065 93.7031 368.664C93.7031 368.24 93.8426 367.916 94.1216 367.693C94.4061 367.464 94.8022 367.35 95.3099 367.35H96.5066V367.911H95.4606C95.07 367.911 94.7911 367.975 94.6237 368.103C94.4619 368.231 94.381 368.415 94.381 368.655C94.381 368.873 94.4619 369.046 94.6237 369.174C94.7855 369.297 95.0114 369.358 95.3015 369.358C95.5414 369.358 95.7507 369.308 95.9292 369.208C96.1077 369.102 96.2444 368.954 96.3393 368.764C96.4397 368.569 96.4899 368.34 96.4899 368.078H96.7744C96.7744 368.647 96.6461 369.102 96.3895 369.442C96.1328 369.777 95.759 369.944 95.2681 369.944ZM98.7475 367.576C98.7475 367.124 98.834 366.758 99.0069 366.479C99.1799 366.195 99.4003 365.986 99.6681 365.852C99.9414 365.712 100.229 365.643 100.53 365.643V366.27C100.285 366.27 100.047 366.312 99.8187 366.396C99.5955 366.474 99.4114 366.605 99.2664 366.789C99.1213 366.973 99.0488 367.224 99.0488 367.542L98.7475 367.576ZM98.3793 369.844V365.659H99.0488V369.844H98.3793ZM104.471 369.844L104.437 369.065V363.986H105.107V369.844H104.471ZM103.023 369.944C102.649 369.944 102.32 369.852 102.035 369.668C101.751 369.484 101.528 369.227 101.366 368.898C101.21 368.563 101.132 368.181 101.132 367.752C101.132 367.316 101.21 366.934 101.366 366.605C101.528 366.276 101.751 366.019 102.035 365.835C102.32 365.651 102.649 365.559 103.023 365.559C103.374 365.559 103.681 365.651 103.944 365.835C104.211 366.019 104.418 366.276 104.563 366.605C104.708 366.934 104.78 367.316 104.78 367.752C104.78 368.181 104.708 368.563 104.563 368.898C104.418 369.227 104.211 369.484 103.944 369.668C103.681 369.852 103.374 369.944 103.023 369.944ZM103.174 369.333C103.419 369.333 103.637 369.266 103.826 369.132C104.016 368.998 104.164 368.812 104.27 368.572C104.382 368.332 104.437 368.058 104.437 367.752C104.437 367.445 104.382 367.171 104.27 366.931C104.164 366.691 104.016 366.505 103.826 366.371C103.637 366.237 103.416 366.17 103.165 366.17C102.903 366.17 102.669 366.237 102.462 366.371C102.261 366.505 102.102 366.691 101.985 366.931C101.868 367.171 101.81 367.445 101.81 367.752C101.81 368.058 101.868 368.332 101.985 368.572C102.102 368.812 102.264 368.998 102.471 369.132C102.677 369.266 102.911 369.333 103.174 369.333ZM109.099 369.844V365.182C109.099 364.747 109.199 364.421 109.4 364.203C109.606 363.98 109.919 363.868 110.337 363.868C110.449 363.868 110.574 363.888 110.714 363.927C110.853 363.966 111.001 364.022 111.157 364.094L110.906 364.622C110.778 364.571 110.669 364.532 110.58 364.504C110.491 364.477 110.415 364.463 110.354 364.463C110.159 364.463 110.011 364.527 109.911 364.655C109.816 364.778 109.768 364.97 109.768 365.233V369.844H109.099ZM108.329 366.237V365.659H110.982V366.237H108.329ZM113.745 369.944C113.338 369.944 112.978 369.852 112.666 369.668C112.353 369.478 112.108 369.219 111.929 368.89C111.756 368.56 111.67 368.181 111.67 367.752C111.67 367.322 111.756 366.943 111.929 366.613C112.108 366.284 112.35 366.028 112.657 365.843C112.97 365.654 113.327 365.559 113.728 365.559C114.119 365.559 114.457 365.657 114.741 365.852C115.026 366.041 115.246 366.309 115.402 366.655C115.558 367.001 115.636 367.408 115.636 367.877H112.18L112.348 367.735C112.348 368.07 112.406 368.357 112.523 368.597C112.646 368.837 112.816 369.021 113.034 369.149C113.251 369.272 113.5 369.333 113.779 369.333C114.074 369.333 114.323 369.263 114.523 369.124C114.73 368.984 114.889 368.8 115 368.572L115.578 368.865C115.472 369.082 115.33 369.272 115.151 369.434C114.978 369.595 114.772 369.721 114.532 369.81C114.297 369.899 114.035 369.944 113.745 369.944ZM112.389 367.45L112.214 367.316H115.101L114.925 367.459C114.925 367.191 114.872 366.959 114.766 366.764C114.66 366.569 114.518 366.418 114.339 366.312C114.161 366.206 113.954 366.153 113.72 366.153C113.491 366.153 113.274 366.206 113.067 366.312C112.866 366.418 112.702 366.569 112.574 366.764C112.451 366.954 112.389 367.182 112.389 367.45ZM119.226 369.844L119.192 369.157V367.634C119.192 367.305 119.156 367.035 119.084 366.823C119.011 366.605 118.897 366.44 118.74 366.329C118.584 366.217 118.381 366.161 118.13 366.161C117.901 366.161 117.703 366.209 117.535 366.304C117.374 366.393 117.24 366.538 117.134 366.739L116.531 366.505C116.637 366.309 116.765 366.142 116.916 366.002C117.067 365.857 117.242 365.749 117.443 365.676C117.644 365.598 117.873 365.559 118.13 365.559C118.52 365.559 118.841 365.637 119.092 365.793C119.349 365.944 119.541 366.17 119.669 366.471C119.798 366.767 119.859 367.135 119.853 367.576L119.845 369.844H119.226ZM117.971 369.944C117.48 369.944 117.095 369.833 116.816 369.609C116.542 369.381 116.406 369.065 116.406 368.664C116.406 368.24 116.545 367.916 116.824 367.693C117.109 367.464 117.505 367.35 118.012 367.35H119.209V367.911H118.163C117.772 367.911 117.494 367.975 117.326 368.103C117.164 368.231 117.083 368.415 117.083 368.655C117.083 368.873 117.164 369.046 117.326 369.174C117.488 369.297 117.714 369.358 118.004 369.358C118.244 369.358 118.453 369.308 118.632 369.208C118.81 369.102 118.947 368.954 119.042 368.764C119.142 368.569 119.192 368.34 119.192 368.078H119.477C119.477 368.647 119.349 369.102 119.092 369.442C118.835 369.777 118.461 369.944 117.971 369.944ZM122.655 369.944C122.248 369.944 121.933 369.838 121.709 369.626C121.486 369.414 121.375 369.116 121.375 368.731V364.354H122.044V368.664C122.044 368.876 122.1 369.04 122.212 369.157C122.329 369.269 122.49 369.325 122.697 369.325C122.764 369.325 122.828 369.316 122.889 369.3C122.956 369.277 123.043 369.227 123.149 369.149L123.408 369.693C123.263 369.788 123.132 369.852 123.015 369.886C122.898 369.925 122.778 369.944 122.655 369.944ZM120.647 366.254V365.659H123.299V366.254H120.647ZM127.282 369.844L127.241 369.074V365.659H127.91V369.844H127.282ZM124.303 367.802V365.659H124.973V367.802H124.303ZM124.973 367.802C124.973 368.215 125.02 368.53 125.115 368.747C125.21 368.965 125.341 369.116 125.508 369.199C125.681 369.277 125.874 369.316 126.086 369.316C126.448 369.316 126.73 369.185 126.931 368.923C127.137 368.661 127.241 368.295 127.241 367.827H127.567C127.567 368.268 127.503 368.647 127.374 368.965C127.246 369.283 127.059 369.526 126.814 369.693C126.574 369.86 126.278 369.944 125.927 369.944C125.603 369.944 125.319 369.88 125.073 369.752C124.828 369.618 124.638 369.409 124.504 369.124C124.37 368.834 124.303 368.46 124.303 368.003V367.802H124.973ZM129.614 367.576C129.614 367.124 129.701 366.758 129.873 366.479C130.046 366.195 130.267 365.986 130.535 365.852C130.808 365.712 131.095 365.643 131.397 365.643V366.27C131.151 366.27 130.914 366.312 130.685 366.396C130.462 366.474 130.278 366.605 130.133 366.789C129.988 366.973 129.915 367.224 129.915 367.542L129.614 367.576ZM129.246 369.844V365.659H129.915V369.844H129.246ZM134.074 369.944C133.666 369.944 133.307 369.852 132.994 369.668C132.682 369.478 132.436 369.219 132.258 368.89C132.085 368.56 131.998 368.181 131.998 367.752C131.998 367.322 132.085 366.943 132.258 366.613C132.436 366.284 132.679 366.028 132.986 365.843C133.298 365.654 133.655 365.559 134.057 365.559C134.447 365.559 134.785 365.657 135.07 365.852C135.354 366.041 135.574 366.309 135.731 366.655C135.887 367.001 135.965 367.408 135.965 367.877H132.509L132.676 367.735C132.676 368.07 132.735 368.357 132.852 368.597C132.975 368.837 133.145 369.021 133.362 369.149C133.58 369.272 133.828 369.333 134.107 369.333C134.403 369.333 134.651 369.263 134.852 369.124C135.058 368.984 135.217 368.8 135.329 368.572L135.906 368.865C135.8 369.082 135.658 369.272 135.48 369.434C135.307 369.595 135.1 369.721 134.86 369.81C134.626 369.899 134.364 369.944 134.074 369.944ZM132.718 367.45L132.542 367.316H135.429L135.254 367.459C135.254 367.191 135.201 366.959 135.095 366.764C134.989 366.569 134.846 366.418 134.668 366.312C134.489 366.206 134.283 366.153 134.049 366.153C133.82 366.153 133.602 366.206 133.396 366.312C133.195 366.418 133.03 366.569 132.902 366.764C132.779 366.954 132.718 367.182 132.718 367.45ZM139.496 369.961C139.368 369.961 139.256 369.916 139.162 369.827C139.072 369.732 139.028 369.623 139.028 369.501C139.028 369.372 139.072 369.263 139.162 369.174C139.256 369.079 139.368 369.032 139.496 369.032C139.625 369.032 139.733 369.079 139.823 369.174C139.912 369.263 139.957 369.372 139.957 369.501C139.957 369.623 139.912 369.732 139.823 369.827C139.733 369.916 139.625 369.961 139.496 369.961ZM141.404 369.961C141.276 369.961 141.165 369.916 141.07 369.827C140.98 369.732 140.936 369.623 140.936 369.501C140.936 369.372 140.98 369.263 141.07 369.174C141.165 369.079 141.276 369.032 141.404 369.032C141.533 369.032 141.642 369.079 141.731 369.174C141.82 369.263 141.865 369.372 141.865 369.501C141.865 369.623 141.82 369.732 141.731 369.827C141.642 369.916 141.533 369.961 141.404 369.961ZM143.313 369.961C143.184 369.961 143.073 369.916 142.978 369.827C142.889 369.732 142.844 369.623 142.844 369.501C142.844 369.372 142.889 369.263 142.978 369.174C143.073 369.079 143.184 369.032 143.313 369.032C143.441 369.032 143.55 369.079 143.639 369.174C143.728 369.263 143.773 369.372 143.773 369.501C143.773 369.623 143.728 369.732 143.639 369.827C143.55 369.916 143.441 369.961 143.313 369.961Z" fill="#949494"/>
<rect x="188.955" y="348.659" width="43.39" height="19.695" rx="2.51062" fill="#FDD599" fill-opacity="0.24"/>
<path d="M196.818 361.007V355.149H197.529V360.362H200.291V361.007H196.818ZM202.99 361.107C202.583 361.107 202.22 361.015 201.902 360.831C201.59 360.641 201.344 360.382 201.166 360.053C200.987 359.724 200.898 359.344 200.898 358.915C200.898 358.485 200.984 358.106 201.157 357.776C201.336 357.447 201.581 357.191 201.894 357.007C202.212 356.817 202.572 356.722 202.973 356.722C203.386 356.722 203.749 356.817 204.061 357.007C204.379 357.191 204.625 357.447 204.798 357.776C204.976 358.106 205.066 358.485 205.066 358.915C205.066 359.344 204.976 359.724 204.798 360.053C204.625 360.382 204.382 360.641 204.07 360.831C203.757 361.015 203.397 361.107 202.99 361.107ZM202.99 360.488C203.269 360.488 203.512 360.421 203.718 360.287C203.925 360.153 204.086 359.969 204.204 359.735C204.326 359.5 204.388 359.227 204.388 358.915C204.388 358.602 204.326 358.329 204.204 358.094C204.086 357.86 203.922 357.676 203.71 357.542C203.498 357.408 203.252 357.341 202.973 357.341C202.7 357.341 202.457 357.408 202.245 357.542C202.039 357.676 201.874 357.86 201.752 358.094C201.634 358.329 201.576 358.602 201.576 358.915C201.576 359.221 201.634 359.495 201.752 359.735C201.874 359.969 202.042 360.153 202.254 360.287C202.471 360.421 202.717 360.488 202.99 360.488ZM206.531 358.739C206.531 358.287 206.617 357.922 206.79 357.643C206.963 357.358 207.184 357.149 207.451 357.015C207.725 356.875 208.012 356.806 208.313 356.806V357.433C208.068 357.433 207.831 357.475 207.602 357.559C207.379 357.637 207.195 357.768 207.05 357.952C206.905 358.136 206.832 358.387 206.832 358.705L206.531 358.739ZM206.163 361.007V356.822H206.832V361.007H206.163ZM210.99 361.107C210.583 361.107 210.223 361.015 209.911 360.831C209.598 360.641 209.353 360.382 209.174 360.053C209.001 359.724 208.915 359.344 208.915 358.915C208.915 358.485 209.001 358.106 209.174 357.776C209.353 357.447 209.596 357.191 209.902 357.007C210.215 356.817 210.572 356.722 210.974 356.722C211.364 356.722 211.702 356.82 211.986 357.015C212.271 357.205 212.491 357.472 212.647 357.818C212.804 358.164 212.882 358.571 212.882 359.04H209.425L209.593 358.898C209.593 359.233 209.651 359.52 209.769 359.76C209.891 360 210.061 360.184 210.279 360.312C210.497 360.435 210.745 360.496 211.024 360.496C211.32 360.496 211.568 360.427 211.769 360.287C211.975 360.148 212.134 359.963 212.246 359.735L212.823 360.028C212.717 360.245 212.575 360.435 212.396 360.597C212.223 360.759 212.017 360.884 211.777 360.973C211.543 361.063 211.28 361.107 210.99 361.107ZM209.635 358.613L209.459 358.479H212.346L212.17 358.622C212.17 358.354 212.117 358.122 212.011 357.927C211.905 357.732 211.763 357.581 211.585 357.475C211.406 357.369 211.2 357.316 210.965 357.316C210.737 357.316 210.519 357.369 210.313 357.475C210.112 357.581 209.947 357.732 209.819 357.927C209.696 358.117 209.635 358.346 209.635 358.613ZM216.764 361.007L216.722 360.237V356.822H217.392V361.007H216.764ZM213.785 358.965V356.822H214.454V358.965H213.785ZM214.454 358.965C214.454 359.378 214.502 359.693 214.596 359.91C214.691 360.128 214.822 360.279 214.99 360.362C215.163 360.44 215.355 360.48 215.567 360.48C215.93 360.48 216.212 360.348 216.412 360.086C216.619 359.824 216.722 359.459 216.722 358.99H217.048C217.048 359.431 216.984 359.81 216.856 360.128C216.728 360.446 216.541 360.689 216.295 360.856C216.055 361.024 215.76 361.107 215.408 361.107C215.085 361.107 214.8 361.043 214.555 360.915C214.309 360.781 214.119 360.572 213.986 360.287C213.852 359.997 213.785 359.623 213.785 359.166V358.965H214.454ZM218.727 361.007V356.822H219.355L219.389 357.408C219.517 357.185 219.681 357.015 219.882 356.898C220.083 356.781 220.317 356.722 220.585 356.722C220.92 356.722 221.205 356.8 221.439 356.956C221.679 357.113 221.852 357.35 221.958 357.668C222.075 357.361 222.245 357.126 222.468 356.965C222.697 356.803 222.968 356.722 223.28 356.722C223.749 356.722 224.117 356.878 224.385 357.191C224.658 357.503 224.792 357.977 224.786 358.613V361.007H224.117V358.864C224.117 358.452 224.072 358.136 223.983 357.919C223.899 357.701 223.785 357.553 223.64 357.475C223.495 357.391 223.327 357.35 223.138 357.35C222.809 357.35 222.552 357.481 222.368 357.743C222.184 358 222.092 358.365 222.092 358.839V361.007H221.422V358.864C221.422 358.452 221.377 358.136 221.288 357.919C221.205 357.701 221.087 357.553 220.937 357.475C220.792 357.391 220.624 357.35 220.435 357.35C220.111 357.35 219.857 357.481 219.673 357.743C219.489 358 219.397 358.365 219.397 358.839V361.007H218.727Z" fill="#FDD599"/>
<rect x="-111.192" y="391" width="349.813" height="41.8436" rx="2.92905" stroke="#949494" stroke-width="0.836873"/>
<rect x="-56.3765" y="397.276" width="56.9073" height="10.0425" rx="5.02124" fill="white" fill-opacity="0.12"/>
<rect x="7.22595" y="400.624" width="20.0849" height="6.69498" rx="3.34749" fill="white" fill-opacity="0.12"/>
<rect x="-56.3764" y="418.198" width="231.941" height="8.36873" rx="4.18436" fill="white" fill-opacity="0.12"/>
<rect x="188.955" y="402.074" width="43.39" height="19.695" rx="2.51062" fill="#99D9FD" fill-opacity="0.24"/>
<path d="M196.818 414.421V408.563H197.529V413.777H200.291V414.421H196.818ZM202.99 414.522C202.583 414.522 202.22 414.43 201.902 414.246C201.59 414.056 201.344 413.796 201.166 413.467C200.987 413.138 200.898 412.759 200.898 412.329C200.898 411.9 200.984 411.52 201.157 411.191C201.336 410.862 201.581 410.605 201.894 410.421C202.212 410.231 202.572 410.137 202.973 410.137C203.386 410.137 203.749 410.231 204.061 410.421C204.379 410.605 204.625 410.862 204.798 411.191C204.976 411.52 205.066 411.9 205.066 412.329C205.066 412.759 204.976 413.138 204.798 413.467C204.625 413.796 204.382 414.056 204.07 414.246C203.757 414.43 203.397 414.522 202.99 414.522ZM202.99 413.902C203.269 413.902 203.512 413.836 203.718 413.702C203.925 413.568 204.086 413.384 204.204 413.149C204.326 412.915 204.388 412.642 204.388 412.329C204.388 412.017 204.326 411.743 204.204 411.509C204.086 411.275 203.922 411.091 203.71 410.957C203.498 410.823 203.252 410.756 202.973 410.756C202.7 410.756 202.457 410.823 202.245 410.957C202.039 411.091 201.874 411.275 201.752 411.509C201.634 411.743 201.576 412.017 201.576 412.329C201.576 412.636 201.634 412.909 201.752 413.149C201.874 413.384 202.042 413.568 202.254 413.702C202.471 413.836 202.717 413.902 202.99 413.902ZM206.531 412.153C206.531 411.701 206.617 411.336 206.79 411.057C206.963 410.773 207.184 410.563 207.451 410.429C207.725 410.29 208.012 410.22 208.313 410.22V410.848C208.068 410.848 207.831 410.89 207.602 410.973C207.379 411.052 207.195 411.183 207.05 411.367C206.905 411.551 206.832 411.802 206.832 412.12L206.531 412.153ZM206.163 414.421V410.237H206.832V414.421H206.163ZM210.99 414.522C210.583 414.522 210.223 414.43 209.911 414.246C209.598 414.056 209.353 413.796 209.174 413.467C209.001 413.138 208.915 412.759 208.915 412.329C208.915 411.9 209.001 411.52 209.174 411.191C209.353 410.862 209.596 410.605 209.902 410.421C210.215 410.231 210.572 410.137 210.974 410.137C211.364 410.137 211.702 410.234 211.986 410.429C212.271 410.619 212.491 410.887 212.647 411.233C212.804 411.579 212.882 411.986 212.882 412.455H209.425L209.593 412.312C209.593 412.647 209.651 412.934 209.769 413.174C209.891 413.414 210.061 413.598 210.279 413.727C210.497 413.849 210.745 413.911 211.024 413.911C211.32 413.911 211.568 413.841 211.769 413.702C211.975 413.562 212.134 413.378 212.246 413.149L212.823 413.442C212.717 413.66 212.575 413.849 212.396 414.011C212.223 414.173 212.017 414.299 211.777 414.388C211.543 414.477 211.28 414.522 210.99 414.522ZM209.635 412.028L209.459 411.894H212.346L212.17 412.036C212.17 411.768 212.117 411.537 212.011 411.342C211.905 411.146 211.763 410.996 211.585 410.89C211.406 410.784 211.2 410.731 210.965 410.731C210.737 410.731 210.519 410.784 210.313 410.89C210.112 410.996 209.947 411.146 209.819 411.342C209.696 411.531 209.635 411.76 209.635 412.028ZM216.764 414.421L216.722 413.651V410.237H217.392V414.421H216.764ZM213.785 412.379V410.237H214.454V412.379H213.785ZM214.454 412.379C214.454 412.792 214.502 413.107 214.596 413.325C214.691 413.543 214.822 413.693 214.99 413.777C215.163 413.855 215.355 413.894 215.567 413.894C215.93 413.894 216.212 413.763 216.412 413.501C216.619 413.239 216.722 412.873 216.722 412.404H217.048C217.048 412.845 216.984 413.225 216.856 413.543C216.728 413.861 216.541 414.103 216.295 414.271C216.055 414.438 215.76 414.522 215.408 414.522C215.085 414.522 214.8 414.458 214.555 414.329C214.309 414.195 214.119 413.986 213.986 413.702C213.852 413.411 213.785 413.038 213.785 412.58V412.379H214.454ZM218.727 414.421V410.237H219.355L219.389 410.823C219.517 410.6 219.681 410.429 219.882 410.312C220.083 410.195 220.317 410.137 220.585 410.137C220.92 410.137 221.205 410.215 221.439 410.371C221.679 410.527 221.852 410.764 221.958 411.082C222.075 410.775 222.245 410.541 222.468 410.379C222.697 410.217 222.968 410.137 223.28 410.137C223.749 410.137 224.117 410.293 224.385 410.605C224.658 410.918 224.792 411.392 224.786 412.028V414.421H224.117V412.279C224.117 411.866 224.072 411.551 223.983 411.333C223.899 411.116 223.785 410.968 223.64 410.89C223.495 410.806 223.327 410.764 223.138 410.764C222.809 410.764 222.552 410.895 222.368 411.158C222.184 411.414 222.092 411.78 222.092 412.254V414.421H221.422V412.279C221.422 411.866 221.377 411.551 221.288 411.333C221.205 411.116 221.087 410.968 220.937 410.89C220.792 410.806 220.624 410.764 220.435 410.764C220.111 410.764 219.857 410.895 219.673 411.158C219.489 411.414 219.397 411.78 219.397 412.254V414.421H218.727Z" fill="#949494"/>
<rect x="-111.192" y="443.723" width="349.813" height="41.8436" rx="2.92905" stroke="#949494" stroke-width="0.836873"/>
<rect x="-56.3765" y="449.999" width="56.9073" height="10.0425" rx="5.02124" fill="white" fill-opacity="0.12"/>
<rect x="7.22595" y="453.347" width="20.0849" height="6.69498" rx="3.34749" fill="white" fill-opacity="0.12"/>
<rect x="197.955" y="454.797" width="34.39" height="19.695" rx="2.51062" fill="#99FDC1" fill-opacity="0.24"/>
</g>
<rect y="375" width="414" height="80" fill="url(#paint0_linear_256_2527)"/>
</g>
</g>
</g>
<defs>
<filter id="filter0_b_256_2527" x="-9.18245" y="245.818" width="432.365" height="218.365" filterUnits="userSpaceOnUse" color-interpolation-filters="sRGB">
<feFlood flood-opacity="0" result="BackgroundImageFix"/>
<feGaussianBlur in="BackgroundImageFix" stdDeviation="4.59122"/>
<feComposite in2="SourceAlpha" operator="in" result="effect1_backgroundBlur_256_2527"/>
<feBlend mode="normal" in="SourceGraphic" in2="effect1_backgroundBlur_256_2527" result="shape"/>
</filter>
<filter id="filter1_b_256_2527" x="-280" y="279" width="560" height="456" filterUnits="userSpaceOnUse" color-interpolation-filters="sRGB">
<feFlood flood-opacity="0" result="BackgroundImageFix"/>
<feGaussianBlur in="BackgroundImageFix" stdDeviation="4"/>
<feComposite in2="SourceAlpha" operator="in" result="effect1_backgroundBlur_256_2527"/>
<feBlend mode="normal" in="SourceGraphic" in2="effect1_backgroundBlur_256_2527" result="shape"/>
</filter>
<linearGradient id="paint0_linear_256_2527" x1="207" y1="375" x2="207" y2="455" gradientUnits="userSpaceOnUse">
<stop stop-color="#1F1F1F" stop-opacity="0"/>
<stop offset="0.0001" stop-color="#1F1F1F" stop-opacity="0"/>
<stop offset="1" stop-color="#1F1F1F"/>
</linearGradient>
<clipPath id="clip0_256_2527">
<rect width="278" height="455" fill="white"/>
</clipPath>
<clipPath id="clip1_256_2527">
<rect y="255" width="414" height="200" rx="8" fill="white"/>
</clipPath>
</defs>
</svg>
