<svg width="499" height="281" viewBox="0 0 499 281" fill="none" xmlns="http://www.w3.org/2000/svg">
<g clip-path="url(#clip0_560_13845)">
<g opacity="0.6">
<path d="M97.1518 46.3381V196.795C97.1518 198.179 97.4287 199.471 97.8902 200.671C99.3671 204.456 103.152 207.133 107.49 207.133H400.372C406.095 207.133 410.71 202.517 410.71 196.795V46.3381C410.71 40.6152 406.095 36 400.372 36H107.49C101.767 36 97.1518 40.6152 97.1518 46.3381Z" stroke="#FAFAFA" stroke-width="1.17716" stroke-miterlimit="10"/>
<path opacity="0.6392" d="M142.473 36L313.605 207.133H396.033L224.901 36H142.473Z" fill="#A6A6A6"/>
<path d="M408.218 48.8308V46.3385C408.218 42.0925 404.711 38.585 400.465 38.585H107.582C103.336 38.585 99.8287 42.0925 99.8287 46.3385V48.8308H408.218Z" fill="#F2F2F2"/>
<path opacity="0.21" d="M383.665 136.52V207.133H400.372C406.095 207.133 410.71 202.518 410.71 196.795V126.182H394.003C388.28 126.182 383.665 130.797 383.665 136.52Z" fill="#1F1F1F"/>
<path d="M373.419 46.8928C371.839 46.8928 370.558 45.6117 370.558 44.0314C370.558 42.451 371.839 41.1699 373.419 41.1699C375 41.1699 376.281 42.451 376.281 44.0314C376.281 45.6117 375 46.8928 373.419 46.8928Z" fill="#FAFAFA"/>
<path d="M384.773 46.8928C383.193 46.8928 381.912 45.6117 381.912 44.0314C381.912 42.451 383.193 41.1699 384.773 41.1699C386.354 41.1699 387.635 42.451 387.635 44.0314C387.635 45.6117 386.354 46.8928 384.773 46.8928Z" fill="#FAFAFA"/>
<path d="M396.034 46.8928C394.454 46.8928 393.173 45.6117 393.173 44.0314C393.173 42.451 394.454 41.1699 396.034 41.1699C397.614 41.1699 398.896 42.451 398.896 44.0314C398.896 45.6117 397.614 46.8928 396.034 46.8928Z" fill="#FAFAFA"/>
<path d="M393.818 131.535V281.992C393.818 287.46 398.227 291.868 403.695 291.868H473.662C479.13 291.868 483.538 287.46 483.538 281.992V131.535C483.538 126.067 479.13 121.659 473.662 121.659H403.695C398.227 121.659 393.818 126.067 393.818 131.535Z" fill="#A6A6A6" stroke="#7F7F7F" stroke-width="0.923046"/>
<path d="M393.357 131.535V136.612H483.908V131.535C483.908 125.812 479.293 121.197 473.57 121.197H403.603C397.973 121.197 393.357 125.812 393.357 131.535Z" fill="#1F1F1F"/>
<path d="M446.618 131.996C445.037 131.996 443.756 130.715 443.756 129.135C443.756 127.555 445.037 126.273 446.618 126.273C448.198 126.273 449.479 127.555 449.479 129.135C449.479 130.715 448.198 131.996 446.618 131.996Z" fill="#FAFAFA"/>
<path d="M457.971 131.996C456.391 131.996 455.11 130.715 455.11 129.135C455.11 127.555 456.391 126.273 457.971 126.273C459.551 126.273 460.833 127.555 460.833 129.135C460.833 130.715 459.551 131.996 457.971 131.996Z" fill="#FAFAFA"/>
<path d="M469.324 131.996C467.744 131.996 466.463 130.715 466.463 129.135C466.463 127.555 467.744 126.273 469.324 126.273C470.904 126.273 472.186 127.555 472.186 129.135C472.186 130.715 470.904 131.996 469.324 131.996Z" fill="#FAFAFA"/>
<path opacity="0.7098" d="M14.9093 233.625V306.73C14.9093 312.453 19.5245 317.069 25.2474 317.069H171.089C176.812 317.069 181.427 312.453 181.427 306.73V233.625C181.427 227.902 176.812 223.287 171.089 223.287H25.1551C19.5246 223.287 14.9093 227.902 14.9093 233.625Z" fill="#F2F2F2"/>
<path d="M14.9093 233.625V238.702H181.427V233.625C181.427 227.902 176.812 223.287 171.089 223.287H25.1551C19.5246 223.287 14.9093 227.902 14.9093 233.625Z" fill="#1F1F1F"/>
<path d="M144.135 234.178C142.555 234.178 141.274 232.897 141.274 231.316C141.274 229.736 142.555 228.455 144.135 228.455C145.715 228.455 146.997 229.736 146.997 231.316C146.997 232.897 145.715 234.178 144.135 234.178Z" fill="#FAFAFA"/>
<path d="M155.397 234.178C153.817 234.178 152.535 232.897 152.535 231.316C152.535 229.736 153.817 228.455 155.397 228.455C156.977 228.455 158.258 229.736 158.258 231.316C158.258 232.897 156.977 234.178 155.397 234.178Z" fill="#FAFAFA"/>
<path d="M166.75 234.178C165.17 234.178 163.889 232.897 163.889 231.316C163.889 229.736 165.17 228.455 166.75 228.455C168.331 228.455 169.612 229.736 169.612 231.316C169.612 232.897 168.331 234.178 166.75 234.178Z" fill="#FAFAFA"/>
<path d="M146.723 180.922L105.74 156L120.601 201.691L129 189.507L141 204.644L145.061 201.506L132.97 186.368L146.723 180.922Z" fill="#A6A6A6"/>
<path d="M155.523 163.841H129.124C128.385 163.841 127.739 163.195 127.739 162.457C127.739 161.718 128.385 161.072 129.124 161.072H155.523C156.261 161.072 156.907 161.718 156.907 162.457C156.907 163.195 156.354 163.841 155.523 163.841Z" fill="#A6A6A6"/>
<path d="M170.754 163.841H166.784C166.046 163.841 165.4 163.195 165.4 162.457C165.4 161.718 166.046 161.072 166.784 161.072H170.754C171.492 161.072 172.138 161.718 172.138 162.457C172.138 163.195 171.492 163.841 170.754 163.841Z" fill="#A6A6A6"/>
<path d="M173.891 180.271H152.938C152.2 180.271 151.554 179.625 151.554 178.887C151.554 178.148 152.2 177.502 152.938 177.502H173.891C174.63 177.502 175.276 178.148 175.276 178.887C175.276 179.717 174.63 180.271 173.891 180.271Z" fill="#A6A6A6"/>
<path d="M186.445 180.271H182.476C181.738 180.271 181.092 179.625 181.092 178.887C181.092 178.148 181.738 177.502 182.476 177.502H186.445C187.184 177.502 187.83 178.148 187.83 178.887C187.83 179.717 187.276 180.271 186.445 180.271Z" fill="#A6A6A6"/>
<path d="M201.953 180.271H194.384C193.646 180.271 193 179.625 193 178.887C193 178.148 193.646 177.502 194.384 177.502H201.953C202.692 177.502 203.338 178.148 203.338 178.887C203.338 179.717 202.692 180.271 201.953 180.271Z" fill="#A6A6A6"/>
<path d="M213.768 180.271H209.799C209.06 180.271 208.414 179.625 208.414 178.887C208.414 178.148 209.06 177.502 209.799 177.502H213.768C214.506 177.502 215.152 178.148 215.152 178.887C215.152 179.717 214.598 180.271 213.768 180.271Z" fill="#A6A6A6"/>
<path d="M187.091 197.347L158.753 196.794C158.015 196.794 157.369 196.147 157.369 195.409C157.369 194.671 158.015 194.024 158.753 194.024L187.091 194.578C187.829 194.578 188.475 195.224 188.475 195.963C188.475 196.701 187.829 197.347 187.091 197.347Z" fill="#A6A6A6"/>
<path d="M200.567 197.347H198.167C197.429 197.347 196.783 196.701 196.783 195.963C196.783 195.224 197.429 194.578 198.167 194.578H200.567C201.306 194.578 201.952 195.224 201.952 195.963C201.952 196.701 201.398 197.347 200.567 197.347Z" fill="#A6A6A6"/>
<path d="M185.211 276.362H213.364C219.548 276.362 224.625 271.285 224.625 265.1V212.21" stroke="#FAFAFA" stroke-width="2.57428" stroke-miterlimit="10" stroke-dasharray="2.57 2.57"/>
<path d="M438.864 159.137V109.662C438.864 104.769 434.895 100.8 430.003 100.8H410.895" stroke="#FAFAFA" stroke-width="2.57428" stroke-miterlimit="10" stroke-dasharray="2.57 2.57"/>
<path d="M438.955 167.077C437.273 167.077 435.909 165.713 435.909 164.031C435.909 162.349 437.273 160.985 438.955 160.985C440.638 160.985 442.001 162.349 442.001 164.031C442.001 165.713 440.638 167.077 438.955 167.077Z" fill="#A6A6A6"/>
<path d="M221.672 206.948C221.672 208.609 222.964 209.902 224.625 209.902C226.287 209.902 227.579 208.609 227.579 206.948C227.579 205.286 226.287 203.994 224.625 203.994C222.964 203.994 221.672 205.379 221.672 206.948Z" fill="#7F7F7F"/>
<path d="M179.027 276.36C179.027 277.745 180.134 278.76 181.427 278.76C182.811 278.76 183.827 277.653 183.827 276.36C183.827 274.976 182.719 273.96 181.427 273.96C180.134 273.868 179.027 274.976 179.027 276.36Z" fill="#7F7F7F"/>
<path d="M128.721 248.118H168.32V302.855H128.721V248.118Z" fill="#7F7F7F"/>
<path d="M157.982 248.118H168.32V258.456L157.982 248.118Z" fill="#7F7F7F"/>
<path d="M137.029 254.303H160.013V255.595H137.029V254.303Z" fill="#7F7F7F"/>
<path d="M137.029 257.995H160.013V259.287H137.029V257.995Z" fill="#7F7F7F"/>
<path d="M137.029 261.687H160.013V262.979H137.029V261.687Z" fill="#7F7F7F"/>
<path d="M137.029 265.286H160.013V266.578H137.029V265.286Z" fill="#7F7F7F"/>
<path d="M137.029 268.979H160.013V270.272H137.029V268.979Z" fill="#7F7F7F"/>
<path d="M137.029 272.671H160.013V273.963H137.029V272.671Z" fill="#7F7F7F"/>
<path d="M137.029 276.364H160.013V277.657H137.029V276.364Z" fill="#7F7F7F"/>
<path d="M137.029 280.057H160.013V281.349H137.029V280.057Z" fill="#7F7F7F"/>
<path d="M79.061 248.118H118.66V302.855H79.061V248.118Z" fill="#7F7F7F"/>
<path d="M108.322 248.118H118.66V258.456L108.322 248.118Z" fill="#7F7F7F"/>
<path d="M87.2754 254.303H110.259V255.595H87.2754V254.303Z" fill="#7F7F7F"/>
<path d="M87.2754 257.995H110.259V259.287H87.2754V257.995Z" fill="#7F7F7F"/>
<path d="M87.2754 261.687H110.259V262.979H87.2754V261.687Z" fill="#7F7F7F"/>
<path d="M87.2754 265.286H110.259V266.578H87.2754V265.286Z" fill="#7F7F7F"/>
<path d="M87.2754 268.979H110.259V270.272H87.2754V268.979Z" fill="#7F7F7F"/>
<path d="M87.2754 272.671H110.259V273.963H87.2754V272.671Z" fill="#7F7F7F"/>
<path d="M87.2754 276.364H110.259V277.657H87.2754V276.364Z" fill="#7F7F7F"/>
<path d="M87.2754 280.057H110.259V281.349H87.2754V280.057Z" fill="#7F7F7F"/>
<path d="M29.4003 248.118H68.999V302.855H29.4003V248.118Z" fill="#7F7F7F"/>
<path d="M58.5686 248.118H68.999V258.456L58.5686 248.118Z" fill="#7F7F7F"/>
<path d="M37.6162 254.303H60.6001V255.595H37.6162V254.303Z" fill="#7F7F7F"/>
<path d="M37.6162 257.995H60.6001V259.287H37.6162V257.995Z" fill="#7F7F7F"/>
<path d="M37.6162 261.687H60.6001V262.979H37.6162V261.687Z" fill="#7F7F7F"/>
<path d="M37.6162 265.286H60.6001V266.578H37.6162V265.286Z" fill="#7F7F7F"/>
<path d="M37.6162 268.979H60.6001V270.272H37.6162V268.979Z" fill="#7F7F7F"/>
<path d="M37.6162 272.671H60.6001V273.963H37.6162V272.671Z" fill="#7F7F7F"/>
<path d="M37.6162 276.364H60.6001V277.657H37.6162V276.364Z" fill="#7F7F7F"/>
<path d="M37.6162 280.057H60.6001V281.349H37.6162V280.057Z" fill="#7F7F7F"/>
</g>
</g>
<defs>
<clipPath id="clip0_560_13845">
<rect width="499" height="281" fill="white"/>
</clipPath>
</defs>
</svg>
