<svg width="272" height="168" viewBox="0 0 272 168" fill="none" xmlns="http://www.w3.org/2000/svg">
<g filter="url(#filter0_b_256_2532)">
<rect x="-124.459" y="0.54073" width="376.348" height="264.016" rx="16.7626" stroke="#7F7F7F" stroke-width="1.08146"/>
<mask id="path-3-inside-1_256_2532" fill="white">
<path d="M-111.61 13.39H239.04V36.0849H-111.61V13.39Z"/>
</mask>
<path d="M239.04 35.2481H-111.61V36.9218H239.04V35.2481Z" fill="#949494" mask="url(#path-3-inside-1_256_2532)"/>
<path d="M-18.2804 28.7374V21.4338H-17.396V27.9529H-14.001V28.7374H-18.2804ZM-10.5203 28.8515C-11.0149 28.8515 -11.4488 28.7339 -11.822 28.4985C-12.1929 28.2631 -12.483 27.9338 -12.6922 27.5106C-12.899 27.0875 -13.0024 26.5929 -13.0024 26.0271C-13.0024 25.4565 -12.899 24.9584 -12.6922 24.5329C-12.483 24.1073 -12.1929 23.7768 -11.822 23.5414C-11.4488 23.3061 -11.0149 23.1884 -10.5203 23.1884C-10.0258 23.1884 -9.59313 23.3061 -9.22224 23.5414C-8.84898 23.7768 -8.55893 24.1073 -8.35209 24.5329C-8.14287 24.9584 -8.03826 25.4565 -8.03826 26.0271C-8.03826 26.5929 -8.14287 27.0875 -8.35209 27.5106C-8.55893 27.9338 -8.84898 28.2631 -9.22224 28.4985C-9.59313 28.7339 -10.0258 28.8515 -10.5203 28.8515ZM-10.5203 28.0955C-10.1447 28.0955 -9.83563 27.9992 -9.59313 27.8066C-9.35063 27.6141 -9.17113 27.3609 -9.05463 27.047C-8.93813 26.7332 -8.87989 26.3932 -8.87989 26.0271C-8.87989 25.661 -8.93813 25.3198 -9.05463 25.0036C-9.17113 24.6874 -9.35063 24.4318 -9.59313 24.2369C-9.83563 24.0419 -10.1447 23.9444 -10.5203 23.9444C-10.896 23.9444 -11.2051 24.0419 -11.4476 24.2369C-11.6901 24.4318 -11.8696 24.6874 -11.9861 25.0036C-12.1026 25.3198 -12.1608 25.661 -12.1608 26.0271C-12.1608 26.3932 -12.1026 26.7332 -11.9861 27.047C-11.8696 27.3609 -11.6901 27.6141 -11.4476 27.8066C-11.2051 27.9992 -10.896 28.0955 -10.5203 28.0955ZM-6.75353 28.7374V23.2597H-5.94043V24.0871H-5.88337C-5.78352 23.816 -5.60283 23.5961 -5.34131 23.4273C-5.07978 23.2585 -4.78497 23.1741 -4.45688 23.1741C-4.39507 23.1741 -4.3178 23.1753 -4.22508 23.1777C-4.13236 23.1801 -4.06222 23.1836 -4.01467 23.1884V24.0443C-4.0432 24.0371 -4.10858 24.0265 -4.21081 24.0122C-4.31067 23.9955 -4.41647 23.9872 -4.52821 23.9872C-4.79448 23.9872 -5.03223 24.0431 -5.24145 24.1548C-5.44829 24.2642 -5.61234 24.4164 -5.73359 24.6113C-5.85246 24.8039 -5.9119 25.0238 -5.9119 25.2711V28.7374H-6.75353ZM-0.887098 28.8515C-1.4149 28.8515 -1.87019 28.735 -2.25296 28.5021C-2.63336 28.2667 -2.92698 27.9386 -3.13382 27.5178C-3.33828 27.0946 -3.44051 26.6025 -3.44051 26.0414C-3.44051 25.4803 -3.33828 24.9858 -3.13382 24.5578C-2.92698 24.1275 -2.6393 23.7923 -2.27079 23.5521C-1.8999 23.3096 -1.4672 23.1884 -0.972687 23.1884C-0.687389 23.1884 -0.405658 23.2359 -0.127493 23.331C0.150672 23.4261 0.403874 23.5807 0.632112 23.7946C0.86035 24.0062 1.04223 24.2868 1.17774 24.6363C1.31326 24.9858 1.38102 25.4161 1.38102 25.9272V26.2839H-2.84139V25.5564H0.525125C0.525125 25.2473 0.463311 24.9715 0.339682 24.729C0.21843 24.4865 0.0448742 24.2951 -0.180986 24.1548C-0.404469 24.0146 -0.66837 23.9444 -0.972687 23.9444C-1.30791 23.9444 -1.59796 24.0276 -1.84284 24.1941C-2.08535 24.3581 -2.27198 24.5721 -2.40274 24.836C-2.5335 25.0999 -2.59888 25.3828 -2.59888 25.6847V26.1697C-2.59888 26.5834 -2.52756 26.9341 -2.38491 27.2218C-2.23988 27.5071 -2.03899 27.7246 -1.78222 27.8744C-1.52545 28.0218 -1.22708 28.0955 -0.887098 28.0955C-0.665992 28.0955 -0.466284 28.0646 -0.287973 28.0028C-0.107284 27.9386 0.0484404 27.8435 0.179202 27.7175C0.309963 27.5891 0.411006 27.4298 0.48233 27.2396L1.29543 27.4679C1.20984 27.7436 1.066 27.9861 0.863916 28.1954C0.66183 28.4022 0.412195 28.5639 0.11501 28.6804C-0.182175 28.7945 -0.516211 28.8515 -0.887098 28.8515ZM6.11339 26.4978V23.2597H6.95502V28.7374H6.11339V27.8102H6.05633C5.92795 28.0884 5.72824 28.3249 5.45721 28.5199C5.18617 28.7125 4.84382 28.8088 4.43014 28.8088C4.08778 28.8088 3.78346 28.7339 3.51718 28.5841C3.25091 28.4319 3.04169 28.2037 2.88953 27.8994C2.73737 27.5927 2.66129 27.2063 2.66129 26.7403V23.2597H3.50292V26.6833C3.50292 27.0827 3.61466 27.4013 3.83814 27.639C4.064 27.8768 4.35168 27.9957 4.70117 27.9957C4.91039 27.9957 5.12317 27.9422 5.33952 27.8352C5.55825 27.7282 5.74132 27.5641 5.88872 27.343C6.0385 27.1219 6.11339 26.8402 6.11339 26.4978ZM8.49652 28.7374V23.2597H9.30961V24.1156H9.38094C9.49506 23.8232 9.67931 23.5961 9.9337 23.4345C10.1881 23.2704 10.4936 23.1884 10.8502 23.1884C11.2116 23.1884 11.5123 23.2704 11.7525 23.4345C11.995 23.5961 12.184 23.8232 12.3195 24.1156H12.3766C12.5168 23.8327 12.7272 23.608 13.0078 23.4416C13.2883 23.2728 13.6247 23.1884 14.017 23.1884C14.5068 23.1884 14.9074 23.3417 15.2188 23.6484C15.5303 23.9527 15.686 24.4271 15.686 25.0714V28.7374H14.8444V25.0714C14.8444 24.6672 14.7338 24.3783 14.5127 24.2048C14.2916 24.0312 14.0313 23.9444 13.7317 23.9444C13.3466 23.9444 13.0482 24.0609 12.8366 24.2939C12.625 24.5245 12.5192 24.817 12.5192 25.1712V28.7374H11.6633V24.9858C11.6633 24.6743 11.5623 24.4235 11.3602 24.2333C11.1581 24.0407 10.8978 23.9444 10.5792 23.9444C10.3605 23.9444 10.156 24.0027 9.9658 24.1192C9.77798 24.2357 9.62582 24.3973 9.50932 24.6042C9.3952 24.8086 9.33814 25.0452 9.33814 25.3139V28.7374H8.49652Z" fill="#949494"/>
<path d="M42.5879 29.6192C45.2728 29.6192 47.4696 27.4224 47.4696 24.7375C47.4696 22.0525 45.2728 19.8557 42.5879 19.8557C39.9029 19.8557 37.7061 22.0525 37.7061 24.7375C37.7061 27.4224 39.9029 29.6192 42.5879 29.6192Z" stroke="#949494" stroke-width="0.836873" stroke-linecap="round" stroke-linejoin="round"/>
<path d="M42.5878 22.7847V25.2256" stroke="#949494" stroke-width="0.836873" stroke-linecap="round" stroke-linejoin="round"/>
<path d="M42.5851 26.6901H42.5895" stroke="#949494" stroke-width="0.836873" stroke-linecap="round" stroke-linejoin="round"/>
<path d="M52.8682 28.7374V21.4338H53.7526V27.9529H57.1476V28.7374H52.8682ZM60.6283 28.8515C60.1338 28.8515 59.6999 28.7339 59.3266 28.4985C58.9557 28.2631 58.6657 27.9338 58.4564 27.5106C58.2496 27.0875 58.1462 26.5929 58.1462 26.0271C58.1462 25.4565 58.2496 24.9584 58.4564 24.5329C58.6657 24.1073 58.9557 23.7768 59.3266 23.5414C59.6999 23.3061 60.1338 23.1884 60.6283 23.1884C61.1228 23.1884 61.5555 23.3061 61.9264 23.5414C62.2996 23.7768 62.5897 24.1073 62.7965 24.5329C63.0058 24.9584 63.1104 25.4565 63.1104 26.0271C63.1104 26.5929 63.0058 27.0875 62.7965 27.5106C62.5897 27.9338 62.2996 28.2631 61.9264 28.4985C61.5555 28.7339 61.1228 28.8515 60.6283 28.8515ZM60.6283 28.0955C61.0039 28.0955 61.313 27.9992 61.5555 27.8066C61.798 27.6141 61.9775 27.3609 62.094 27.047C62.2105 26.7332 62.2687 26.3932 62.2687 26.0271C62.2687 25.661 62.2105 25.3198 62.094 25.0036C61.9775 24.6874 61.798 24.4318 61.5555 24.2369C61.313 24.0419 61.0039 23.9444 60.6283 23.9444C60.2526 23.9444 59.9436 24.0419 59.7011 24.2369C59.4586 24.4318 59.2791 24.6874 59.1626 25.0036C59.0461 25.3198 58.9878 25.661 58.9878 26.0271C58.9878 26.3932 59.0461 26.7332 59.1626 27.047C59.2791 27.3609 59.4586 27.6141 59.7011 27.8066C59.9436 27.9992 60.2526 28.0955 60.6283 28.0955ZM64.3951 28.7374V23.2597H65.2082V24.0871H65.2653C65.3651 23.816 65.5458 23.5961 65.8073 23.4273C66.0688 23.2585 66.3636 23.1741 66.6917 23.1741C66.7536 23.1741 66.8308 23.1753 66.9235 23.1777C67.0163 23.1801 67.0864 23.1836 67.1339 23.1884V24.0443C67.1054 24.0371 67.04 24.0265 66.9378 24.0122C66.838 23.9955 66.7322 23.9872 66.6204 23.9872C66.3541 23.9872 66.1164 24.0431 65.9072 24.1548C65.7003 24.2642 65.5363 24.4164 65.415 24.6113C65.2962 24.8039 65.2367 25.0238 65.2367 25.2711V28.7374H64.3951ZM70.2615 28.8515C69.7337 28.8515 69.2784 28.735 68.8957 28.5021C68.5153 28.2667 68.2216 27.9386 68.0148 27.5178C67.8103 27.0946 67.7081 26.6025 67.7081 26.0414C67.7081 25.4803 67.8103 24.9858 68.0148 24.5578C68.2216 24.1275 68.5093 23.7923 68.8778 23.5521C69.2487 23.3096 69.6814 23.1884 70.1759 23.1884C70.4612 23.1884 70.743 23.2359 71.0211 23.331C71.2993 23.4261 71.5525 23.5807 71.7807 23.7946C72.009 24.0062 72.1908 24.2868 72.3264 24.6363C72.4619 24.9858 72.5296 25.4161 72.5296 25.9272V26.2839H68.3072V25.5564H71.6737C71.6737 25.2473 71.6119 24.9715 71.4883 24.729C71.3671 24.4865 71.1935 24.2951 70.9676 24.1548C70.7442 24.0146 70.4803 23.9444 70.1759 23.9444C69.8407 23.9444 69.5507 24.0276 69.3058 24.1941C69.0633 24.3581 68.8766 24.5721 68.7459 24.836C68.6151 25.0999 68.5497 25.3828 68.5497 25.6847V26.1697C68.5497 26.5834 68.6211 26.9341 68.7637 27.2218C68.9087 27.5071 69.1096 27.7246 69.3664 27.8744C69.6232 28.0218 69.9215 28.0955 70.2615 28.0955C70.4826 28.0955 70.6823 28.0646 70.8606 28.0028C71.0413 27.9386 71.1971 27.8435 71.3278 27.7175C71.4586 27.5891 71.5596 27.4298 71.631 27.2396L72.444 27.4679C72.3585 27.7436 72.2146 27.9861 72.0125 28.1954C71.8105 28.4022 71.5608 28.5639 71.2636 28.6804C70.9664 28.7945 70.6324 28.8515 70.2615 28.8515ZM77.262 26.4978V23.2597H78.1036V28.7374H77.262V27.8102H77.205C77.0766 28.0884 76.8769 28.3249 76.6058 28.5199C76.3348 28.7125 75.9924 28.8088 75.5788 28.8088C75.2364 28.8088 74.9321 28.7339 74.6658 28.5841C74.3995 28.4319 74.1903 28.2037 74.0381 27.8994C73.886 27.5927 73.8099 27.2063 73.8099 26.7403V23.2597H74.6515V26.6833C74.6515 27.0827 74.7633 27.4013 74.9868 27.639C75.2126 27.8768 75.5003 27.9957 75.8498 27.9957C76.059 27.9957 76.2718 27.9422 76.4881 27.8352C76.7069 27.7282 76.8899 27.5641 77.0373 27.343C77.1871 27.1219 77.262 26.8402 77.262 26.4978ZM79.6451 28.7374V23.2597H80.4582V24.1156H80.5296C80.6437 23.8232 80.8279 23.5961 81.0823 23.4345C81.3367 23.2704 81.6422 23.1884 81.9988 23.1884C82.3602 23.1884 82.661 23.2704 82.9011 23.4345C83.1436 23.5961 83.3326 23.8232 83.4681 24.1156H83.5252C83.6655 23.8327 83.8759 23.608 84.1564 23.4416C84.4369 23.2728 84.7734 23.1884 85.1656 23.1884C85.6554 23.1884 86.056 23.3417 86.3675 23.6484C86.6789 23.9527 86.8346 24.4271 86.8346 25.0714V28.7374H85.993V25.0714C85.993 24.6672 85.8825 24.3783 85.6613 24.2048C85.4402 24.0312 85.1799 23.9444 84.8803 23.9444C84.4952 23.9444 84.1968 24.0609 83.9852 24.2939C83.7736 24.5245 83.6678 24.817 83.6678 25.1712V28.7374H82.8119V24.9858C82.8119 24.6743 82.7109 24.4235 82.5088 24.2333C82.3067 24.0407 82.0464 23.9444 81.7278 23.9444C81.5091 23.9444 81.3046 24.0027 81.1144 24.1192C80.9266 24.2357 80.7744 24.3973 80.6579 24.6042C80.5438 24.8086 80.4868 25.0452 80.4868 25.3139V28.7374H79.6451Z" fill="#949494"/>
<rect x="-111.192" y="49.8934" width="349.813" height="43.2268" rx="2.92905" stroke="#949494" stroke-width="0.836873"/>
<path d="M-55.0989 60.8663L-52.9307 67.0145H-52.8451L-50.6768 60.8663H-49.7496L-52.4314 68.1699H-53.3443L-56.0261 60.8663H-55.0989ZM-48.7261 68.1699V62.6922H-47.8845V68.1699H-48.7261ZM-48.2981 61.7793C-48.4622 61.7793 -48.6036 61.7234 -48.7225 61.6116C-48.839 61.4999 -48.8973 61.3656 -48.8973 61.2087C-48.8973 61.0517 -48.839 60.9174 -48.7225 60.8057C-48.6036 60.6939 -48.4622 60.6381 -48.2981 60.6381C-48.1341 60.6381 -47.9938 60.6939 -47.8773 60.8057C-47.7584 60.9174 -47.699 61.0517 -47.699 61.2087C-47.699 61.3656 -47.7584 61.4999 -47.8773 61.6116C-47.9938 61.7234 -48.1341 61.7793 -48.2981 61.7793ZM-44.2745 68.284C-44.731 68.284 -45.134 68.1687 -45.4835 67.9381C-45.833 67.7051 -46.1064 67.377 -46.3037 66.9538C-46.5011 66.5283 -46.5997 66.0254 -46.5997 65.4453C-46.5997 64.87 -46.5011 64.3707 -46.3037 63.9475C-46.1064 63.5243 -45.8318 63.1974 -45.4799 62.9668C-45.1281 62.7362 -44.7215 62.6209 -44.2603 62.6209C-43.9037 62.6209 -43.6219 62.6803 -43.4151 62.7992C-43.2059 62.9157 -43.0466 63.0488 -42.9372 63.1986C-42.8255 63.346 -42.7387 63.4673 -42.6769 63.5624H-42.6056V60.8663H-41.7639V68.1699H-42.577V67.3283H-42.6769C-42.7387 67.4281 -42.8267 67.5542 -42.9408 67.7063C-43.0549 67.8561 -43.2178 67.9904 -43.4294 68.1093C-43.641 68.2258 -43.9227 68.284 -44.2745 68.284ZM-44.1604 67.528C-43.8228 67.528 -43.5375 67.44 -43.3045 67.2641C-43.0715 67.0858 -42.8944 66.8397 -42.7732 66.5259C-42.6519 66.2097 -42.5913 65.8447 -42.5913 65.4311C-42.5913 65.0221 -42.6507 64.6643 -42.7696 64.3576C-42.8885 64.0486 -43.0644 63.8084 -43.2974 63.6373C-43.5304 63.4637 -43.8181 63.3769 -44.1604 63.3769C-44.5171 63.3769 -44.8142 63.4685 -45.052 63.6515C-45.2874 63.8322 -45.4645 64.0783 -45.5834 64.3897C-45.6998 64.6988 -45.7581 65.0459 -45.7581 65.4311C-45.7581 65.821 -45.6987 66.1752 -45.5798 66.4938C-45.4585 66.81 -45.2802 67.062 -45.0449 67.2498C-44.8071 67.4353 -44.5123 67.528 -44.1604 67.528ZM-40.1056 68.1699V62.6922H-39.264V68.1699H-40.1056ZM-39.6777 61.7793C-39.8417 61.7793 -39.9832 61.7234 -40.1021 61.6116C-40.2186 61.4999 -40.2768 61.3656 -40.2768 61.2087C-40.2768 61.0517 -40.2186 60.9174 -40.1021 60.8057C-39.9832 60.6939 -39.8417 60.6381 -39.6777 60.6381C-39.5136 60.6381 -39.3734 60.6939 -39.2569 60.8057C-39.138 60.9174 -39.0786 61.0517 -39.0786 61.2087C-39.0786 61.3656 -39.138 61.4999 -39.2569 61.6116C-39.3734 61.7234 -39.5136 61.7793 -39.6777 61.7793ZM-36.1106 68.2983C-36.4577 68.2983 -36.7727 68.2329 -37.0556 68.1022C-37.3386 67.969 -37.5632 67.7776 -37.7296 67.528C-37.8961 67.276 -37.9793 66.9717 -37.9793 66.6151C-37.9793 66.3012 -37.9175 66.0468 -37.7938 65.8519C-37.6702 65.6545 -37.505 65.5 -37.2981 65.3883C-37.0913 65.2765 -36.8631 65.1933 -36.6134 65.1386C-36.3614 65.0816 -36.1082 65.0364 -35.8538 65.0031C-35.521 64.9603 -35.2511 64.9282 -35.0443 64.9068C-34.8351 64.8831 -34.6829 64.8438 -34.5878 64.7891C-34.4903 64.7345 -34.4416 64.6394 -34.4416 64.5038V64.4753C-34.4416 64.1235 -34.5379 63.85 -34.7305 63.6551C-34.9207 63.4601 -35.2095 63.3627 -35.597 63.3627C-35.9988 63.3627 -36.3139 63.4506 -36.5421 63.6266C-36.7703 63.8025 -36.9308 63.9903 -37.0235 64.19L-37.8224 63.9047C-37.6797 63.5719 -37.4895 63.3127 -37.2518 63.1273C-37.0116 62.9395 -36.7501 62.8087 -36.4672 62.735C-36.1819 62.6589 -35.9014 62.6209 -35.6256 62.6209C-35.4496 62.6209 -35.2476 62.6423 -35.0193 62.6851C-34.7887 62.7255 -34.5664 62.8099 -34.3524 62.9383C-34.1361 63.0667 -33.9566 63.2604 -33.8139 63.5196C-33.6713 63.7787 -33.6 64.1258 -33.6 64.5609V68.1699H-34.4416V67.4281H-34.4844C-34.5414 67.547 -34.6365 67.6742 -34.7697 67.8097C-34.9028 67.9453 -35.0799 68.0606 -35.3011 68.1557C-35.5222 68.2508 -35.792 68.2983 -36.1106 68.2983ZM-35.9822 67.5423C-35.6494 67.5423 -35.3688 67.4769 -35.1406 67.3461C-34.91 67.2154 -34.7364 67.0466 -34.6199 66.8397C-34.501 66.6329 -34.4416 66.4153 -34.4416 66.1871V65.4168C-34.4773 65.4596 -34.5557 65.4988 -34.677 65.5345C-34.7958 65.5678 -34.9337 65.5975 -35.0906 65.6236C-35.2452 65.6474 -35.3961 65.6688 -35.5436 65.6878C-35.6886 65.7045 -35.8063 65.7187 -35.8966 65.7306C-36.1153 65.7592 -36.3198 65.8055 -36.51 65.8697C-36.6978 65.9315 -36.85 66.0254 -36.9665 66.1514C-37.0806 66.2751 -37.1377 66.4439 -37.1377 66.6578C-37.1377 66.9503 -37.0295 67.1714 -36.8131 67.3212C-36.5944 67.4686 -36.3174 67.5423 -35.9822 67.5423ZM-27.6274 68.2983C-27.9745 68.2983 -28.2896 68.2329 -28.5725 68.1022C-28.8554 67.969 -29.0801 67.7776 -29.2465 67.528C-29.4129 67.276 -29.4961 66.9717 -29.4961 66.6151C-29.4961 66.3012 -29.4343 66.0468 -29.3107 65.8519C-29.1871 65.6545 -29.0218 65.5 -28.815 65.3883C-28.6081 65.2765 -28.3799 65.1933 -28.1303 65.1386C-27.8783 65.0816 -27.6251 65.0364 -27.3707 65.0031C-27.0378 64.9603 -26.768 64.9282 -26.5611 64.9068C-26.3519 64.8831 -26.1998 64.8438 -26.1047 64.7891C-26.0072 64.7345 -25.9584 64.6394 -25.9584 64.5038V64.4753C-25.9584 64.1235 -26.0547 63.85 -26.2473 63.6551C-26.4375 63.4601 -26.7264 63.3627 -27.1139 63.3627C-27.5157 63.3627 -27.8307 63.4506 -28.059 63.6266C-28.2872 63.8025 -28.4477 63.9903 -28.5404 64.19L-29.3392 63.9047C-29.1966 63.5719 -29.0064 63.3127 -28.7686 63.1273C-28.5285 62.9395 -28.267 62.8087 -27.9841 62.735C-27.6988 62.6589 -27.4182 62.6209 -27.1424 62.6209C-26.9665 62.6209 -26.7644 62.6423 -26.5362 62.6851C-26.3056 62.7255 -26.0833 62.8099 -25.8693 62.9383C-25.6529 63.0667 -25.4734 63.2604 -25.3308 63.5196C-25.1881 63.7787 -25.1168 64.1258 -25.1168 64.5609V68.1699H-25.9584V67.4281H-26.0012C-26.0583 67.547 -26.1534 67.6742 -26.2865 67.8097C-26.4197 67.9453 -26.5968 68.0606 -26.8179 68.1557C-27.039 68.2508 -27.3089 68.2983 -27.6274 68.2983ZM-27.4991 67.5423C-27.1662 67.5423 -26.8857 67.4769 -26.6574 67.3461C-26.4268 67.2154 -26.2533 67.0466 -26.1368 66.8397C-26.0179 66.6329 -25.9584 66.4153 -25.9584 66.1871V65.4168C-25.9941 65.4596 -26.0726 65.4988 -26.1938 65.5345C-26.3127 65.5678 -26.4506 65.5975 -26.6075 65.6236C-26.762 65.6474 -26.913 65.6688 -27.0604 65.6878C-27.2054 65.7045 -27.3231 65.7187 -27.4135 65.7306C-27.6322 65.7592 -27.8367 65.8055 -28.0269 65.8697C-28.2147 65.9315 -28.3668 66.0254 -28.4833 66.1514C-28.5974 66.2751 -28.6545 66.4439 -28.6545 66.6578C-28.6545 66.9503 -28.5463 67.1714 -28.33 67.3212C-28.1113 67.4686 -27.8343 67.5423 -27.4991 67.5423ZM-22.739 64.8747V68.1699H-23.5807V62.6922H-22.7676V63.5481H-22.6962C-22.5679 63.2699 -22.3729 63.0465 -22.1114 62.8777C-21.8499 62.7065 -21.5123 62.6209 -21.0986 62.6209C-20.7277 62.6209 -20.4032 62.697 -20.125 62.8491C-19.8468 62.9989 -19.6305 63.2271 -19.476 63.5338C-19.3214 63.8382 -19.2441 64.2233 -19.2441 64.6893V68.1699H-20.0858V64.7464C-20.0858 64.316 -20.1975 63.9808 -20.421 63.7407C-20.6445 63.4982 -20.9512 63.3769 -21.3411 63.3769C-21.6097 63.3769 -21.8499 63.4352 -22.0615 63.5517C-22.2707 63.6682 -22.4359 63.8382 -22.5572 64.0616C-22.6784 64.2851 -22.739 64.5562 -22.739 64.8747ZM-15.4952 70.3382C-15.9017 70.3382 -16.2512 70.2859 -16.5436 70.1813C-16.8361 70.079 -17.0797 69.9435 -17.2747 69.7747C-17.4673 69.6083 -17.6206 69.43 -17.7347 69.2398L-17.0643 68.769C-16.9882 68.8689 -16.8919 68.983 -16.7754 69.1114C-16.6589 69.2422 -16.4996 69.3551 -16.2976 69.4502C-16.0931 69.5477 -15.8256 69.5964 -15.4952 69.5964C-15.0529 69.5964 -14.688 69.4894 -14.4003 69.2754C-14.1127 69.0615 -13.9688 68.7263 -13.9688 68.2698V67.1571H-14.0401C-14.102 67.257 -14.1899 67.3806 -14.304 67.528C-14.4158 67.673 -14.5775 67.8026 -14.789 67.9167C-14.9983 68.0285 -15.2812 68.0843 -15.6378 68.0843C-16.08 68.0843 -16.4771 67.9797 -16.8289 67.7705C-17.1784 67.5613 -17.4554 67.257 -17.6599 66.8576C-17.8619 66.4581 -17.963 65.9731 -17.963 65.4025C-17.963 64.8415 -17.8643 64.3529 -17.667 63.9368C-17.4697 63.5184 -17.1951 63.195 -16.8432 62.9668C-16.4913 62.7362 -16.0848 62.6209 -15.6235 62.6209C-15.2669 62.6209 -14.984 62.6803 -14.7748 62.7992C-14.5632 62.9157 -14.4015 63.0488 -14.2898 63.1986C-14.1757 63.346 -14.0877 63.4673 -14.0259 63.5624H-13.9403V62.6922H-13.1272V68.3268C-13.1272 68.7976 -13.2342 69.1804 -13.4481 69.4752C-13.6597 69.7723 -13.945 69.9899 -14.304 70.1278C-14.6607 70.268 -15.0577 70.3382 -15.4952 70.3382ZM-15.5237 67.3283C-15.1861 67.3283 -14.9008 67.251 -14.6678 67.0965C-14.4348 66.942 -14.2577 66.7197 -14.1364 66.4296C-14.0152 66.1396 -13.9546 65.7924 -13.9546 65.3883C-13.9546 64.9936 -14.014 64.6453 -14.1329 64.3434C-14.2517 64.0414 -14.4277 63.8049 -14.6607 63.6337C-14.8937 63.4625 -15.1813 63.3769 -15.5237 63.3769C-15.8803 63.3769 -16.1775 63.4673 -16.4152 63.648C-16.6506 63.8286 -16.8277 64.0711 -16.9466 64.3755C-17.0631 64.6798 -17.1214 65.0174 -17.1214 65.3883C-17.1214 65.7687 -17.0619 66.1051 -16.943 66.3975C-16.8218 66.6876 -16.6435 66.9158 -16.4081 67.0822C-16.1704 67.2463 -15.8756 67.3283 -15.5237 67.3283ZM-9.28994 68.284C-9.81774 68.284 -10.273 68.1675 -10.6558 67.9346C-11.0362 67.6992 -11.3298 67.3711 -11.5367 66.9503C-11.7411 66.5271 -11.8434 66.0349 -11.8434 65.4739C-11.8434 64.9128 -11.7411 64.4183 -11.5367 63.9903C-11.3298 63.56 -11.0421 63.2248 -10.6736 62.9846C-10.3027 62.7421 -9.87004 62.6209 -9.37553 62.6209C-9.09023 62.6209 -8.8085 62.6684 -8.53033 62.7635C-8.25217 62.8586 -7.99897 63.0132 -7.77073 63.2271C-7.54249 63.4387 -7.36061 63.7193 -7.2251 64.0688C-7.08958 64.4183 -7.02182 64.8486 -7.02182 65.3597V65.7164H-11.2442V64.9889H-7.87772C-7.87772 64.6798 -7.93953 64.404 -8.06316 64.1615C-8.18441 63.919 -8.35797 63.7276 -8.58383 63.5873C-8.80731 63.4471 -9.07121 63.3769 -9.37553 63.3769C-9.71075 63.3769 -10.0008 63.4601 -10.2457 63.6266C-10.4882 63.7906 -10.6748 64.0046 -10.8056 64.2685C-10.9363 64.5324 -11.0017 64.8153 -11.0017 65.1172V65.6022C-11.0017 66.0159 -10.9304 66.3666 -10.7878 66.6543C-10.6427 66.9396 -10.4418 67.1571 -10.1851 67.3069C-9.92829 67.4543 -9.62992 67.528 -9.28994 67.528C-9.06883 67.528 -8.86913 67.4971 -8.69081 67.4353C-8.51013 67.3711 -8.3544 67.276 -8.22364 67.15C-8.09288 67.0216 -7.99184 66.8623 -7.92051 66.6721L-7.10741 66.9003C-7.193 67.1761 -7.33684 67.4186 -7.53893 67.6279C-7.74101 67.8347 -7.99065 67.9964 -8.28783 68.1129C-8.58502 68.227 -8.91905 68.284 -9.28994 68.284ZM-4.89992 60.8663V68.1699H-5.74155V60.8663H-4.89992ZM-1.7465 68.2983C-2.09361 68.2983 -2.40862 68.2329 -2.69154 68.1022C-2.97446 67.969 -3.19914 67.7776 -3.36556 67.528C-3.53198 67.276 -3.6152 66.9717 -3.6152 66.6151C-3.6152 66.3012 -3.55338 66.0468 -3.42975 65.8519C-3.30612 65.6545 -3.14089 65.5 -2.93405 65.3883C-2.72721 65.2765 -2.49897 65.1933 -2.24933 65.1386C-1.99732 65.0816 -1.74412 65.0364 -1.48973 65.0031C-1.15688 64.9603 -0.887038 64.9282 -0.680197 64.9068C-0.470979 64.8831 -0.31882 64.8438 -0.223721 64.7891C-0.126244 64.7345 -0.0775059 64.6394 -0.0775059 64.5038V64.4753C-0.0775059 64.1235 -0.173794 63.85 -0.366369 63.6551C-0.556568 63.4601 -0.845432 63.3627 -1.23296 63.3627C-1.63475 63.3627 -1.94977 63.4506 -2.17801 63.6266C-2.40625 63.8025 -2.56673 63.9903 -2.65945 64.19L-3.45828 63.9047C-3.31563 63.5719 -3.12543 63.3127 -2.88769 63.1273C-2.64756 62.9395 -2.38604 62.8087 -2.10312 62.735C-1.81782 62.6589 -1.53728 62.6209 -1.26149 62.6209C-1.08556 62.6209 -0.883471 62.6423 -0.655233 62.6851C-0.424618 62.7255 -0.202323 62.8099 0.0116496 62.9383C0.228 63.0667 0.4075 63.2604 0.550149 63.5196C0.692798 63.7787 0.764122 64.1258 0.764122 64.5609V68.1699H-0.0775059V67.4281H-0.1203C-0.17736 67.547 -0.272459 67.6742 -0.405598 67.8097C-0.538737 67.9453 -0.715859 68.0606 -0.936965 68.1557C-1.15807 68.2508 -1.42791 68.2983 -1.7465 68.2983ZM-1.61811 67.5423C-1.28527 67.5423 -1.00472 67.4769 -0.776485 67.3461C-0.545869 67.2154 -0.372313 67.0466 -0.255817 66.8397C-0.136943 66.6329 -0.0775059 66.4153 -0.0775059 66.1871V65.4168C-0.113168 65.4596 -0.191625 65.4988 -0.312876 65.5345C-0.43175 65.5678 -0.569644 65.5975 -0.726558 65.6236C-0.881094 65.6474 -1.03206 65.6688 -1.17947 65.6878C-1.32449 65.7045 -1.44218 65.7187 -1.53252 65.7306C-1.75125 65.7592 -1.95571 65.8055 -2.14591 65.8697C-2.33373 65.9315 -2.48589 66.0254 -2.60239 66.1514C-2.71651 66.2751 -2.77357 66.4439 -2.77357 66.6578C-2.77357 66.9503 -2.66539 67.1714 -2.44904 67.3212C-2.23031 67.4686 -1.95334 67.5423 -1.61811 67.5423Z" fill="white"/>
<path d="M10.6577 66.2503C10.3007 66.2503 9.98377 66.1476 9.70705 65.9423C9.43032 65.7325 9.21385 65.4469 9.05764 65.0853C8.90142 64.7193 8.82331 64.2998 8.82331 63.8267C8.82331 63.3536 8.90142 62.9362 9.05764 62.5747C9.21385 62.2087 9.42809 61.9231 9.70035 61.7178C9.97708 61.508 10.2962 61.4031 10.6577 61.4031C11.0193 61.4031 11.3362 61.508 11.6084 61.7178C11.8851 61.9231 12.1016 62.2087 12.2578 62.5747C12.4185 62.9362 12.4989 63.3536 12.4989 63.8267C12.4989 64.2998 12.4207 64.7193 12.2645 65.0853C12.1083 65.4469 11.8918 65.7325 11.6151 65.9423C11.3384 66.1476 11.0193 66.2503 10.6577 66.2503ZM10.6577 65.7414C10.9077 65.7414 11.1286 65.6589 11.3205 65.4937C11.5169 65.3286 11.6687 65.1032 11.7758 64.8175C11.8874 64.5319 11.9432 64.2016 11.9432 63.8267C11.9432 63.4518 11.8874 63.1215 11.7758 62.8358C11.6687 62.5457 11.5169 62.3203 11.3205 62.1596C11.1286 61.9945 10.9077 61.9119 10.6577 61.9119C10.4078 61.9119 10.1869 61.9945 9.99493 62.1596C9.80301 62.3203 9.65126 62.5457 9.53967 62.8358C9.43255 63.1215 9.37899 63.4518 9.37899 63.8267C9.37899 64.2016 9.43255 64.5319 9.53967 64.8175C9.65126 65.1032 9.80301 65.3286 9.99493 65.4937C10.1913 65.6589 10.4123 65.7414 10.6577 65.7414ZM14.9333 66.2503C14.612 66.2503 14.3419 66.19 14.1232 66.0695C13.9045 65.9445 13.7305 65.7771 13.601 65.5674C13.4716 65.3576 13.3779 65.1166 13.3198 64.8443C13.2663 64.5676 13.2395 64.2752 13.2395 63.9673C13.2395 63.5656 13.2797 63.2063 13.36 62.8894C13.4448 62.5725 13.5653 62.3047 13.7215 62.086C13.8777 61.8628 14.0674 61.6932 14.2906 61.5772C14.5138 61.4611 14.7659 61.4031 15.0471 61.4031C15.2792 61.4031 15.5091 61.441 15.7367 61.5169C15.9688 61.5883 16.1741 61.6887 16.3527 61.8182L16.038 62.2199C15.8952 62.1217 15.7412 62.0458 15.576 61.9923C15.4109 61.9342 15.2524 61.9052 15.1007 61.9052C14.6454 61.9052 14.2995 62.0971 14.063 62.481C13.8264 62.8648 13.7215 63.4473 13.7483 64.2284L13.6278 64.1079C13.7349 63.8356 13.9068 63.6214 14.1433 63.4651C14.3799 63.3045 14.6588 63.2241 14.9802 63.2241C15.2792 63.2241 15.5448 63.2888 15.7769 63.4183C16.0134 63.5477 16.1964 63.7285 16.3259 63.9606C16.4598 64.1882 16.5267 64.4493 16.5267 64.7439C16.5267 65.034 16.4598 65.2951 16.3259 65.5272C16.192 65.7548 16.0045 65.9334 15.7635 66.0628C15.5269 66.1878 15.2502 66.2503 14.9333 66.2503ZM14.9333 65.7548C15.1342 65.7548 15.3105 65.7124 15.4622 65.6276C15.6184 65.5384 15.7389 65.4179 15.8238 65.2661C15.913 65.1099 15.9577 64.9314 15.9577 64.7305C15.9577 64.5297 15.913 64.3534 15.8238 64.2016C15.7389 64.0454 15.6184 63.9249 15.4622 63.8401C15.3105 63.7553 15.1342 63.7129 14.9333 63.7129C14.7369 63.7129 14.5606 63.7553 14.4044 63.8401C14.2482 63.9249 14.1255 64.0454 14.0362 64.2016C13.9469 64.3534 13.9023 64.5297 13.9023 64.7305C13.9023 64.9314 13.9469 65.1099 14.0362 65.2661C14.1255 65.4179 14.2482 65.5384 14.4044 65.6276C14.5606 65.7124 14.7369 65.7548 14.9333 65.7548ZM17.5605 66.2637C17.4578 66.2637 17.3685 66.2279 17.2927 66.1565C17.2213 66.0807 17.1856 65.9936 17.1856 65.8954C17.1856 65.7928 17.2213 65.7057 17.2927 65.6343C17.3685 65.5584 17.4578 65.5205 17.5605 65.5205C17.6631 65.5205 17.7502 65.5584 17.8216 65.6343C17.893 65.7057 17.9287 65.7928 17.9287 65.8954C17.9287 65.9936 17.893 66.0807 17.8216 66.1565C17.7502 66.2279 17.6631 66.2637 17.5605 66.2637ZM20.1917 66.2503C19.964 66.2503 19.7565 66.2168 19.569 66.1498C19.386 66.0784 19.2276 65.9869 19.0937 65.8753C18.9642 65.7638 18.8616 65.6455 18.7857 65.5205L19.2544 65.2594C19.3035 65.3219 19.3637 65.3933 19.4351 65.4736C19.511 65.5495 19.607 65.6142 19.723 65.6678C19.839 65.7214 19.9819 65.7481 20.1515 65.7481C20.455 65.7481 20.6982 65.6611 20.8812 65.487C21.0642 65.313 21.1557 65.0943 21.1557 64.8309C21.1557 64.6301 21.0999 64.4605 20.9884 64.3221C20.8812 64.1837 20.725 64.0789 20.5197 64.0074C20.3144 63.936 20.0689 63.9003 19.7833 63.9003H19.6561V63.4585H19.7699C20.0511 63.4585 20.3099 63.4897 20.5465 63.5522C20.783 63.6147 20.9884 63.7062 21.1624 63.8267C21.341 63.9472 21.4771 64.0945 21.5708 64.2685C21.669 64.4426 21.7181 64.6435 21.7181 64.8711C21.7181 65.1478 21.6489 65.3911 21.5106 65.6008C21.3767 65.8062 21.1937 65.9668 20.9616 66.0829C20.7295 66.1945 20.4728 66.2503 20.1917 66.2503ZM19.6561 63.8535V63.4183H19.7833C20.1671 63.4183 20.4706 63.3536 20.6938 63.2241C20.9214 63.0902 21.0352 62.9005 21.0352 62.6551C21.0352 62.5212 20.9995 62.3984 20.9281 62.2868C20.8567 62.1708 20.7518 62.0793 20.6134 62.0123C20.4795 61.9409 20.3233 61.9052 20.1448 61.9052C20.0243 61.9052 19.9105 61.9231 19.8033 61.9588C19.7007 61.99 19.6047 62.0391 19.5155 62.1061C19.4307 62.1686 19.3525 62.2489 19.2811 62.3471L18.8393 62.0927C18.9241 61.9543 19.0312 61.8338 19.1606 61.7311C19.2945 61.6285 19.4463 61.5482 19.6159 61.4901C19.7855 61.4321 19.9707 61.4031 20.1716 61.4031C20.4438 61.4031 20.6871 61.4567 20.9013 61.5638C21.12 61.6709 21.2919 61.8182 21.4168 62.0056C21.5418 62.1886 21.6043 62.3962 21.6043 62.6283C21.6043 62.8247 21.5574 62.9987 21.4637 63.1505C21.37 63.3022 21.2383 63.4317 21.0687 63.5388C20.9036 63.6459 20.7094 63.7263 20.4862 63.7798C20.2675 63.8289 20.0287 63.8535 19.7699 63.8535H19.6561ZM23.9539 61.4031C24.2842 61.4031 24.5564 61.4656 24.7707 61.5906C24.9849 61.7111 25.1567 61.8762 25.2862 62.086C25.4201 62.2958 25.5138 62.539 25.5674 62.8157C25.6254 63.088 25.6544 63.3781 25.6544 63.6861C25.6544 64.0878 25.612 64.4471 25.5272 64.764C25.4424 65.0809 25.3219 65.3509 25.1657 65.5741C25.0094 65.7928 24.8197 65.9601 24.5966 66.0762C24.3779 66.1922 24.1279 66.2503 23.8467 66.2503C23.6147 66.2503 23.3826 66.2146 23.1505 66.1431C22.9228 66.0673 22.7175 65.9646 22.5345 65.8352L22.8492 65.4335C22.992 65.5317 23.146 65.6098 23.3111 65.6678C23.4808 65.7214 23.6414 65.7481 23.7932 65.7481C24.2484 65.7481 24.5944 65.5562 24.8309 65.1724C25.0719 64.7885 25.1768 64.2083 25.1456 63.4317L25.2661 63.5455C25.159 63.8178 24.9871 64.0342 24.7506 64.1949C24.514 64.3556 24.2351 64.4359 23.9137 64.4359C23.6102 64.4359 23.3424 64.3712 23.1103 64.2418C22.8782 64.1079 22.6952 63.9271 22.5613 63.6995C22.4319 63.4718 22.3672 63.2085 22.3672 62.9095C22.3672 62.6149 22.4341 62.356 22.568 62.1328C22.7019 61.9052 22.8871 61.7267 23.1237 61.5972C23.3647 61.4678 23.6414 61.4031 23.9539 61.4031ZM23.9539 61.8985C23.7575 61.8985 23.5812 61.9432 23.425 62.0324C23.2687 62.1172 23.146 62.2377 23.0567 62.394C22.9719 62.5457 22.9295 62.722 22.9295 62.9229C22.9295 63.1237 22.9719 63.3022 23.0567 63.4585C23.146 63.6102 23.2687 63.7307 23.425 63.82C23.5812 63.9048 23.7575 63.9472 23.9539 63.9472C24.1592 63.9472 24.3377 63.9048 24.4895 63.82C24.6457 63.7307 24.7662 63.6102 24.851 63.4585C24.9403 63.3022 24.9849 63.1237 24.9849 62.9229C24.9849 62.722 24.9403 62.5457 24.851 62.394C24.7662 62.2377 24.6457 62.1172 24.4895 62.0324C24.3377 61.9432 24.1592 61.8985 23.9539 61.8985ZM30.411 66.1699L30.3842 65.6209V64.4024C30.3842 64.1391 30.3552 63.9226 30.2972 63.753C30.2392 63.579 30.1477 63.4473 30.0227 63.358C29.8977 63.2688 29.7348 63.2241 29.534 63.2241C29.351 63.2241 29.1925 63.2621 29.0586 63.3379C28.9292 63.4094 28.8221 63.5254 28.7373 63.6861L28.2552 63.4986C28.34 63.3424 28.4427 63.2085 28.5632 63.0969C28.6837 62.9809 28.8243 62.8938 28.985 62.8358C29.1457 62.7733 29.3287 62.7421 29.534 62.7421C29.8464 62.7421 30.103 62.8046 30.3039 62.9296C30.5092 63.0501 30.6632 63.2308 30.7659 63.4718C30.8685 63.7084 30.9176 64.003 30.9131 64.3556L30.9064 66.1699H30.411ZM29.4068 66.2503C29.014 66.2503 28.706 66.161 28.4829 65.9825C28.2642 65.7995 28.1548 65.5473 28.1548 65.2259C28.1548 64.8867 28.2664 64.6278 28.4896 64.4493C28.7172 64.2663 29.0341 64.1748 29.4402 64.1748H30.3976V64.6234H29.5608C29.2483 64.6234 29.0252 64.6747 28.8913 64.7774C28.7618 64.88 28.6971 65.0273 28.6971 65.2192C28.6971 65.3933 28.7618 65.5317 28.8913 65.6343C29.0207 65.7325 29.2015 65.7816 29.4335 65.7816C29.6255 65.7816 29.7928 65.7414 29.9357 65.6611C30.0785 65.5763 30.1879 65.458 30.2637 65.3063C30.3441 65.1501 30.3842 64.9671 30.3842 64.7573H30.6119C30.6119 65.2125 30.5092 65.5763 30.3039 65.8486C30.0986 66.1164 29.7995 66.2503 29.4068 66.2503ZM31.8957 66.1699V62.8224H32.3979L32.4246 63.2911C32.5273 63.1125 32.659 62.9764 32.8196 62.8827C32.9803 62.789 33.1678 62.7421 33.382 62.7421C33.6498 62.7421 33.8774 62.8046 34.0649 62.9296C34.2568 63.0545 34.3952 63.2442 34.48 63.4986C34.5737 63.2531 34.7099 63.0657 34.8884 62.9362C35.0714 62.8068 35.2879 62.7421 35.5378 62.7421C35.9127 62.7421 36.2073 62.8671 36.4215 63.117C36.6402 63.367 36.7474 63.7463 36.7429 64.2552V66.1699H36.2073V64.456C36.2073 64.1257 36.1716 63.8735 36.1002 63.6995C36.0332 63.5254 35.9417 63.4071 35.8257 63.3446C35.7096 63.2777 35.5757 63.2442 35.424 63.2442C35.1607 63.2442 34.9553 63.3491 34.8081 63.5589C34.6608 63.7642 34.5871 64.0565 34.5871 64.4359V66.1699H34.0515V64.456C34.0515 64.1257 34.0158 63.8735 33.9444 63.6995C33.8774 63.5254 33.7837 63.4071 33.6632 63.3446C33.5472 63.2777 33.4133 63.2442 33.2615 63.2442C33.0026 63.2442 32.7996 63.3491 32.6523 63.5589C32.505 63.7642 32.4313 64.0565 32.4313 64.4359V66.1699H31.8957Z" fill="#C4C4C4"/>
<path d="M-55.5982 82.8437V76.9856H-52.1168V77.63H-54.8868V79.6301H-52.4432V80.2745H-54.8868V82.8437H-55.5982ZM-49.2956 82.9441C-49.7029 82.9441 -50.0627 82.8521 -50.3752 82.6679C-50.6876 82.4783 -50.9331 82.2188 -51.1116 81.8897C-51.2846 81.5605 -51.3711 81.1811 -51.3711 80.7515C-51.3711 80.3219 -51.2846 79.9425 -51.1116 79.6134C-50.9331 79.2842 -50.6904 79.0275 -50.3835 78.8434C-50.0711 78.6537 -49.714 78.5589 -49.3123 78.5589C-48.9218 78.5589 -48.5843 78.6565 -48.2997 78.8518C-48.0152 79.0415 -47.7948 79.3093 -47.6386 79.6552C-47.4824 80.0011 -47.4043 80.4084 -47.4043 80.877H-50.8606L-50.6932 80.7348C-50.6932 81.0695 -50.6346 81.3568 -50.5174 81.5967C-50.3947 81.8367 -50.2245 82.0208 -50.0069 82.1491C-49.7894 82.2718 -49.5411 82.3332 -49.2621 82.3332C-48.9664 82.3332 -48.7182 82.2635 -48.5173 82.124C-48.3109 81.9845 -48.1519 81.8004 -48.0403 81.5716L-47.4629 81.8645C-47.5689 82.0821 -47.7111 82.2718 -47.8897 82.4336C-48.0626 82.5954 -48.269 82.7209 -48.5089 82.8102C-48.7433 82.8995 -49.0055 82.9441 -49.2956 82.9441ZM-50.6513 80.4502L-50.8271 80.3163H-47.9399L-48.1156 80.4586C-48.1156 80.1908 -48.1686 79.9593 -48.2746 79.764C-48.3806 79.5687 -48.5229 79.4181 -48.7014 79.3121C-48.88 79.2061 -49.0864 79.1531 -49.3207 79.1531C-49.5495 79.1531 -49.767 79.2061 -49.9735 79.3121C-50.1743 79.4181 -50.3389 79.5687 -50.4672 79.764C-50.59 79.9537 -50.6513 80.1824 -50.6513 80.4502ZM-46.9355 82.8437L-45.2283 80.4419L-44.0232 78.6593H-43.2281L-44.8182 80.9189L-46.1237 82.8437H-46.9355ZM-43.9311 82.8437L-45.2199 80.9189L-46.8267 78.6593H-46.0317L-44.8182 80.4419L-43.1277 82.8437H-43.9311ZM-40.8296 82.9441C-41.1364 82.9441 -41.4042 82.8995 -41.633 82.8102C-41.8617 82.7154 -42.0542 82.5926 -42.2104 82.442C-42.3611 82.2914 -42.4699 82.1268 -42.5368 81.9482L-41.951 81.7055C-41.8562 81.8952 -41.7139 82.0487 -41.5242 82.1658C-41.3345 82.283 -41.1253 82.3416 -40.8965 82.3416C-40.6343 82.3416 -40.4139 82.2914 -40.2354 82.1909C-40.0569 82.0849 -39.9676 81.9371 -39.9676 81.7474C-39.9676 81.5744 -40.0346 81.435 -40.1685 81.3289C-40.2968 81.2229 -40.4893 81.1365 -40.7459 81.0695L-41.1476 80.9607C-41.527 80.8603 -41.8227 80.7097 -42.0347 80.5088C-42.2467 80.3024 -42.3527 80.0709 -42.3527 79.8142C-42.3527 79.4181 -42.2244 79.1112 -41.9677 78.8936C-41.7055 78.6705 -41.3178 78.5589 -40.8045 78.5589C-40.559 78.5589 -40.3358 78.5952 -40.135 78.6677C-39.9341 78.7402 -39.7612 78.8434 -39.6161 78.9773C-39.4711 79.1057 -39.3651 79.2591 -39.2981 79.4376L-39.8839 79.697C-39.9565 79.5074 -40.0764 79.3707 -40.2438 79.287C-40.4112 79.2033 -40.6148 79.1614 -40.8547 79.1614C-41.1113 79.1614 -41.3122 79.2172 -41.4572 79.3288C-41.6023 79.4348 -41.6748 79.5855 -41.6748 79.7807C-41.6748 79.8923 -41.6163 79.9983 -41.4991 80.0987C-41.3764 80.1936 -41.1978 80.2717 -40.9635 80.3331L-40.5451 80.4419C-40.2717 80.5088 -40.0429 80.6092 -39.8588 80.7431C-39.6747 80.8715 -39.5352 81.0193 -39.4404 81.1867C-39.3455 81.3541 -39.2981 81.5326 -39.2981 81.7223C-39.2981 81.9733 -39.3651 82.1909 -39.499 82.375C-39.6329 82.5592 -39.8142 82.7014 -40.0429 82.8018C-40.2717 82.8967 -40.5339 82.9441 -40.8296 82.9441ZM-38.1866 84.5174V78.6593H-37.5589L-37.5171 79.4292V84.5174H-38.1866ZM-36.1028 82.9441C-36.4543 82.9441 -36.7639 82.8521 -37.0317 82.6679C-37.2939 82.4838 -37.4976 82.2272 -37.6426 81.898C-37.7877 81.5633 -37.8602 81.1811 -37.8602 80.7515C-37.8602 80.3163 -37.7877 79.9342 -37.6426 79.605C-37.4976 79.2758 -37.2939 79.0192 -37.0317 78.8351C-36.7639 78.651 -36.4543 78.5589 -36.1028 78.5589C-35.729 78.5589 -35.3998 78.651 -35.1153 78.8351C-34.8307 79.0192 -34.6103 79.2758 -34.4541 79.605C-34.2923 79.9342 -34.2114 80.3163 -34.2114 80.7515C-34.2114 81.1811 -34.2923 81.5633 -34.4541 81.898C-34.6103 82.2272 -34.8307 82.4838 -35.1153 82.6679C-35.3998 82.8521 -35.729 82.9441 -36.1028 82.9441ZM-36.2534 82.3332C-35.9912 82.3332 -35.7596 82.2662 -35.5588 82.1323C-35.3524 81.9984 -35.1906 81.8115 -35.0734 81.5716C-34.9507 81.3317 -34.8893 81.0584 -34.8893 80.7515C-34.8893 80.4447 -34.9479 80.1713 -35.065 79.9314C-35.1766 79.6915 -35.3356 79.5046 -35.5421 79.3707C-35.7485 79.2368 -35.9828 79.1698 -36.245 79.1698C-36.4905 79.1698 -36.7109 79.2368 -36.9062 79.3707C-37.0959 79.5046 -37.2465 79.6915 -37.3581 79.9314C-37.4641 80.1713 -37.5171 80.4447 -37.5171 80.7515C-37.5171 81.0584 -37.4641 81.3317 -37.3581 81.5716C-37.2465 81.8115 -37.0959 81.9984 -36.9062 82.1323C-36.7165 82.2662 -36.4989 82.3332 -36.2534 82.3332ZM-30.5391 82.8437L-30.5725 82.1575V80.6343C-30.5725 80.3052 -30.6088 80.0346 -30.6813 79.8226C-30.7539 79.605 -30.8682 79.4404 -31.0245 79.3288C-31.1807 79.2172 -31.3843 79.1614 -31.6354 79.1614C-31.8641 79.1614 -32.0622 79.2089 -32.2295 79.3037C-32.3913 79.393 -32.5252 79.538 -32.6312 79.7389L-33.2338 79.5046C-33.1278 79.3093 -32.9995 79.1419 -32.8488 79.0024C-32.6982 78.8574 -32.5225 78.7486 -32.3216 78.6761C-32.1208 78.598 -31.892 78.5589 -31.6354 78.5589C-31.2448 78.5589 -30.924 78.637 -30.673 78.7932C-30.4163 78.9439 -30.2238 79.1698 -30.0955 79.4711C-29.9672 79.7668 -29.9058 80.135 -29.9114 80.5758L-29.9198 82.8437H-30.5391ZM-31.7944 82.9441C-32.2853 82.9441 -32.6703 82.8325 -32.9493 82.6094C-33.2226 82.3806 -33.3593 82.0654 -33.3593 81.6637C-33.3593 81.2397 -33.2198 80.9161 -32.9409 80.6929C-32.6564 80.4642 -32.2602 80.3498 -31.7525 80.3498H-30.5558V80.9105H-31.6019C-31.9924 80.9105 -32.2714 80.9747 -32.4388 81.103C-32.6006 81.2313 -32.6815 81.4154 -32.6815 81.6553C-32.6815 81.8729 -32.6006 82.0459 -32.4388 82.1742C-32.277 82.2969 -32.051 82.3583 -31.7609 82.3583C-31.521 82.3583 -31.3118 82.3081 -31.1332 82.2077C-30.9547 82.1017 -30.818 81.9538 -30.7232 81.7641C-30.6228 81.5689 -30.5725 81.3401 -30.5725 81.0779H-30.288C-30.288 81.647 -30.4163 82.1017 -30.673 82.442C-30.9296 82.7767 -31.3034 82.9441 -31.7944 82.9441ZM-26.8169 82.9441C-27.2298 82.9441 -27.5952 82.8521 -27.9132 82.6679C-28.2313 82.4783 -28.4795 82.2188 -28.6581 81.8897C-28.8366 81.5605 -28.9259 81.1811 -28.9259 80.7515C-28.9259 80.3219 -28.8394 79.9425 -28.6664 79.6134C-28.4879 79.2842 -28.2396 79.0275 -27.9216 78.8434C-27.6036 78.6537 -27.241 78.5589 -26.8337 78.5589C-26.432 78.5589 -26.0721 78.651 -25.7541 78.8351C-25.4361 79.0192 -25.1934 79.2786 -25.026 79.6134L-25.637 79.8895C-25.7485 79.6664 -25.9103 79.4934 -26.1223 79.3707C-26.3343 79.2423 -26.577 79.1782 -26.8504 79.1782C-27.1238 79.1782 -27.3665 79.2451 -27.5785 79.379C-27.7849 79.5129 -27.9495 79.6998 -28.0723 79.9397C-28.1894 80.1741 -28.248 80.4447 -28.248 80.7515C-28.248 81.0584 -28.1894 81.3317 -28.0723 81.5716C-27.9495 81.806 -27.7821 81.9901 -27.5701 82.124C-27.3525 82.2579 -27.1071 82.3248 -26.8337 82.3248C-26.5603 82.3248 -26.3176 82.2551 -26.1056 82.1156C-25.888 81.9761 -25.7234 81.7809 -25.6118 81.5298L-25.0009 81.806C-25.1683 82.163 -25.411 82.442 -25.729 82.6428C-26.047 82.8437 -26.4097 82.9441 -26.8169 82.9441ZM-22.1554 82.9441C-22.5627 82.9441 -22.9226 82.8521 -23.235 82.6679C-23.5474 82.4783 -23.7929 82.2188 -23.9714 81.8897C-24.1444 81.5605 -24.2309 81.1811 -24.2309 80.7515C-24.2309 80.3219 -24.1444 79.9425 -23.9714 79.6134C-23.7929 79.2842 -23.5502 79.0275 -23.2434 78.8434C-22.9309 78.6537 -22.5739 78.5589 -22.1722 78.5589C-21.7816 78.5589 -21.4441 78.6565 -21.1596 78.8518C-20.875 79.0415 -20.6546 79.3093 -20.4984 79.6552C-20.3422 80.0011 -20.2641 80.4084 -20.2641 80.877H-23.7204L-23.553 80.7348C-23.553 81.0695 -23.4944 81.3568 -23.3773 81.5967C-23.2545 81.8367 -23.0844 82.0208 -22.8668 82.1491C-22.6492 82.2718 -22.4009 82.3332 -22.122 82.3332C-21.8263 82.3332 -21.578 82.2635 -21.3771 82.124C-21.1707 81.9845 -21.0117 81.8004 -20.9001 81.5716L-20.3227 81.8645C-20.4287 82.0821 -20.571 82.2718 -20.7495 82.4336C-20.9224 82.5954 -21.1289 82.7209 -21.3688 82.8102C-21.6031 82.8995 -21.8653 82.9441 -22.1554 82.9441ZM-23.5112 80.4502L-23.6869 80.3163H-20.7997L-20.9754 80.4586C-20.9754 80.1908 -21.0284 79.9593 -21.1344 79.764C-21.2405 79.5687 -21.3827 79.4181 -21.5613 79.3121C-21.7398 79.2061 -21.9462 79.1531 -22.1805 79.1531C-22.4093 79.1531 -22.6269 79.2061 -22.8333 79.3121C-23.0341 79.4181 -23.1987 79.5687 -23.3271 79.764C-23.4498 79.9537 -23.5112 80.1824 -23.5112 80.4502ZM-16.9755 84.5174V78.6593H-16.3478L-16.306 79.4292V84.5174H-16.9755ZM-14.8916 82.9441C-15.2431 82.9441 -15.5528 82.8521 -15.8206 82.6679C-16.0828 82.4838 -16.2864 82.2272 -16.4315 81.898C-16.5765 81.5633 -16.6491 81.1811 -16.6491 80.7515C-16.6491 80.3163 -16.5765 79.9342 -16.4315 79.605C-16.2864 79.2758 -16.0828 79.0192 -15.8206 78.8351C-15.5528 78.651 -15.2431 78.5589 -14.8916 78.5589C-14.5178 78.5589 -14.1887 78.651 -13.9041 78.8351C-13.6196 79.0192 -13.3992 79.2758 -13.243 79.605C-13.0812 79.9342 -13.0003 80.3163 -13.0003 80.7515C-13.0003 81.1811 -13.0812 81.5633 -13.243 81.898C-13.3992 82.2272 -13.6196 82.4838 -13.9041 82.6679C-14.1887 82.8521 -14.5178 82.9441 -14.8916 82.9441ZM-15.0423 82.3332C-14.7801 82.3332 -14.5485 82.2662 -14.3477 82.1323C-14.1412 81.9984 -13.9794 81.8115 -13.8623 81.5716C-13.7395 81.3317 -13.6782 81.0584 -13.6782 80.7515C-13.6782 80.4447 -13.7368 80.1713 -13.8539 79.9314C-13.9655 79.6915 -14.1245 79.5046 -14.3309 79.3707C-14.5374 79.2368 -14.7717 79.1698 -15.0339 79.1698C-15.2794 79.1698 -15.4998 79.2368 -15.695 79.3707C-15.8847 79.5046 -16.0354 79.6915 -16.1469 79.9314C-16.253 80.1713 -16.306 80.4447 -16.306 80.7515C-16.306 81.0584 -16.253 81.3317 -16.1469 81.5716C-16.0354 81.8115 -15.8847 81.9984 -15.695 82.1323C-15.5053 82.2662 -15.2878 82.3332 -15.0423 82.3332ZM-11.5373 80.5758C-11.5373 80.1239 -11.4508 79.7584 -11.2779 79.4795C-11.1049 79.1949 -10.8845 78.9857 -10.6167 78.8518C-10.3433 78.7123 -10.056 78.6426 -9.75475 78.6426V79.2702C-10.0002 79.2702 -10.2373 79.3121 -10.4661 79.3958C-10.6893 79.4739 -10.8734 79.605 -11.0184 79.7891C-11.1635 79.9732 -11.236 80.2243 -11.236 80.5423L-11.5373 80.5758ZM-11.9055 82.8437V78.6593H-11.236V82.8437H-11.9055ZM-7.06093 82.9441C-7.46821 82.9441 -7.83085 82.8521 -8.14887 82.6679C-8.4613 82.4783 -8.70678 82.2188 -8.88531 81.8897C-9.06385 81.5605 -9.15311 81.1811 -9.15311 80.7515C-9.15311 80.3219 -9.06664 79.9425 -8.89368 79.6134C-8.71515 79.2842 -8.46967 79.0275 -8.15723 78.8434C-7.83922 78.6537 -7.47937 78.5589 -7.07767 78.5589C-6.66481 78.5589 -6.30217 78.6537 -5.98973 78.8434C-5.67172 79.0275 -5.42624 79.2842 -5.25329 79.6134C-5.07475 79.9425 -4.98549 80.3219 -4.98549 80.7515C-4.98549 81.1811 -5.07475 81.5605 -5.25329 81.8897C-5.42624 82.2188 -5.66893 82.4783 -5.98137 82.6679C-6.2938 82.8521 -6.65365 82.9441 -7.06093 82.9441ZM-7.06093 82.3248C-6.78197 82.3248 -6.53928 82.2579 -6.33285 82.124C-6.12642 81.9901 -5.96463 81.806 -5.84747 81.5716C-5.72472 81.3373 -5.66335 81.0639 -5.66335 80.7515C-5.66335 80.4391 -5.72472 80.1657 -5.84747 79.9314C-5.96463 79.697 -6.12921 79.5129 -6.34122 79.379C-6.55323 79.2451 -6.79871 79.1782 -7.07767 79.1782C-7.35105 79.1782 -7.59374 79.2451 -7.80575 79.379C-8.01218 79.5129 -8.17676 79.697 -8.2995 79.9314C-8.41667 80.1657 -8.47525 80.4391 -8.47525 80.7515C-8.47525 81.0584 -8.41667 81.3317 -8.2995 81.5716C-8.17676 81.806 -8.00939 81.9901 -7.79738 82.124C-7.57979 82.2579 -7.33431 82.3248 -7.06093 82.3248ZM-3.2023 77.6802C-3.31388 77.6802 -3.41151 77.6383 -3.4952 77.5547C-3.57889 77.471 -3.62073 77.3733 -3.62073 77.2617C-3.62073 77.139 -3.57889 77.0386 -3.4952 76.9605C-3.41151 76.8768 -3.31388 76.8349 -3.2023 76.8349C-3.08513 76.8349 -2.98471 76.8768 -2.90102 76.9605C-2.81733 77.0386 -2.77549 77.139 -2.77549 77.2617C-2.77549 77.3733 -2.81733 77.471 -2.90102 77.5547C-2.98471 77.6383 -3.08513 77.6802 -3.2023 77.6802ZM-4.13122 84.643C-4.33765 84.643 -4.59987 84.5704 -4.91788 84.4254L-4.66682 83.8647C-4.53292 83.9149 -4.42134 83.9539 -4.33207 83.9818C-4.23723 84.0097 -4.16191 84.0237 -4.10612 84.0237C-3.72674 84.0237 -3.53704 83.781 -3.53704 83.2956V78.6593H-2.86755V83.3123C-2.86755 83.7475 -2.97355 84.0767 -3.18556 84.2998C-3.39757 84.5286 -3.71279 84.643 -4.13122 84.643ZM0.359057 82.9441C-0.0482214 82.9441 -0.408077 82.8521 -0.720509 82.6679C-1.03294 82.4783 -1.27842 82.2188 -1.45696 81.8897C-1.62991 81.5605 -1.71639 81.1811 -1.71639 80.7515C-1.71639 80.3219 -1.62991 79.9425 -1.45696 79.6134C-1.27842 79.2842 -1.03573 79.0275 -0.728878 78.8434C-0.416445 78.6537 -0.0593798 78.5589 0.342319 78.5589C0.73286 78.5589 1.0704 78.6565 1.35494 78.8518C1.63947 79.0415 1.85985 79.3093 2.01606 79.6552C2.17228 80.0011 2.25039 80.4084 2.25039 80.877H-1.2059L-1.03852 80.7348C-1.03852 81.0695 -0.97994 81.3568 -0.862777 81.5967C-0.740036 81.8367 -0.569872 82.0208 -0.352285 82.1491C-0.134698 82.2718 0.113574 82.3332 0.392532 82.3332C0.688227 82.3332 0.936499 82.2635 1.13735 82.124C1.34378 81.9845 1.50278 81.8004 1.61437 81.5716L2.19181 81.8645C2.0858 82.0821 1.94354 82.2718 1.765 82.4336C1.59205 82.5954 1.38562 82.7209 1.14572 82.8102C0.911393 82.8995 0.649173 82.9441 0.359057 82.9441ZM-0.996677 80.4502L-1.17242 80.3163H1.71479L1.53905 80.4586C1.53905 80.1908 1.48605 79.9593 1.38004 79.764C1.27404 79.5687 1.13177 79.4181 0.953236 79.3121C0.774703 79.2061 0.568275 79.1531 0.33395 79.1531C0.105205 79.1531 -0.112382 79.2061 -0.31881 79.3121C-0.51966 79.4181 -0.684245 79.5687 -0.812565 79.764C-0.935306 79.9537 -0.996677 80.1824 -0.996677 80.4502ZM5.12838 82.9441C4.71552 82.9441 4.35009 82.8521 4.03208 82.6679C3.71406 82.4783 3.46579 82.2188 3.28726 81.8897C3.10873 81.5605 3.01946 81.1811 3.01946 80.7515C3.01946 80.3219 3.10594 79.9425 3.27889 79.6134C3.45742 79.2842 3.7057 79.0275 4.02371 78.8434C4.34172 78.6537 4.70436 78.5589 5.11164 78.5589C5.51334 78.5589 5.8732 78.651 6.19121 78.8351C6.50922 79.0192 6.75191 79.2786 6.91929 79.6134L6.30837 79.8895C6.19679 79.6664 6.03499 79.4934 5.82298 79.3707C5.61098 79.2423 5.36828 79.1782 5.0949 79.1782C4.82153 79.1782 4.57883 79.2451 4.36682 79.379C4.1604 79.5129 3.99581 79.6998 3.87307 79.9397C3.75591 80.1741 3.69733 80.4447 3.69733 80.7515C3.69733 81.0584 3.75591 81.3317 3.87307 81.5716C3.99581 81.806 4.16319 81.9901 4.37519 82.124C4.59278 82.2579 4.83826 82.3248 5.11164 82.3248C5.38502 82.3248 5.62771 82.2551 5.83972 82.1156C6.05731 81.9761 6.22189 81.7809 6.33348 81.5298L6.94439 81.806C6.77702 82.163 6.53433 82.442 6.21631 82.6428C5.8983 82.8437 5.53566 82.9441 5.12838 82.9441ZM9.53046 82.9441C9.12318 82.9441 8.80796 82.8381 8.5848 82.6261C8.36163 82.4141 8.25005 82.1156 8.25005 81.7306V77.3538H8.91954V81.6637C8.91954 81.8757 8.97534 82.0403 9.08692 82.1575C9.20408 82.269 9.36588 82.3248 9.57231 82.3248C9.63926 82.3248 9.70342 82.3165 9.76479 82.2997C9.83174 82.2774 9.91821 82.2272 10.0242 82.1491L10.2836 82.6931C10.1386 82.7879 10.0075 82.8521 9.89032 82.8855C9.77315 82.9246 9.6532 82.9441 9.53046 82.9441ZM7.52197 79.2535V78.6593H10.1749V79.2535H7.52197ZM11.0362 83.8061L11.5133 82.0403H12.2664L11.6137 83.8061H11.0362ZM15.5776 82.8437V78.6593H16.2052L16.2471 79.4292V82.8437H15.5776ZM18.515 82.8437V80.7013H19.1845V82.8437H18.515ZM18.515 80.7013C18.515 80.2884 18.4676 79.9732 18.3727 79.7556C18.2779 79.538 18.1468 79.3902 17.9794 79.3121C17.812 79.2284 17.6223 79.1866 17.4103 79.1866C17.0421 79.1866 16.7548 79.3177 16.5484 79.5799C16.3475 79.8365 16.2471 80.202 16.2471 80.6762H15.9207C15.9207 80.2354 15.9849 79.8561 16.1132 79.538C16.2415 79.22 16.4284 78.9773 16.6739 78.81C16.9194 78.6426 17.2151 78.5589 17.561 78.5589C17.8901 78.5589 18.1747 78.6259 18.4146 78.7598C18.6601 78.8881 18.8498 79.0945 18.9837 79.379C19.1231 79.6636 19.1901 80.0374 19.1845 80.5004V80.7013H18.515ZM22.2443 82.9441C21.837 82.9441 21.4771 82.8521 21.1647 82.6679C20.8523 82.4783 20.6068 82.2188 20.4282 81.8897C20.2553 81.5605 20.1688 81.1811 20.1688 80.7515C20.1688 80.3219 20.2553 79.9425 20.4282 79.6134C20.6068 79.2842 20.8495 79.0275 21.1563 78.8434C21.4688 78.6537 21.8258 78.5589 22.2275 78.5589C22.6181 78.5589 22.9556 78.6565 23.2401 78.8518C23.5247 79.0415 23.745 79.3093 23.9013 79.6552C24.0575 80.0011 24.1356 80.4084 24.1356 80.877H20.6793L20.8467 80.7348C20.8467 81.0695 20.9053 81.3568 21.0224 81.5967C21.1452 81.8367 21.3153 82.0208 21.5329 82.1491C21.7505 82.2718 21.9988 82.3332 22.2777 82.3332C22.5734 82.3332 22.8217 82.2635 23.0225 82.124C23.229 81.9845 23.388 81.8004 23.4996 81.5716L24.077 81.8645C23.971 82.0821 23.8287 82.2718 23.6502 82.4336C23.4772 82.5954 23.2708 82.7209 23.0309 82.8102C22.7966 82.8995 22.5344 82.9441 22.2443 82.9441ZM20.8885 80.4502L20.7128 80.3163H23.6L23.4242 80.4586C23.4242 80.1908 23.3712 79.9593 23.2652 79.764C23.1592 79.5687 23.017 79.4181 22.8384 79.3121C22.6599 79.2061 22.4535 79.1531 22.2191 79.1531C21.9904 79.1531 21.7728 79.2061 21.5664 79.3121C21.3655 79.4181 21.201 79.5687 21.0726 79.764C20.9499 79.9537 20.8885 80.1824 20.8885 80.4502ZM28.8405 82.8437L30.2548 78.6593H30.9327L29.51 82.8437H28.8405ZM25.9951 82.8437L27.4095 78.6593H28.0371L26.6395 82.8437H25.9951ZM25.9617 82.8437L24.539 78.6593H25.2169L26.6144 82.8437H25.9617ZM28.8405 82.8437L27.4429 78.6593H28.079L29.4765 82.8437H28.8405ZM35.8723 82.9441C35.4595 82.9441 35.094 82.8521 34.776 82.6679C34.458 82.4783 34.2097 82.2188 34.0312 81.8897C33.8527 81.5605 33.7634 81.1811 33.7634 80.7515C33.7634 80.3219 33.8499 79.9425 34.0228 79.6134C34.2014 79.2842 34.4496 79.0275 34.7677 78.8434C35.0857 78.6537 35.4483 78.5589 35.8556 78.5589C36.2573 78.5589 36.6171 78.651 36.9352 78.8351C37.2532 79.0192 37.4959 79.2786 37.6632 79.6134L37.0523 79.8895C36.9407 79.6664 36.7789 79.4934 36.5669 79.3707C36.3549 79.2423 36.1122 79.1782 35.8389 79.1782C35.5655 79.1782 35.3228 79.2451 35.1108 79.379C34.9043 79.5129 34.7398 79.6998 34.617 79.9397C34.4999 80.1741 34.4413 80.4447 34.4413 80.7515C34.4413 81.0584 34.4999 81.3317 34.617 81.5716C34.7398 81.806 34.9071 81.9901 35.1191 82.124C35.3367 82.2579 35.5822 82.3248 35.8556 82.3248C36.129 82.3248 36.3717 82.2551 36.5837 82.1156C36.8013 81.9761 36.9658 81.7809 37.0774 81.5298L37.6883 81.806C37.521 82.163 37.2783 82.442 36.9603 82.6428C36.6423 82.8437 36.2796 82.9441 35.8723 82.9441ZM41.5716 82.8437L41.5297 82.0738V78.6593H42.1992V82.8437H41.5716ZM38.5923 80.8017V78.6593H39.2618V80.8017H38.5923ZM39.2618 80.8017C39.2618 81.2146 39.3092 81.5298 39.4041 81.7474C39.4989 81.965 39.63 82.1156 39.7974 82.1993C39.9704 82.2774 40.1628 82.3165 40.3748 82.3165C40.7375 82.3165 41.0192 82.1853 41.2201 81.9231C41.4265 81.6609 41.5297 81.2955 41.5297 80.8268H41.8561C41.8561 81.2676 41.7919 81.647 41.6636 81.965C41.5353 82.283 41.3484 82.5257 41.1029 82.6931C40.863 82.8604 40.5673 82.9441 40.2158 82.9441C39.8922 82.9441 39.6077 82.88 39.3622 82.7516C39.1167 82.6177 38.9271 82.4085 38.7932 82.124C38.6593 81.8339 38.5923 81.4601 38.5923 81.0026V80.8017H39.2618ZM44.9995 82.9441C44.6927 82.9441 44.4249 82.8995 44.1961 82.8102C43.9674 82.7154 43.7749 82.5926 43.6187 82.442C43.4681 82.2914 43.3593 82.1268 43.2923 81.9482L43.8781 81.7055C43.973 81.8952 44.1152 82.0487 44.3049 82.1658C44.4946 82.283 44.7038 82.3416 44.9326 82.3416C45.1948 82.3416 45.4152 82.2914 45.5937 82.1909C45.7723 82.0849 45.8615 81.9371 45.8615 81.7474C45.8615 81.5744 45.7946 81.435 45.6607 81.3289C45.5324 81.2229 45.3399 81.1365 45.0832 81.0695L44.6815 80.9607C44.3021 80.8603 44.0065 80.7097 43.7944 80.5088C43.5824 80.3024 43.4764 80.0709 43.4764 79.8142C43.4764 79.4181 43.6048 79.1112 43.8614 78.8936C44.1236 78.6705 44.5114 78.5589 45.0246 78.5589C45.2701 78.5589 45.4933 78.5952 45.6941 78.6677C45.895 78.7402 46.0679 78.8434 46.213 78.9773C46.3581 79.1057 46.4641 79.2591 46.531 79.4376L45.9452 79.697C45.8727 79.5074 45.7527 79.3707 45.5854 79.287C45.418 79.2033 45.2143 79.1614 44.9744 79.1614C44.7178 79.1614 44.5169 79.2172 44.3719 79.3288C44.2268 79.4348 44.1543 79.5855 44.1543 79.7807C44.1543 79.8923 44.2129 79.9983 44.33 80.0987C44.4528 80.1936 44.6313 80.2717 44.8656 80.3331L45.2841 80.4419C45.5575 80.5088 45.7862 80.6092 45.9703 80.7431C46.1544 80.8715 46.2939 81.0193 46.3888 81.1867C46.4836 81.3541 46.531 81.5326 46.531 81.7223C46.531 81.9733 46.4641 82.1909 46.3302 82.375C46.1963 82.5592 46.0149 82.7014 45.7862 82.8018C45.5575 82.8967 45.2952 82.9441 44.9995 82.9441ZM49.174 82.9441C48.7668 82.9441 48.4515 82.8381 48.2284 82.6261C48.0052 82.4141 47.8936 82.1156 47.8936 81.7306V77.3538H48.5631V81.6637C48.5631 81.8757 48.6189 82.0403 48.7305 82.1575C48.8477 82.269 49.0094 82.3248 49.2159 82.3248C49.2828 82.3248 49.347 82.3165 49.4084 82.2997C49.4753 82.2774 49.5618 82.2272 49.6678 82.1491L49.9272 82.6931C49.7822 82.7879 49.651 82.8521 49.5339 82.8855C49.4167 82.9246 49.2968 82.9441 49.174 82.9441ZM47.1655 79.2535V78.6593H49.8184V79.2535H47.1655ZM52.7558 82.9441C52.3486 82.9441 51.9859 82.8521 51.6679 82.6679C51.3555 82.4783 51.11 82.2188 50.9315 81.8897C50.7529 81.5605 50.6637 81.1811 50.6637 80.7515C50.6637 80.3219 50.7501 79.9425 50.9231 79.6134C51.1016 79.2842 51.3471 79.0275 51.6595 78.8434C51.9776 78.6537 52.3374 78.5589 52.7391 78.5589C53.152 78.5589 53.5146 78.6537 53.827 78.8434C54.1451 79.0275 54.3905 79.2842 54.5635 79.6134C54.742 79.9425 54.8313 80.3219 54.8313 80.7515C54.8313 81.1811 54.742 81.5605 54.5635 81.8897C54.3905 82.2188 54.1478 82.4783 53.8354 82.6679C53.523 82.8521 53.1631 82.9441 52.7558 82.9441ZM52.7558 82.3248C53.0348 82.3248 53.2775 82.2579 53.4839 82.124C53.6904 81.9901 53.8522 81.806 53.9693 81.5716C54.0921 81.3373 54.1534 81.0639 54.1534 80.7515C54.1534 80.4391 54.0921 80.1657 53.9693 79.9314C53.8522 79.697 53.6876 79.5129 53.4756 79.379C53.2636 79.2451 53.0181 79.1782 52.7391 79.1782C52.4657 79.1782 52.223 79.2451 52.011 79.379C51.8046 79.5129 51.64 79.697 51.5173 79.9314C51.4001 80.1657 51.3415 80.4391 51.3415 80.7515C51.3415 81.0584 51.4001 81.3317 51.5173 81.5716C51.64 81.806 51.8074 81.9901 52.0194 82.124C52.237 82.2579 52.4825 82.3248 52.7558 82.3248ZM55.9282 82.8437V78.6593H56.5559L56.5894 79.2451C56.7177 79.022 56.8823 78.8518 57.0831 78.7346C57.284 78.6175 57.5183 78.5589 57.7861 78.5589C58.1209 78.5589 58.4054 78.637 58.6397 78.7932C58.8796 78.9494 59.0526 79.1866 59.1586 79.5046C59.2757 79.1977 59.4459 78.9634 59.6691 78.8016C59.8978 78.6398 60.1684 78.5589 60.4808 78.5589C60.9495 78.5589 61.3177 78.7151 61.5855 79.0275C61.8589 79.34 61.9928 79.8142 61.9872 80.4502V82.8437H61.3177V80.7013C61.3177 80.2884 61.2731 79.9732 61.1838 79.7556C61.1001 79.538 60.9857 79.3902 60.8407 79.3121C60.6956 79.2284 60.5283 79.1866 60.3386 79.1866C60.0094 79.1866 59.7528 79.3177 59.5686 79.5799C59.3845 79.8365 59.2925 80.202 59.2925 80.6762V82.8437H58.623V80.7013C58.623 80.2884 58.5783 79.9732 58.4891 79.7556C58.4054 79.538 58.2882 79.3902 58.1376 79.3121C57.9925 79.2284 57.8252 79.1866 57.6355 79.1866C57.3119 79.1866 57.058 79.3177 56.8739 79.5799C56.6898 79.8365 56.5977 80.202 56.5977 80.6762V82.8437H55.9282ZM68.5454 82.8437L68.5119 82.0654V76.9856H69.1814V82.8437H68.5454ZM67.0976 82.9441C66.7238 82.9441 66.3947 82.8521 66.1101 82.6679C65.8256 82.4838 65.6024 82.2272 65.4406 81.898C65.2844 81.5633 65.2063 81.1811 65.2063 80.7515C65.2063 80.3163 65.2844 79.9342 65.4406 79.605C65.6024 79.2758 65.8256 79.0192 66.1101 78.8351C66.3947 78.651 66.7238 78.5589 67.0976 78.5589C67.4491 78.5589 67.756 78.651 68.0182 78.8351C68.286 79.0192 68.4924 79.2758 68.6375 79.605C68.7825 79.9342 68.8551 80.3163 68.8551 80.7515C68.8551 81.1811 68.7825 81.5633 68.6375 81.898C68.4924 82.2272 68.286 82.4838 68.0182 82.6679C67.756 82.8521 67.4491 82.9441 67.0976 82.9441ZM67.2483 82.3332C67.4937 82.3332 67.7113 82.2662 67.901 82.1323C68.0907 81.9984 68.2386 81.8115 68.3446 81.5716C68.4561 81.3317 68.5119 81.0584 68.5119 80.7515C68.5119 80.4447 68.4561 80.1713 68.3446 79.9314C68.2386 79.6915 68.0907 79.5046 67.901 79.3707C67.7113 79.2368 67.491 79.1698 67.2399 79.1698C66.9777 79.1698 66.7433 79.2368 66.5369 79.3707C66.3361 79.5046 66.1771 79.6915 66.0599 79.9314C65.9427 80.1713 65.8842 80.4447 65.8842 80.7515C65.8842 81.0584 65.9427 81.3317 66.0599 81.5716C66.1771 81.8115 66.3389 81.9984 66.5453 82.1323C66.7517 82.2662 66.986 82.3332 67.2483 82.3332ZM73.0975 82.8437L73.064 82.1575V80.6343C73.064 80.3052 73.0277 80.0346 72.9552 79.8226C72.8827 79.605 72.7683 79.4404 72.6121 79.3288C72.4559 79.2172 72.2522 79.1614 72.0012 79.1614C71.7724 79.1614 71.5744 79.2089 71.407 79.3037C71.2452 79.393 71.1113 79.538 71.0053 79.7389L70.4027 79.5046C70.5087 79.3093 70.6371 79.1419 70.7877 79.0024C70.9383 78.8574 71.1141 78.7486 71.3149 78.6761C71.5158 78.598 71.7445 78.5589 72.0012 78.5589C72.3917 78.5589 72.7125 78.637 72.9636 78.7932C73.2202 78.9439 73.4127 79.1698 73.541 79.4711C73.6693 79.7668 73.7307 80.135 73.7251 80.5758L73.7168 82.8437H73.0975ZM71.8422 82.9441C71.3512 82.9441 70.9662 82.8325 70.6873 82.6094C70.4139 82.3806 70.2772 82.0654 70.2772 81.6637C70.2772 81.2397 70.4167 80.9161 70.6957 80.6929C70.9802 80.4642 71.3763 80.3498 71.884 80.3498H73.0807V80.9105H72.0346C71.6441 80.9105 71.3651 80.9747 71.1978 81.103C71.036 81.2313 70.9551 81.4154 70.9551 81.6553C70.9551 81.8729 71.036 82.0459 71.1978 82.1742C71.3596 82.2969 71.5855 82.3583 71.8756 82.3583C72.1155 82.3583 72.3248 82.3081 72.5033 82.2077C72.6818 82.1017 72.8185 81.9538 72.9134 81.7641C73.0138 81.5689 73.064 81.3401 73.064 81.0779H73.3485C73.3485 81.647 73.2202 82.1017 72.9636 82.442C72.7069 82.7767 72.3331 82.9441 71.8422 82.9441ZM76.4179 82.9441C76.1111 82.9441 75.8433 82.8995 75.6145 82.8102C75.3858 82.7154 75.1933 82.5926 75.0371 82.442C74.8864 82.2914 74.7776 82.1268 74.7107 81.9482L75.2965 81.7055C75.3913 81.8952 75.5336 82.0487 75.7233 82.1658C75.913 82.283 76.1222 82.3416 76.351 82.3416C76.6132 82.3416 76.8336 82.2914 77.0121 82.1909C77.1906 82.0849 77.2799 81.9371 77.2799 81.7474C77.2799 81.5744 77.2129 81.435 77.079 81.3289C76.9507 81.2229 76.7582 81.1365 76.5016 81.0695L76.0999 80.9607C75.7205 80.8603 75.4248 80.7097 75.2128 80.5088C75.0008 80.3024 74.8948 80.0709 74.8948 79.8142C74.8948 79.4181 75.0231 79.1112 75.2798 78.8936C75.542 78.6705 75.9297 78.5589 76.443 78.5589C76.6885 78.5589 76.9117 78.5952 77.1125 78.6677C77.3134 78.7402 77.4863 78.8434 77.6314 78.9773C77.7764 79.1057 77.8824 79.2591 77.9494 79.4376L77.3636 79.697C77.291 79.5074 77.1711 79.3707 77.0037 79.287C76.8363 79.2033 76.6327 79.1614 76.3928 79.1614C76.1362 79.1614 75.9353 79.2172 75.7903 79.3288C75.6452 79.4348 75.5727 79.5855 75.5727 79.7807C75.5727 79.8923 75.6312 79.9983 75.7484 80.0987C75.8712 80.1936 76.0497 80.2717 76.284 80.3331L76.7024 80.4419C76.9758 80.5088 77.2046 80.6092 77.3887 80.7431C77.5728 80.8715 77.7123 81.0193 77.8071 81.1867C77.902 81.3541 77.9494 81.5326 77.9494 81.7223C77.9494 81.9733 77.8824 82.1909 77.7485 82.375C77.6146 82.5592 77.4333 82.7014 77.2046 82.8018C76.9758 82.8967 76.7136 82.9441 76.4179 82.9441ZM79.0191 82.8437V76.9856H79.6886V82.8437H79.0191ZM81.9649 82.8437V80.7013H82.6344V82.8437H81.9649ZM81.9649 80.7013C81.9649 80.2884 81.9146 79.9732 81.8142 79.7556C81.7194 79.538 81.5883 79.3902 81.4209 79.3121C81.2535 79.2284 81.0638 79.1866 80.8518 79.1866C80.4836 79.1866 80.1963 79.3177 79.9898 79.5799C79.789 79.8365 79.6886 80.202 79.6886 80.6762H79.3622C79.3622 80.2354 79.4263 79.8561 79.5547 79.538C79.6886 79.22 79.8783 78.9773 80.1237 78.81C80.3692 78.6426 80.6649 78.5589 81.0108 78.5589C81.3344 78.5589 81.619 78.6259 81.8644 78.7598C82.1099 78.8881 82.2996 79.0945 82.4335 79.379C82.573 79.6636 82.6399 80.0374 82.6344 80.5004V80.7013H81.9649ZM83.853 82.8437V76.9856H84.5225V82.0654L84.489 82.8437H83.853ZM85.9368 82.9441C85.5853 82.9441 85.2757 82.8521 85.0079 82.6679C84.7457 82.4838 84.542 82.2272 84.397 81.898C84.2519 81.5633 84.1794 81.1811 84.1794 80.7515C84.1794 80.3163 84.2519 79.9342 84.397 79.605C84.542 79.2758 84.7457 79.0192 85.0079 78.8351C85.2757 78.651 85.5853 78.5589 85.9368 78.5589C86.3106 78.5589 86.6398 78.651 86.9243 78.8351C87.2089 79.0192 87.4292 79.2758 87.5854 79.605C87.7472 79.9342 87.8281 80.3163 87.8281 80.7515C87.8281 81.1811 87.7472 81.5633 87.5854 81.898C87.4292 82.2272 87.2089 82.4838 86.9243 82.6679C86.6398 82.8521 86.3106 82.9441 85.9368 82.9441ZM85.7862 82.3332C86.0484 82.3332 86.2799 82.2662 86.4808 82.1323C86.6872 81.9984 86.849 81.8115 86.9662 81.5716C87.0889 81.3317 87.1503 81.0584 87.1503 80.7515C87.1503 80.4447 87.0917 80.1713 86.9745 79.9314C86.8629 79.6915 86.7039 79.5046 86.4975 79.3707C86.2911 79.2368 86.0568 79.1698 85.7945 79.1698C85.5491 79.1698 85.3287 79.2368 85.1334 79.3707C84.9437 79.5046 84.7931 79.6915 84.6815 79.9314C84.5755 80.1713 84.5225 80.4447 84.5225 80.7515C84.5225 81.0584 84.5755 81.3317 84.6815 81.5716C84.7931 81.8115 84.9437 81.9984 85.1334 82.1323C85.3231 82.2662 85.5407 82.3332 85.7862 82.3332ZM90.7734 82.9441C90.3661 82.9441 90.0035 82.8521 89.6855 82.6679C89.373 82.4783 89.1276 82.2188 88.949 81.8897C88.7705 81.5605 88.6812 81.1811 88.6812 80.7515C88.6812 80.3219 88.7677 79.9425 88.9407 79.6134C89.1192 79.2842 89.3647 79.0275 89.6771 78.8434C89.9951 78.6537 90.355 78.5589 90.7567 78.5589C91.1695 78.5589 91.5322 78.6537 91.8446 78.8434C92.1626 79.0275 92.4081 79.2842 92.581 79.6134C92.7596 79.9425 92.8488 80.3219 92.8488 80.7515C92.8488 81.1811 92.7596 81.5605 92.581 81.8897C92.4081 82.2188 92.1654 82.4783 91.853 82.6679C91.5405 82.8521 91.1807 82.9441 90.7734 82.9441ZM90.7734 82.3248C91.0524 82.3248 91.2951 82.2579 91.5015 82.124C91.7079 81.9901 91.8697 81.806 91.9869 81.5716C92.1096 81.3373 92.171 81.0639 92.171 80.7515C92.171 80.4391 92.1096 80.1657 91.9869 79.9314C91.8697 79.697 91.7051 79.5129 91.4931 79.379C91.2811 79.2451 91.0356 79.1782 90.7567 79.1782C90.4833 79.1782 90.2406 79.2451 90.0286 79.379C89.8222 79.5129 89.6576 79.697 89.5348 79.9314C89.4177 80.1657 89.3591 80.4391 89.3591 80.7515C89.3591 81.0584 89.4177 81.3317 89.5348 81.5716C89.6576 81.806 89.8249 81.9901 90.037 82.124C90.2545 82.2579 90.5 82.3248 90.7734 82.3248ZM96.5234 82.8437L96.4899 82.1575V80.6343C96.4899 80.3052 96.4536 80.0346 96.3811 79.8226C96.3086 79.605 96.1942 79.4404 96.038 79.3288C95.8818 79.2172 95.6781 79.1614 95.4271 79.1614C95.1983 79.1614 95.0003 79.2089 94.8329 79.3037C94.6711 79.393 94.5372 79.538 94.4312 79.7389L93.8286 79.5046C93.9347 79.3093 94.063 79.1419 94.2136 79.0024C94.3642 78.8574 94.54 78.7486 94.7408 78.6761C94.9417 78.598 95.1704 78.5589 95.4271 78.5589C95.8176 78.5589 96.1384 78.637 96.3895 78.7932C96.6461 78.9439 96.8386 79.1698 96.9669 79.4711C97.0952 79.7668 97.1566 80.135 97.151 80.5758L97.1427 82.8437H96.5234ZM95.2681 82.9441C94.7771 82.9441 94.3921 82.8325 94.1132 82.6094C93.8398 82.3806 93.7031 82.0654 93.7031 81.6637C93.7031 81.2397 93.8426 80.9161 94.1216 80.6929C94.4061 80.4642 94.8022 80.3498 95.3099 80.3498H96.5066V80.9105H95.4606C95.07 80.9105 94.7911 80.9747 94.6237 81.103C94.4619 81.2313 94.381 81.4154 94.381 81.6553C94.381 81.8729 94.4619 82.0459 94.6237 82.1742C94.7855 82.2969 95.0114 82.3583 95.3015 82.3583C95.5414 82.3583 95.7507 82.3081 95.9292 82.2077C96.1077 82.1017 96.2444 81.9538 96.3393 81.7641C96.4397 81.5689 96.4899 81.3401 96.4899 81.0779H96.7744C96.7744 81.647 96.6461 82.1017 96.3895 82.442C96.1328 82.7767 95.759 82.9441 95.2681 82.9441ZM98.7475 80.5758C98.7475 80.1239 98.834 79.7584 99.0069 79.4795C99.1799 79.1949 99.4003 78.9857 99.6681 78.8518C99.9414 78.7123 100.229 78.6426 100.53 78.6426V79.2702C100.285 79.2702 100.047 79.3121 99.8187 79.3958C99.5955 79.4739 99.4114 79.605 99.2664 79.7891C99.1213 79.9732 99.0488 80.2243 99.0488 80.5423L98.7475 80.5758ZM98.3793 82.8437V78.6593H99.0488V82.8437H98.3793ZM104.471 82.8437L104.437 82.0654V76.9856H105.107V82.8437H104.471ZM103.023 82.9441C102.649 82.9441 102.32 82.8521 102.035 82.6679C101.751 82.4838 101.528 82.2272 101.366 81.898C101.21 81.5633 101.132 81.1811 101.132 80.7515C101.132 80.3163 101.21 79.9342 101.366 79.605C101.528 79.2758 101.751 79.0192 102.035 78.8351C102.32 78.651 102.649 78.5589 103.023 78.5589C103.374 78.5589 103.681 78.651 103.944 78.8351C104.211 79.0192 104.418 79.2758 104.563 79.605C104.708 79.9342 104.78 80.3163 104.78 80.7515C104.78 81.1811 104.708 81.5633 104.563 81.898C104.418 82.2272 104.211 82.4838 103.944 82.6679C103.681 82.8521 103.374 82.9441 103.023 82.9441ZM103.174 82.3332C103.419 82.3332 103.637 82.2662 103.826 82.1323C104.016 81.9984 104.164 81.8115 104.27 81.5716C104.382 81.3317 104.437 81.0584 104.437 80.7515C104.437 80.4447 104.382 80.1713 104.27 79.9314C104.164 79.6915 104.016 79.5046 103.826 79.3707C103.637 79.2368 103.416 79.1698 103.165 79.1698C102.903 79.1698 102.669 79.2368 102.462 79.3707C102.261 79.5046 102.102 79.6915 101.985 79.9314C101.868 80.1713 101.81 80.4447 101.81 80.7515C101.81 81.0584 101.868 81.3317 101.985 81.5716C102.102 81.8115 102.264 81.9984 102.471 82.1323C102.677 82.2662 102.911 82.3332 103.174 82.3332ZM109.099 82.8437V78.1823C109.099 77.7471 109.199 77.4208 109.4 77.2032C109.606 76.98 109.919 76.8684 110.337 76.8684C110.449 76.8684 110.574 76.8879 110.714 76.927C110.853 76.9661 111.001 77.0218 111.157 77.0944L110.906 77.6216C110.778 77.5714 110.669 77.5323 110.58 77.5044C110.491 77.4765 110.415 77.4626 110.354 77.4626C110.159 77.4626 110.011 77.5268 109.911 77.6551C109.816 77.7778 109.768 77.9703 109.768 78.2325V82.8437H109.099ZM108.329 79.2368V78.6593H110.982V79.2368H108.329ZM113.745 82.9441C113.338 82.9441 112.978 82.8521 112.666 82.6679C112.353 82.4783 112.108 82.2188 111.929 81.8897C111.756 81.5605 111.67 81.1811 111.67 80.7515C111.67 80.3219 111.756 79.9425 111.929 79.6134C112.108 79.2842 112.35 79.0275 112.657 78.8434C112.97 78.6537 113.327 78.5589 113.728 78.5589C114.119 78.5589 114.457 78.6565 114.741 78.8518C115.026 79.0415 115.246 79.3093 115.402 79.6552C115.558 80.0011 115.636 80.4084 115.636 80.877H112.18L112.348 80.7348C112.348 81.0695 112.406 81.3568 112.523 81.5967C112.646 81.8367 112.816 82.0208 113.034 82.1491C113.251 82.2718 113.5 82.3332 113.779 82.3332C114.074 82.3332 114.323 82.2635 114.523 82.124C114.73 81.9845 114.889 81.8004 115 81.5716L115.578 81.8645C115.472 82.0821 115.33 82.2718 115.151 82.4336C114.978 82.5954 114.772 82.7209 114.532 82.8102C114.297 82.8995 114.035 82.9441 113.745 82.9441ZM112.389 80.4502L112.214 80.3163H115.101L114.925 80.4586C114.925 80.1908 114.872 79.9593 114.766 79.764C114.66 79.5687 114.518 79.4181 114.339 79.3121C114.161 79.2061 113.954 79.1531 113.72 79.1531C113.491 79.1531 113.274 79.2061 113.067 79.3121C112.866 79.4181 112.702 79.5687 112.574 79.764C112.451 79.9537 112.389 80.1824 112.389 80.4502ZM119.226 82.8437L119.192 82.1575V80.6343C119.192 80.3052 119.156 80.0346 119.084 79.8226C119.011 79.605 118.897 79.4404 118.74 79.3288C118.584 79.2172 118.381 79.1614 118.13 79.1614C117.901 79.1614 117.703 79.2089 117.535 79.3037C117.374 79.393 117.24 79.538 117.134 79.7389L116.531 79.5046C116.637 79.3093 116.765 79.1419 116.916 79.0024C117.067 78.8574 117.242 78.7486 117.443 78.6761C117.644 78.598 117.873 78.5589 118.13 78.5589C118.52 78.5589 118.841 78.637 119.092 78.7932C119.349 78.9439 119.541 79.1698 119.669 79.4711C119.798 79.7668 119.859 80.135 119.853 80.5758L119.845 82.8437H119.226ZM117.971 82.9441C117.48 82.9441 117.095 82.8325 116.816 82.6094C116.542 82.3806 116.406 82.0654 116.406 81.6637C116.406 81.2397 116.545 80.9161 116.824 80.6929C117.109 80.4642 117.505 80.3498 118.012 80.3498H119.209V80.9105H118.163C117.772 80.9105 117.494 80.9747 117.326 81.103C117.164 81.2313 117.083 81.4154 117.083 81.6553C117.083 81.8729 117.164 82.0459 117.326 82.1742C117.488 82.2969 117.714 82.3583 118.004 82.3583C118.244 82.3583 118.453 82.3081 118.632 82.2077C118.81 82.1017 118.947 81.9538 119.042 81.7641C119.142 81.5689 119.192 81.3401 119.192 81.0779H119.477C119.477 81.647 119.349 82.1017 119.092 82.442C118.835 82.7767 118.461 82.9441 117.971 82.9441ZM122.655 82.9441C122.248 82.9441 121.933 82.8381 121.709 82.6261C121.486 82.4141 121.375 82.1156 121.375 81.7306V77.3538H122.044V81.6637C122.044 81.8757 122.1 82.0403 122.212 82.1575C122.329 82.269 122.49 82.3248 122.697 82.3248C122.764 82.3248 122.828 82.3165 122.889 82.2997C122.956 82.2774 123.043 82.2272 123.149 82.1491L123.408 82.6931C123.263 82.7879 123.132 82.8521 123.015 82.8855C122.898 82.9246 122.778 82.9441 122.655 82.9441ZM120.647 79.2535V78.6593H123.299V79.2535H120.647ZM127.282 82.8437L127.241 82.0738V78.6593H127.91V82.8437H127.282ZM124.303 80.8017V78.6593H124.973V80.8017H124.303ZM124.973 80.8017C124.973 81.2146 125.02 81.5298 125.115 81.7474C125.21 81.965 125.341 82.1156 125.508 82.1993C125.681 82.2774 125.874 82.3165 126.086 82.3165C126.448 82.3165 126.73 82.1853 126.931 81.9231C127.137 81.6609 127.241 81.2955 127.241 80.8268H127.567C127.567 81.2676 127.503 81.647 127.374 81.965C127.246 82.283 127.059 82.5257 126.814 82.6931C126.574 82.8604 126.278 82.9441 125.927 82.9441C125.603 82.9441 125.319 82.88 125.073 82.7516C124.828 82.6177 124.638 82.4085 124.504 82.124C124.37 81.8339 124.303 81.4601 124.303 81.0026V80.8017H124.973ZM129.614 80.5758C129.614 80.1239 129.701 79.7584 129.873 79.4795C130.046 79.1949 130.267 78.9857 130.535 78.8518C130.808 78.7123 131.095 78.6426 131.397 78.6426V79.2702C131.151 79.2702 130.914 79.3121 130.685 79.3958C130.462 79.4739 130.278 79.605 130.133 79.7891C129.988 79.9732 129.915 80.2243 129.915 80.5423L129.614 80.5758ZM129.246 82.8437V78.6593H129.915V82.8437H129.246ZM134.074 82.9441C133.666 82.9441 133.307 82.8521 132.994 82.6679C132.682 82.4783 132.436 82.2188 132.258 81.8897C132.085 81.5605 131.998 81.1811 131.998 80.7515C131.998 80.3219 132.085 79.9425 132.258 79.6134C132.436 79.2842 132.679 79.0275 132.986 78.8434C133.298 78.6537 133.655 78.5589 134.057 78.5589C134.447 78.5589 134.785 78.6565 135.07 78.8518C135.354 79.0415 135.574 79.3093 135.731 79.6552C135.887 80.0011 135.965 80.4084 135.965 80.877H132.509L132.676 80.7348C132.676 81.0695 132.735 81.3568 132.852 81.5967C132.975 81.8367 133.145 82.0208 133.362 82.1491C133.58 82.2718 133.828 82.3332 134.107 82.3332C134.403 82.3332 134.651 82.2635 134.852 82.124C135.058 81.9845 135.217 81.8004 135.329 81.5716L135.906 81.8645C135.8 82.0821 135.658 82.2718 135.48 82.4336C135.307 82.5954 135.1 82.7209 134.86 82.8102C134.626 82.8995 134.364 82.9441 134.074 82.9441ZM132.718 80.4502L132.542 80.3163H135.429L135.254 80.4586C135.254 80.1908 135.201 79.9593 135.095 79.764C134.989 79.5687 134.846 79.4181 134.668 79.3121C134.489 79.2061 134.283 79.1531 134.049 79.1531C133.82 79.1531 133.602 79.2061 133.396 79.3121C133.195 79.4181 133.03 79.5687 132.902 79.764C132.779 79.9537 132.718 80.1824 132.718 80.4502ZM139.496 82.9609C139.368 82.9609 139.256 82.9162 139.162 82.827C139.072 82.7321 139.028 82.6233 139.028 82.5006C139.028 82.3723 139.072 82.2635 139.162 82.1742C139.256 82.0793 139.368 82.0319 139.496 82.0319C139.625 82.0319 139.733 82.0793 139.823 82.1742C139.912 82.2635 139.957 82.3723 139.957 82.5006C139.957 82.6233 139.912 82.7321 139.823 82.827C139.733 82.9162 139.625 82.9609 139.496 82.9609ZM141.404 82.9609C141.276 82.9609 141.165 82.9162 141.07 82.827C140.98 82.7321 140.936 82.6233 140.936 82.5006C140.936 82.3723 140.98 82.2635 141.07 82.1742C141.165 82.0793 141.276 82.0319 141.404 82.0319C141.533 82.0319 141.642 82.0793 141.731 82.1742C141.82 82.2635 141.865 82.3723 141.865 82.5006C141.865 82.6233 141.82 82.7321 141.731 82.827C141.642 82.9162 141.533 82.9609 141.404 82.9609ZM143.313 82.9609C143.184 82.9609 143.073 82.9162 142.978 82.827C142.889 82.7321 142.844 82.6233 142.844 82.5006C142.844 82.3723 142.889 82.2635 142.978 82.1742C143.073 82.0793 143.184 82.0319 143.313 82.0319C143.441 82.0319 143.55 82.0793 143.639 82.1742C143.728 82.2635 143.773 82.3723 143.773 82.5006C143.773 82.6233 143.728 82.7321 143.639 82.827C143.55 82.9162 143.441 82.9609 143.313 82.9609Z" fill="#949494"/>
<rect x="188.955" y="61.6593" width="43.39" height="19.695" rx="2.51062" fill="#FDD599" fill-opacity="0.24"/>
<path d="M196.818 74.0068V68.1487H197.529V73.3624H200.291V74.0068H196.818ZM202.99 74.1072C202.583 74.1072 202.22 74.0151 201.902 73.831C201.59 73.6413 201.344 73.3819 201.166 73.0527C200.987 72.7236 200.898 72.3442 200.898 71.9146C200.898 71.485 200.984 71.1056 201.157 70.7764C201.336 70.4473 201.581 70.1906 201.894 70.0065C202.212 69.8168 202.572 69.722 202.973 69.722C203.386 69.722 203.749 69.8168 204.061 70.0065C204.379 70.1906 204.625 70.4473 204.798 70.7764C204.976 71.1056 205.066 71.485 205.066 71.9146C205.066 72.3442 204.976 72.7236 204.798 73.0527C204.625 73.3819 204.382 73.6413 204.07 73.831C203.757 74.0151 203.397 74.1072 202.99 74.1072ZM202.99 73.4879C203.269 73.4879 203.512 73.421 203.718 73.2871C203.925 73.1532 204.086 72.9691 204.204 72.7347C204.326 72.5004 204.388 72.227 204.388 71.9146C204.388 71.6022 204.326 71.3288 204.204 71.0945C204.086 70.8601 203.922 70.676 203.71 70.5421C203.498 70.4082 203.252 70.3413 202.973 70.3413C202.7 70.3413 202.457 70.4082 202.245 70.5421C202.039 70.676 201.874 70.8601 201.752 71.0945C201.634 71.3288 201.576 71.6022 201.576 71.9146C201.576 72.2214 201.634 72.4948 201.752 72.7347C201.874 72.9691 202.042 73.1532 202.254 73.2871C202.471 73.421 202.717 73.4879 202.99 73.4879ZM206.531 71.7388C206.531 71.2869 206.617 70.9215 206.79 70.6425C206.963 70.358 207.184 70.1488 207.451 70.0149C207.725 69.8754 208.012 69.8057 208.313 69.8057V70.4333C208.068 70.4333 207.831 70.4752 207.602 70.5589C207.379 70.637 207.195 70.7681 207.05 70.9522C206.905 71.1363 206.832 71.3874 206.832 71.7054L206.531 71.7388ZM206.163 74.0068V69.8224H206.832V74.0068H206.163ZM210.99 74.1072C210.583 74.1072 210.223 74.0151 209.911 73.831C209.598 73.6413 209.353 73.3819 209.174 73.0527C209.001 72.7236 208.915 72.3442 208.915 71.9146C208.915 71.485 209.001 71.1056 209.174 70.7764C209.353 70.4473 209.596 70.1906 209.902 70.0065C210.215 69.8168 210.572 69.722 210.974 69.722C211.364 69.722 211.702 69.8196 211.986 70.0149C212.271 70.2046 212.491 70.4724 212.647 70.8183C212.804 71.1642 212.882 71.5715 212.882 72.0401H209.425L209.593 71.8979C209.593 72.2326 209.651 72.5199 209.769 72.7598C209.891 72.9997 210.061 73.1839 210.279 73.3122C210.497 73.4349 210.745 73.4963 211.024 73.4963C211.32 73.4963 211.568 73.4265 211.769 73.2871C211.975 73.1476 212.134 72.9635 212.246 72.7347L212.823 73.0276C212.717 73.2452 212.575 73.4349 212.396 73.5967C212.223 73.7585 212.017 73.884 211.777 73.9733C211.543 74.0626 211.28 74.1072 210.99 74.1072ZM209.635 71.6133L209.459 71.4794H212.346L212.17 71.6217C212.17 71.3539 212.117 71.1224 212.011 70.9271C211.905 70.7318 211.763 70.5812 211.585 70.4752C211.406 70.3692 211.2 70.3162 210.965 70.3162C210.737 70.3162 210.519 70.3692 210.313 70.4752C210.112 70.5812 209.947 70.7318 209.819 70.9271C209.696 71.1168 209.635 71.3455 209.635 71.6133ZM216.764 74.0068L216.722 73.2369V69.8224H217.392V74.0068H216.764ZM213.785 71.9648V69.8224H214.454V71.9648H213.785ZM214.454 71.9648C214.454 72.3777 214.502 72.6929 214.596 72.9105C214.691 73.1281 214.822 73.2787 214.99 73.3624C215.163 73.4405 215.355 73.4795 215.567 73.4795C215.93 73.4795 216.212 73.3484 216.412 73.0862C216.619 72.824 216.722 72.4586 216.722 71.9899H217.048C217.048 72.4307 216.984 72.81 216.856 73.1281C216.728 73.4461 216.541 73.6888 216.295 73.8561C216.055 74.0235 215.76 74.1072 215.408 74.1072C215.085 74.1072 214.8 74.043 214.555 73.9147C214.309 73.7808 214.119 73.5716 213.986 73.2871C213.852 72.9969 213.785 72.6231 213.785 72.1657V71.9648H214.454ZM218.727 74.0068V69.8224H219.355L219.389 70.4082C219.517 70.1851 219.681 70.0149 219.882 69.8977C220.083 69.7806 220.317 69.722 220.585 69.722C220.92 69.722 221.205 69.8001 221.439 69.9563C221.679 70.1125 221.852 70.3496 221.958 70.6677C222.075 70.3608 222.245 70.1265 222.468 69.9647C222.697 69.8029 222.968 69.722 223.28 69.722C223.749 69.722 224.117 69.8782 224.385 70.1906C224.658 70.5031 224.792 70.9773 224.786 71.6133V74.0068H224.117V71.8644C224.117 71.4515 224.072 71.1363 223.983 70.9187C223.899 70.7011 223.785 70.5533 223.64 70.4752C223.495 70.3915 223.327 70.3496 223.138 70.3496C222.809 70.3496 222.552 70.4808 222.368 70.743C222.184 70.9996 222.092 71.365 222.092 71.8393V74.0068H221.422V71.8644C221.422 71.4515 221.377 71.1363 221.288 70.9187C221.205 70.7011 221.087 70.5533 220.937 70.4752C220.792 70.3915 220.624 70.3496 220.435 70.3496C220.111 70.3496 219.857 70.4808 219.673 70.743C219.489 70.9996 219.397 71.365 219.397 71.8393V74.0068H218.727Z" fill="#FDD599"/>
<rect x="-111.192" y="104" width="349.813" height="41.8436" rx="2.92905" stroke="#949494" stroke-width="0.836873"/>
<rect x="-56.3765" y="110.276" width="56.9073" height="10.0425" rx="5.02124" fill="white" fill-opacity="0.12"/>
<rect x="7.22595" y="113.624" width="20.0849" height="6.69498" rx="3.34749" fill="white" fill-opacity="0.12"/>
<rect x="-56.3764" y="131.198" width="231.941" height="8.36873" rx="4.18436" fill="white" fill-opacity="0.12"/>
<rect x="188.955" y="115.074" width="43.39" height="19.695" rx="2.51062" fill="#99D9FD" fill-opacity="0.24"/>
<path d="M196.818 127.421V121.563H197.529V126.777H200.291V127.421H196.818ZM202.99 127.522C202.583 127.522 202.22 127.43 201.902 127.246C201.59 127.056 201.344 126.796 201.166 126.467C200.987 126.138 200.898 125.759 200.898 125.329C200.898 124.9 200.984 124.52 201.157 124.191C201.336 123.862 201.581 123.605 201.894 123.421C202.212 123.231 202.572 123.137 202.973 123.137C203.386 123.137 203.749 123.231 204.061 123.421C204.379 123.605 204.625 123.862 204.798 124.191C204.976 124.52 205.066 124.9 205.066 125.329C205.066 125.759 204.976 126.138 204.798 126.467C204.625 126.796 204.382 127.056 204.07 127.246C203.757 127.43 203.397 127.522 202.99 127.522ZM202.99 126.902C203.269 126.902 203.512 126.836 203.718 126.702C203.925 126.568 204.086 126.384 204.204 126.149C204.326 125.915 204.388 125.642 204.388 125.329C204.388 125.017 204.326 124.743 204.204 124.509C204.086 124.275 203.922 124.091 203.71 123.957C203.498 123.823 203.252 123.756 202.973 123.756C202.7 123.756 202.457 123.823 202.245 123.957C202.039 124.091 201.874 124.275 201.752 124.509C201.634 124.743 201.576 125.017 201.576 125.329C201.576 125.636 201.634 125.909 201.752 126.149C201.874 126.384 202.042 126.568 202.254 126.702C202.471 126.836 202.717 126.902 202.99 126.902ZM206.531 125.153C206.531 124.701 206.617 124.336 206.79 124.057C206.963 123.773 207.184 123.563 207.451 123.429C207.725 123.29 208.012 123.22 208.313 123.22V123.848C208.068 123.848 207.831 123.89 207.602 123.973C207.379 124.052 207.195 124.183 207.05 124.367C206.905 124.551 206.832 124.802 206.832 125.12L206.531 125.153ZM206.163 127.421V123.237H206.832V127.421H206.163ZM210.99 127.522C210.583 127.522 210.223 127.43 209.911 127.246C209.598 127.056 209.353 126.796 209.174 126.467C209.001 126.138 208.915 125.759 208.915 125.329C208.915 124.9 209.001 124.52 209.174 124.191C209.353 123.862 209.596 123.605 209.902 123.421C210.215 123.231 210.572 123.137 210.974 123.137C211.364 123.137 211.702 123.234 211.986 123.429C212.271 123.619 212.491 123.887 212.647 124.233C212.804 124.579 212.882 124.986 212.882 125.455H209.425L209.593 125.312C209.593 125.647 209.651 125.934 209.769 126.174C209.891 126.414 210.061 126.598 210.279 126.727C210.497 126.849 210.745 126.911 211.024 126.911C211.32 126.911 211.568 126.841 211.769 126.702C211.975 126.562 212.134 126.378 212.246 126.149L212.823 126.442C212.717 126.66 212.575 126.849 212.396 127.011C212.223 127.173 212.017 127.299 211.777 127.388C211.543 127.477 211.28 127.522 210.99 127.522ZM209.635 125.028L209.459 124.894H212.346L212.17 125.036C212.17 124.768 212.117 124.537 212.011 124.342C211.905 124.146 211.763 123.996 211.585 123.89C211.406 123.784 211.2 123.731 210.965 123.731C210.737 123.731 210.519 123.784 210.313 123.89C210.112 123.996 209.947 124.146 209.819 124.342C209.696 124.531 209.635 124.76 209.635 125.028ZM216.764 127.421L216.722 126.651V123.237H217.392V127.421H216.764ZM213.785 125.379V123.237H214.454V125.379H213.785ZM214.454 125.379C214.454 125.792 214.502 126.107 214.596 126.325C214.691 126.543 214.822 126.693 214.99 126.777C215.163 126.855 215.355 126.894 215.567 126.894C215.93 126.894 216.212 126.763 216.412 126.501C216.619 126.239 216.722 125.873 216.722 125.404H217.048C217.048 125.845 216.984 126.225 216.856 126.543C216.728 126.861 216.541 127.103 216.295 127.271C216.055 127.438 215.76 127.522 215.408 127.522C215.085 127.522 214.8 127.458 214.555 127.329C214.309 127.195 214.119 126.986 213.986 126.702C213.852 126.411 213.785 126.038 213.785 125.58V125.379H214.454ZM218.727 127.421V123.237H219.355L219.389 123.823C219.517 123.6 219.681 123.429 219.882 123.312C220.083 123.195 220.317 123.137 220.585 123.137C220.92 123.137 221.205 123.215 221.439 123.371C221.679 123.527 221.852 123.764 221.958 124.082C222.075 123.775 222.245 123.541 222.468 123.379C222.697 123.217 222.968 123.137 223.28 123.137C223.749 123.137 224.117 123.293 224.385 123.605C224.658 123.918 224.792 124.392 224.786 125.028V127.421H224.117V125.279C224.117 124.866 224.072 124.551 223.983 124.333C223.899 124.116 223.785 123.968 223.64 123.89C223.495 123.806 223.327 123.764 223.138 123.764C222.809 123.764 222.552 123.895 222.368 124.158C222.184 124.414 222.092 124.78 222.092 125.254V127.421H221.422V125.279C221.422 124.866 221.377 124.551 221.288 124.333C221.205 124.116 221.087 123.968 220.937 123.89C220.792 123.806 220.624 123.764 220.435 123.764C220.111 123.764 219.857 123.895 219.673 124.158C219.489 124.414 219.397 124.78 219.397 125.254V127.421H218.727Z" fill="#949494"/>
<rect x="-111.192" y="156.723" width="349.813" height="41.8436" rx="2.92905" stroke="#949494" stroke-width="0.836873"/>
<rect x="-56.3765" y="162.999" width="56.9073" height="10.0425" rx="5.02124" fill="white" fill-opacity="0.12"/>
<rect x="7.22595" y="166.347" width="20.0849" height="6.69498" rx="3.34749" fill="white" fill-opacity="0.12"/>
<rect x="197.955" y="167.797" width="34.39" height="19.695" rx="2.51062" fill="#99FDC1" fill-opacity="0.24"/>
</g>
<defs>
<filter id="filter0_b_256_2532" x="-280" y="-8" width="560" height="456" filterUnits="userSpaceOnUse" color-interpolation-filters="sRGB">
<feFlood flood-opacity="0" result="BackgroundImageFix"/>
<feGaussianBlur in="BackgroundImageFix" stdDeviation="4"/>
<feComposite in2="SourceAlpha" operator="in" result="effect1_backgroundBlur_256_2532"/>
<feBlend mode="normal" in="SourceGraphic" in2="effect1_backgroundBlur_256_2532" result="shape"/>
</filter>
</defs>
</svg>
