<svg width="554" height="296" viewBox="0 0 554 296" fill="none" xmlns="http://www.w3.org/2000/svg">
<g clip-path="url(#clip0_560_13921)">
<path opacity="0.2" d="M277 103.917C236.426 103.917 203.584 136.831 203.584 177.333C203.584 217.836 236.426 250.749 277 250.749C317.574 250.749 350.416 217.907 350.416 177.333C350.416 136.76 317.574 103.917 277 103.917ZM277 236.988C244.016 236.988 217.345 210.247 217.345 177.333C217.345 144.42 244.087 117.679 277 117.679C309.913 117.679 336.655 144.42 336.655 177.333C336.655 210.247 309.984 236.988 277 236.988Z" fill="#F2F2F2"/>
<path opacity="0.6" d="M277 250.749C317.547 250.749 350.416 217.88 350.416 177.333C350.416 136.787 317.547 103.917 277 103.917C236.453 103.917 203.584 136.787 203.584 177.333C203.584 217.88 236.453 250.749 277 250.749Z" stroke="#F2F2F2" stroke-width="0.709333" stroke-miterlimit="10"/>
<path opacity="0.2" d="M277 236.989C309.947 236.989 336.655 210.28 336.655 177.334C336.655 144.387 309.947 117.679 277 117.679C244.054 117.679 217.345 144.387 217.345 177.334C217.345 210.28 244.054 236.989 277 236.989Z" fill="#141212"/>
<path opacity="0.2" d="M234.724 210.459C244.583 222.943 259.834 231.03 277 231.03C294.166 231.03 309.416 223.014 319.276 210.459H234.724Z" fill="#141212"/>
<path opacity="0.2" d="M320.34 145.626C310.551 132.291 294.804 123.637 277 123.637C259.196 123.637 243.448 132.291 233.66 145.626H320.34Z" fill="#141212"/>
<path opacity="0.6" d="M277 236.989C309.947 236.989 336.655 210.28 336.655 177.334C336.655 144.387 309.947 117.679 277 117.679C244.054 117.679 217.345 144.387 217.345 177.334C217.345 210.28 244.054 236.989 277 236.989Z" stroke="#F2F2F2" stroke-width="1.41867" stroke-miterlimit="10"/>
<path d="M277 256.779C280.33 256.779 283.029 254.079 283.029 250.75C283.029 247.42 280.33 244.72 277 244.72C273.67 244.72 270.971 247.42 270.971 250.75C270.971 254.079 273.67 256.779 277 256.779Z" stroke="#F2F2F2" stroke-width="1.064" stroke-miterlimit="10"/>
<path d="M280.263 250.749C280.263 252.523 278.773 254.012 277 254.012C275.226 254.012 273.737 252.523 273.737 250.749C273.737 248.976 275.226 247.486 277 247.486C278.773 247.486 280.263 248.976 280.263 250.749Z" fill="#F2F2F2"/>
<path d="M277 109.947C280.33 109.947 283.029 107.247 283.029 103.918C283.029 100.588 280.33 97.8882 277 97.8882C273.67 97.8882 270.971 100.588 270.971 103.918C270.971 107.247 273.67 109.947 277 109.947Z" stroke="#F2F2F2" stroke-width="1.064" stroke-miterlimit="10"/>
<path d="M277 107.18C278.802 107.18 280.263 105.719 280.263 103.917C280.263 102.115 278.802 100.654 277 100.654C275.198 100.654 273.737 102.115 273.737 103.917C273.737 105.719 275.198 107.18 277 107.18Z" fill="#F2F2F2"/>
<path d="M203.584 183.363C206.914 183.363 209.613 180.663 209.613 177.334C209.613 174.004 206.914 171.304 203.584 171.304C200.254 171.304 197.555 174.004 197.555 177.334C197.555 180.663 200.254 183.363 203.584 183.363Z" stroke="#F2F2F2" stroke-width="1.064" stroke-miterlimit="10"/>
<path d="M203.584 180.596C205.386 180.596 206.847 179.135 206.847 177.333C206.847 175.531 205.386 174.07 203.584 174.07C201.782 174.07 200.321 175.531 200.321 177.333C200.321 179.135 201.782 180.596 203.584 180.596Z" fill="#F2F2F2"/>
<path d="M350.416 183.363C353.746 183.363 356.445 180.663 356.445 177.334C356.445 174.004 353.746 171.304 350.416 171.304C347.086 171.304 344.387 174.004 344.387 177.334C344.387 180.663 347.086 183.363 350.416 183.363Z" stroke="#F2F2F2" stroke-width="1.064" stroke-miterlimit="10"/>
<path d="M353.679 177.333C353.679 179.107 352.189 180.596 350.416 180.596C348.642 180.596 347.153 179.107 347.153 177.333C347.153 175.56 348.642 174.07 350.416 174.07C352.26 174.07 353.679 175.56 353.679 177.333Z" fill="#F2F2F2"/>
<path d="M229.333 233.513C226.992 235.854 223.162 235.854 220.821 233.513C218.48 231.172 218.48 227.342 220.821 225.001C223.162 222.66 226.992 222.66 229.333 225.001C231.674 227.342 231.674 231.172 229.333 233.513Z" stroke="#F2F2F2" stroke-width="1.064" stroke-miterlimit="10"/>
<path d="M225.077 232.52C226.879 232.52 228.34 231.059 228.34 229.257C228.34 227.455 226.879 225.994 225.077 225.994C223.275 225.994 221.814 227.455 221.814 229.257C221.814 231.059 223.275 232.52 225.077 232.52Z" fill="#F2F2F2"/>
<path d="M333.179 129.667C330.838 132.007 327.008 132.007 324.667 129.667C322.326 127.326 322.326 123.495 324.667 121.155C327.008 118.814 330.838 118.814 333.179 121.155C335.591 123.495 335.591 127.326 333.179 129.667Z" stroke="#F2F2F2" stroke-width="1.064" stroke-miterlimit="10"/>
<path d="M331.264 127.681C329.987 128.957 327.93 128.957 326.653 127.681C325.377 126.404 325.377 124.347 326.653 123.07C327.93 121.793 329.987 121.793 331.264 123.07C332.541 124.347 332.541 126.404 331.264 127.681Z" fill="#F2F2F2"/>
<path d="M225.077 131.44C228.407 131.44 231.106 128.741 231.106 125.411C231.106 122.081 228.407 119.381 225.077 119.381C221.747 119.381 219.047 122.081 219.047 125.411C219.047 128.741 221.747 131.44 225.077 131.44Z" stroke="#F2F2F2" stroke-width="1.064" stroke-miterlimit="10"/>
<path d="M227.347 127.681C226.07 128.957 224.013 128.957 222.736 127.681C221.459 126.404 221.459 124.347 222.736 123.07C224.013 121.793 226.07 121.793 227.347 123.07C228.623 124.347 228.623 126.404 227.347 127.681Z" fill="#F2F2F2"/>
<path d="M328.923 235.286C332.253 235.286 334.953 232.587 334.953 229.257C334.953 225.927 332.253 223.228 328.923 223.228C325.593 223.228 322.894 225.927 322.894 229.257C322.894 232.587 325.593 235.286 328.923 235.286Z" stroke="#F2F2F2" stroke-width="1.064" stroke-miterlimit="10"/>
<path d="M328.923 232.52C330.725 232.52 332.186 231.059 332.186 229.257C332.186 227.455 330.725 225.994 328.923 225.994C327.121 225.994 325.66 227.455 325.66 229.257C325.66 231.059 327.121 232.52 328.923 232.52Z" fill="#F2F2F2"/>
<path d="M277 256.779V294.444" stroke="#F2F2F2" stroke-width="1.064" stroke-miterlimit="10" stroke-linecap="round" stroke-linejoin="round"/>
<path d="M282.958 288.415L277 294.444L271.042 288.415" stroke="#F2F2F2" stroke-width="1.064" stroke-miterlimit="10" stroke-linecap="round" stroke-linejoin="round"/>
<path d="M356.445 177.333H381.272" stroke="#F2F2F2" stroke-width="1.064" stroke-miterlimit="10" stroke-linecap="round" stroke-linejoin="round"/>
<path d="M375.313 171.375L381.272 177.333L375.313 183.292" stroke="#F2F2F2" stroke-width="1.064" stroke-miterlimit="10" stroke-linecap="round" stroke-linejoin="round"/>
<path d="M197.555 177.333H172.728" stroke="#F2F2F2" stroke-width="1.064" stroke-miterlimit="10" stroke-linecap="round" stroke-linejoin="round"/>
<path d="M178.686 183.292L172.728 177.333L178.686 171.375" stroke="#F2F2F2" stroke-width="1.064" stroke-miterlimit="10" stroke-linecap="round" stroke-linejoin="round"/>
<path d="M220.821 233.584L196.349 258.056" stroke="#F2F2F2" stroke-width="1.064" stroke-miterlimit="10" stroke-linecap="round" stroke-linejoin="round"/>
<path d="M204.861 258.056H196.349V249.615" stroke="#F2F2F2" stroke-width="1.064" stroke-miterlimit="10" stroke-linecap="round" stroke-linejoin="round"/>
<path d="M333.676 233.584L358.148 258.056" stroke="#F2F2F2" stroke-width="1.064" stroke-miterlimit="10" stroke-linecap="round" stroke-linejoin="round"/>
<path d="M349.707 258.056H358.148V249.615" stroke="#F2F2F2" stroke-width="1.064" stroke-miterlimit="10" stroke-linecap="round" stroke-linejoin="round"/>
<path d="M277 97.6044V60.0098" stroke="#F2F2F2" stroke-width="1.064" stroke-miterlimit="10" stroke-linecap="round" stroke-linejoin="round"/>
<path d="M271.042 66.0391L277 60.0098L282.958 66.0391" stroke="#F2F2F2" stroke-width="1.064" stroke-miterlimit="10" stroke-linecap="round" stroke-linejoin="round"/>
<path d="M333.676 121.509L358.148 97.0371" stroke="#F2F2F2" stroke-width="1.064" stroke-miterlimit="10" stroke-linecap="round" stroke-linejoin="round"/>
<path d="M349.707 97.0371H358.148V105.549" stroke="#F2F2F2" stroke-width="1.064" stroke-miterlimit="10" stroke-linecap="round" stroke-linejoin="round"/>
<path d="M220.821 120.8L196.349 96.3276" stroke="#F2F2F2" stroke-width="1.064" stroke-miterlimit="10" stroke-linecap="round" stroke-linejoin="round"/>
<path d="M204.861 96.3276H196.349V104.84" stroke="#F2F2F2" stroke-width="1.064" stroke-miterlimit="10" stroke-linecap="round" stroke-linejoin="round"/>
<path d="M238.695 334.194C250.824 329.287 256.679 315.477 251.773 303.347C246.866 291.218 233.056 285.363 220.926 290.269C208.797 295.176 202.942 308.987 207.848 321.116C212.755 333.245 226.565 339.101 238.695 334.194Z" stroke="#F2F2F2" stroke-width="0.743949" stroke-miterlimit="10"/>
<path d="M229.829 331.968C240.72 331.968 249.549 323.14 249.549 312.249C249.549 301.358 240.72 292.529 229.829 292.529C218.939 292.529 210.11 301.358 210.11 312.249C210.11 323.14 218.939 331.968 229.829 331.968Z" fill="#333333"/>
<path opacity="0.6" d="M229.829 331.968C240.72 331.968 249.549 323.14 249.549 312.249C249.549 301.358 240.72 292.529 229.829 292.529C218.939 292.529 210.11 301.358 210.11 312.249C210.11 323.14 218.939 331.968 229.829 331.968Z" stroke="#F2F2F2" stroke-width="0.709333" stroke-miterlimit="10"/>
<mask id="mask0_560_13921" style="mask-type:luminance" maskUnits="userSpaceOnUse" x="421" y="163" width="103" height="36">
<path d="M517.109 163.501H430.357C433.195 167.403 434.826 172.155 434.826 177.333C434.826 186.555 429.506 194.57 421.774 198.472H517.109C520.797 198.472 523.847 195.421 523.847 191.733V170.24C523.918 166.552 520.868 163.501 517.109 163.501Z" fill="white"/>
</mask>
<g mask="url(#mask0_560_13921)">
<path opacity="0.3" d="M517.109 198.472H416.667C412.979 198.472 409.929 195.421 409.929 191.733V170.24C409.929 166.552 412.979 163.501 416.667 163.501H517.109C520.797 163.501 523.848 166.552 523.848 170.24V191.733C523.919 195.421 520.868 198.472 517.109 198.472Z" fill="#141212"/>
</g>
<mask id="mask1_560_13921" style="mask-type:luminance" maskUnits="userSpaceOnUse" x="421" y="163" width="103" height="36">
<path d="M517.109 163.501H430.357C433.195 167.403 434.826 172.155 434.826 177.333C434.826 186.555 429.506 194.57 421.774 198.472H517.109C520.797 198.472 523.847 195.421 523.847 191.733V170.24C523.918 166.552 520.868 163.501 517.109 163.501Z" fill="white"/>
</mask>
<g mask="url(#mask1_560_13921)">
<g opacity="0.6">
<path d="M517.109 164.211C520.443 164.211 523.138 166.906 523.138 170.24V191.733C523.138 195.067 520.443 197.762 517.109 197.762H416.667C413.334 197.762 410.638 195.067 410.638 191.733V170.24C410.638 166.906 413.334 164.211 416.667 164.211H517.109ZM517.109 163.501H416.667C412.979 163.501 409.929 166.552 409.929 170.24V191.733C409.929 195.421 412.979 198.472 416.667 198.472H517.109C520.797 198.472 523.848 195.421 523.848 191.733V170.24C523.919 166.552 520.868 163.501 517.109 163.501Z" fill="#F2F2F2"/>
</g>
</g>
<path opacity="0.6" d="M434.755 178.043H523.919" stroke="#F2F2F2" stroke-width="0.709333" stroke-miterlimit="10"/>
<path d="M442.771 183.647C442.771 184.356 442.203 184.994 441.423 184.994C440.643 184.994 440.075 184.427 440.075 183.647C440.075 182.937 440.643 182.299 441.423 182.299C442.203 182.299 442.771 182.937 442.771 183.647Z" fill="#F2F2F2"/>
<path d="M442.771 191.662C442.771 192.371 442.203 193.009 441.423 193.009C440.643 193.009 440.075 192.442 440.075 191.662C440.075 190.881 440.643 190.314 441.423 190.314C442.203 190.314 442.771 190.881 442.771 191.662Z" fill="#F2F2F2"/>
<path d="M411.135 201.025C424.219 201.025 434.826 190.418 434.826 177.333C434.826 164.249 424.219 153.642 411.135 153.642C398.05 153.642 387.443 164.249 387.443 177.333C387.443 190.418 398.05 201.025 411.135 201.025Z" stroke="#F2F2F2" stroke-width="0.743949" stroke-miterlimit="10"/>
<path d="M411.135 197.053C422.026 197.053 430.854 188.224 430.854 177.334C430.854 166.443 422.026 157.614 411.135 157.614C400.244 157.614 391.416 166.443 391.416 177.334C391.416 188.224 400.244 197.053 411.135 197.053Z" fill="#333333"/>
<path opacity="0.6" d="M411.135 197.053C422.026 197.053 430.854 188.224 430.854 177.334C430.854 166.443 422.026 157.614 411.135 157.614C400.244 157.614 391.416 166.443 391.416 177.334C391.416 188.224 400.244 197.053 411.135 197.053Z" stroke="#F2F2F2" stroke-width="0.709333" stroke-miterlimit="10"/>
<path d="M399.715 167.971V189.038" stroke="#F2F2F2" stroke-width="0.743949" stroke-miterlimit="10" stroke-linecap="round" stroke-linejoin="round"/>
<path d="M397.87 186.91H424.399" stroke="#F2F2F2" stroke-width="0.743949" stroke-miterlimit="10" stroke-linecap="round" stroke-linejoin="round"/>
<path d="M403.119 184.923V177.475C403.119 176.128 404.112 174.993 405.318 174.993C406.524 174.993 407.517 176.128 407.517 177.475V184.923" stroke="#F2F2F2" stroke-width="0.642018" stroke-miterlimit="10" stroke-linecap="round" stroke-linejoin="round"/>
<path d="M410.071 184.923V173.858C410.071 172.51 411.064 171.375 412.27 171.375C413.476 171.375 414.469 172.51 414.469 173.858V184.923" stroke="#F2F2F2" stroke-width="0.642018" stroke-miterlimit="10" stroke-linecap="round" stroke-linejoin="round"/>
<path d="M417.022 184.924V170.737C417.022 169.389 418.016 168.254 419.221 168.254C420.427 168.254 421.42 169.389 421.42 170.737V184.924" stroke="#F2F2F2" stroke-width="0.642018" stroke-miterlimit="10" stroke-linecap="round" stroke-linejoin="round"/>
<mask id="mask2_560_13921" style="mask-type:luminance" maskUnits="userSpaceOnUse" x="394" y="258" width="67" height="36">
<path d="M453.766 258.056H403.474C406.311 261.957 407.943 266.71 407.943 271.888C407.943 281.109 402.623 289.124 394.891 293.026H453.695C457.383 293.026 460.433 289.976 460.433 286.287V264.794C460.504 261.106 457.454 258.056 453.766 258.056Z" fill="white"/>
</mask>
<g mask="url(#mask2_560_13921)">
<path opacity="0.3" d="M453.766 293.026H389.855C386.166 293.026 383.116 289.976 383.116 286.287V264.794C383.116 261.106 386.166 258.056 389.855 258.056H453.766C457.454 258.056 460.505 261.106 460.505 264.794V286.287C460.505 289.976 457.454 293.026 453.766 293.026Z" fill="#141212"/>
</g>
<mask id="mask3_560_13921" style="mask-type:luminance" maskUnits="userSpaceOnUse" x="394" y="258" width="67" height="36">
<path d="M453.766 258.056H403.474C406.311 261.957 407.943 266.71 407.943 271.888C407.943 281.109 402.623 289.124 394.891 293.026H453.695C457.383 293.026 460.433 289.976 460.433 286.287V264.794C460.504 261.106 457.454 258.056 453.766 258.056Z" fill="white"/>
</mask>
<g mask="url(#mask3_560_13921)">
<g opacity="0.6">
<path d="M453.766 258.765C457.1 258.765 459.795 261.46 459.795 264.794V286.287C459.795 289.621 457.1 292.316 453.766 292.316H389.855C386.521 292.316 383.826 289.621 383.826 286.287V264.794C383.826 261.46 386.521 258.765 389.855 258.765H453.766ZM453.766 258.056H389.855C386.166 258.056 383.116 261.106 383.116 264.794V286.287C383.116 289.976 386.166 293.026 389.855 293.026H453.766C457.454 293.026 460.505 289.976 460.505 286.287V264.794C460.505 261.106 457.454 258.056 453.766 258.056Z" fill="#F2F2F2"/>
</g>
</g>
<path opacity="0.6" d="M407.943 272.597H460.504" stroke="#F2F2F2" stroke-width="0.709333" stroke-miterlimit="10"/>
<path d="M415.887 278.201C415.887 278.91 415.32 279.549 414.54 279.549C413.759 279.549 413.192 278.981 413.192 278.201C413.192 277.491 413.759 276.853 414.54 276.853C415.32 276.853 415.887 277.491 415.887 278.201Z" fill="#F2F2F2"/>
<path d="M415.887 286.216C415.887 286.925 415.32 287.564 414.54 287.564C413.759 287.564 413.192 286.996 413.192 286.216C413.192 285.507 413.759 284.868 414.54 284.868C415.32 284.868 415.887 285.436 415.887 286.216Z" fill="#F2F2F2"/>
<path d="M384.251 295.579C397.336 295.579 407.943 284.972 407.943 271.888C407.943 258.803 397.336 248.196 384.251 248.196C371.167 248.196 360.56 258.803 360.56 271.888C360.56 284.972 371.167 295.579 384.251 295.579Z" stroke="#F2F2F2" stroke-width="0.743949" stroke-miterlimit="10"/>
<path d="M384.251 291.607C395.142 291.607 403.971 282.778 403.971 271.887C403.971 260.997 395.142 252.168 384.251 252.168C373.36 252.168 364.532 260.997 364.532 271.887C364.532 282.778 373.36 291.607 384.251 291.607Z" fill="#333333"/>
<path opacity="0.6" d="M384.251 291.607C395.142 291.607 403.971 282.778 403.971 271.887C403.971 260.997 395.142 252.168 384.251 252.168C373.36 252.168 364.532 260.997 364.532 271.887C364.532 282.778 373.36 291.607 384.251 291.607Z" stroke="#F2F2F2" stroke-width="0.709333" stroke-miterlimit="10"/>
<path d="M388.468 278.624C391.774 274.547 391.15 268.561 387.072 265.254C382.995 261.948 377.009 262.572 373.703 266.65C370.396 270.727 371.021 276.713 375.098 280.019C379.175 283.326 385.161 282.701 388.468 278.624Z" stroke="#F2F2F2" stroke-width="0.743949" stroke-miterlimit="10" stroke-linecap="round" stroke-linejoin="round"/>
<path d="M376.094 264.581H373.682C372.902 264.581 372.263 265.219 372.263 266V269.05C373.043 267.206 374.391 265.645 376.094 264.581Z" stroke="#F2F2F2" stroke-width="0.743949" stroke-miterlimit="10" stroke-linecap="round" stroke-linejoin="round"/>
<path d="M372.263 276.214V279.264C372.263 280.044 372.902 280.683 373.682 280.683H376.094C374.391 279.619 373.043 278.058 372.263 276.214Z" stroke="#F2F2F2" stroke-width="0.743949" stroke-miterlimit="10" stroke-linecap="round" stroke-linejoin="round"/>
<path d="M394.891 264.581H386.024C388.72 266.283 390.564 269.263 390.564 272.667C390.564 276.072 388.72 279.051 386.024 280.754H394.891C395.671 280.754 396.31 280.115 396.31 279.335V266C396.31 265.219 395.671 264.581 394.891 264.581Z" stroke="#F2F2F2" stroke-width="0.743949" stroke-miterlimit="10" stroke-linecap="round" stroke-linejoin="round"/>
<path d="M393.969 264.581V263.73C393.969 262.666 393.047 261.744 391.983 261.744C390.919 261.744 389.997 262.666 389.997 263.73V264.581H393.969Z" stroke="#F2F2F2" stroke-width="0.743949" stroke-miterlimit="10" stroke-linecap="round" stroke-linejoin="round"/>
<path d="M381.059 279.477C384.82 279.477 387.869 276.428 387.869 272.668C387.869 268.907 384.82 265.858 381.059 265.858C377.298 265.858 374.25 268.907 374.25 272.668C374.25 276.428 377.298 279.477 381.059 279.477Z" stroke="#F2F2F2" stroke-width="0.743949" stroke-miterlimit="10" stroke-linecap="round" stroke-linejoin="round"/>
<path d="M393.047 278.626C393.635 278.626 394.111 278.15 394.111 277.562C394.111 276.974 393.635 276.498 393.047 276.498C392.459 276.498 391.983 276.974 391.983 277.562C391.983 278.15 392.459 278.626 393.047 278.626Z" stroke="#F2F2F2" stroke-width="0.743949" stroke-miterlimit="10" stroke-linecap="round" stroke-linejoin="round"/>
<path d="M396.309 274.37H390.351" stroke="#F2F2F2" stroke-width="0.743949" stroke-miterlimit="10" stroke-linecap="round" stroke-linejoin="round"/>
<mask id="mask4_560_13921" style="mask-type:luminance" maskUnits="userSpaceOnUse" x="94" y="258" width="66" height="36">
<path d="M100.872 258.056H151.164C148.327 261.957 146.695 266.71 146.695 271.888C146.695 281.109 152.015 289.124 159.747 293.026H100.943C97.2546 293.026 94.2045 289.976 94.2045 286.287V264.794C94.0626 261.106 97.1127 258.056 100.872 258.056Z" fill="white"/>
</mask>
<g mask="url(#mask4_560_13921)">
<path opacity="0.3" d="M100.872 293.026H164.783C168.472 293.026 171.522 289.976 171.522 286.287V264.794C171.522 261.106 168.472 258.056 164.783 258.056H100.872C97.1837 258.056 94.1335 261.106 94.1335 264.794V286.287C94.0626 289.976 97.1127 293.026 100.872 293.026Z" fill="#141212"/>
</g>
<mask id="mask5_560_13921" style="mask-type:luminance" maskUnits="userSpaceOnUse" x="94" y="258" width="66" height="36">
<path d="M100.872 258.056H151.164C148.327 261.957 146.695 266.71 146.695 271.888C146.695 281.109 152.015 289.124 159.747 293.026H100.943C97.2546 293.026 94.2045 289.976 94.2045 286.287V264.794C94.0626 261.106 97.1127 258.056 100.872 258.056Z" fill="white"/>
</mask>
<g mask="url(#mask5_560_13921)">
<g opacity="0.6">
<path d="M164.783 258.765C168.117 258.765 170.813 261.46 170.813 264.794V286.287C170.813 289.621 168.117 292.316 164.783 292.316H100.872C97.5386 292.316 94.8431 289.621 94.8431 286.287V264.794C94.8431 261.46 97.5386 258.765 100.872 258.765H164.783ZM164.783 258.056H100.872C97.1839 258.056 94.1338 261.106 94.1338 264.794V286.287C94.1338 289.976 97.1839 293.026 100.872 293.026H164.783C168.472 293.026 171.522 289.976 171.522 286.287V264.794C171.522 261.106 168.472 258.056 164.783 258.056Z" fill="#F2F2F2"/>
</g>
</g>
<path opacity="0.6" d="M146.695 272.597H94.0625" stroke="#F2F2F2" stroke-width="0.709333" stroke-miterlimit="10"/>
<path d="M102.149 278.201C102.149 278.91 101.582 279.549 100.801 279.549C100.092 279.549 99.4536 278.981 99.4536 278.201C99.4536 277.491 100.021 276.853 100.801 276.853C101.582 276.853 102.149 277.491 102.149 278.201Z" fill="#F2F2F2"/>
<path d="M102.149 286.216C102.149 286.925 101.582 287.564 100.801 287.564C100.092 287.564 99.4536 286.996 99.4536 286.216C99.4536 285.507 100.021 284.868 100.801 284.868C101.582 284.868 102.149 285.436 102.149 286.216Z" fill="#F2F2F2"/>
<path d="M170.316 295.579C183.401 295.579 194.008 284.972 194.008 271.888C194.008 258.803 183.401 248.196 170.316 248.196C157.232 248.196 146.625 258.803 146.625 271.888C146.625 284.972 157.232 295.579 170.316 295.579Z" stroke="#F2F2F2" stroke-width="0.743949" stroke-miterlimit="10"/>
<path d="M170.316 291.607C181.207 291.607 190.036 282.778 190.036 271.887C190.036 260.997 181.207 252.168 170.316 252.168C159.425 252.168 150.597 260.997 150.597 271.887C150.597 282.778 159.425 291.607 170.316 291.607Z" fill="#333333"/>
<path opacity="0.6" d="M170.316 291.607C181.207 291.607 190.036 282.778 190.036 271.887C190.036 260.997 181.207 252.168 170.316 252.168C159.425 252.168 150.597 260.997 150.597 271.887C150.597 282.778 159.425 291.607 170.316 291.607Z" stroke="#F2F2F2" stroke-width="0.709333" stroke-miterlimit="10"/>
<path d="M170.316 284.868C177.485 284.868 183.297 279.057 183.297 271.888C183.297 264.718 177.485 258.907 170.316 258.907C163.147 258.907 157.335 264.718 157.335 271.888C157.335 279.057 163.147 284.868 170.316 284.868Z" stroke="#F2F2F2" stroke-width="0.743949" stroke-miterlimit="10"/>
<path d="M170.316 284.868C175.174 284.868 179.112 279.057 179.112 271.888C179.112 264.718 175.174 258.907 170.316 258.907C165.458 258.907 161.521 264.718 161.521 271.888C161.521 279.057 165.458 284.868 170.316 284.868Z" stroke="#F2F2F2" stroke-width="0.743949" stroke-miterlimit="10"/>
<path d="M173.579 271.888C173.579 279.052 172.089 284.868 170.316 284.868C168.543 284.868 167.053 279.052 167.053 271.888C167.053 264.723 168.543 258.907 170.316 258.907C172.16 258.907 173.579 264.723 173.579 271.888Z" stroke="#F2F2F2" stroke-width="0.743949" stroke-miterlimit="10"/>
<path d="M157.335 271.888H183.297" stroke="#F2F2F2" stroke-width="0.743949" stroke-miterlimit="10"/>
<mask id="mask6_560_13921" style="mask-type:luminance" maskUnits="userSpaceOnUse" x="394" y="67" width="71" height="36">
<path d="M457.454 67.8125H403.545C406.382 71.7138 408.014 76.4664 408.014 81.6445C408.014 90.8658 402.694 98.8813 394.962 102.783H457.454C461.143 102.783 464.193 99.7325 464.193 96.044V74.5512C464.193 70.7917 461.143 67.8125 457.454 67.8125Z" fill="white"/>
</mask>
<g mask="url(#mask6_560_13921)">
<path opacity="0.3" d="M457.454 102.783H389.855C386.166 102.783 383.116 99.7325 383.116 96.044V74.5512C383.116 70.8626 386.166 67.8125 389.855 67.8125H457.454C461.143 67.8125 464.193 70.8626 464.193 74.5512V96.044C464.193 99.7325 461.143 102.783 457.454 102.783Z" fill="#141212"/>
</g>
<mask id="mask7_560_13921" style="mask-type:luminance" maskUnits="userSpaceOnUse" x="394" y="67" width="71" height="36">
<path d="M457.454 67.8125H403.545C406.382 71.7138 408.014 76.4664 408.014 81.6445C408.014 90.8658 402.694 98.8813 394.962 102.783H457.454C461.143 102.783 464.193 99.7325 464.193 96.044V74.5512C464.193 70.7917 461.143 67.8125 457.454 67.8125Z" fill="white"/>
</mask>
<g mask="url(#mask7_560_13921)">
<g opacity="0.6">
<path d="M457.454 68.5218C460.788 68.5218 463.484 71.2173 463.484 74.5512V96.044C463.484 99.3778 460.788 102.073 457.454 102.073H389.855C386.521 102.073 383.826 99.3778 383.826 96.044V74.5512C383.826 71.2173 386.521 68.5218 389.855 68.5218H457.454ZM457.454 67.8125H389.855C386.166 67.8125 383.116 70.8626 383.116 74.5512V96.044C383.116 99.7325 386.166 102.783 389.855 102.783H457.454C461.143 102.783 464.193 99.7325 464.193 96.044V74.5512C464.193 70.7917 461.143 67.8125 457.454 67.8125Z" fill="#F2F2F2"/>
</g>
</g>
<path opacity="0.6" d="M407.943 82.354H464.193" stroke="#F2F2F2" stroke-width="0.709333" stroke-miterlimit="10"/>
<path d="M414.61 89.3053C415.355 89.3053 415.958 88.7019 415.958 87.9576C415.958 87.2133 415.355 86.6099 414.61 86.6099C413.866 86.6099 413.263 87.2133 413.263 87.9576C413.263 88.7019 413.866 89.3053 414.61 89.3053Z" fill="#F2F2F2"/>
<path d="M414.61 97.2502C415.355 97.2502 415.958 96.6467 415.958 95.9024C415.958 95.1581 415.355 94.5547 414.61 94.5547C413.866 94.5547 413.263 95.1581 413.263 95.9024C413.263 96.6467 413.866 97.2502 414.61 97.2502Z" fill="#F2F2F2"/>
<path d="M407.676 85.3978C409.75 72.4781 400.957 60.3234 388.038 58.2495C375.118 56.1756 362.963 64.9678 360.889 77.8875C358.816 90.8072 367.608 102.962 380.527 105.036C393.447 107.11 405.602 98.3175 407.676 85.3978Z" stroke="#F2F2F2" stroke-width="0.743949" stroke-miterlimit="10"/>
<path d="M384.251 101.364C395.141 101.364 403.97 92.535 403.97 81.6443C403.97 70.7535 395.141 61.9248 384.251 61.9248C373.36 61.9248 364.531 70.7535 364.531 81.6443C364.531 92.535 373.36 101.364 384.251 101.364Z" fill="#333333"/>
<path opacity="0.6" d="M384.251 101.364C395.141 101.364 403.97 92.535 403.97 81.6443C403.97 70.7535 395.141 61.9248 384.251 61.9248C373.36 61.9248 364.531 70.7535 364.531 81.6443C364.531 92.535 373.36 101.364 384.251 101.364Z" stroke="#F2F2F2" stroke-width="0.709333" stroke-miterlimit="10"/>
<path d="M395.139 83.4183C396.107 77.4238 392.032 71.7797 386.037 70.8118C380.043 69.8439 374.399 73.9187 373.431 79.9132C372.463 85.9076 376.538 91.5517 382.532 92.5196C388.527 93.4875 394.171 89.4127 395.139 83.4183Z" stroke="#F2F2F2" stroke-width="0.743949" stroke-miterlimit="10" stroke-linecap="round" stroke-linejoin="round"/>
<path d="M384.251 96.044C392.204 96.044 398.65 89.5972 398.65 81.6446C398.65 73.692 392.204 67.2451 384.251 67.2451C376.298 67.2451 369.852 73.692 369.852 81.6446C369.852 89.5972 376.298 96.044 384.251 96.044Z" stroke="#F2F2F2" stroke-width="0.743949" stroke-miterlimit="10" stroke-linecap="round" stroke-linejoin="round"/>
<path d="M384.251 73.6294V81.6449L389.571 79.5878" stroke="#F2F2F2" stroke-width="0.743949" stroke-miterlimit="10" stroke-linecap="round" stroke-linejoin="round"/>
<mask id="mask8_560_13921" style="mask-type:luminance" maskUnits="userSpaceOnUse" x="94" y="67" width="66" height="36">
<path d="M100.872 67.8125H151.164C148.327 71.7138 146.695 76.4664 146.695 81.6445C146.695 90.8658 152.015 98.8813 159.747 102.783H100.943C97.2546 102.783 94.2045 99.7325 94.2045 96.044V74.5512C94.0626 70.7917 97.1127 67.8125 100.872 67.8125Z" fill="white"/>
</mask>
<g mask="url(#mask8_560_13921)">
<path opacity="0.3" d="M100.872 102.783H164.783C168.472 102.783 171.522 99.7325 171.522 96.044V74.5512C171.522 70.8626 168.472 67.8125 164.783 67.8125H100.872C97.1837 67.8125 94.1335 70.8626 94.1335 74.5512V96.044C94.0626 99.7325 97.1127 102.783 100.872 102.783Z" fill="#141212"/>
</g>
<mask id="mask9_560_13921" style="mask-type:luminance" maskUnits="userSpaceOnUse" x="94" y="67" width="66" height="36">
<path d="M100.872 67.8125H151.164C148.327 71.7138 146.695 76.4664 146.695 81.6445C146.695 90.8658 152.015 98.8813 159.747 102.783H100.943C97.2546 102.783 94.2045 99.7325 94.2045 96.044V74.5512C94.0626 70.7917 97.1127 67.8125 100.872 67.8125Z" fill="white"/>
</mask>
<g mask="url(#mask9_560_13921)">
<g opacity="0.6">
<path d="M164.783 68.5218C168.117 68.5218 170.813 71.2173 170.813 74.5512V96.044C170.813 99.3778 168.117 102.073 164.783 102.073H100.872C97.5386 102.073 94.8431 99.3778 94.8431 96.044V74.5512C94.8431 71.2173 97.5386 68.5218 100.872 68.5218H164.783ZM164.783 67.8125H100.872C97.1839 67.8125 94.1338 70.8626 94.1338 74.5512V96.044C94.1338 99.7325 97.1839 102.783 100.872 102.783H164.783C168.472 102.783 171.522 99.7325 171.522 96.044V74.5512C171.522 70.7917 168.472 67.8125 164.783 67.8125Z" fill="#F2F2F2"/>
</g>
</g>
<path opacity="0.6" d="M146.695 82.354H94.0625" stroke="#F2F2F2" stroke-width="0.709333" stroke-miterlimit="10"/>
<path d="M100.873 89.3053C101.617 89.3053 102.22 88.7019 102.22 87.9576C102.22 87.2133 101.617 86.6099 100.873 86.6099C100.128 86.6099 99.5249 87.2133 99.5249 87.9576C99.5249 88.7019 100.128 89.3053 100.873 89.3053Z" fill="#F2F2F2"/>
<path d="M100.873 97.2502C101.617 97.2502 102.22 96.6467 102.22 95.9024C102.22 95.1581 101.617 94.5547 100.873 94.5547C100.128 94.5547 99.5249 95.1581 99.5249 95.9024C99.5249 96.6467 100.128 97.2502 100.873 97.2502Z" fill="#F2F2F2"/>
<path d="M175.684 104.725C188.428 101.762 196.357 89.0277 193.394 76.2833C190.43 63.539 177.696 55.6101 164.952 58.5738C152.207 61.5374 144.278 74.2713 147.242 87.0157C150.206 99.7601 162.94 107.689 175.684 104.725Z" stroke="#F2F2F2" stroke-width="0.743949" stroke-miterlimit="10"/>
<path d="M170.316 101.364C181.207 101.364 190.036 92.5355 190.036 81.6448C190.036 70.754 181.207 61.9253 170.316 61.9253C159.425 61.9253 150.597 70.754 150.597 81.6448C150.597 92.5355 159.425 101.364 170.316 101.364Z" fill="#333333"/>
<path opacity="0.6" d="M170.316 101.364C181.207 101.364 190.036 92.5355 190.036 81.6448C190.036 70.754 181.207 61.9253 170.316 61.9253C159.425 61.9253 150.597 70.754 150.597 81.6448C150.597 92.5355 159.425 101.364 170.316 101.364Z" stroke="#F2F2F2" stroke-width="0.709333" stroke-miterlimit="10"/>
<path d="M175.849 72.4937C175.849 75.5439 173.366 79.3743 170.316 79.3743C167.266 79.3743 164.783 75.5439 164.783 72.4937C164.783 69.4436 167.266 66.9609 170.316 66.9609C173.366 66.9609 175.849 69.4436 175.849 72.4937Z" stroke="#F2F2F2" stroke-width="0.743949" stroke-miterlimit="10" stroke-linecap="round" stroke-linejoin="round"/>
<path d="M181.098 91.8591C180.956 86.0425 176.203 82.354 170.387 82.354C164.57 82.354 159.818 86.0425 159.676 91.8591H181.098Z" stroke="#F2F2F2" stroke-width="0.743949" stroke-miterlimit="10" stroke-linecap="round" stroke-linejoin="round"/>
<mask id="mask10_560_13921" style="mask-type:luminance" maskUnits="userSpaceOnUse" x="29" y="164" width="103" height="36">
<path d="M36.3939 164.211H123.145C120.308 168.112 118.677 172.865 118.677 178.043C118.677 187.264 123.997 195.28 131.728 199.181H36.3939C32.7054 199.181 29.6553 196.131 29.6553 192.442V170.95C29.6553 167.261 32.7054 164.211 36.3939 164.211Z" fill="white"/>
</mask>
<g mask="url(#mask10_560_13921)">
<path opacity="0.3" d="M36.3939 199.252H136.836C140.524 199.252 143.574 196.202 143.574 192.513V170.95C143.574 167.261 140.524 164.211 136.836 164.211H36.3939C32.7054 164.211 29.6553 167.261 29.6553 170.95V192.442C29.6553 196.202 32.7054 199.252 36.3939 199.252Z" fill="#141212"/>
</g>
<mask id="mask11_560_13921" style="mask-type:luminance" maskUnits="userSpaceOnUse" x="29" y="164" width="103" height="36">
<path d="M36.3939 164.211H123.145C120.308 168.112 118.677 172.865 118.677 178.043C118.677 187.264 123.997 195.28 131.728 199.181H36.3939C32.7054 199.181 29.6553 196.131 29.6553 192.442V170.95C29.6553 167.261 32.7054 164.211 36.3939 164.211Z" fill="white"/>
</mask>
<g mask="url(#mask11_560_13921)">
<g opacity="0.6">
<path d="M136.836 164.92C140.169 164.92 142.865 167.616 142.865 170.95V192.442C142.865 195.776 140.169 198.472 136.836 198.472H36.3939C33.0601 198.472 30.3646 195.776 30.3646 192.442V170.95C30.3646 167.616 33.0601 164.92 36.3939 164.92H136.836ZM136.836 164.211H36.3939C32.7054 164.211 29.6553 167.261 29.6553 170.95V192.442C29.6553 196.131 32.7054 199.181 36.3939 199.181H136.836C140.524 199.181 143.574 196.131 143.574 192.442V170.95C143.574 167.261 140.595 164.211 136.836 164.211Z" fill="#F2F2F2"/>
</g>
</g>
<path opacity="0.6" d="M118.748 178.823H29.6553" stroke="#F2F2F2" stroke-width="0.709333" stroke-miterlimit="10"/>
<path d="M37.7419 184.356C37.7419 185.065 37.1744 185.704 36.3941 185.704C35.6848 185.704 35.0464 185.136 35.0464 184.356C35.0464 183.647 35.6139 183.008 36.3941 183.008C37.1744 183.079 37.7419 183.647 37.7419 184.356Z" fill="#F2F2F2"/>
<path d="M37.7419 192.371C37.7419 193.081 37.1744 193.719 36.3941 193.719C35.6848 193.719 35.0464 193.151 35.0464 192.371C35.0464 191.662 35.6139 191.023 36.3941 191.023C37.1744 191.023 37.7419 191.662 37.7419 192.371Z" fill="#F2F2F2"/>
<path d="M147.678 201.137C160.428 198.197 168.38 185.478 165.44 172.729C162.5 159.979 149.781 152.027 137.031 154.967C124.281 157.907 116.329 170.626 119.269 183.376C122.209 196.125 134.928 204.078 147.678 201.137Z" stroke="#F2F2F2" stroke-width="0.743949" stroke-miterlimit="10"/>
<path d="M145.476 197.531C156.23 195.812 163.556 185.701 161.837 174.946C160.118 164.192 150.007 156.866 139.252 158.585C128.498 160.304 121.172 170.415 122.891 181.17C124.61 191.924 134.721 199.25 145.476 197.531Z" fill="#333333"/>
<path opacity="0.6" d="M145.476 197.531C156.23 195.812 163.556 185.701 161.837 174.946C160.118 164.192 150.007 156.866 139.252 158.585C128.498 160.304 121.172 170.415 122.891 181.17C124.61 191.924 134.721 199.25 145.476 197.531Z" stroke="#F2F2F2" stroke-width="0.709333" stroke-miterlimit="10"/>
<path d="M154.285 178.042C154.285 175.843 153.718 173.857 152.654 172.084L154.995 170.736C153.718 168.537 151.874 166.693 149.675 165.416L148.327 167.757C146.554 166.764 144.567 166.196 142.439 166.196C142.439 166.196 142.439 166.196 142.368 166.196V163.501C139.815 163.501 137.261 164.21 135.062 165.487L136.41 167.828C134.637 168.892 133.147 170.382 132.083 172.155L129.742 170.807C128.466 173.006 127.827 175.489 127.827 178.042H130.523C130.523 180.241 131.09 182.227 132.154 184.001L129.813 185.348C131.09 187.547 132.934 189.392 135.133 190.668L136.481 188.328C138.254 189.321 140.24 189.888 142.368 189.888V192.584C144.922 192.584 147.476 191.874 149.675 190.598L148.327 188.257C150.1 187.193 151.59 185.703 152.654 183.93L154.995 185.278C156.271 183.079 156.91 180.525 156.91 177.971V178.042H154.285Z" stroke="#F2F2F2" stroke-width="0.743949" stroke-miterlimit="10" stroke-linecap="round" stroke-linejoin="round"/>
<path d="M146.908 178.043C146.908 180.525 144.922 182.511 142.439 182.511C139.956 182.511 137.97 180.525 137.97 178.043C137.97 175.56 139.956 173.574 142.439 173.574C144.851 173.574 146.908 175.56 146.908 178.043Z" stroke="#F2F2F2" stroke-width="0.743949" stroke-miterlimit="10" stroke-linecap="round" stroke-linejoin="round"/>
<path d="M149.369 179.202C149.98 175.333 147.339 171.7 143.47 171.089C139.601 170.477 135.968 173.118 135.357 176.988C134.745 180.857 137.386 184.489 141.256 185.101C145.125 185.712 148.757 183.071 149.369 179.202Z" stroke="#F2F2F2" stroke-width="0.743949" stroke-miterlimit="10" stroke-linecap="round" stroke-linejoin="round"/>
<mask id="mask12_560_13921" style="mask-type:luminance" maskUnits="userSpaceOnUse" x="208" y="19" width="103" height="36">
<path d="M215.146 19.6484H301.897C299.06 23.5498 297.429 28.3023 297.429 33.4804C297.429 42.7018 302.749 50.7172 310.48 54.6186H215.146C211.457 54.6186 208.407 51.5684 208.407 47.8799V26.458C208.407 22.6986 211.386 19.6484 215.146 19.6484Z" fill="white"/>
</mask>
<g mask="url(#mask12_560_13921)">
<path opacity="0.3" d="M215.146 54.6899H315.588C319.276 54.6899 322.326 51.6397 322.326 47.9512V26.4584C322.326 22.7699 319.276 19.7197 315.588 19.7197H215.146C211.457 19.7197 208.407 22.7699 208.407 26.4584V47.9512C208.407 51.6397 211.386 54.6899 215.146 54.6899Z" fill="#141212"/>
</g>
<mask id="mask13_560_13921" style="mask-type:luminance" maskUnits="userSpaceOnUse" x="208" y="19" width="103" height="36">
<path d="M215.146 19.6484H301.897C299.06 23.5498 297.429 28.3023 297.429 33.4804C297.429 42.7018 302.749 50.7172 310.48 54.6186H215.146C211.457 54.6186 208.407 51.5684 208.407 47.8799V26.458C208.407 22.6986 211.386 19.6484 215.146 19.6484Z" fill="white"/>
</mask>
<g mask="url(#mask13_560_13921)">
<g opacity="0.6">
<path d="M315.588 20.3578C318.921 20.3578 321.617 23.0532 321.617 26.3871V47.8799C321.617 51.2138 318.921 53.9092 315.588 53.9092H215.146C211.812 53.9092 209.117 51.2138 209.117 47.8799V26.458C209.117 23.1242 211.812 20.4287 215.146 20.4287H315.588M315.588 19.6484H215.146C211.457 19.6484 208.407 22.6986 208.407 26.3871V47.8799C208.407 51.5684 211.457 54.6186 215.146 54.6186H315.588C319.276 54.6186 322.326 51.5684 322.326 47.8799V26.458C322.326 22.6986 319.276 19.6484 315.588 19.6484Z" fill="#F2F2F2"/>
</g>
</g>
<path opacity="0.6" d="M297.499 34.2607H208.407" stroke="#F2F2F2" stroke-width="0.709333" stroke-miterlimit="10"/>
<path d="M216.494 39.7935C216.494 40.5029 215.926 41.1413 215.146 41.1413C214.366 41.1413 213.798 40.5738 213.798 39.7935C213.798 39.0842 214.366 38.4458 215.146 38.4458C215.926 38.4458 216.494 39.0842 216.494 39.7935Z" fill="#F2F2F2"/>
<path d="M216.494 47.8087C216.494 48.518 215.926 49.1564 215.146 49.1564C214.366 49.1564 213.798 48.5889 213.798 47.8087C213.798 47.0993 214.366 46.4609 215.146 46.4609C215.926 46.4609 216.494 47.0993 216.494 47.8087Z" fill="#F2F2F2"/>
<path d="M321.12 57.2433C334.205 57.2433 344.812 46.6362 344.812 33.5516C344.812 20.467 334.205 9.85986 321.12 9.85986C308.036 9.85986 297.429 20.467 297.429 33.5516C297.429 46.6362 308.036 57.2433 321.12 57.2433Z" stroke="#F2F2F2" stroke-width="0.743949" stroke-miterlimit="10"/>
<path d="M321.12 53.271C332.011 53.271 340.84 44.4423 340.84 33.5515C340.84 22.6607 332.011 13.832 321.12 13.832C310.23 13.832 301.401 22.6607 301.401 33.5515C301.401 44.4423 310.23 53.271 321.12 53.271Z" fill="#333333"/>
<path opacity="0.6" d="M321.12 53.271C332.011 53.271 340.84 44.4423 340.84 33.5515C340.84 22.6607 332.011 13.832 321.12 13.832C310.23 13.832 301.401 22.6607 301.401 33.5515C301.401 44.4423 310.23 53.271 321.12 53.271Z" stroke="#F2F2F2" stroke-width="0.709333" stroke-miterlimit="10"/>
<path d="M321.121 19.3647L323.249 20.0741H325.518L327.363 21.4218L329.491 22.1311L330.838 23.9754L332.683 25.3231L333.392 27.4511L334.74 29.2954V31.5653L335.449 33.6933L334.74 35.8213V38.0911L333.392 39.9354L332.683 42.0634L330.838 43.4111L329.491 45.2554L327.363 45.9647L325.518 47.3125H323.249L321.121 48.0218L318.993 47.3125H316.723L314.878 45.9647L312.75 45.2554L311.403 43.4111L309.558 42.0634L308.849 39.9354L307.501 38.0911V35.8213L306.792 33.6933L307.501 31.5653V29.2954L308.849 27.4511L309.558 25.3231L311.403 23.9754L312.75 22.1311L314.878 21.4218L316.723 20.0741H318.993L321.121 19.3647Z" stroke="#F2F2F2" stroke-width="0.743949" stroke-miterlimit="10" stroke-linecap="round" stroke-linejoin="round"/>
<path d="M321.121 44.546C327.193 44.546 332.115 39.6235 332.115 33.5513C332.115 27.4791 327.193 22.5566 321.121 22.5566C315.048 22.5566 310.126 27.4791 310.126 33.5513C310.126 39.6235 315.048 44.546 321.121 44.546Z" stroke="#F2F2F2" stroke-width="0.743949" stroke-miterlimit="10" stroke-linecap="round" stroke-linejoin="round"/>
<path d="M321.121 26.0327L323.32 30.5015L328.285 31.2108L324.667 34.6866L325.519 39.581L321.121 37.2402L316.723 39.581L317.574 34.6866L314.027 31.2108L318.922 30.5015L321.121 26.0327Z" stroke="#F2F2F2" stroke-width="0.743949" stroke-miterlimit="10" stroke-linecap="round" stroke-linejoin="round"/>
</g>
<defs>
<clipPath id="clip0_560_13921">
<rect width="554" height="296" fill="white"/>
</clipPath>
</defs>
</svg>
