<svg width="278" height="455" viewBox="0 0 278 455" fill="none" xmlns="http://www.w3.org/2000/svg">
<g clip-path="url(#clip0_256_2356)">
<rect width="278" height="455" fill="#333333"/>
<g filter="url(#filter0_b_256_2356)">
<g clip-path="url(#clip1_256_2356)">
<g filter="url(#filter1_b_256_2356)">
<rect x="32.5" y="287.5" width="543" height="439" rx="15.5" stroke="#7F7F7F"/>
<rect width="61" height="440" transform="translate(32 287)" fill="#595959" fill-opacity="0.24"/>
<path d="M48 347H77" stroke="#C4C4C4"/>
<path opacity="0.4" d="M68.91 376.206V376.207V381.793C68.91 382.957 68.5641 383.856 67.9566 384.463C67.349 385.071 66.4503 385.417 65.2867 385.417H59.7067C58.5431 385.417 57.6444 385.071 57.0369 384.462C56.4293 383.854 56.0833 382.954 56.0833 381.787V376.207C56.0833 375.043 56.4292 374.144 57.0368 373.537C57.6443 372.929 58.5431 372.583 59.7067 372.583H65.2933C66.457 372.583 67.3556 372.929 67.9623 373.537C68.5689 374.144 68.9132 375.043 68.91 376.206Z" fill="white" fill-opacity="0.36" stroke="url(#paint0_linear_256_2356)" stroke-width="0.5"/>
<g filter="url(#filter2_f_256_2356)">
<path d="M68.7 379.153H66.38C65.7267 379.153 65.1467 379.513 64.8533 380.1L64.2933 381.207C64.16 381.473 63.8933 381.64 63.6 381.64H61.4133C61.2067 381.64 60.9133 381.593 60.72 381.207L60.16 380.107C59.8667 379.527 59.28 379.16 58.6333 379.16H56.3C56.04 379.16 55.8333 379.367 55.8333 379.627V381.8C55.8333 384.22 57.2867 385.667 59.7133 385.667H65.3C67.5867 385.667 68.9933 384.413 69.1667 382.187V379.62C69.1667 379.367 68.96 379.153 68.7 379.153Z" fill="#949494"/>
</g>
<path d="M68.6997 379.152H66.3797C65.7263 379.152 65.1463 379.512 64.853 380.099L64.293 381.206C64.1597 381.472 63.893 381.639 63.5997 381.639H61.413C61.2063 381.639 60.913 381.592 60.7197 381.206L60.1597 380.106C59.8663 379.526 59.2797 379.159 58.633 379.159H56.2997C56.0397 379.159 55.833 379.366 55.833 379.626V381.799C55.833 384.219 57.2863 385.666 59.713 385.666H65.2997C67.5863 385.666 68.993 384.412 69.1663 382.186V379.619C69.1663 379.366 68.9597 379.152 68.6997 379.152Z" fill="#949494"/>
<rect x="54.5" y="411" width="16" height="16" rx="8" fill="white" fill-opacity="0.12"/>
<rect x="54.5" y="451" width="16" height="16" rx="8" fill="white" fill-opacity="0.12"/>
<rect x="109" y="339" width="451" height="316" rx="6" fill="url(#paint1_linear_256_2356)" fill-opacity="0.12"/>
<mask id="path-11-inside-1_256_2356" fill="white">
<path d="M125 355H544V382H125V355Z"/>
</mask>
<path d="M544 381H125V383H544V381Z" fill="#949494" mask="url(#path-11-inside-1_256_2356)"/>
<mask id="path-13-inside-2_256_2356" fill="white">
<path d="M125 355H210V382H125V355Z"/>
</mask>
<path d="M210 381H125V383H210V381Z" fill="#E9E9E9" mask="url(#path-13-inside-2_256_2356)"/>
<path d="M142.25 374.333H145.75C148.667 374.333 149.833 373.167 149.833 370.25V366.75C149.833 363.833 148.667 362.667 145.75 362.667H142.25C139.333 362.667 138.167 363.833 138.167 366.75V370.25C138.167 373.167 139.333 374.333 142.25 374.333Z" stroke="#E9E9E9" stroke-linecap="round" stroke-linejoin="round"/>
<path d="M138.167 369.083H140.36C140.803 369.083 141.206 369.334 141.404 369.731L141.923 370.775C142.25 371.417 142.833 371.417 142.973 371.417H145.033C145.476 371.417 145.878 371.166 146.077 370.769L146.596 369.725C146.794 369.328 147.197 369.078 147.64 369.078H149.822" stroke="#E9E9E9" stroke-linecap="round" stroke-linejoin="round"/>
<path d="M156.276 373V364.273H157.332V372.062H161.389V373H156.276ZM165.548 373.136C164.957 373.136 164.439 372.996 163.993 372.714C163.55 372.433 163.203 372.04 162.953 371.534C162.706 371.028 162.582 370.437 162.582 369.761C162.582 369.08 162.706 368.484 162.953 367.976C163.203 367.467 163.55 367.072 163.993 366.791C164.439 366.51 164.957 366.369 165.548 366.369C166.139 366.369 166.656 366.51 167.099 366.791C167.545 367.072 167.892 367.467 168.139 367.976C168.389 368.484 168.514 369.08 168.514 369.761C168.514 370.437 168.389 371.028 168.139 371.534C167.892 372.04 167.545 372.433 167.099 372.714C166.656 372.996 166.139 373.136 165.548 373.136ZM165.548 372.233C165.997 372.233 166.366 372.118 166.656 371.888C166.946 371.658 167.161 371.355 167.3 370.98C167.439 370.605 167.509 370.199 167.509 369.761C167.509 369.324 167.439 368.916 167.3 368.538C167.161 368.161 166.946 367.855 166.656 367.622C166.366 367.389 165.997 367.273 165.548 367.273C165.099 367.273 164.73 367.389 164.44 367.622C164.151 367.855 163.936 368.161 163.797 368.538C163.658 368.916 163.588 369.324 163.588 369.761C163.588 370.199 163.658 370.605 163.797 370.98C163.936 371.355 164.151 371.658 164.44 371.888C164.73 372.118 165.099 372.233 165.548 372.233ZM170.049 373V366.455H171.021V367.443H171.089C171.208 367.119 171.424 366.857 171.737 366.655C172.049 366.453 172.402 366.352 172.794 366.352C172.868 366.352 172.96 366.354 173.071 366.357C173.181 366.359 173.265 366.364 173.322 366.369V367.392C173.288 367.384 173.21 367.371 173.088 367.354C172.968 367.334 172.842 367.324 172.708 367.324C172.39 367.324 172.106 367.391 171.856 367.524C171.609 367.655 171.413 367.837 171.268 368.07C171.126 368.3 171.055 368.562 171.055 368.858V373H170.049ZM177.059 373.136C176.429 373.136 175.885 372.997 175.427 372.719C174.973 372.438 174.622 372.045 174.375 371.543C174.13 371.037 174.008 370.449 174.008 369.778C174.008 369.108 174.13 368.517 174.375 368.006C174.622 367.491 174.966 367.091 175.406 366.804C175.849 366.514 176.366 366.369 176.957 366.369C177.298 366.369 177.635 366.426 177.967 366.54C178.299 366.653 178.602 366.838 178.875 367.094C179.147 367.347 179.365 367.682 179.527 368.099C179.689 368.517 179.77 369.031 179.77 369.642V370.068H174.724V369.199H178.747C178.747 368.83 178.673 368.5 178.525 368.21C178.38 367.92 178.173 367.692 177.903 367.524C177.636 367.357 177.321 367.273 176.957 367.273C176.556 367.273 176.21 367.372 175.917 367.571C175.627 367.767 175.404 368.023 175.248 368.338C175.092 368.653 175.014 368.991 175.014 369.352V369.932C175.014 370.426 175.099 370.845 175.27 371.189C175.443 371.53 175.683 371.79 175.99 371.969C176.297 372.145 176.653 372.233 177.059 372.233C177.324 372.233 177.562 372.196 177.775 372.122C177.991 372.045 178.177 371.932 178.333 371.781C178.49 371.628 178.61 371.437 178.696 371.21L179.667 371.483C179.565 371.812 179.393 372.102 179.152 372.352C178.91 372.599 178.612 372.793 178.257 372.932C177.902 373.068 177.502 373.136 177.059 373.136ZM185.424 370.324V366.455H186.43V373H185.424V371.892H185.356C185.203 372.224 184.964 372.507 184.64 372.74C184.316 372.97 183.907 373.085 183.413 373.085C183.004 373.085 182.64 372.996 182.322 372.817C182.004 372.635 181.754 372.362 181.572 371.999C181.39 371.632 181.299 371.17 181.299 370.614V366.455H182.305V370.545C182.305 371.023 182.439 371.403 182.706 371.688C182.975 371.972 183.319 372.114 183.737 372.114C183.987 372.114 184.241 372.05 184.5 371.922C184.761 371.794 184.98 371.598 185.156 371.334C185.335 371.07 185.424 370.733 185.424 370.324ZM188.272 373V366.455H189.244V367.477H189.329C189.465 367.128 189.685 366.857 189.989 366.663C190.293 366.467 190.658 366.369 191.085 366.369C191.516 366.369 191.876 366.467 192.163 366.663C192.452 366.857 192.678 367.128 192.84 367.477H192.908C193.076 367.139 193.327 366.871 193.663 366.672C193.998 366.47 194.4 366.369 194.869 366.369C195.454 366.369 195.933 366.553 196.305 366.919C196.677 367.283 196.863 367.849 196.863 368.619V373H195.857V368.619C195.857 368.136 195.725 367.791 195.461 367.584C195.197 367.376 194.886 367.273 194.528 367.273C194.067 367.273 193.711 367.412 193.458 367.69C193.205 367.966 193.079 368.315 193.079 368.739V373H192.056V368.517C192.056 368.145 191.935 367.845 191.694 367.618C191.452 367.388 191.141 367.273 190.761 367.273C190.499 367.273 190.255 367.342 190.028 367.482C189.803 367.621 189.621 367.814 189.482 368.061C189.346 368.305 189.278 368.588 189.278 368.909V373H188.272Z" fill="white"/>
<path d="M227.343 367.841C227.285 367.835 227.215 367.835 227.151 367.841C225.763 367.794 224.66 366.657 224.66 365.257C224.66 363.828 225.815 362.667 227.25 362.667C228.679 362.667 229.84 363.828 229.84 365.257C229.834 366.657 228.732 367.794 227.343 367.841Z" stroke="#949494" stroke-linecap="round" stroke-linejoin="round"/>
<path d="M231.573 363.833C232.704 363.833 233.614 364.749 233.614 365.875C233.614 366.977 232.739 367.876 231.648 367.917C231.602 367.911 231.549 367.911 231.497 367.917" stroke="#949494" stroke-linecap="round" stroke-linejoin="round"/>
<path d="M224.427 369.993C223.015 370.938 223.015 372.478 224.427 373.417C226.031 374.491 228.662 374.491 230.266 373.417C231.677 372.472 231.677 370.932 230.266 369.993C228.667 368.926 226.037 368.926 224.427 369.993Z" stroke="#949494" stroke-linecap="round" stroke-linejoin="round"/>
<path d="M232.698 373.167C233.118 373.079 233.515 372.91 233.842 372.659C234.752 371.977 234.752 370.851 233.842 370.168C233.521 369.923 233.13 369.76 232.716 369.667" stroke="#949494" stroke-linecap="round" stroke-linejoin="round"/>
<path d="M241.276 373V364.273H242.332V372.062H246.389V373H241.276ZM250.548 373.136C249.957 373.136 249.439 372.996 248.993 372.714C248.55 372.433 248.203 372.04 247.953 371.534C247.706 371.028 247.582 370.437 247.582 369.761C247.582 369.08 247.706 368.484 247.953 367.976C248.203 367.467 248.55 367.072 248.993 366.791C249.439 366.51 249.957 366.369 250.548 366.369C251.139 366.369 251.656 366.51 252.099 366.791C252.545 367.072 252.892 367.467 253.139 367.976C253.389 368.484 253.514 369.08 253.514 369.761C253.514 370.437 253.389 371.028 253.139 371.534C252.892 372.04 252.545 372.433 252.099 372.714C251.656 372.996 251.139 373.136 250.548 373.136ZM250.548 372.233C250.997 372.233 251.366 372.118 251.656 371.888C251.946 371.658 252.161 371.355 252.3 370.98C252.439 370.605 252.509 370.199 252.509 369.761C252.509 369.324 252.439 368.916 252.3 368.538C252.161 368.161 251.946 367.855 251.656 367.622C251.366 367.389 250.997 367.273 250.548 367.273C250.099 367.273 249.73 367.389 249.44 367.622C249.151 367.855 248.936 368.161 248.797 368.538C248.658 368.916 248.588 369.324 248.588 369.761C248.588 370.199 248.658 370.605 248.797 370.98C248.936 371.355 249.151 371.658 249.44 371.888C249.73 372.118 250.099 372.233 250.548 372.233ZM255.049 373V366.455H256.021V367.443H256.089C256.208 367.119 256.424 366.857 256.737 366.655C257.049 366.453 257.402 366.352 257.794 366.352C257.868 366.352 257.96 366.354 258.071 366.357C258.181 366.359 258.265 366.364 258.322 366.369V367.392C258.288 367.384 258.21 367.371 258.088 367.354C257.968 367.334 257.842 367.324 257.708 367.324C257.39 367.324 257.106 367.391 256.856 367.524C256.609 367.655 256.413 367.837 256.268 368.07C256.126 368.3 256.055 368.562 256.055 368.858V373H255.049ZM262.059 373.136C261.429 373.136 260.885 372.997 260.427 372.719C259.973 372.438 259.622 372.045 259.375 371.543C259.13 371.037 259.008 370.449 259.008 369.778C259.008 369.108 259.13 368.517 259.375 368.006C259.622 367.491 259.966 367.091 260.406 366.804C260.849 366.514 261.366 366.369 261.957 366.369C262.298 366.369 262.635 366.426 262.967 366.54C263.299 366.653 263.602 366.838 263.875 367.094C264.147 367.347 264.365 367.682 264.527 368.099C264.689 368.517 264.77 369.031 264.77 369.642V370.068H259.724V369.199H263.747C263.747 368.83 263.673 368.5 263.525 368.21C263.38 367.92 263.173 367.692 262.903 367.524C262.636 367.357 262.321 367.273 261.957 367.273C261.556 367.273 261.21 367.372 260.917 367.571C260.627 367.767 260.404 368.023 260.248 368.338C260.092 368.653 260.014 368.991 260.014 369.352V369.932C260.014 370.426 260.099 370.845 260.27 371.189C260.443 371.53 260.683 371.79 260.99 371.969C261.297 372.145 261.653 372.233 262.059 372.233C262.324 372.233 262.562 372.196 262.775 372.122C262.991 372.045 263.177 371.932 263.333 371.781C263.49 371.628 263.61 371.437 263.696 371.21L264.667 371.483C264.565 371.812 264.393 372.102 264.152 372.352C263.91 372.599 263.612 372.793 263.257 372.932C262.902 373.068 262.502 373.136 262.059 373.136ZM270.424 370.324V366.455H271.43V373H270.424V371.892H270.356C270.203 372.224 269.964 372.507 269.64 372.74C269.316 372.97 268.907 373.085 268.413 373.085C268.004 373.085 267.64 372.996 267.322 372.817C267.004 372.635 266.754 372.362 266.572 371.999C266.39 371.632 266.299 371.17 266.299 370.614V366.455H267.305V370.545C267.305 371.023 267.439 371.403 267.706 371.688C267.975 371.972 268.319 372.114 268.737 372.114C268.987 372.114 269.241 372.05 269.5 371.922C269.761 371.794 269.98 371.598 270.156 371.334C270.335 371.07 270.424 370.733 270.424 370.324ZM273.272 373V366.455H274.244V367.477H274.329C274.465 367.128 274.685 366.857 274.989 366.663C275.293 366.467 275.658 366.369 276.085 366.369C276.516 366.369 276.876 366.467 277.163 366.663C277.452 366.857 277.678 367.128 277.84 367.477H277.908C278.076 367.139 278.327 366.871 278.663 366.672C278.998 366.47 279.4 366.369 279.869 366.369C280.454 366.369 280.933 366.553 281.305 366.919C281.677 367.283 281.863 367.849 281.863 368.619V373H280.857V368.619C280.857 368.136 280.725 367.791 280.461 367.584C280.197 367.376 279.886 367.273 279.528 367.273C279.067 367.273 278.711 367.412 278.458 367.69C278.205 367.966 278.079 368.315 278.079 368.739V373H277.056V368.517C277.056 368.145 276.935 367.845 276.694 367.618C276.452 367.388 276.141 367.273 275.761 367.273C275.499 367.273 275.255 367.342 275.028 367.482C274.803 367.621 274.621 367.814 274.482 368.061C274.346 368.305 274.278 368.588 274.278 368.909V373H273.272Z" fill="#949494"/>
<rect x="125.5" y="398.5" width="418" height="51" rx="3.5" stroke="#949494"/>
<g filter="url(#filter3_f_256_2356)">
<rect x="134.333" y="417.333" width="13.3333" height="13.3333" rx="4" fill="#949494"/>
</g>
<rect x="134.333" y="417.333" width="13.3333" height="13.3333" rx="4" fill="#949494"/>
<path d="M138.667 424L140.333 425.667L143.667 422.333" stroke="white" stroke-linecap="round" stroke-linejoin="round"/>
<path d="M169.009 419.047L170.036 421.101C170.176 421.387 170.549 421.661 170.864 421.713L172.725 422.022C173.915 422.221 174.195 423.084 173.337 423.936L171.891 425.382C171.646 425.627 171.512 426.1 171.587 426.438L172.002 428.229C172.328 429.647 171.576 430.195 170.322 429.454L168.577 428.422C168.262 428.235 167.743 428.235 167.422 428.422L165.678 429.454C164.43 430.195 163.672 429.641 163.998 428.229L164.412 426.438C164.488 426.1 164.354 425.627 164.109 425.382L162.662 423.936C161.811 423.084 162.085 422.221 163.275 422.022L165.136 421.713C165.445 421.661 165.818 421.387 165.958 421.101L166.985 419.047C167.545 417.933 168.455 417.933 169.009 419.047Z" stroke="#E9E9E9" stroke-linecap="round" stroke-linejoin="round"/>
<path d="M192.276 420V411.273H193.332V419.062H197.389V420H192.276ZM201.548 420.136C200.957 420.136 200.439 419.996 199.993 419.714C199.55 419.433 199.203 419.04 198.953 418.534C198.706 418.028 198.582 417.437 198.582 416.761C198.582 416.08 198.706 415.484 198.953 414.976C199.203 414.467 199.55 414.072 199.993 413.791C200.439 413.51 200.957 413.369 201.548 413.369C202.139 413.369 202.656 413.51 203.099 413.791C203.545 414.072 203.892 414.467 204.139 414.976C204.389 415.484 204.514 416.08 204.514 416.761C204.514 417.437 204.389 418.028 204.139 418.534C203.892 419.04 203.545 419.433 203.099 419.714C202.656 419.996 202.139 420.136 201.548 420.136ZM201.548 419.233C201.997 419.233 202.366 419.118 202.656 418.888C202.946 418.658 203.161 418.355 203.3 417.98C203.439 417.605 203.509 417.199 203.509 416.761C203.509 416.324 203.439 415.916 203.3 415.538C203.161 415.161 202.946 414.855 202.656 414.622C202.366 414.389 201.997 414.273 201.548 414.273C201.099 414.273 200.73 414.389 200.44 414.622C200.151 414.855 199.936 415.161 199.797 415.538C199.658 415.916 199.588 416.324 199.588 416.761C199.588 417.199 199.658 417.605 199.797 417.98C199.936 418.355 200.151 418.658 200.44 418.888C200.73 419.118 201.099 419.233 201.548 419.233ZM206.049 420V413.455H207.021V414.443H207.089C207.208 414.119 207.424 413.857 207.737 413.655C208.049 413.453 208.402 413.352 208.794 413.352C208.868 413.352 208.96 413.354 209.071 413.357C209.181 413.359 209.265 413.364 209.322 413.369V414.392C209.288 414.384 209.21 414.371 209.088 414.354C208.968 414.334 208.842 414.324 208.708 414.324C208.39 414.324 208.106 414.391 207.856 414.524C207.609 414.655 207.413 414.837 207.268 415.07C207.126 415.3 207.055 415.562 207.055 415.858V420H206.049ZM213.059 420.136C212.429 420.136 211.885 419.997 211.427 419.719C210.973 419.438 210.622 419.045 210.375 418.543C210.13 418.037 210.008 417.449 210.008 416.778C210.008 416.108 210.13 415.517 210.375 415.006C210.622 414.491 210.966 414.091 211.406 413.804C211.849 413.514 212.366 413.369 212.957 413.369C213.298 413.369 213.635 413.426 213.967 413.54C214.299 413.653 214.602 413.838 214.875 414.094C215.147 414.347 215.365 414.682 215.527 415.099C215.689 415.517 215.77 416.031 215.77 416.642V417.068H210.724V416.199H214.747C214.747 415.83 214.673 415.5 214.525 415.21C214.38 414.92 214.173 414.692 213.903 414.524C213.636 414.357 213.321 414.273 212.957 414.273C212.556 414.273 212.21 414.372 211.917 414.571C211.627 414.767 211.404 415.023 211.248 415.338C211.092 415.653 211.014 415.991 211.014 416.352V416.932C211.014 417.426 211.099 417.845 211.27 418.189C211.443 418.53 211.683 418.79 211.99 418.969C212.297 419.145 212.653 419.233 213.059 419.233C213.324 419.233 213.562 419.196 213.775 419.122C213.991 419.045 214.177 418.932 214.333 418.781C214.49 418.628 214.61 418.437 214.696 418.21L215.667 418.483C215.565 418.812 215.393 419.102 215.152 419.352C214.91 419.599 214.612 419.793 214.257 419.932C213.902 420.068 213.502 420.136 213.059 420.136ZM221.424 417.324V413.455H222.43V420H221.424V418.892H221.356C221.203 419.224 220.964 419.507 220.64 419.74C220.316 419.97 219.907 420.085 219.413 420.085C219.004 420.085 218.64 419.996 218.322 419.817C218.004 419.635 217.754 419.362 217.572 418.999C217.39 418.632 217.299 418.17 217.299 417.614V413.455H218.305V417.545C218.305 418.023 218.439 418.403 218.706 418.688C218.975 418.972 219.319 419.114 219.737 419.114C219.987 419.114 220.241 419.05 220.5 418.922C220.761 418.794 220.98 418.598 221.156 418.334C221.335 418.07 221.424 417.733 221.424 417.324ZM224.272 420V413.455H225.244V414.477H225.329C225.465 414.128 225.685 413.857 225.989 413.663C226.293 413.467 226.658 413.369 227.085 413.369C227.516 413.369 227.876 413.467 228.163 413.663C228.452 413.857 228.678 414.128 228.84 414.477H228.908C229.076 414.139 229.327 413.871 229.663 413.672C229.998 413.47 230.4 413.369 230.869 413.369C231.454 413.369 231.933 413.553 232.305 413.919C232.677 414.283 232.863 414.849 232.863 415.619V420H231.857V415.619C231.857 415.136 231.725 414.791 231.461 414.584C231.197 414.376 230.886 414.273 230.528 414.273C230.067 414.273 229.711 414.412 229.458 414.69C229.205 414.966 229.079 415.315 229.079 415.739V420H228.056V415.517C228.056 415.145 227.935 414.845 227.694 414.618C227.452 414.388 227.141 414.273 226.761 414.273C226.499 414.273 226.255 414.342 226.028 414.482C225.803 414.621 225.621 414.814 225.482 415.061C225.346 415.305 225.278 415.588 225.278 415.909V420H224.272Z" fill="white"/>
<path d="M244.734 418.596C244.308 418.596 243.929 418.473 243.598 418.228C243.268 417.977 243.009 417.636 242.822 417.204C242.636 416.767 242.542 416.265 242.542 415.7C242.542 415.135 242.636 414.636 242.822 414.204C243.009 413.767 243.265 413.425 243.59 413.18C243.921 412.929 244.302 412.804 244.734 412.804C245.166 412.804 245.545 412.929 245.87 413.18C246.201 413.425 246.46 413.767 246.646 414.204C246.838 414.636 246.934 415.135 246.934 415.7C246.934 416.265 246.841 416.767 246.654 417.204C246.468 417.636 246.209 417.977 245.878 418.228C245.548 418.473 245.166 418.596 244.734 418.596ZM244.734 417.988C245.033 417.988 245.297 417.889 245.526 417.692C245.761 417.495 245.942 417.225 246.07 416.884C246.204 416.543 246.27 416.148 246.27 415.7C246.27 415.252 246.204 414.857 246.07 414.516C245.942 414.169 245.761 413.9 245.526 413.708C245.297 413.511 245.033 413.412 244.734 413.412C244.436 413.412 244.172 413.511 243.942 413.708C243.713 413.9 243.532 414.169 243.398 414.516C243.27 414.857 243.206 415.252 243.206 415.7C243.206 416.148 243.27 416.543 243.398 416.884C243.532 417.225 243.713 417.495 243.942 417.692C244.177 417.889 244.441 417.988 244.734 417.988ZM249.843 418.596C249.459 418.596 249.137 418.524 248.875 418.38C248.614 418.231 248.406 418.031 248.251 417.78C248.097 417.529 247.985 417.241 247.915 416.916C247.851 416.585 247.819 416.236 247.819 415.868C247.819 415.388 247.867 414.959 247.963 414.58C248.065 414.201 248.209 413.881 248.395 413.62C248.582 413.353 248.809 413.151 249.075 413.012C249.342 412.873 249.643 412.804 249.979 412.804C250.257 412.804 250.531 412.849 250.803 412.94C251.081 413.025 251.326 413.145 251.539 413.3L251.163 413.78C250.993 413.663 250.809 413.572 250.611 413.508C250.414 413.439 250.225 413.404 250.043 413.404C249.499 413.404 249.086 413.633 248.803 414.092C248.521 414.551 248.395 415.247 248.427 416.18L248.283 416.036C248.411 415.711 248.617 415.455 248.899 415.268C249.182 415.076 249.515 414.98 249.899 414.98C250.257 414.98 250.574 415.057 250.851 415.212C251.134 415.367 251.353 415.583 251.507 415.86C251.667 416.132 251.747 416.444 251.747 416.796C251.747 417.143 251.667 417.455 251.507 417.732C251.347 418.004 251.123 418.217 250.835 418.372C250.553 418.521 250.222 418.596 249.843 418.596ZM249.843 418.004C250.083 418.004 250.294 417.953 250.475 417.852C250.662 417.745 250.806 417.601 250.907 417.42C251.014 417.233 251.067 417.02 251.067 416.78C251.067 416.54 251.014 416.329 250.907 416.148C250.806 415.961 250.662 415.817 250.475 415.716C250.294 415.615 250.083 415.564 249.843 415.564C249.609 415.564 249.398 415.615 249.211 415.716C249.025 415.817 248.878 415.961 248.771 416.148C248.665 416.329 248.611 416.54 248.611 416.78C248.611 417.02 248.665 417.233 248.771 417.42C248.878 417.601 249.025 417.745 249.211 417.852C249.398 417.953 249.609 418.004 249.843 418.004ZM252.983 418.612C252.86 418.612 252.753 418.569 252.663 418.484C252.577 418.393 252.535 418.289 252.535 418.172C252.535 418.049 252.577 417.945 252.663 417.86C252.753 417.769 252.86 417.724 252.983 417.724C253.105 417.724 253.209 417.769 253.295 417.86C253.38 417.945 253.423 418.049 253.423 418.172C253.423 418.289 253.38 418.393 253.295 418.484C253.209 418.569 253.105 418.612 252.983 418.612ZM256.127 418.596C255.855 418.596 255.607 418.556 255.383 418.476C255.164 418.391 254.975 418.281 254.815 418.148C254.66 418.015 254.537 417.873 254.447 417.724L255.007 417.412C255.065 417.487 255.137 417.572 255.223 417.668C255.313 417.759 255.428 417.836 255.567 417.9C255.705 417.964 255.876 417.996 256.079 417.996C256.441 417.996 256.732 417.892 256.951 417.684C257.169 417.476 257.279 417.215 257.279 416.9C257.279 416.66 257.212 416.457 257.079 416.292C256.951 416.127 256.764 416.001 256.519 415.916C256.273 415.831 255.98 415.788 255.639 415.788H255.487V415.26H255.623C255.959 415.26 256.268 415.297 256.551 415.372C256.833 415.447 257.079 415.556 257.287 415.7C257.5 415.844 257.663 416.02 257.775 416.228C257.892 416.436 257.951 416.676 257.951 416.948C257.951 417.279 257.868 417.569 257.703 417.82C257.543 418.065 257.324 418.257 257.047 418.396C256.769 418.529 256.463 418.596 256.127 418.596ZM255.487 415.732V415.212H255.639C256.097 415.212 256.46 415.135 256.727 414.98C256.999 414.82 257.135 414.593 257.135 414.3C257.135 414.14 257.092 413.993 257.007 413.86C256.921 413.721 256.796 413.612 256.631 413.532C256.471 413.447 256.284 413.404 256.071 413.404C255.927 413.404 255.791 413.425 255.663 413.468C255.54 413.505 255.425 413.564 255.319 413.644C255.217 413.719 255.124 413.815 255.039 413.932L254.511 413.628C254.612 413.463 254.74 413.319 254.895 413.196C255.055 413.073 255.236 412.977 255.439 412.908C255.641 412.839 255.863 412.804 256.103 412.804C256.428 412.804 256.719 412.868 256.975 412.996C257.236 413.124 257.441 413.3 257.591 413.524C257.74 413.743 257.815 413.991 257.815 414.268C257.815 414.503 257.759 414.711 257.647 414.892C257.535 415.073 257.377 415.228 257.175 415.356C256.977 415.484 256.745 415.58 256.479 415.644C256.217 415.703 255.932 415.732 255.623 415.732H255.487ZM260.622 412.804C261.017 412.804 261.342 412.879 261.598 413.028C261.854 413.172 262.06 413.369 262.214 413.62C262.374 413.871 262.486 414.161 262.55 414.492C262.62 414.817 262.654 415.164 262.654 415.532C262.654 416.012 262.604 416.441 262.502 416.82C262.401 417.199 262.257 417.521 262.07 417.788C261.884 418.049 261.657 418.249 261.39 418.388C261.129 418.527 260.83 418.596 260.494 418.596C260.217 418.596 259.94 418.553 259.662 418.468C259.39 418.377 259.145 418.255 258.926 418.1L259.302 417.62C259.473 417.737 259.657 417.831 259.854 417.9C260.057 417.964 260.249 417.996 260.43 417.996C260.974 417.996 261.388 417.767 261.67 417.308C261.958 416.849 262.084 416.156 262.046 415.228L262.19 415.364C262.062 415.689 261.857 415.948 261.574 416.14C261.292 416.332 260.958 416.428 260.574 416.428C260.212 416.428 259.892 416.351 259.614 416.196C259.337 416.036 259.118 415.82 258.958 415.548C258.804 415.276 258.726 414.961 258.726 414.604C258.726 414.252 258.806 413.943 258.966 413.676C259.126 413.404 259.348 413.191 259.63 413.036C259.918 412.881 260.249 412.804 260.622 412.804ZM260.622 413.396C260.388 413.396 260.177 413.449 259.99 413.556C259.804 413.657 259.657 413.801 259.55 413.988C259.449 414.169 259.398 414.38 259.398 414.62C259.398 414.86 259.449 415.073 259.55 415.26C259.657 415.441 259.804 415.585 259.99 415.692C260.177 415.793 260.388 415.844 260.622 415.844C260.868 415.844 261.081 415.793 261.262 415.692C261.449 415.585 261.593 415.441 261.694 415.26C261.801 415.073 261.854 414.86 261.854 414.62C261.854 414.38 261.801 414.169 261.694 413.988C261.593 413.801 261.449 413.657 261.262 413.556C261.081 413.449 260.868 413.396 260.622 413.396ZM268.338 418.5L268.298 417.844V416.388C268.298 416.073 268.261 415.815 268.186 415.612C268.117 415.404 268.007 415.249 267.858 415.148C267.714 415.041 267.522 414.988 267.282 414.988C267.053 414.988 266.853 415.033 266.682 415.124C266.517 415.215 266.381 415.356 266.274 415.548L265.698 415.316C265.805 415.129 265.933 414.967 266.082 414.828C266.231 414.689 266.405 414.585 266.602 414.516C266.805 414.441 267.034 414.404 267.29 414.404C267.658 414.404 267.965 414.476 268.21 414.62C268.455 414.764 268.639 414.98 268.762 415.268C268.885 415.551 268.943 415.905 268.938 416.332L268.93 418.5H268.338ZM267.138 418.596C266.669 418.596 266.301 418.489 266.034 418.276C265.773 418.057 265.642 417.756 265.642 417.372C265.642 416.967 265.775 416.657 266.042 416.444C266.314 416.225 266.693 416.116 267.178 416.116H268.322V416.652H267.322C266.949 416.652 266.682 416.713 266.522 416.836C266.367 416.959 266.29 417.135 266.29 417.364C266.29 417.572 266.367 417.737 266.522 417.86C266.677 417.977 266.893 418.036 267.17 418.036C267.399 418.036 267.599 417.983 267.77 417.876C267.941 417.769 268.071 417.625 268.162 417.444C268.253 417.257 268.298 417.047 268.298 416.812H268.69C268.69 417.356 268.557 417.791 268.29 418.116C268.023 418.436 267.639 418.596 267.138 418.596ZM270.112 418.5V414.5H270.712L270.752 415.236V418.5H270.112ZM272.92 418.5V416.452L273.56 416.212V418.5H272.92ZM275.736 418.5V416.452L276.376 416.212V418.5H275.736ZM272.92 416.452C272.92 416.057 272.875 415.756 272.784 415.548C272.694 415.34 272.568 415.199 272.408 415.124C272.248 415.044 272.067 415.004 271.864 415.004C271.512 415.004 271.238 415.129 271.04 415.38C270.848 415.625 270.752 415.975 270.752 416.428H270.44C270.44 416.007 270.502 415.644 270.624 415.34C270.747 415.036 270.923 414.804 271.152 414.644C271.387 414.484 271.67 414.404 272 414.404C272.486 414.404 272.867 414.553 273.144 414.852C273.427 415.151 273.566 415.604 273.56 416.212L272.92 416.452ZM275.736 416.452C275.736 416.057 275.688 415.756 275.592 415.548C275.502 415.34 275.376 415.199 275.216 415.124C275.056 415.044 274.875 415.004 274.672 415.004C274.32 415.004 274.046 415.129 273.848 415.38C273.656 415.625 273.56 415.975 273.56 416.428H273.248C273.248 416.007 273.31 415.644 273.432 415.34C273.555 415.036 273.734 414.804 273.968 414.644C274.203 414.484 274.486 414.404 274.816 414.404C275.296 414.404 275.675 414.553 275.952 414.852C276.235 415.151 276.376 415.604 276.376 416.212L275.736 416.452Z" fill="#C4C4C4"/>
<path d="M191.93 438V431H192.78V437.23H196.08V438H191.93ZM199.305 438.12C198.819 438.12 198.385 438.01 198.005 437.79C197.632 437.563 197.339 437.253 197.125 436.86C196.912 436.467 196.805 436.013 196.805 435.5C196.805 434.987 196.909 434.533 197.115 434.14C197.329 433.747 197.622 433.44 197.995 433.22C198.375 432.993 198.805 432.88 199.285 432.88C199.779 432.88 200.212 432.993 200.585 433.22C200.965 433.44 201.259 433.747 201.465 434.14C201.679 434.533 201.785 434.987 201.785 435.5C201.785 436.013 201.679 436.467 201.465 436.86C201.259 437.253 200.969 437.563 200.595 437.79C200.222 438.01 199.792 438.12 199.305 438.12ZM199.305 437.38C199.639 437.38 199.929 437.3 200.175 437.14C200.422 436.98 200.615 436.76 200.755 436.48C200.902 436.2 200.975 435.873 200.975 435.5C200.975 435.127 200.902 434.8 200.755 434.52C200.615 434.24 200.419 434.02 200.165 433.86C199.912 433.7 199.619 433.62 199.285 433.62C198.959 433.62 198.669 433.7 198.415 433.86C198.169 434.02 197.972 434.24 197.825 434.52C197.685 434.8 197.615 435.127 197.615 435.5C197.615 435.867 197.685 436.193 197.825 436.48C197.972 436.76 198.172 436.98 198.425 437.14C198.685 437.3 198.979 437.38 199.305 437.38ZM203.536 435.29C203.536 434.75 203.639 434.313 203.846 433.98C204.053 433.64 204.316 433.39 204.636 433.23C204.963 433.063 205.306 432.98 205.666 432.98V433.73C205.373 433.73 205.089 433.78 204.816 433.88C204.549 433.973 204.329 434.13 204.156 434.35C203.983 434.57 203.896 434.87 203.896 435.25L203.536 435.29ZM203.096 438V433H203.896V438H203.096ZM208.865 438.12C208.378 438.12 207.948 438.01 207.575 437.79C207.202 437.563 206.908 437.253 206.695 436.86C206.488 436.467 206.385 436.013 206.385 435.5C206.385 434.987 206.488 434.533 206.695 434.14C206.908 433.747 207.198 433.44 207.565 433.22C207.938 432.993 208.365 432.88 208.845 432.88C209.312 432.88 209.715 432.997 210.055 433.23C210.395 433.457 210.658 433.777 210.845 434.19C211.032 434.603 211.125 435.09 211.125 435.65H206.995L207.195 435.48C207.195 435.88 207.265 436.223 207.405 436.51C207.552 436.797 207.755 437.017 208.015 437.17C208.275 437.317 208.572 437.39 208.905 437.39C209.258 437.39 209.555 437.307 209.795 437.14C210.042 436.973 210.232 436.753 210.365 436.48L211.055 436.83C210.928 437.09 210.758 437.317 210.545 437.51C210.338 437.703 210.092 437.853 209.805 437.96C209.525 438.067 209.212 438.12 208.865 438.12ZM207.245 435.14L207.035 434.98H210.485L210.275 435.15C210.275 434.83 210.212 434.553 210.085 434.32C209.958 434.087 209.788 433.907 209.575 433.78C209.362 433.653 209.115 433.59 208.835 433.59C208.562 433.59 208.302 433.653 208.055 433.78C207.815 433.907 207.618 434.087 207.465 434.32C207.318 434.547 207.245 434.82 207.245 435.14ZM215.764 438L215.714 437.08V433H216.514V438H215.764ZM212.204 435.56V433H213.004V435.56H212.204ZM213.004 435.56C213.004 436.053 213.061 436.43 213.174 436.69C213.287 436.95 213.444 437.13 213.644 437.23C213.851 437.323 214.081 437.37 214.334 437.37C214.767 437.37 215.104 437.213 215.344 436.9C215.591 436.587 215.714 436.15 215.714 435.59H216.104C216.104 436.117 216.027 436.57 215.874 436.95C215.721 437.33 215.497 437.62 215.204 437.82C214.917 438.02 214.564 438.12 214.144 438.12C213.757 438.12 213.417 438.043 213.124 437.89C212.831 437.73 212.604 437.48 212.444 437.14C212.284 436.793 212.204 436.347 212.204 435.8V435.56H213.004ZM218.11 438V433H218.86L218.9 433.7C219.053 433.433 219.25 433.23 219.49 433.09C219.73 432.95 220.01 432.88 220.33 432.88C220.73 432.88 221.07 432.973 221.35 433.16C221.637 433.347 221.843 433.63 221.97 434.01C222.11 433.643 222.313 433.363 222.58 433.17C222.853 432.977 223.177 432.88 223.55 432.88C224.11 432.88 224.55 433.067 224.87 433.44C225.197 433.813 225.357 434.38 225.35 435.14V438H224.55V435.44C224.55 434.947 224.497 434.57 224.39 434.31C224.29 434.05 224.153 433.873 223.98 433.78C223.807 433.68 223.607 433.63 223.38 433.63C222.987 433.63 222.68 433.787 222.46 434.1C222.24 434.407 222.13 434.843 222.13 435.41V438H221.33V435.44C221.33 434.947 221.277 434.57 221.17 434.31C221.07 434.05 220.93 433.873 220.75 433.78C220.577 433.68 220.377 433.63 220.15 433.63C219.763 433.63 219.46 433.787 219.24 434.1C219.02 434.407 218.91 434.843 218.91 435.41V438H218.11Z" fill="#949494"/>
</g>
<rect y="375" width="414" height="80" fill="url(#paint2_linear_256_2356)"/>
</g>
</g>
</g>
<defs>
<filter id="filter0_b_256_2356" x="-9.18245" y="245.818" width="432.365" height="218.365" filterUnits="userSpaceOnUse" color-interpolation-filters="sRGB">
<feFlood flood-opacity="0" result="BackgroundImageFix"/>
<feGaussianBlur in="BackgroundImageFix" stdDeviation="4.59122"/>
<feComposite in2="SourceAlpha" operator="in" result="effect1_backgroundBlur_256_2356"/>
<feBlend mode="normal" in="SourceGraphic" in2="effect1_backgroundBlur_256_2356" result="shape"/>
</filter>
<filter id="filter1_b_256_2356" x="24" y="279" width="560" height="456" filterUnits="userSpaceOnUse" color-interpolation-filters="sRGB">
<feFlood flood-opacity="0" result="BackgroundImageFix"/>
<feGaussianBlur in="BackgroundImageFix" stdDeviation="4"/>
<feComposite in2="SourceAlpha" operator="in" result="effect1_backgroundBlur_256_2356"/>
<feBlend mode="normal" in="SourceGraphic" in2="effect1_backgroundBlur_256_2356" result="shape"/>
</filter>
<filter id="filter2_f_256_2356" x="51.8333" y="375.153" width="21.3333" height="14.5133" filterUnits="userSpaceOnUse" color-interpolation-filters="sRGB">
<feFlood flood-opacity="0" result="BackgroundImageFix"/>
<feBlend mode="normal" in="SourceGraphic" in2="BackgroundImageFix" result="shape"/>
<feGaussianBlur stdDeviation="2" result="effect1_foregroundBlur_256_2356"/>
</filter>
<filter id="filter3_f_256_2356" x="130.333" y="413.333" width="21.3333" height="21.3333" filterUnits="userSpaceOnUse" color-interpolation-filters="sRGB">
<feFlood flood-opacity="0" result="BackgroundImageFix"/>
<feBlend mode="normal" in="SourceGraphic" in2="BackgroundImageFix" result="shape"/>
<feGaussianBlur stdDeviation="2" result="effect1_foregroundBlur_256_2356"/>
</filter>
<linearGradient id="paint0_linear_256_2356" x1="62.4967" y1="372.333" x2="62.4967" y2="385.667" gradientUnits="userSpaceOnUse">
<stop stop-color="white"/>
<stop offset="0.427083" stop-color="white" stop-opacity="0"/>
</linearGradient>
<linearGradient id="paint1_linear_256_2356" x1="334.5" y1="339" x2="334.5" y2="655" gradientUnits="userSpaceOnUse">
<stop stop-color="white"/>
<stop offset="1" stop-color="white" stop-opacity="0"/>
</linearGradient>
<linearGradient id="paint2_linear_256_2356" x1="207" y1="375" x2="207" y2="455" gradientUnits="userSpaceOnUse">
<stop stop-color="#1F1F1F" stop-opacity="0"/>
<stop offset="0.0001" stop-color="#1F1F1F" stop-opacity="0"/>
<stop offset="1" stop-color="#1F1F1F"/>
</linearGradient>
<clipPath id="clip0_256_2356">
<rect width="278" height="455" fill="white"/>
</clipPath>
<clipPath id="clip1_256_2356">
<rect y="255" width="414" height="200" rx="8" fill="white"/>
</clipPath>
</defs>
</svg>
