<svg width="1440" height="1121" viewBox="0 0 1440 1121" fill="none" xmlns="http://www.w3.org/2000/svg">
<g opacity="0.1">
<path d="M252.993 336.76C256.424 334.149 260.091 331.826 263.692 329.434C271.86 324.698 271.705 324.412 286.669 317.449C294.633 314.068 302.808 311.207 311.142 308.885C319.49 306.608 327.971 304.85 336.536 303.62C345.104 302.42 353.734 301.715 362.383 301.509C373.201 301.276 384.022 301.836 394.757 303.185C422.701 306.538 449.718 315.331 474.282 329.067C503.789 346.012 531.68 369.761 555.739 393.612C604.067 441.507 653.146 503.287 693.155 551.844C715.478 578.814 737.895 605.759 761.531 631.724C785.166 657.689 810.115 682.609 837.161 705.062C880.243 741.136 905.576 751.255 914.729 755.357C916.765 756.262 918.872 756.981 920.95 757.793C931.405 761.808 942.301 764.564 953.407 766.002C957.875 766.304 962.35 766.901 966.827 766.786C967.942 766.811 969.07 766.836 970.187 766.78C973.544 766.704 976.896 766.455 980.228 766.037C1014.73 762.17 1048.07 744.115 1077.52 725.745C1092.41 716.415 1106.84 706.39 1121 696.064C1135.17 685.737 1149.07 675.082 1162.96 664.441C1176.85 653.799 1190.72 643.076 1204.53 632.352C1259.6 589.693 1321.38 545.384 1391.07 545.918C1321.06 544.033 1258.53 587.654 1202.53 629.741L1181.63 645.641L1160.69 661.434C1146.7 671.966 1132.72 682.471 1118.53 692.649C1104.34 702.827 1089.86 712.65 1075.05 721.766C1043.72 740.901 1009.45 758.949 973.247 760.949C962.956 761.418 960.593 760.747 954.099 760.28C951.983 759.977 949.882 759.581 947.78 759.239C945.661 758.947 943.565 758.509 941.507 757.93C937.316 757.016 933.187 755.843 929.142 754.415C926.659 753.701 918.48 750.455 917.15 749.861C905.256 744.709 893.826 738.547 882.986 731.441C868.463 721.895 854.554 711.446 841.342 700.156C814.742 677.61 789.729 653.255 766.481 627.266C743.031 601.426 720.708 574.496 698.385 547.512C659.135 499.86 607.221 435.034 560.248 389.023C535.049 364.515 507.959 341.59 477.189 324.026C446.202 306.564 410.874 297.565 375.528 296.561C371.098 296.355 366.674 296.512 362.252 296.547C353.408 296.831 344.588 297.621 335.835 298.914C327.083 300.264 318.421 302.139 309.895 304.53C293.726 309.544 294.151 309.755 284.929 313.527C269.894 320.663 269.872 321.039 261.497 326.012C247.951 335.116 247.324 336.083 240.286 341.973C228.702 352.841 224.42 357.462 214.089 371.798C193.57 401.265 180.898 434.416 161.004 462.392C133.268 500.958 95.1781 516.34 47.8837 516.064C186.471 519.466 174.761 391.48 252.993 336.76Z" fill="url(#paint0_linear_75_17862)"/>
<path d="M90.8755 476.724C99.8212 473.887 98.1288 474.454 100.095 473.678C111.456 469.174 105.599 471.489 111.993 468.568C115.956 466.829 119.623 464.506 123.405 462.413C125.231 461.258 127.019 460.035 128.86 458.853C130.694 457.698 132.458 456.436 134.144 455.074C137.648 452.531 140.998 449.784 144.178 446.846C145.985 445.354 152.292 439.112 153.477 437.795C162.33 428.282 170.214 417.911 177.012 406.835C194.841 378.073 212.423 345.288 234.478 321.633C240.232 315.363 246.435 309.519 253.036 304.148C258.03 300.191 263.253 296.534 268.68 293.196C270.491 292.108 272.381 291.129 274.232 290.081C333.158 258.111 410.373 256.193 470.278 288.705C485.366 296.695 499.804 305.855 513.46 316.101C527.156 326.336 540.31 337.277 552.867 348.881C565.482 360.464 577.683 372.534 589.608 384.881C657.103 454.839 700.637 514.654 761.039 577.909C784.871 602.884 809.908 626.851 836.987 648.432C840.298 651.193 843.788 653.784 847.264 656.374L857.652 664.171C957.323 736.272 1014.33 721.136 1119.24 650.928C1147.89 631.8 1175.76 611.486 1204.11 592.016C1218.25 582.24 1232.58 572.71 1247.2 563.67C1254.46 559.138 1261.85 554.752 1269.37 550.512C1276.88 546.272 1284.46 542.235 1292.1 538.402C1307.44 530.648 1323.46 524.347 1339.97 519.582C1356.51 514.765 1373.7 512.537 1390.93 512.979C1338.34 510.798 1286.27 533.071 1202.27 589.301C1136.79 633.178 1078.72 677.92 1026.73 696.056C1021.93 697.777 1015.9 699.617 1014.54 700.004C1006.43 702.429 998.145 704.203 989.753 705.309C987.653 705.518 985.554 705.632 983.467 705.801C981.377 706.016 979.274 706.09 977.173 706.023C972.964 706.122 968.752 705.939 964.568 705.473C961.882 705.413 953.407 704.014 952.07 703.702C947.922 702.933 943.817 701.944 939.773 700.74C927.882 697.693 906.24 688.987 882.381 673.632C875.173 669.077 868.16 664.191 861.204 659.144L851.152 651.382C847.729 648.806 844.292 646.257 841.035 643.483C814.451 621.814 789.341 598.4 765.869 573.394C708.005 512.668 662.133 450.436 594.304 380.39C582.285 368.028 570.006 355.835 557.177 344.207C544.392 332.511 531.007 321.488 517.077 311.183C503.126 300.824 488.39 291.568 473.001 283.498C461.439 277.337 449.293 272.34 436.743 268.58C380.231 252.026 319.295 260.275 272.151 286.407C265.902 290.03 269.871 287.404 258.304 295.101C239.875 309.189 227.643 320.835 208.055 350.122C198.69 363.956 184.928 388.723 174.837 405.551C165.263 420.884 161.739 425.24 152.015 436.485C150.856 437.803 144.682 444.102 142.956 445.569C139.051 449.228 134.936 452.659 130.633 455.842C120.662 463.093 109.777 468.995 98.2599 473.395L89.1077 476.456C78.2934 479.332 80.3472 478.827 78.1878 479.249C68.7281 481.314 59.112 482.583 49.4405 483.042C59.6759 482.744 69.8669 481.569 79.9015 479.53C90.5887 476.933 89.3327 477.214 90.8755 476.724Z" fill="url(#paint1_linear_75_17862)"/>
<path d="M370.439 231.382C426.423 227.055 466.932 242.942 511.653 273.06C518.57 277.81 525.371 282.741 532.057 287.853C538.66 293.013 545.262 298.28 551.657 303.757C564.488 314.659 576.919 326.063 589.088 337.77C595.165 343.617 601.16 349.569 607.155 355.494C675.262 425.13 709.463 467.778 763.123 522.444C786.747 546.871 811.64 570.037 837.699 591.848C864.302 613.673 892.607 633.305 924.265 645.985C926.221 646.862 928.263 647.485 930.289 648.243C937.183 650.64 932.605 649.248 942.55 652.212C944.597 652.877 946.68 653.43 948.788 653.869C952.957 655.002 957.199 655.846 961.484 656.397C967.995 657.281 961.783 656.833 974.41 657.653C976.57 657.784 978.737 657.801 980.899 657.703C983.064 657.644 985.226 657.706 987.38 657.539C993.834 657.128 1000.26 656.316 1006.61 655.106C1023.33 651.448 1040.29 647.163 1072.62 630.913C1114.27 609.858 1165.23 575.574 1203.01 551.853C1217.31 542.766 1231.73 533.99 1246.43 525.651C1290.76 500.423 1338.7 477.641 1389.31 480.061C1331.09 476.074 1273.19 505.057 1201.28 549.073C1139.97 586.674 1076.91 630.122 1023.88 645.52C1019.82 646.572 1015.84 647.827 1011.71 648.595C1006.64 649.768 1001.51 650.667 996.348 651.289C995.62 651.38 987.772 652.011 987.045 652.076C984.972 652.218 982.905 652.131 980.834 652.179C978.765 652.24 976.694 652.194 974.629 652.041C970.505 651.855 966.395 651.427 962.322 650.758C955.629 649.587 961.083 650.892 947.115 647.543L938.145 644.83C936.811 644.397 927.893 641.188 926.403 640.537C895.427 627.953 867.67 608.454 841.718 586.952C815.91 565.206 791.241 542.145 767.808 517.859C715.861 464.736 680.345 420.782 611.76 350.881C605.712 344.927 599.677 338.96 593.559 333.086C581.297 321.35 568.775 309.837 555.743 298.89C549.255 293.37 542.546 288.1 535.836 282.898C483.285 242.958 435.099 220.624 370.016 226.226C212.699 240.776 206.447 354.763 144.393 411.926C119.336 435.205 86.5521 446.46 52.5522 450.189C86.901 447.086 119.764 436.505 145.587 413.215C209.754 355.898 215.631 244.281 370.439 231.382Z" fill="url(#paint2_linear_75_17862)"/>
</g>
<defs>
<linearGradient id="paint0_linear_75_17862" x1="1608.61" y1="549.294" x2="-216.701" y2="344.634" gradientUnits="userSpaceOnUse">
<stop stop-color="#635371"/>
<stop offset="0.485507" stop-color="#EDEDF2"/>
<stop offset="0.984375" stop-color="#635371"/>
</linearGradient>
<linearGradient id="paint1_linear_75_17862" x1="1608.49" y1="503.362" x2="-213.129" y2="292.242" gradientUnits="userSpaceOnUse">
<stop stop-color="#635371"/>
<stop offset="0.485507" stop-color="#EDEDF2"/>
<stop offset="0.984375" stop-color="#635371"/>
</linearGradient>
<linearGradient id="paint2_linear_75_17862" x1="1606.36" y1="459.1" x2="-207.364" y2="241.88" gradientUnits="userSpaceOnUse">
<stop stop-color="#635371"/>
<stop offset="0.485507" stop-color="#EDEDF2"/>
<stop offset="0.984375" stop-color="#635371"/>
</linearGradient>
</defs>
</svg>
